<?xml version="1.0" encoding="UTF-8" standalone="no"?><svg xmlns="http://www.w3.org/2000/svg" xmlns:xlink="http://www.w3.org/1999/xlink" clip-rule="evenodd" stroke-miterlimit="10" viewBox="0 0 1024 768"><desc>SVG generated by Keynote</desc><defs></defs><g transform="matrix(1.00, 0.00, -0.00, -1.00, 0.0, 768.0)"><path d="M 0.0 768.0 L 1024.0 768.0 L 1024.0 0.0 L 0.0 0.0 Z M 0.0 768.0 " fill="#FEFFFF"></path><text xml:space="preserve" font-family="Helvetica-Light,Helvetica" font-size="80.0" fill="#000000" transform="matrix(1.00, 0.00, -0.00, -1.00, 201.6, 685.6)">C</text><text xml:space="preserve" font-family="Helvetica-Light,Helvetica" font-size="80.0" fill="#000000" transform="matrix(1.00, 0.00, -0.00, -1.00, 259.3, 685.6)">o</text><text xml:space="preserve" font-family="Helvetica-Light,Helvetica" font-size="80.0" fill="#000000" transform="matrix(1.00, 0.00, -0.00, -1.00, 303.8, 685.6)">n</text><text xml:space="preserve" font-family="Helvetica-Light,Helvetica" font-size="80.0" fill="#000000" transform="matrix(1.00, 0.00, -0.00, -1.00, 348.3, 685.6)">t</text><text xml:space="preserve" font-family="Helvetica-Light,Helvetica" font-size="80.0" fill="#000000" transform="matrix(1.00, 0.00, -0.00, -1.00, 370.5, 685.6)">r</text><text xml:space="preserve" font-family="Helvetica-Light,Helvetica" font-size="80.0" fill="#000000" transform="matrix(1.00, 0.00, -0.00, -1.00, 395.7, 685.6)">o</text><text xml:space="preserve" font-family="Helvetica-Light,Helvetica" font-size="80.0" fill="#000000" transform="matrix(1.00, 0.00, -0.00, -1.00, 440.2, 685.6)">l</text><text xml:space="preserve" font-family="Helvetica-Light,Helvetica" font-size="80.0" fill="#000000" transform="matrix(1.00, 0.00, -0.00, -1.00, 458.0, 685.6)">l</text><text xml:space="preserve" font-family="Helvetica-Light,Helvetica" font-size="80.0" fill="#000000" transform="matrix(1.00, 0.00, -0.00, -1.00, 475.7, 685.6)">e</text><text xml:space="preserve" font-family="Helvetica-Light,Helvetica" font-size="80.0" fill="#000000" transform="matrix(1.00, 0.00, -0.00, -1.00, 520.2, 685.6)">r</text><text xml:space="preserve" font-family="Helvetica-Light,Helvetica" font-size="80.0" fill="#000000" transform="matrix(1.00, 0.00, -0.00, -1.00, 546.8, 685.6)"> </text><text xml:space="preserve" font-family="Helvetica-Light,Helvetica" font-size="80.0" fill="#000000" transform="matrix(1.00, 0.00, -0.00, -1.00, 569.1, 685.6)">D</text><text xml:space="preserve" font-family="Helvetica-Light,Helvetica" font-size="80.0" fill="#000000" transform="matrix(1.00, 0.00, -0.00, -1.00, 626.8, 685.6)">e</text><text xml:space="preserve" font-family="Helvetica-Light,Helvetica" font-size="80.0" fill="#000000" transform="matrix(1.00, 0.00, -0.00, -1.00, 671.3, 685.6)">s</text><text xml:space="preserve" font-family="Helvetica-Light,Helvetica" font-size="80.0" fill="#000000" transform="matrix(1.00, 0.00, -0.00, -1.00, 711.3, 685.6)">i</text><text xml:space="preserve" font-family="Helvetica-Light,Helvetica" font-size="80.0" fill="#000000" transform="matrix(1.00, 0.00, -0.00, -1.00, 729.1, 685.6)">g</text><text xml:space="preserve" font-family="Helvetica-Light,Helvetica" font-size="80.0" fill="#000000" transform="matrix(1.00, 0.00, -0.00, -1.00, 778.0, 685.6)">n</text><text xml:space="preserve" font-family="Helvetica-Light,Helvetica" font-size="32.8" fill="#000000" transform="matrix(1.00, 0.00, -0.00, -1.00, 177.3, 614.4)">S</text><text xml:space="preserve" font-family="Helvetica-Light,Helvetica" font-size="32.8" fill="#000000" transform="matrix(1.00, 0.00, -0.00, -1.00, 197.3, 614.4)">e</text><text xml:space="preserve" font-family="Helvetica-Light,Helvetica" font-size="32.8" fill="#000000" transform="matrix(1.00, 0.00, -0.00, -1.00, 215.5, 614.4)">r</text><text xml:space="preserve" font-family="Helvetica-Light,Helvetica" font-size="32.8" fill="#000000" transform="matrix(1.00, 0.00, -0.00, -1.00, 226.5, 614.4)">v</text><text xml:space="preserve" font-family="Helvetica-Light,Helvetica" font-size="32.8" fill="#000000" transform="matrix(1.00, 0.00, -0.00, -1.00, 242.9, 614.4)">i</text><text xml:space="preserve" font-family="Helvetica-Light,Helvetica" font-size="32.8" fill="#000000" transform="matrix(1.00, 0.00, -0.00, -1.00, 250.1, 614.4)">c</text><text xml:space="preserve" font-family="Helvetica-Light,Helvetica" font-size="32.8" fill="#000000" transform="matrix(1.00, 0.00, -0.00, -1.00, 268.4, 614.4)">e</text><text xml:space="preserve" font-family="Helvetica-Light,Helvetica" font-size="32.8" fill="#000000" transform="matrix(1.00, 0.00, -0.00, -1.00, 286.6, 614.4)"> </text><text xml:space="preserve" font-family="Helvetica-Light,Helvetica" font-size="32.8" fill="#000000" transform="matrix(1.00, 0.00, -0.00, -1.00, 295.7, 614.4)">L</text><text xml:space="preserve" font-family="Helvetica-Light,Helvetica" font-size="32.8" fill="#000000" transform="matrix(1.00, 0.00, -0.00, -1.00, 314.0, 614.4)">o</text><text xml:space="preserve" font-family="Helvetica-Light,Helvetica" font-size="32.8" fill="#000000" transform="matrix(1.00, 0.00, -0.00, -1.00, 332.2, 614.4)">c</text><text xml:space="preserve" font-family="Helvetica-Light,Helvetica" font-size="32.8" fill="#000000" transform="matrix(1.00, 0.00, -0.00, -1.00, 350.5, 614.4)">a</text><text xml:space="preserve" font-family="Helvetica-Light,Helvetica" font-size="32.8" fill="#000000" transform="matrix(1.00, 0.00, -0.00, -1.00, 368.7, 614.4)">t</text><text xml:space="preserve" font-family="Helvetica-Light,Helvetica" font-size="32.8" fill="#000000" transform="matrix(1.00, 0.00, -0.00, -1.00, 377.8, 614.4)">o</text><text xml:space="preserve" font-family="Helvetica-Light,Helvetica" font-size="32.8" fill="#000000" transform="matrix(1.00, 0.00, -0.00, -1.00, 396.0, 614.4)">r</text><text xml:space="preserve" font-family="Helvetica-Light,Helvetica" font-size="32.8" fill="#000000" transform="matrix(1.00, 0.00, -0.00, -1.00, 407.0, 614.4)">s</text><text xml:space="preserve" font-family="Helvetica-Light,Helvetica" font-size="32.8" fill="#000000" transform="matrix(1.00, 0.00, -0.00, -1.00, 423.4, 614.4)"> </text><text xml:space="preserve" font-family="Helvetica-Light,Helvetica" font-size="32.8" fill="#000000" transform="matrix(1.00, 0.00, -0.00, -1.00, 432.5, 614.4)">(</text><text xml:space="preserve" font-family="Helvetica-Light,Helvetica" font-size="32.8" fill="#000000" transform="matrix(1.00, 0.00, -0.00, -1.00, 443.4, 614.4)">S</text><text xml:space="preserve" font-family="Helvetica-Light,Helvetica" font-size="32.8" fill="#000000" transform="matrix(1.00, 0.00, -0.00, -1.00, 463.4, 614.4)">e</text><text xml:space="preserve" font-family="Helvetica-Light,Helvetica" font-size="32.8" fill="#000000" transform="matrix(1.00, 0.00, -0.00, -1.00, 481.7, 614.4)">r</text><text xml:space="preserve" font-family="Helvetica-Light,Helvetica" font-size="32.8" fill="#000000" transform="matrix(1.00, 0.00, -0.00, -1.00, 492.6, 614.4)">v</text><text xml:space="preserve" font-family="Helvetica-Light,Helvetica" font-size="32.8" fill="#000000" transform="matrix(1.00, 0.00, -0.00, -1.00, 509.0, 614.4)">i</text><text xml:space="preserve" font-family="Helvetica-Light,Helvetica" font-size="32.8" fill="#000000" transform="matrix(1.00, 0.00, -0.00, -1.00, 516.3, 614.4)">c</text><text xml:space="preserve" font-family="Helvetica-Light,Helvetica" font-size="32.8" fill="#000000" transform="matrix(1.00, 0.00, -0.00, -1.00, 534.5, 614.4)">e</text><text xml:space="preserve" font-family="Helvetica-Light,Helvetica" font-size="32.8" fill="#000000" transform="matrix(1.00, 0.00, -0.00, -1.00, 552.8, 614.4)">L</text><text xml:space="preserve" font-family="Helvetica-Light,Helvetica" font-size="32.8" fill="#000000" transform="matrix(1.00, 0.00, -0.00, -1.00, 571.0, 614.4)">o</text><text xml:space="preserve" font-family="Helvetica-Light,Helvetica" font-size="32.8" fill="#000000" transform="matrix(1.00, 0.00, -0.00, -1.00, 589.2, 614.4)">c</text><text xml:space="preserve" font-family="Helvetica-Light,Helvetica" font-size="32.8" fill="#000000" transform="matrix(1.00, 0.00, -0.00, -1.00, 607.5, 614.4)">a</text><text xml:space="preserve" font-family="Helvetica-Light,Helvetica" font-size="32.8" fill="#000000" transform="matrix(1.00, 0.00, -0.00, -1.00, 625.7, 614.4)">t</text><text xml:space="preserve" font-family="Helvetica-Light,Helvetica" font-size="32.8" fill="#000000" transform="matrix(1.00, 0.00, -0.00, -1.00, 634.8, 614.4)">o</text><text xml:space="preserve" font-family="Helvetica-Light,Helvetica" font-size="32.8" fill="#000000" transform="matrix(1.00, 0.00, -0.00, -1.00, 653.1, 614.4)">r</text><text xml:space="preserve" font-family="Helvetica-Light,Helvetica" font-size="32.8" fill="#000000" transform="matrix(1.00, 0.00, -0.00, -1.00, 664.0, 614.4)">A</text><text xml:space="preserve" font-family="Helvetica-Light,Helvetica" font-size="32.8" fill="#000000" transform="matrix(1.00, 0.00, -0.00, -1.00, 685.3, 614.4)">w</text><text xml:space="preserve" font-family="Helvetica-Light,Helvetica" font-size="32.8" fill="#000000" transform="matrix(1.00, 0.00, -0.00, -1.00, 709.0, 614.4)">a</text><text xml:space="preserve" font-family="Helvetica-Light,Helvetica" font-size="32.8" fill="#000000" transform="matrix(1.00, 0.00, -0.00, -1.00, 727.2, 614.4)">r</text><text xml:space="preserve" font-family="Helvetica-Light,Helvetica" font-size="32.8" fill="#000000" transform="matrix(1.00, 0.00, -0.00, -1.00, 737.5, 614.4)">e</text><text xml:space="preserve" font-family="Helvetica-Light,Helvetica" font-size="32.8" fill="#000000" transform="matrix(1.00, 0.00, -0.00, -1.00, 755.8, 614.4)">I</text><text xml:space="preserve" font-family="Helvetica-Light,Helvetica" font-size="32.8" fill="#000000" transform="matrix(1.00, 0.00, -0.00, -1.00, 764.9, 614.4)">n</text><text xml:space="preserve" font-family="Helvetica-Light,Helvetica" font-size="32.8" fill="#000000" transform="matrix(1.00, 0.00, -0.00, -1.00, 783.1, 614.4)">t</text><text xml:space="preserve" font-family="Helvetica-Light,Helvetica" font-size="32.8" fill="#000000" transform="matrix(1.00, 0.00, -0.00, -1.00, 792.2, 614.4)">e</text><text xml:space="preserve" font-family="Helvetica-Light,Helvetica" font-size="32.8" fill="#000000" transform="matrix(1.00, 0.00, -0.00, -1.00, 810.5, 614.4)">r</text><text xml:space="preserve" font-family="Helvetica-Light,Helvetica" font-size="32.8" fill="#000000" transform="matrix(1.00, 0.00, -0.00, -1.00, 822.0, 614.4)">f</text><text xml:space="preserve" font-family="Helvetica-Light,Helvetica" font-size="32.8" fill="#000000" transform="matrix(1.00, 0.00, -0.00, -1.00, 831.1, 614.4)">a</text><text xml:space="preserve" font-family="Helvetica-Light,Helvetica" font-size="32.8" fill="#000000" transform="matrix(1.00, 0.00, -0.00, -1.00, 849.3, 614.4)">c</text><text xml:space="preserve" font-family="Helvetica-Light,Helvetica" font-size="32.8" fill="#000000" transform="matrix(1.00, 0.00, -0.00, -1.00, 867.6, 614.4)">e</text><text xml:space="preserve" font-family="Helvetica-Light,Helvetica" font-size="32.8" fill="#000000" transform="matrix(1.00, 0.00, -0.00, -1.00, 885.8, 614.4)">)</text><image xlink:href="3DF33F7C131674DBFCD7E776CA301480.png" width="153.00" height="118.00" transform="matrix(1.00, 0.00, -0.00, -1.00, 430.7, 343.8)" opacity="0.50"></image><g><clipPath id="clip0x608001eadc20"><path d="M 434.0 343.0 L 580.0 343.0 L 580.0 231.0 L 434.0 231.0 Z M 433.7 342.8 "></path></clipPath><g clip-path="url(#clip0x608001eadc20)"><image xlink:href="../../E8B18B26-1A63-4910-AEF5-8D682BE7AC19/assets/C3C0FC898C94653CAF8AD846D6CCD108.png" width="600.00" height="600.00" transform="matrix(0.50, 0.00, -0.00, -0.50, 434.0, 343.0)"></image></g></g><g><clipPath id="clip0x6180028b5660"><path d="M 431.7 231.2 L 582.3 231.2 L 582.3 342.8 L 431.7 342.8 Z M 431.7 231.2 "></path></clipPath><g clip-path="url(#clip0x6180028b5660)"><text xml:space="preserve" font-family="Helvetica-Light,Helvetica" font-size="24.0" fill="#FEFFFE" transform="matrix(1.00, 0.00, -0.00, -1.00, 455.2, 277.3)">C</text><text xml:space="preserve" font-family="Helvetica-Light,Helvetica" font-size="24.0" fill="#FEFFFE" transform="matrix(1.00, 0.00, -0.00, -1.00, 472.5, 277.3)">o</text><text xml:space="preserve" font-family="Helvetica-Light,Helvetica" font-size="24.0" fill="#FEFFFE" transform="matrix(1.00, 0.00, -0.00, -1.00, 485.9, 277.3)">n</text><text xml:space="preserve" font-family="Helvetica-Light,Helvetica" font-size="24.0" fill="#FEFFFE" transform="matrix(1.00, 0.00, -0.00, -1.00, 499.2, 277.3)">t</text><text xml:space="preserve" font-family="Helvetica-Light,Helvetica" font-size="24.0" fill="#FEFFFE" transform="matrix(1.00, 0.00, -0.00, -1.00, 505.9, 277.3)">r</text><text xml:space="preserve" font-family="Helvetica-Light,Helvetica" font-size="24.0" fill="#FEFFFE" transform="matrix(1.00, 0.00, -0.00, -1.00, 513.5, 277.3)">o</text><text xml:space="preserve" font-family="Helvetica-Light,Helvetica" font-size="24.0" fill="#FEFFFE" transform="matrix(1.00, 0.00, -0.00, -1.00, 526.8, 277.3)">l</text><text xml:space="preserve" font-family="Helvetica-Light,Helvetica" font-size="24.0" fill="#FEFFFE" transform="matrix(1.00, 0.00, -0.00, -1.00, 532.1, 277.3)">l</text><text xml:space="preserve" font-family="Helvetica-Light,Helvetica" font-size="24.0" fill="#FEFFFE" transform="matrix(1.00, 0.00, -0.00, -1.00, 537.5, 277.3)">e</text><text xml:space="preserve" font-family="Helvetica-Light,Helvetica" font-size="24.0" fill="#FEFFFE" transform="matrix(1.00, 0.00, -0.00, -1.00, 550.8, 277.3)">r</text></g></g><image xlink:href="7DFD1D522AC2B9018F13D0A758C5AF05.png" width="153.00" height="118.00" transform="matrix(1.00, 0.00, -0.00, -1.00, 659.7, 459.8)" opacity="0.50"></image><g><clipPath id="clip0x610002cb9620"><path d="M 663.0 459.0 L 809.0 459.0 L 809.0 347.0 L 663.0 347.0 Z M 662.7 458.8 "></path></clipPath><g clip-path="url(#clip0x610002cb9620)"><image xlink:href="../../E8B18B26-1A63-4910-AEF5-8D682BE7AC19/assets/C3C0FC898C94653CAF8AD846D6CCD108.png" width="600.00" height="600.00" transform="matrix(0.50, 0.00, -0.00, -0.50, 663.0, 459.0)"></image></g></g><g><clipPath id="clip0x608001eade60"><path d="M 660.7 347.3 L 811.3 347.3 L 811.3 458.8 L 660.7 458.8 Z M 660.7 347.3 "></path></clipPath><g clip-path="url(#clip0x608001eade60)"><text xml:space="preserve" font-family="Helvetica-Light,Helvetica" font-size="24.0" fill="#FEFFFE" transform="matrix(1.00, 0.00, -0.00, -1.00, 694.7, 393.3)">D</text><text xml:space="preserve" font-family="Helvetica-Light,Helvetica" font-size="24.0" fill="#FEFFFE" transform="matrix(1.00, 0.00, -0.00, -1.00, 712.0, 393.3)">o</text><text xml:space="preserve" font-family="Helvetica-Light,Helvetica" font-size="24.0" fill="#FEFFFE" transform="matrix(1.00, 0.00, -0.00, -1.00, 725.3, 393.3)">m</text><text xml:space="preserve" font-family="Helvetica-Light,Helvetica" font-size="24.0" fill="#FEFFFE" transform="matrix(1.00, 0.00, -0.00, -1.00, 745.3, 393.3)">a</text><text xml:space="preserve" font-family="Helvetica-Light,Helvetica" font-size="24.0" fill="#FEFFFE" transform="matrix(1.00, 0.00, -0.00, -1.00, 758.7, 393.3)">i</text><text xml:space="preserve" font-family="Helvetica-Light,Helvetica" font-size="24.0" fill="#FEFFFE" transform="matrix(1.00, 0.00, -0.00, -1.00, 764.0, 393.3)">n</text></g></g><image xlink:href="5582364BC387EC674710ADEA8A3971C7.png" width="153.00" height="118.00" transform="matrix(1.00, 0.00, -0.00, -1.00, 659.7, 234.1)" opacity="0.50"></image><g><clipPath id="clip0x600001eadd40"><path d="M 663.0 233.0 L 809.0 233.0 L 809.0 122.0 L 663.0 122.0 Z M 662.7 233.1 "></path></clipPath><g clip-path="url(#clip0x600001eadd40)"><image xlink:href="../../E8B18B26-1A63-4910-AEF5-8D682BE7AC19/assets/C3C0FC898C94653CAF8AD846D6CCD108.png" width="600.00" height="600.00" transform="matrix(0.50, 0.00, -0.00, -0.50, 663.0, 233.0)"></image></g></g><g><clipPath id="clip0x6180028b6800"><path d="M 660.7 121.6 L 811.3 121.6 L 811.3 233.1 L 660.7 233.1 Z M 660.7 121.6 "></path></clipPath><g clip-path="url(#clip0x6180028b6800)"><text xml:space="preserve" font-family="Helvetica-Light,Helvetica" font-size="24.0" fill="#FEFFFE" transform="matrix(1.00, 0.00, -0.00, -1.00, 710.9, 167.6)">V</text><text xml:space="preserve" font-family="Helvetica-Light,Helvetica" font-size="24.0" fill="#FEFFFE" transform="matrix(1.00, 0.00, -0.00, -1.00, 725.1, 167.6)">i</text><text xml:space="preserve" font-family="Helvetica-Light,Helvetica" font-size="24.0" fill="#FEFFFE" transform="matrix(1.00, 0.00, -0.00, -1.00, 730.4, 167.6)">e</text><text xml:space="preserve" font-family="Helvetica-Light,Helvetica" font-size="24.0" fill="#FEFFFE" transform="matrix(1.00, 0.00, -0.00, -1.00, 743.8, 167.6)">w</text></g></g><image xlink:href="../../26901FC4-0084-4E86-A227-8C5EA1A86098/assets/5582364BC387EC674710ADEA8A3971C7.png" width="153.00" height="118.00" transform="matrix(1.00, 0.00, -0.00, -1.00, 430.7, 149.1)" opacity="0.50"></image><g><clipPath id="clip0x600001eadda0"><path d="M 434.0 148.0 L 580.0 148.0 L 580.0 37.0 L 434.0 37.0 Z M 433.7 148.1 "></path></clipPath><g clip-path="url(#clip0x600001eadda0)"><image xlink:href="../../E8B18B26-1A63-4910-AEF5-8D682BE7AC19/assets/C3C0FC898C94653CAF8AD846D6CCD108.png" width="600.00" height="600.00" transform="matrix(0.50, 0.00, -0.00, -0.50, 434.0, 148.0)"></image></g></g><g><clipPath id="clip0x6180028b6a40"><path d="M 431.7 36.6 L 582.3 36.6 L 582.3 148.1 L 431.7 148.1 Z M 431.7 36.6 "></path></clipPath><g clip-path="url(#clip0x6180028b6a40)"><text xml:space="preserve" font-family="Helvetica-Light,Helvetica" font-size="24.0" fill="#FEFFFE" transform="matrix(1.00, 0.00, -0.00, -1.00, 460.3, 82.6)">V</text><text xml:space="preserve" font-family="Helvetica-Light,Helvetica" font-size="24.0" fill="#FEFFFE" transform="matrix(1.00, 0.00, -0.00, -1.00, 473.7, 82.6)">a</text><text xml:space="preserve" font-family="Helvetica-Light,Helvetica" font-size="24.0" fill="#FEFFFE" transform="matrix(1.00, 0.00, -0.00, -1.00, 487.0, 82.6)">l</text><text xml:space="preserve" font-family="Helvetica-Light,Helvetica" font-size="24.0" fill="#FEFFFE" transform="matrix(1.00, 0.00, -0.00, -1.00, 492.3, 82.6)">i</text><text xml:space="preserve" font-family="Helvetica-Light,Helvetica" font-size="24.0" fill="#FEFFFE" transform="matrix(1.00, 0.00, -0.00, -1.00, 497.7, 82.6)">d</text><text xml:space="preserve" font-family="Helvetica-Light,Helvetica" font-size="24.0" fill="#FEFFFE" transform="matrix(1.00, 0.00, -0.00, -1.00, 512.3, 82.6)">a</text><text xml:space="preserve" font-family="Helvetica-Light,Helvetica" font-size="24.0" fill="#FEFFFE" transform="matrix(1.00, 0.00, -0.00, -1.00, 525.7, 82.6)">t</text><text xml:space="preserve" font-family="Helvetica-Light,Helvetica" font-size="24.0" fill="#FEFFFE" transform="matrix(1.00, 0.00, -0.00, -1.00, 532.3, 82.6)">o</text><text xml:space="preserve" font-family="Helvetica-Light,Helvetica" font-size="24.0" fill="#FEFFFE" transform="matrix(1.00, 0.00, -0.00, -1.00, 545.7, 82.6)">r</text></g></g><image xlink:href="../../26901FC4-0084-4E86-A227-8C5EA1A86098/assets/5582364BC387EC674710ADEA8A3971C7.png" width="153.00" height="118.00" transform="matrix(1.00, 0.00, -0.00, -1.00, 211.7, 236.1)" opacity="0.50"></image><g><clipPath id="clip0x6180028b7040"><path d="M 215.0 235.0 L 361.0 235.0 L 361.0 124.0 L 215.0 124.0 Z M 214.7 235.1 "></path></clipPath><g clip-path="url(#clip0x6180028b7040)"><image xlink:href="../../E8B18B26-1A63-4910-AEF5-8D682BE7AC19/assets/C3C0FC898C94653CAF8AD846D6CCD108.png" width="600.00" height="600.00" transform="matrix(0.50, 0.00, -0.00, -0.50, 215.0, 235.0)"></image></g></g><g><clipPath id="clip0x610002cb9680"><path d="M 212.7 123.6 L 363.3 123.6 L 363.3 235.1 L 212.7 235.1 Z M 212.7 123.6 "></path></clipPath><g clip-path="url(#clip0x610002cb9680)"><text xml:space="preserve" font-family="Helvetica-Light,Helvetica" font-size="24.0" fill="#FEFFFE" transform="matrix(1.00, 0.00, -0.00, -1.00, 236.2, 184.6)">C</text><text xml:space="preserve" font-family="Helvetica-Light,Helvetica" font-size="24.0" fill="#FEFFFE" transform="matrix(1.00, 0.00, -0.00, -1.00, 253.5, 184.6)">o</text><text xml:space="preserve" font-family="Helvetica-Light,Helvetica" font-size="24.0" fill="#FEFFFE" transform="matrix(1.00, 0.00, -0.00, -1.00, 266.9, 184.6)">n</text><text xml:space="preserve" font-family="Helvetica-Light,Helvetica" font-size="24.0" fill="#FEFFFE" transform="matrix(1.00, 0.00, -0.00, -1.00, 280.2, 184.6)">t</text><text xml:space="preserve" font-family="Helvetica-Light,Helvetica" font-size="24.0" fill="#FEFFFE" transform="matrix(1.00, 0.00, -0.00, -1.00, 286.9, 184.6)">r</text><text xml:space="preserve" font-family="Helvetica-Light,Helvetica" font-size="24.0" fill="#FEFFFE" transform="matrix(1.00, 0.00, -0.00, -1.00, 294.5, 184.6)">o</text><text xml:space="preserve" font-family="Helvetica-Light,Helvetica" font-size="24.0" fill="#FEFFFE" transform="matrix(1.00, 0.00, -0.00, -1.00, 307.8, 184.6)">l</text><text xml:space="preserve" font-family="Helvetica-Light,Helvetica" font-size="24.0" fill="#FEFFFE" transform="matrix(1.00, 0.00, -0.00, -1.00, 313.1, 184.6)">l</text><text xml:space="preserve" font-family="Helvetica-Light,Helvetica" font-size="24.0" fill="#FEFFFE" transform="matrix(1.00, 0.00, -0.00, -1.00, 318.5, 184.6)">e</text><text xml:space="preserve" font-family="Helvetica-Light,Helvetica" font-size="24.0" fill="#FEFFFE" transform="matrix(1.00, 0.00, -0.00, -1.00, 331.8, 184.6)">r</text><text xml:space="preserve" font-family="Helvetica-Light,Helvetica" font-size="24.0" fill="#FEFFFE" transform="matrix(1.00, 0.00, -0.00, -1.00, 339.8, 184.6)"> </text><text xml:space="preserve" font-family="Helvetica-Light,Helvetica" font-size="24.0" fill="#FEFFFE" transform="matrix(1.00, 0.00, -0.00, -1.00, 254.7, 155.6)">P</text><text xml:space="preserve" font-family="Helvetica-Light,Helvetica" font-size="24.0" fill="#FEFFFE" transform="matrix(1.00, 0.00, -0.00, -1.00, 269.3, 155.6)">l</text><text xml:space="preserve" font-family="Helvetica-Light,Helvetica" font-size="24.0" fill="#FEFFFE" transform="matrix(1.00, 0.00, -0.00, -1.00, 274.7, 155.6)">u</text><text xml:space="preserve" font-family="Helvetica-Light,Helvetica" font-size="24.0" fill="#FEFFFE" transform="matrix(1.00, 0.00, -0.00, -1.00, 288.0, 155.6)">g</text><text xml:space="preserve" font-family="Helvetica-Light,Helvetica" font-size="24.0" fill="#FEFFFE" transform="matrix(1.00, 0.00, -0.00, -1.00, 302.7, 155.6)">i</text><text xml:space="preserve" font-family="Helvetica-Light,Helvetica" font-size="24.0" fill="#FEFFFE" transform="matrix(1.00, 0.00, -0.00, -1.00, 308.0, 155.6)">n</text></g></g><image xlink:href="../../26901FC4-0084-4E86-A227-8C5EA1A86098/assets/7DFD1D522AC2B9018F13D0A758C5AF05.png" width="153.00" height="118.00" transform="matrix(1.00, 0.00, -0.00, -1.00, 211.7, 459.8)" opacity="0.50"></image><g><clipPath id="clip0x600001eae1c0"><path d="M 215.0 459.0 L 361.0 459.0 L 361.0 347.0 L 215.0 347.0 Z M 214.7 458.8 "></path></clipPath><g clip-path="url(#clip0x600001eae1c0)"><image xlink:href="../../E8B18B26-1A63-4910-AEF5-8D682BE7AC19/assets/C3C0FC898C94653CAF8AD846D6CCD108.png" width="600.00" height="600.00" transform="matrix(0.50, 0.00, -0.00, -0.50, 215.0, 459.0)"></image></g></g><g><clipPath id="clip0x610002cb9f20"><path d="M 212.7 347.3 L 363.3 347.3 L 363.3 458.8 L 212.7 458.8 Z M 212.7 347.3 "></path></clipPath><g clip-path="url(#clip0x610002cb9f20)"><text xml:space="preserve" font-family="Helvetica-Light,Helvetica" font-size="24.0" fill="#FEFFFE" transform="matrix(1.00, 0.00, -0.00, -1.00, 243.3, 393.3)">R</text><text xml:space="preserve" font-family="Helvetica-Light,Helvetica" font-size="24.0" fill="#FEFFFE" transform="matrix(1.00, 0.00, -0.00, -1.00, 259.3, 393.3)">e</text><text xml:space="preserve" font-family="Helvetica-Light,Helvetica" font-size="24.0" fill="#FEFFFE" transform="matrix(1.00, 0.00, -0.00, -1.00, 272.7, 393.3)">q</text><text xml:space="preserve" font-family="Helvetica-Light,Helvetica" font-size="24.0" fill="#FEFFFE" transform="matrix(1.00, 0.00, -0.00, -1.00, 287.3, 393.3)">u</text><text xml:space="preserve" font-family="Helvetica-Light,Helvetica" font-size="24.0" fill="#FEFFFE" transform="matrix(1.00, 0.00, -0.00, -1.00, 300.7, 393.3)">e</text><text xml:space="preserve" font-family="Helvetica-Light,Helvetica" font-size="24.0" fill="#FEFFFE" transform="matrix(1.00, 0.00, -0.00, -1.00, 314.0, 393.3)">s</text><text xml:space="preserve" font-family="Helvetica-Light,Helvetica" font-size="24.0" fill="#FEFFFE" transform="matrix(1.00, 0.00, -0.00, -1.00, 326.0, 393.3)">t</text></g></g><image xlink:href="../../26901FC4-0084-4E86-A227-8C5EA1A86098/assets/7DFD1D522AC2B9018F13D0A758C5AF05.png" width="153.00" height="118.00" transform="matrix(1.00, 0.00, -0.00, -1.00, 435.7, 525.8)" opacity="0.50"></image><g><clipPath id="clip0x608001eae340"><path d="M 439.0 525.0 L 585.0 525.0 L 585.0 413.0 L 439.0 413.0 Z M 438.7 524.8 "></path></clipPath><g clip-path="url(#clip0x608001eae340)"><image xlink:href="../../E8B18B26-1A63-4910-AEF5-8D682BE7AC19/assets/C3C0FC898C94653CAF8AD846D6CCD108.png" width="600.00" height="600.00" transform="matrix(0.50, 0.00, -0.00, -0.50, 439.0, 525.0)"></image></g></g><g><clipPath id="clip0x6180028b7460"><path d="M 436.7 413.3 L 587.3 413.3 L 587.3 524.8 L 436.7 524.8 Z M 436.7 413.3 "></path></clipPath><g clip-path="url(#clip0x6180028b7460)"><text xml:space="preserve" font-family="Helvetica-Light,Helvetica" font-size="24.0" fill="#FEFFFE" transform="matrix(1.00, 0.00, -0.00, -1.00, 458.0, 459.3)">R</text><text xml:space="preserve" font-family="Helvetica-Light,Helvetica" font-size="24.0" fill="#FEFFFE" transform="matrix(1.00, 0.00, -0.00, -1.00, 474.0, 459.3)">e</text><text xml:space="preserve" font-family="Helvetica-Light,Helvetica" font-size="24.0" fill="#FEFFFE" transform="matrix(1.00, 0.00, -0.00, -1.00, 487.3, 459.3)">s</text><text xml:space="preserve" font-family="Helvetica-Light,Helvetica" font-size="24.0" fill="#FEFFFE" transform="matrix(1.00, 0.00, -0.00, -1.00, 499.3, 459.3)">p</text><text xml:space="preserve" font-family="Helvetica-Light,Helvetica" font-size="24.0" fill="#FEFFFE" transform="matrix(1.00, 0.00, -0.00, -1.00, 514.0, 459.3)">o</text><text xml:space="preserve" font-family="Helvetica-Light,Helvetica" font-size="24.0" fill="#FEFFFE" transform="matrix(1.00, 0.00, -0.00, -1.00, 527.3, 459.3)">n</text><text xml:space="preserve" font-family="Helvetica-Light,Helvetica" font-size="24.0" fill="#FEFFFE" transform="matrix(1.00, 0.00, -0.00, -1.00, 540.7, 459.3)">s</text><text xml:space="preserve" font-family="Helvetica-Light,Helvetica" font-size="24.0" fill="#FEFFFE" transform="matrix(1.00, 0.00, -0.00, -1.00, 552.7, 459.3)">e</text></g></g><path d="M 7.7 4.2 L 8.5 4.2 C 29.8 15.5 51.1 27.1 72.4 38.4 " fill="none" stroke="#000000" stroke-width="2.00" transform="matrix(1.00, 0.00, 0.00, -1.00, 361.3, 364.2)"></path><path d="M 372.1 363.8 L 361.4 364.0 L 367.6 355.3 Z M 372.1 363.8 " fill="#000000"></path><path d="M 74.7 35.9 L 73.8 34.9 C 49.2 23.1 24.6 11.8 0.0 0.0 " fill="none" stroke="#000000" stroke-width="2.00" transform="matrix(1.00, 0.00, 0.00, -1.00, 580.3, 251.9)"></path><path d="M 652.0 212.1 L 662.8 212.3 L 656.2 220.8 Z M 652.0 212.1 " fill="#000000"></path><path d="M 74.7 3.9 L 73.9 3.9 C 49.2 16.4 24.6 29.3 0.0 41.8 " fill="none" stroke="#000000" stroke-width="2.00" transform="matrix(1.00, 0.00, 0.00, -1.00, 580.3, 365.9)"></path><path d="M 656.3 357.3 L 662.7 365.9 L 651.9 365.8 Z M 656.3 357.3 " fill="#000000"></path><path d="M 1.5 8.3 L 1.5 9.6 C 0.9 29.9 0.6 50.2 0.0 70.5 " fill="none" stroke="#000000" stroke-width="2.00" transform="matrix(1.00, 0.00, 0.00, -1.00, 508.5, 413.3)"></path><path d="M 514.8 403.9 L 510.2 413.6 L 505.2 404.1 Z M 514.8 403.9 " fill="#000000"></path><path d="M 7.7 32.0 L 8.6 31.0 C 29.9 20.5 51.2 10.5 72.4 0.0 " fill="none" stroke="#000000" stroke-width="2.00" transform="matrix(1.00, 0.00, 0.00, -1.00, 361.3, 251.0)"></path><path d="M 367.8 223.7 L 361.3 215.2 L 372.0 215.1 Z M 367.8 223.7 " fill="#000000"></path><path d="M -0.0 74.3 L -0.0 73.6 C -0.0 49.1 0.0 24.5 0.0 0.0 " fill="none" stroke="#000000" stroke-width="2.00" transform="matrix(1.00, 0.00, 0.00, -1.00, 507.0, 231.3)"></path><path d="M 502.2 158.0 L 507.0 148.4 L 511.8 158.0 Z M 502.2 158.0 " fill="#000000"></path><text xml:space="preserve" font-family="Helvetica-Light,Helvetica" font-size="30.0" fill="#000000" transform="matrix(1.00, 0.00, -0.00, -1.00, 132.1, 555.8)">D</text><text xml:space="preserve" font-family="Helvetica-Light,Helvetica" font-size="30.0" fill="#000000" transform="matrix(1.00, 0.00, -0.00, -1.00, 153.8, 555.8)">e</text><text xml:space="preserve" font-family="Helvetica-Light,Helvetica" font-size="30.0" fill="#000000" transform="matrix(1.00, 0.00, -0.00, -1.00, 170.4, 555.8)">p</text><text xml:space="preserve" font-family="Helvetica-Light,Helvetica" font-size="30.0" fill="#000000" transform="matrix(1.00, 0.00, -0.00, -1.00, 188.8, 555.8)">e</text><text xml:space="preserve" font-family="Helvetica-Light,Helvetica" font-size="30.0" fill="#000000" transform="matrix(1.00, 0.00, -0.00, -1.00, 205.5, 555.8)">n</text><text xml:space="preserve" font-family="Helvetica-Light,Helvetica" font-size="30.0" fill="#000000" transform="matrix(1.00, 0.00, -0.00, -1.00, 222.1, 555.8)">d</text><text xml:space="preserve" font-family="Helvetica-Light,Helvetica" font-size="30.0" fill="#000000" transform="matrix(1.00, 0.00, -0.00, -1.00, 240.5, 555.8)">e</text><text xml:space="preserve" font-family="Helvetica-Light,Helvetica" font-size="30.0" fill="#000000" transform="matrix(1.00, 0.00, -0.00, -1.00, 257.1, 555.8)">n</text><text xml:space="preserve" font-family="Helvetica-Light,Helvetica" font-size="30.0" fill="#000000" transform="matrix(1.00, 0.00, -0.00, -1.00, 273.8, 555.8)">c</text><text xml:space="preserve" font-family="Helvetica-Light,Helvetica" font-size="30.0" fill="#000000" transform="matrix(1.00, 0.00, -0.00, -1.00, 290.5, 555.8)">y</text><text xml:space="preserve" font-family="Helvetica-Light,Helvetica" font-size="30.0" fill="#000000" transform="matrix(1.00, 0.00, -0.00, -1.00, 305.5, 555.8)"> </text><text xml:space="preserve" font-family="Helvetica-Light,Helvetica" font-size="30.0" fill="#000000" transform="matrix(1.00, 0.00, -0.00, -1.00, 313.8, 555.8)">I</text><text xml:space="preserve" font-family="Helvetica-Light,Helvetica" font-size="30.0" fill="#000000" transform="matrix(1.00, 0.00, -0.00, -1.00, 322.2, 555.8)">n</text><text xml:space="preserve" font-family="Helvetica-Light,Helvetica" font-size="30.0" fill="#000000" transform="matrix(1.00, 0.00, -0.00, -1.00, 338.9, 555.8)">j</text><text xml:space="preserve" font-family="Helvetica-Light,Helvetica" font-size="30.0" fill="#000000" transform="matrix(1.00, 0.00, -0.00, -1.00, 345.5, 555.8)">e</text><text xml:space="preserve" font-family="Helvetica-Light,Helvetica" font-size="30.0" fill="#000000" transform="matrix(1.00, 0.00, -0.00, -1.00, 362.2, 555.8)">c</text><text xml:space="preserve" font-family="Helvetica-Light,Helvetica" font-size="30.0" fill="#000000" transform="matrix(1.00, 0.00, -0.00, -1.00, 378.9, 555.8)">t</text><text xml:space="preserve" font-family="Helvetica-Light,Helvetica" font-size="30.0" fill="#000000" transform="matrix(1.00, 0.00, -0.00, -1.00, 387.2, 555.8)">i</text><text xml:space="preserve" font-family="Helvetica-Light,Helvetica" font-size="30.0" fill="#000000" transform="matrix(1.00, 0.00, -0.00, -1.00, 393.9, 555.8)">o</text><text xml:space="preserve" font-family="Helvetica-Light,Helvetica" font-size="30.0" fill="#000000" transform="matrix(1.00, 0.00, -0.00, -1.00, 410.6, 555.8)">n</text><text xml:space="preserve" font-family="Helvetica-Light,Helvetica" font-size="30.0" fill="#000000" transform="matrix(1.00, 0.00, -0.00, -1.00, 427.2, 555.8)"> </text><text xml:space="preserve" font-family="Helvetica-Light,Helvetica" font-size="30.0" fill="#000000" transform="matrix(1.00, 0.00, -0.00, -1.00, 435.6, 555.8)">C</text><text xml:space="preserve" font-family="Helvetica-Light,Helvetica" font-size="30.0" fill="#000000" transform="matrix(1.00, 0.00, -0.00, -1.00, 457.2, 555.8)">o</text><text xml:space="preserve" font-family="Helvetica-Light,Helvetica" font-size="30.0" fill="#000000" transform="matrix(1.00, 0.00, -0.00, -1.00, 473.9, 555.8)">n</text><text xml:space="preserve" font-family="Helvetica-Light,Helvetica" font-size="30.0" fill="#000000" transform="matrix(1.00, 0.00, -0.00, -1.00, 490.6, 555.8)">t</text><text xml:space="preserve" font-family="Helvetica-Light,Helvetica" font-size="30.0" fill="#000000" transform="matrix(1.00, 0.00, -0.00, -1.00, 498.9, 555.8)">a</text><text xml:space="preserve" font-family="Helvetica-Light,Helvetica" font-size="30.0" fill="#000000" transform="matrix(1.00, 0.00, -0.00, -1.00, 515.6, 555.8)">i</text><text xml:space="preserve" font-family="Helvetica-Light,Helvetica" font-size="30.0" fill="#000000" transform="matrix(1.00, 0.00, -0.00, -1.00, 522.3, 555.8)">n</text><text xml:space="preserve" font-family="Helvetica-Light,Helvetica" font-size="30.0" fill="#000000" transform="matrix(1.00, 0.00, -0.00, -1.00, 539.0, 555.8)">e</text><text xml:space="preserve" font-family="Helvetica-Light,Helvetica" font-size="30.0" fill="#000000" transform="matrix(1.00, 0.00, -0.00, -1.00, 555.6, 555.8)">r</text><text xml:space="preserve" font-family="Helvetica-Light,Helvetica" font-size="30.0" fill="#000000" transform="matrix(1.00, 0.00, -0.00, -1.00, 565.6, 555.8)">s</text><text xml:space="preserve" font-family="Helvetica-Light,Helvetica" font-size="30.0" fill="#000000" transform="matrix(1.00, 0.00, -0.00, -1.00, 580.6, 555.8)"> </text><text xml:space="preserve" font-family="Helvetica-Light,Helvetica" font-size="30.0" fill="#000000" transform="matrix(1.00, 0.00, -0.00, -1.00, 589.0, 555.8)">(</text><text xml:space="preserve" font-family="Helvetica-Light,Helvetica" font-size="30.0" fill="#000000" transform="matrix(1.00, 0.00, -0.00, -1.00, 599.0, 555.8)">C</text><text xml:space="preserve" font-family="Helvetica-Light,Helvetica" font-size="30.0" fill="#000000" transform="matrix(1.00, 0.00, -0.00, -1.00, 620.6, 555.8)">o</text><text xml:space="preserve" font-family="Helvetica-Light,Helvetica" font-size="30.0" fill="#000000" transform="matrix(1.00, 0.00, -0.00, -1.00, 637.3, 555.8)">n</text><text xml:space="preserve" font-family="Helvetica-Light,Helvetica" font-size="30.0" fill="#000000" transform="matrix(1.00, 0.00, -0.00, -1.00, 654.0, 555.8)">t</text><text xml:space="preserve" font-family="Helvetica-Light,Helvetica" font-size="30.0" fill="#000000" transform="matrix(1.00, 0.00, -0.00, -1.00, 662.3, 555.8)">a</text><text xml:space="preserve" font-family="Helvetica-Light,Helvetica" font-size="30.0" fill="#000000" transform="matrix(1.00, 0.00, -0.00, -1.00, 679.0, 555.8)">i</text><text xml:space="preserve" font-family="Helvetica-Light,Helvetica" font-size="30.0" fill="#000000" transform="matrix(1.00, 0.00, -0.00, -1.00, 685.7, 555.8)">n</text><text xml:space="preserve" font-family="Helvetica-Light,Helvetica" font-size="30.0" fill="#000000" transform="matrix(1.00, 0.00, -0.00, -1.00, 702.3, 555.8)">e</text><text xml:space="preserve" font-family="Helvetica-Light,Helvetica" font-size="30.0" fill="#000000" transform="matrix(1.00, 0.00, -0.00, -1.00, 719.0, 555.8)">r</text><text xml:space="preserve" font-family="Helvetica-Light,Helvetica" font-size="30.0" fill="#000000" transform="matrix(1.00, 0.00, -0.00, -1.00, 729.0, 555.8)">A</text><text xml:space="preserve" font-family="Helvetica-Light,Helvetica" font-size="30.0" fill="#000000" transform="matrix(1.00, 0.00, -0.00, -1.00, 748.5, 555.8)">w</text><text xml:space="preserve" font-family="Helvetica-Light,Helvetica" font-size="30.0" fill="#000000" transform="matrix(1.00, 0.00, -0.00, -1.00, 770.1, 555.8)">a</text><text xml:space="preserve" font-family="Helvetica-Light,Helvetica" font-size="30.0" fill="#000000" transform="matrix(1.00, 0.00, -0.00, -1.00, 786.8, 555.8)">r</text><text xml:space="preserve" font-family="Helvetica-Light,Helvetica" font-size="30.0" fill="#000000" transform="matrix(1.00, 0.00, -0.00, -1.00, 796.3, 555.8)">e</text><text xml:space="preserve" font-family="Helvetica-Light,Helvetica" font-size="30.0" fill="#000000" transform="matrix(1.00, 0.00, -0.00, -1.00, 813.0, 555.8)">I</text><text xml:space="preserve" font-family="Helvetica-Light,Helvetica" font-size="30.0" fill="#000000" transform="matrix(1.00, 0.00, -0.00, -1.00, 821.3, 555.8)">n</text><text xml:space="preserve" font-family="Helvetica-Light,Helvetica" font-size="30.0" fill="#000000" transform="matrix(1.00, 0.00, -0.00, -1.00, 838.0, 555.8)">t</text><text xml:space="preserve" font-family="Helvetica-Light,Helvetica" font-size="30.0" fill="#000000" transform="matrix(1.00, 0.00, -0.00, -1.00, 846.3, 555.8)">e</text><text xml:space="preserve" font-family="Helvetica-Light,Helvetica" font-size="30.0" fill="#000000" transform="matrix(1.00, 0.00, -0.00, -1.00, 863.0, 555.8)">r</text><text xml:space="preserve" font-family="Helvetica-Light,Helvetica" font-size="30.0" fill="#000000" transform="matrix(1.00, 0.00, -0.00, -1.00, 873.5, 555.8)">f</text><text xml:space="preserve" font-family="Helvetica-Light,Helvetica" font-size="30.0" fill="#000000" transform="matrix(1.00, 0.00, -0.00, -1.00, 881.9, 555.8)">a</text><text xml:space="preserve" font-family="Helvetica-Light,Helvetica" font-size="30.0" fill="#000000" transform="matrix(1.00, 0.00, -0.00, -1.00, 898.5, 555.8)">c</text><text xml:space="preserve" font-family="Helvetica-Light,Helvetica" font-size="30.0" fill="#000000" transform="matrix(1.00, 0.00, -0.00, -1.00, 915.2, 555.8)">e</text><text xml:space="preserve" font-family="Helvetica-Light,Helvetica" font-size="30.0" fill="#000000" transform="matrix(1.00, 0.00, -0.00, -1.00, 931.9, 555.8)">)</text></g></svg>