<?xml version="1.0" encoding="UTF-8" standalone="no"?><svg xmlns="http://www.w3.org/2000/svg" xmlns:xlink="http://www.w3.org/1999/xlink" clip-rule="evenodd" stroke-miterlimit="10" viewBox="0 0 1024 768"><desc>SVG generated by Keynote</desc><defs></defs><g transform="matrix(1.00, 0.00, -0.00, -1.00, 0.0, 768.0)"><path d="M 0.0 768.0 L 1024.0 768.0 L 1024.0 0.0 L 0.0 0.0 Z M 0.0 768.0 " fill="#FEFFFF"></path><text xml:space="preserve" font-family="Helvetica-Light,Helvetica" font-size="45.9" fill="#000000" transform="matrix(1.00, 0.00, -0.00, -1.00, 107.8, 638.6)">P</text><text xml:space="preserve" font-family="Helvetica-Light,Helvetica" font-size="45.9" fill="#000000" transform="matrix(1.00, 0.00, -0.00, -1.00, 135.8, 638.6)">H</text><text xml:space="preserve" font-family="Helvetica-Light,Helvetica" font-size="45.9" fill="#000000" transform="matrix(1.00, 0.00, -0.00, -1.00, 169.0, 638.6)">P</text><text xml:space="preserve" font-family="Helvetica-Light,Helvetica" font-size="45.9" fill="#000000" transform="matrix(1.00, 0.00, -0.00, -1.00, 197.0, 638.6)">7</text><text xml:space="preserve" font-family="Helvetica-Light,Helvetica" font-size="45.9" fill="#000000" transform="matrix(1.00, 0.00, -0.00, -1.00, 222.5, 638.6)">:</text><text xml:space="preserve" font-family="Helvetica-Light,Helvetica" font-size="45.9" fill="#000000" transform="matrix(1.00, 0.00, -0.00, -1.00, 235.3, 638.6)"> </text><text xml:space="preserve" font-family="Helvetica-Light,Helvetica" font-size="45.9" fill="#000000" transform="matrix(1.00, 0.00, -0.00, -1.00, 248.1, 638.6)">B</text><text xml:space="preserve" font-family="Helvetica-Light,Helvetica" font-size="45.9" fill="#000000" transform="matrix(1.00, 0.00, -0.00, -1.00, 278.7, 638.6)">a</text><text xml:space="preserve" font-family="Helvetica-Light,Helvetica" font-size="45.9" fill="#000000" transform="matrix(1.00, 0.00, -0.00, -1.00, 304.2, 638.6)">c</text><text xml:space="preserve" font-family="Helvetica-Light,Helvetica" font-size="45.9" fill="#000000" transform="matrix(1.00, 0.00, -0.00, -1.00, 329.7, 638.6)">k</text><text xml:space="preserve" font-family="Helvetica-Light,Helvetica" font-size="45.9" fill="#000000" transform="matrix(1.00, 0.00, -0.00, -1.00, 352.7, 638.6)">w</text><text xml:space="preserve" font-family="Helvetica-Light,Helvetica" font-size="45.9" fill="#000000" transform="matrix(1.00, 0.00, -0.00, -1.00, 385.8, 638.6)">a</text><text xml:space="preserve" font-family="Helvetica-Light,Helvetica" font-size="45.9" fill="#000000" transform="matrix(1.00, 0.00, -0.00, -1.00, 411.3, 638.6)">r</text><text xml:space="preserve" font-family="Helvetica-Light,Helvetica" font-size="45.9" fill="#000000" transform="matrix(1.00, 0.00, -0.00, -1.00, 425.8, 638.6)">d</text><text xml:space="preserve" font-family="Helvetica-Light,Helvetica" font-size="45.9" fill="#000000" transform="matrix(1.00, 0.00, -0.00, -1.00, 453.8, 638.6)">s</text><text xml:space="preserve" font-family="Helvetica-Light,Helvetica" font-size="45.9" fill="#000000" transform="matrix(1.00, 0.00, -0.00, -1.00, 476.8, 638.6)"> </text><text xml:space="preserve" font-family="Helvetica-Light,Helvetica" font-size="45.9" fill="#000000" transform="matrix(1.00, 0.00, -0.00, -1.00, 489.5, 638.6)">I</text><text xml:space="preserve" font-family="Helvetica-Light,Helvetica" font-size="45.9" fill="#000000" transform="matrix(1.00, 0.00, -0.00, -1.00, 502.3, 638.6)">n</text><text xml:space="preserve" font-family="Helvetica-Light,Helvetica" font-size="45.9" fill="#000000" transform="matrix(1.00, 0.00, -0.00, -1.00, 527.8, 638.6)">c</text><text xml:space="preserve" font-family="Helvetica-Light,Helvetica" font-size="45.9" fill="#000000" transform="matrix(1.00, 0.00, -0.00, -1.00, 553.3, 638.6)">o</text><text xml:space="preserve" font-family="Helvetica-Light,Helvetica" font-size="45.9" fill="#000000" transform="matrix(1.00, 0.00, -0.00, -1.00, 578.9, 638.6)">m</text><text xml:space="preserve" font-family="Helvetica-Light,Helvetica" font-size="45.9" fill="#000000" transform="matrix(1.00, 0.00, -0.00, -1.00, 617.1, 638.6)">p</text><text xml:space="preserve" font-family="Helvetica-Light,Helvetica" font-size="45.9" fill="#000000" transform="matrix(1.00, 0.00, -0.00, -1.00, 645.1, 638.6)">a</text><text xml:space="preserve" font-family="Helvetica-Light,Helvetica" font-size="45.9" fill="#000000" transform="matrix(1.00, 0.00, -0.00, -1.00, 670.7, 638.6)">t</text><text xml:space="preserve" font-family="Helvetica-Light,Helvetica" font-size="45.9" fill="#000000" transform="matrix(1.00, 0.00, -0.00, -1.00, 683.4, 638.6)">i</text><text xml:space="preserve" font-family="Helvetica-Light,Helvetica" font-size="45.9" fill="#000000" transform="matrix(1.00, 0.00, -0.00, -1.00, 693.6, 638.6)">b</text><text xml:space="preserve" font-family="Helvetica-Light,Helvetica" font-size="45.9" fill="#000000" transform="matrix(1.00, 0.00, -0.00, -1.00, 721.7, 638.6)">l</text><text xml:space="preserve" font-family="Helvetica-Light,Helvetica" font-size="45.9" fill="#000000" transform="matrix(1.00, 0.00, -0.00, -1.00, 731.8, 638.6)">e</text><text xml:space="preserve" font-family="Helvetica-Light,Helvetica" font-size="45.9" fill="#000000" transform="matrix(1.00, 0.00, -0.00, -1.00, 757.4, 638.6)"> </text><text xml:space="preserve" font-family="Helvetica-Light,Helvetica" font-size="45.9" fill="#000000" transform="matrix(1.00, 0.00, -0.00, -1.00, 770.1, 638.6)">B</text><text xml:space="preserve" font-family="Helvetica-Light,Helvetica" font-size="45.9" fill="#000000" transform="matrix(1.00, 0.00, -0.00, -1.00, 800.7, 638.6)">r</text><text xml:space="preserve" font-family="Helvetica-Light,Helvetica" font-size="45.9" fill="#000000" transform="matrix(1.00, 0.00, -0.00, -1.00, 815.2, 638.6)">e</text><text xml:space="preserve" font-family="Helvetica-Light,Helvetica" font-size="45.9" fill="#000000" transform="matrix(1.00, 0.00, -0.00, -1.00, 840.7, 638.6)">a</text><text xml:space="preserve" font-family="Helvetica-Light,Helvetica" font-size="45.9" fill="#000000" transform="matrix(1.00, 0.00, -0.00, -1.00, 866.2, 638.6)">k</text><text xml:space="preserve" font-family="Helvetica-Light,Helvetica" font-size="45.9" fill="#000000" transform="matrix(1.00, 0.00, -0.00, -1.00, 889.2, 638.6)">s</text><image xlink:href="../../3C9A1001-2A21-4628-988B-14775E989FCB/assets/62E60755F5161242B1E572B5EE6676A8.png" width="2050.00" height="1204.00" transform="matrix(0.44, 0.00, -0.00, -0.44, 64.0, 551.0)"></image><text xml:space="preserve" font-family="Helvetica-Light,Helvetica" font-size="36.0" fill="#000000" transform="matrix(1.00, 0.00, -0.00, -1.00, 160.9, 572.8)">h</text><text xml:space="preserve" font-family="Helvetica-Light,Helvetica" font-size="36.0" fill="#000000" transform="matrix(1.00, 0.00, -0.00, -1.00, 180.9, 572.8)">t</text><text xml:space="preserve" font-family="Helvetica-Light,Helvetica" font-size="36.0" fill="#000000" transform="matrix(1.00, 0.00, -0.00, -1.00, 190.9, 572.8)">t</text><text xml:space="preserve" font-family="Helvetica-Light,Helvetica" font-size="36.0" fill="#000000" transform="matrix(1.00, 0.00, -0.00, -1.00, 200.9, 572.8)">p</text><text xml:space="preserve" font-family="Helvetica-Light,Helvetica" font-size="36.0" fill="#000000" transform="matrix(1.00, 0.00, -0.00, -1.00, 222.9, 572.8)">:</text><text xml:space="preserve" font-family="Helvetica-Light,Helvetica" font-size="36.0" fill="#000000" transform="matrix(1.00, 0.00, -0.00, -1.00, 232.9, 572.8)">/</text><text xml:space="preserve" font-family="Helvetica-Light,Helvetica" font-size="36.0" fill="#000000" transform="matrix(1.00, 0.00, -0.00, -1.00, 242.9, 572.8)">/</text><text xml:space="preserve" font-family="Helvetica-Light,Helvetica" font-size="36.0" fill="#000000" transform="matrix(1.00, 0.00, -0.00, -1.00, 252.9, 572.8)">p</text><text xml:space="preserve" font-family="Helvetica-Light,Helvetica" font-size="36.0" fill="#000000" transform="matrix(1.00, 0.00, -0.00, -1.00, 274.9, 572.8)">h</text><text xml:space="preserve" font-family="Helvetica-Light,Helvetica" font-size="36.0" fill="#000000" transform="matrix(1.00, 0.00, -0.00, -1.00, 294.9, 572.8)">p</text><text xml:space="preserve" font-family="Helvetica-Light,Helvetica" font-size="36.0" fill="#000000" transform="matrix(1.00, 0.00, -0.00, -1.00, 316.9, 572.8)">.</text><text xml:space="preserve" font-family="Helvetica-Light,Helvetica" font-size="36.0" fill="#000000" transform="matrix(1.00, 0.00, -0.00, -1.00, 326.9, 572.8)">n</text><text xml:space="preserve" font-family="Helvetica-Light,Helvetica" font-size="36.0" fill="#000000" transform="matrix(1.00, 0.00, -0.00, -1.00, 346.9, 572.8)">e</text><text xml:space="preserve" font-family="Helvetica-Light,Helvetica" font-size="36.0" fill="#000000" transform="matrix(1.00, 0.00, -0.00, -1.00, 367.0, 572.8)">t</text><text xml:space="preserve" font-family="Helvetica-Light,Helvetica" font-size="36.0" fill="#000000" transform="matrix(1.00, 0.00, -0.00, -1.00, 377.0, 572.8)">/</text><text xml:space="preserve" font-family="Helvetica-Light,Helvetica" font-size="36.0" fill="#000000" transform="matrix(1.00, 0.00, -0.00, -1.00, 387.0, 572.8)">m</text><text xml:space="preserve" font-family="Helvetica-Light,Helvetica" font-size="36.0" fill="#000000" transform="matrix(1.00, 0.00, -0.00, -1.00, 417.0, 572.8)">a</text><text xml:space="preserve" font-family="Helvetica-Light,Helvetica" font-size="36.0" fill="#000000" transform="matrix(1.00, 0.00, -0.00, -1.00, 437.0, 572.8)">n</text><text xml:space="preserve" font-family="Helvetica-Light,Helvetica" font-size="36.0" fill="#000000" transform="matrix(1.00, 0.00, -0.00, -1.00, 457.0, 572.8)">u</text><text xml:space="preserve" font-family="Helvetica-Light,Helvetica" font-size="36.0" fill="#000000" transform="matrix(1.00, 0.00, -0.00, -1.00, 477.0, 572.8)">a</text><text xml:space="preserve" font-family="Helvetica-Light,Helvetica" font-size="36.0" fill="#000000" transform="matrix(1.00, 0.00, -0.00, -1.00, 497.0, 572.8)">l</text><text xml:space="preserve" font-family="Helvetica-Light,Helvetica" font-size="36.0" fill="#000000" transform="matrix(1.00, 0.00, -0.00, -1.00, 505.0, 572.8)">/</text><text xml:space="preserve" font-family="Helvetica-Light,Helvetica" font-size="36.0" fill="#000000" transform="matrix(1.00, 0.00, -0.00, -1.00, 515.0, 572.8)">e</text><text xml:space="preserve" font-family="Helvetica-Light,Helvetica" font-size="36.0" fill="#000000" transform="matrix(1.00, 0.00, -0.00, -1.00, 535.1, 572.8)">n</text><text xml:space="preserve" font-family="Helvetica-Light,Helvetica" font-size="36.0" fill="#000000" transform="matrix(1.00, 0.00, -0.00, -1.00, 555.1, 572.8)">/</text><text xml:space="preserve" font-family="Helvetica-Light,Helvetica" font-size="36.0" fill="#000000" transform="matrix(1.00, 0.00, -0.00, -1.00, 565.1, 572.8)">m</text><text xml:space="preserve" font-family="Helvetica-Light,Helvetica" font-size="36.0" fill="#000000" transform="matrix(1.00, 0.00, -0.00, -1.00, 595.1, 572.8)">i</text><text xml:space="preserve" font-family="Helvetica-Light,Helvetica" font-size="36.0" fill="#000000" transform="matrix(1.00, 0.00, -0.00, -1.00, 603.1, 572.8)">g</text><text xml:space="preserve" font-family="Helvetica-Light,Helvetica" font-size="36.0" fill="#000000" transform="matrix(1.00, 0.00, -0.00, -1.00, 625.1, 572.8)">r</text><text xml:space="preserve" font-family="Helvetica-Light,Helvetica" font-size="36.0" fill="#000000" transform="matrix(1.00, 0.00, -0.00, -1.00, 637.0, 572.8)">a</text><text xml:space="preserve" font-family="Helvetica-Light,Helvetica" font-size="36.0" fill="#000000" transform="matrix(1.00, 0.00, -0.00, -1.00, 657.1, 572.8)">t</text><text xml:space="preserve" font-family="Helvetica-Light,Helvetica" font-size="36.0" fill="#000000" transform="matrix(1.00, 0.00, -0.00, -1.00, 667.1, 572.8)">i</text><text xml:space="preserve" font-family="Helvetica-Light,Helvetica" font-size="36.0" fill="#000000" transform="matrix(1.00, 0.00, -0.00, -1.00, 675.1, 572.8)">o</text><text xml:space="preserve" font-family="Helvetica-Light,Helvetica" font-size="36.0" fill="#000000" transform="matrix(1.00, 0.00, -0.00, -1.00, 695.1, 572.8)">n</text><text xml:space="preserve" font-family="Helvetica-Light,Helvetica" font-size="36.0" fill="#000000" transform="matrix(1.00, 0.00, -0.00, -1.00, 715.1, 572.8)">7</text><text xml:space="preserve" font-family="Helvetica-Light,Helvetica" font-size="36.0" fill="#000000" transform="matrix(1.00, 0.00, -0.00, -1.00, 735.1, 572.8)">0</text><text xml:space="preserve" font-family="Helvetica-Light,Helvetica" font-size="36.0" fill="#000000" transform="matrix(1.00, 0.00, -0.00, -1.00, 755.1, 572.8)">.</text><text xml:space="preserve" font-family="Helvetica-Light,Helvetica" font-size="36.0" fill="#000000" transform="matrix(1.00, 0.00, -0.00, -1.00, 765.1, 572.8)">p</text><text xml:space="preserve" font-family="Helvetica-Light,Helvetica" font-size="36.0" fill="#000000" transform="matrix(1.00, 0.00, -0.00, -1.00, 787.1, 572.8)">h</text><text xml:space="preserve" font-family="Helvetica-Light,Helvetica" font-size="36.0" fill="#000000" transform="matrix(1.00, 0.00, -0.00, -1.00, 807.1, 572.8)">p</text></g></svg>