<?xml version="1.0" encoding="UTF-8" standalone="no"?><svg xmlns="http://www.w3.org/2000/svg" xmlns:xlink="http://www.w3.org/1999/xlink" clip-rule="evenodd" stroke-miterlimit="10" viewBox="0 0 1024 768"><desc>SVG generated by Keynote</desc><defs></defs><g transform="matrix(1.00, 0.00, -0.00, -1.00, 0.0, 768.0)"><path d="M 0.0 768.0 L 1024.0 768.0 L 1024.0 0.0 L 0.0 0.0 Z M 0.0 768.0 " fill="#FEFFFF"></path><text xml:space="preserve" font-family="Helvetica-Light,Helvetica" font-size="48.1" fill="#000000" transform="matrix(1.00, 0.00, -0.00, -1.00, 301.9, 694.2)">U</text><text xml:space="preserve" font-family="Helvetica-Light,Helvetica" font-size="48.1" fill="#000000" transform="matrix(1.00, 0.00, -0.00, -1.00, 336.7, 694.2)">U</text><text xml:space="preserve" font-family="Helvetica-Light,Helvetica" font-size="48.1" fill="#000000" transform="matrix(1.00, 0.00, -0.00, -1.00, 371.4, 694.2)">I</text><text xml:space="preserve" font-family="Helvetica-Light,Helvetica" font-size="48.1" fill="#000000" transform="matrix(1.00, 0.00, -0.00, -1.00, 384.8, 694.2)">D</text><text xml:space="preserve" font-family="Helvetica-Light,Helvetica" font-size="48.1" fill="#000000" transform="matrix(1.00, 0.00, -0.00, -1.00, 419.6, 694.2)"> </text><text xml:space="preserve" font-family="Helvetica-Light,Helvetica" font-size="48.1" fill="#000000" transform="matrix(1.00, 0.00, -0.00, -1.00, 433.0, 694.2)">v</text><text xml:space="preserve" font-family="Helvetica-Light,Helvetica" font-size="48.1" fill="#000000" transform="matrix(1.00, 0.00, -0.00, -1.00, 457.0, 694.2)">s</text><text xml:space="preserve" font-family="Helvetica-Light,Helvetica" font-size="48.1" fill="#000000" transform="matrix(1.00, 0.00, -0.00, -1.00, 481.1, 694.2)"> </text><text xml:space="preserve" font-family="Helvetica-Light,Helvetica" font-size="48.1" fill="#000000" transform="matrix(1.00, 0.00, -0.00, -1.00, 494.5, 694.2)">S</text><text xml:space="preserve" font-family="Helvetica-Light,Helvetica" font-size="48.1" fill="#000000" transform="matrix(1.00, 0.00, -0.00, -1.00, 523.9, 694.2)">e</text><text xml:space="preserve" font-family="Helvetica-Light,Helvetica" font-size="48.1" fill="#000000" transform="matrix(1.00, 0.00, -0.00, -1.00, 550.7, 694.2)">q</text><text xml:space="preserve" font-family="Helvetica-Light,Helvetica" font-size="48.1" fill="#000000" transform="matrix(1.00, 0.00, -0.00, -1.00, 580.1, 694.2)">u</text><text xml:space="preserve" font-family="Helvetica-Light,Helvetica" font-size="48.1" fill="#000000" transform="matrix(1.00, 0.00, -0.00, -1.00, 606.8, 694.2)">e</text><text xml:space="preserve" font-family="Helvetica-Light,Helvetica" font-size="48.1" fill="#000000" transform="matrix(1.00, 0.00, -0.00, -1.00, 633.6, 694.2)">n</text><text xml:space="preserve" font-family="Helvetica-Light,Helvetica" font-size="48.1" fill="#000000" transform="matrix(1.00, 0.00, -0.00, -1.00, 660.4, 694.2)">c</text><text xml:space="preserve" font-family="Helvetica-Light,Helvetica" font-size="48.1" fill="#000000" transform="matrix(1.00, 0.00, -0.00, -1.00, 687.1, 694.2)">i</text><text xml:space="preserve" font-family="Helvetica-Light,Helvetica" font-size="48.1" fill="#000000" transform="matrix(1.00, 0.00, -0.00, -1.00, 697.8, 694.2)">n</text><text xml:space="preserve" font-family="Helvetica-Light,Helvetica" font-size="48.1" fill="#000000" transform="matrix(1.00, 0.00, -0.00, -1.00, 724.6, 694.2)">g</text><text xml:space="preserve" font-family="Helvetica-Light,Helvetica" font-size="48.1" fill="#000000" transform="matrix(1.00, 0.00, -0.00, -1.00, 754.0, 694.2)"> </text><text xml:space="preserve" font-family="Helvetica-Light,Helvetica" font-size="48.1" fill="#000000" transform="matrix(1.00, 0.00, -0.00, -1.00, 350.5, 636.2)">(</text><text xml:space="preserve" font-family="Helvetica-Light,Helvetica" font-size="48.1" fill="#000000" transform="matrix(1.00, 0.00, -0.00, -1.00, 366.5, 636.2)">a</text><text xml:space="preserve" font-family="Helvetica-Light,Helvetica" font-size="48.1" fill="#000000" transform="matrix(1.00, 0.00, -0.00, -1.00, 393.3, 636.2)">u</text><text xml:space="preserve" font-family="Helvetica-Light,Helvetica" font-size="48.1" fill="#000000" transform="matrix(1.00, 0.00, -0.00, -1.00, 420.1, 636.2)">t</text><text xml:space="preserve" font-family="Helvetica-Light,Helvetica" font-size="48.1" fill="#000000" transform="matrix(1.00, 0.00, -0.00, -1.00, 433.4, 636.2)">o</text><text xml:space="preserve" font-family="Helvetica-Light,Helvetica" font-size="48.1" fill="#000000" transform="matrix(1.00, 0.00, -0.00, -1.00, 460.2, 636.2)">-</text><text xml:space="preserve" font-family="Helvetica-Light,Helvetica" font-size="48.1" fill="#000000" transform="matrix(1.00, 0.00, -0.00, -1.00, 476.2, 636.2)">i</text><text xml:space="preserve" font-family="Helvetica-Light,Helvetica" font-size="48.1" fill="#000000" transform="matrix(1.00, 0.00, -0.00, -1.00, 486.9, 636.2)">n</text><text xml:space="preserve" font-family="Helvetica-Light,Helvetica" font-size="48.1" fill="#000000" transform="matrix(1.00, 0.00, -0.00, -1.00, 513.7, 636.2)">c</text><text xml:space="preserve" font-family="Helvetica-Light,Helvetica" font-size="48.1" fill="#000000" transform="matrix(1.00, 0.00, -0.00, -1.00, 540.5, 636.2)">r</text><text xml:space="preserve" font-family="Helvetica-Light,Helvetica" font-size="48.1" fill="#000000" transform="matrix(1.00, 0.00, -0.00, -1.00, 555.6, 636.2)">e</text><text xml:space="preserve" font-family="Helvetica-Light,Helvetica" font-size="48.1" fill="#000000" transform="matrix(1.00, 0.00, -0.00, -1.00, 582.4, 636.2)">m</text><text xml:space="preserve" font-family="Helvetica-Light,Helvetica" font-size="48.1" fill="#000000" transform="matrix(1.00, 0.00, -0.00, -1.00, 622.5, 636.2)">e</text><text xml:space="preserve" font-family="Helvetica-Light,Helvetica" font-size="48.1" fill="#000000" transform="matrix(1.00, 0.00, -0.00, -1.00, 649.3, 636.2)">n</text><text xml:space="preserve" font-family="Helvetica-Light,Helvetica" font-size="48.1" fill="#000000" transform="matrix(1.00, 0.00, -0.00, -1.00, 676.0, 636.2)">t</text><text xml:space="preserve" font-family="Helvetica-Light,Helvetica" font-size="48.1" fill="#000000" transform="matrix(1.00, 0.00, -0.00, -1.00, 689.4, 636.2)">)</text><text xml:space="preserve" font-family="Helvetica-Light,Helvetica" font-size="83.0" fill="#000000" transform="matrix(1.00, 0.00, -0.00, -1.00, 410.6, 499.2)">U</text><text xml:space="preserve" font-family="Helvetica-Light,Helvetica" font-size="83.0" fill="#000000" transform="matrix(1.00, 0.00, -0.00, -1.00, 470.5, 499.2)">U</text><text xml:space="preserve" font-family="Helvetica-Light,Helvetica" font-size="83.0" fill="#000000" transform="matrix(1.00, 0.00, -0.00, -1.00, 530.4, 499.2)">I</text><text xml:space="preserve" font-family="Helvetica-Light,Helvetica" font-size="83.0" fill="#000000" transform="matrix(1.00, 0.00, -0.00, -1.00, 553.5, 499.2)">D</text></g></svg>