<?xml version="1.0" encoding="UTF-8" standalone="no"?><svg xmlns="http://www.w3.org/2000/svg" xmlns:xlink="http://www.w3.org/1999/xlink" clip-rule="evenodd" stroke-miterlimit="10" viewBox="0 0 1024 768"><desc>SVG generated by Keynote</desc><defs></defs><g transform="matrix(1.00, 0.00, -0.00, -1.00, 0.0, 768.0)"><path d="M 0.0 768.0 L 1024.0 768.0 L 1024.0 0.0 L 0.0 0.0 Z M 0.0 768.0 " fill="#FEFFFF"></path><text xml:space="preserve" font-family="Helvetica-Light,Helvetica" font-size="80.0" fill="#000000" transform="matrix(1.00, 0.00, -0.00, -1.00, 331.7, 646.4)">A</text><text xml:space="preserve" font-family="Helvetica-Light,Helvetica" font-size="80.0" fill="#000000" transform="matrix(1.00, 0.00, -0.00, -1.00, 385.1, 646.4)">g</text><text xml:space="preserve" font-family="Helvetica-Light,Helvetica" font-size="80.0" fill="#000000" transform="matrix(1.00, 0.00, -0.00, -1.00, 434.0, 646.4)">e</text><text xml:space="preserve" font-family="Helvetica-Light,Helvetica" font-size="80.0" fill="#000000" transform="matrix(1.00, 0.00, -0.00, -1.00, 478.4, 646.4)">n</text><text xml:space="preserve" font-family="Helvetica-Light,Helvetica" font-size="80.0" fill="#000000" transform="matrix(1.00, 0.00, -0.00, -1.00, 522.9, 646.4)">d</text><text xml:space="preserve" font-family="Helvetica-Light,Helvetica" font-size="80.0" fill="#000000" transform="matrix(1.00, 0.00, -0.00, -1.00, 571.8, 646.4)">a</text><text xml:space="preserve" font-family="Helvetica-Light,Helvetica" font-size="45.9" fill="#000000" transform="matrix(1.00, 0.00, -0.00, -1.00, 36.8, 527.6)">P</text><text xml:space="preserve" font-family="Helvetica-Light,Helvetica" font-size="45.9" fill="#000000" transform="matrix(1.00, 0.00, -0.00, -1.00, 64.9, 527.6)">H</text><text xml:space="preserve" font-family="Helvetica-Light,Helvetica" font-size="45.9" fill="#000000" transform="matrix(1.00, 0.00, -0.00, -1.00, 98.0, 527.6)">P</text><text xml:space="preserve" font-family="Helvetica-Light,Helvetica" font-size="45.9" fill="#000000" transform="matrix(1.00, 0.00, -0.00, -1.00, 126.1, 527.6)">7</text><text xml:space="preserve" font-family="Helvetica-Light,Helvetica" font-size="45.9" fill="#000000" transform="matrix(1.00, 0.00, -0.00, -1.00, 151.6, 527.6)">:</text><text xml:space="preserve" font-family="Helvetica-Light,Helvetica" font-size="45.9" fill="#000000" transform="matrix(1.00, 0.00, -0.00, -1.00, 164.3, 527.6)"> </text><text xml:space="preserve" font-family="Helvetica-Light,Helvetica" font-size="45.9" fill="#000000" transform="matrix(1.00, 0.00, -0.00, -1.00, 177.1, 527.6)">B</text><text xml:space="preserve" font-family="Helvetica-Light,Helvetica" font-size="45.9" fill="#000000" transform="matrix(1.00, 0.00, -0.00, -1.00, 207.7, 527.6)">a</text><text xml:space="preserve" font-family="Helvetica-Light,Helvetica" font-size="45.9" fill="#000000" transform="matrix(1.00, 0.00, -0.00, -1.00, 233.2, 527.6)">c</text><text xml:space="preserve" font-family="Helvetica-Light,Helvetica" font-size="45.9" fill="#000000" transform="matrix(1.00, 0.00, -0.00, -1.00, 258.8, 527.6)">k</text><text xml:space="preserve" font-family="Helvetica-Light,Helvetica" font-size="45.9" fill="#000000" transform="matrix(1.00, 0.00, -0.00, -1.00, 281.7, 527.6)">w</text><text xml:space="preserve" font-family="Helvetica-Light,Helvetica" font-size="45.9" fill="#000000" transform="matrix(1.00, 0.00, -0.00, -1.00, 314.9, 527.6)">a</text><text xml:space="preserve" font-family="Helvetica-Light,Helvetica" font-size="45.9" fill="#000000" transform="matrix(1.00, 0.00, -0.00, -1.00, 340.4, 527.6)">r</text><text xml:space="preserve" font-family="Helvetica-Light,Helvetica" font-size="45.9" fill="#000000" transform="matrix(1.00, 0.00, -0.00, -1.00, 354.8, 527.6)">d</text><text xml:space="preserve" font-family="Helvetica-Light,Helvetica" font-size="45.9" fill="#000000" transform="matrix(1.00, 0.00, -0.00, -1.00, 382.9, 527.6)">s</text><text xml:space="preserve" font-family="Helvetica-Light,Helvetica" font-size="45.9" fill="#000000" transform="matrix(1.00, 0.00, -0.00, -1.00, 405.8, 527.6)"> </text><text xml:space="preserve" font-family="Helvetica-Light,Helvetica" font-size="45.9" fill="#000000" transform="matrix(1.00, 0.00, -0.00, -1.00, 418.6, 527.6)">I</text><text xml:space="preserve" font-family="Helvetica-Light,Helvetica" font-size="45.9" fill="#000000" transform="matrix(1.00, 0.00, -0.00, -1.00, 431.3, 527.6)">n</text><text xml:space="preserve" font-family="Helvetica-Light,Helvetica" font-size="45.9" fill="#000000" transform="matrix(1.00, 0.00, -0.00, -1.00, 456.9, 527.6)">c</text><text xml:space="preserve" font-family="Helvetica-Light,Helvetica" font-size="45.9" fill="#000000" transform="matrix(1.00, 0.00, -0.00, -1.00, 482.4, 527.6)">o</text><text xml:space="preserve" font-family="Helvetica-Light,Helvetica" font-size="45.9" fill="#000000" transform="matrix(1.00, 0.00, -0.00, -1.00, 507.9, 527.6)">m</text><text xml:space="preserve" font-family="Helvetica-Light,Helvetica" font-size="45.9" fill="#000000" transform="matrix(1.00, 0.00, -0.00, -1.00, 546.1, 527.6)">p</text><text xml:space="preserve" font-family="Helvetica-Light,Helvetica" font-size="45.9" fill="#000000" transform="matrix(1.00, 0.00, -0.00, -1.00, 574.2, 527.6)">a</text><text xml:space="preserve" font-family="Helvetica-Light,Helvetica" font-size="45.9" fill="#000000" transform="matrix(1.00, 0.00, -0.00, -1.00, 599.7, 527.6)">t</text><text xml:space="preserve" font-family="Helvetica-Light,Helvetica" font-size="45.9" fill="#000000" transform="matrix(1.00, 0.00, -0.00, -1.00, 612.5, 527.6)">i</text><text xml:space="preserve" font-family="Helvetica-Light,Helvetica" font-size="45.9" fill="#000000" transform="matrix(1.00, 0.00, -0.00, -1.00, 622.7, 527.6)">b</text><text xml:space="preserve" font-family="Helvetica-Light,Helvetica" font-size="45.9" fill="#000000" transform="matrix(1.00, 0.00, -0.00, -1.00, 650.7, 527.6)">l</text><text xml:space="preserve" font-family="Helvetica-Light,Helvetica" font-size="45.9" fill="#000000" transform="matrix(1.00, 0.00, -0.00, -1.00, 660.9, 527.6)">e</text><text xml:space="preserve" font-family="Helvetica-Light,Helvetica" font-size="45.9" fill="#000000" transform="matrix(1.00, 0.00, -0.00, -1.00, 686.4, 527.6)"> </text><text xml:space="preserve" font-family="Helvetica-Light,Helvetica" font-size="45.9" fill="#000000" transform="matrix(1.00, 0.00, -0.00, -1.00, 699.2, 527.6)">B</text><text xml:space="preserve" font-family="Helvetica-Light,Helvetica" font-size="45.9" fill="#000000" transform="matrix(1.00, 0.00, -0.00, -1.00, 729.8, 527.6)">r</text><text xml:space="preserve" font-family="Helvetica-Light,Helvetica" font-size="45.9" fill="#000000" transform="matrix(1.00, 0.00, -0.00, -1.00, 744.2, 527.6)">e</text><text xml:space="preserve" font-family="Helvetica-Light,Helvetica" font-size="45.9" fill="#000000" transform="matrix(1.00, 0.00, -0.00, -1.00, 769.8, 527.6)">a</text><text xml:space="preserve" font-family="Helvetica-Light,Helvetica" font-size="45.9" fill="#000000" transform="matrix(1.00, 0.00, -0.00, -1.00, 795.3, 527.6)">k</text><text xml:space="preserve" font-family="Helvetica-Light,Helvetica" font-size="45.9" fill="#000000" transform="matrix(1.00, 0.00, -0.00, -1.00, 818.2, 527.6)">s</text><text xml:space="preserve" font-family="Helvetica-Light,Helvetica" font-size="49.0" fill="#000000" transform="matrix(1.00, 0.00, -0.00, -1.00, 36.8, 324.3)">P</text><text xml:space="preserve" font-family="Helvetica-Light,Helvetica" font-size="49.0" fill="#000000" transform="matrix(1.00, 0.00, -0.00, -1.00, 66.8, 324.3)">H</text><text xml:space="preserve" font-family="Helvetica-Light,Helvetica" font-size="49.0" fill="#000000" transform="matrix(1.00, 0.00, -0.00, -1.00, 102.1, 324.3)">P</text><text xml:space="preserve" font-family="Helvetica-Light,Helvetica" font-size="49.0" fill="#000000" transform="matrix(1.00, 0.00, -0.00, -1.00, 132.0, 324.3)">5</text><text xml:space="preserve" font-family="Helvetica-Light,Helvetica" font-size="49.0" fill="#000000" transform="matrix(1.00, 0.00, -0.00, -1.00, 159.2, 324.3)"> </text><text xml:space="preserve" font-family="Helvetica-Light,Helvetica" font-size="49.0" fill="#000000" transform="matrix(1.00, 0.00, -0.00, -1.00, 172.8, 324.3)">v</text><text xml:space="preserve" font-family="Helvetica-Light,Helvetica" font-size="49.0" fill="#000000" transform="matrix(1.00, 0.00, -0.00, -1.00, 197.3, 324.3)">s</text><text xml:space="preserve" font-family="Helvetica-Light,Helvetica" font-size="49.0" fill="#000000" transform="matrix(1.00, 0.00, -0.00, -1.00, 221.8, 324.3)"> </text><text xml:space="preserve" font-family="Helvetica-Light,Helvetica" font-size="49.0" fill="#000000" transform="matrix(1.00, 0.00, -0.00, -1.00, 235.4, 324.3)">P</text><text xml:space="preserve" font-family="Helvetica-Light,Helvetica" font-size="49.0" fill="#000000" transform="matrix(1.00, 0.00, -0.00, -1.00, 265.3, 324.3)">H</text><text xml:space="preserve" font-family="Helvetica-Light,Helvetica" font-size="49.0" fill="#000000" transform="matrix(1.00, 0.00, -0.00, -1.00, 300.7, 324.3)">P</text><text xml:space="preserve" font-family="Helvetica-Light,Helvetica" font-size="49.0" fill="#000000" transform="matrix(1.00, 0.00, -0.00, -1.00, 330.6, 324.3)">7</text><text xml:space="preserve" font-family="Helvetica-Light,Helvetica" font-size="49.0" fill="#000000" transform="matrix(1.00, 0.00, -0.00, -1.00, 357.8, 324.3)">:</text><text xml:space="preserve" font-family="Helvetica-Light,Helvetica" font-size="49.0" fill="#000000" transform="matrix(1.00, 0.00, -0.00, -1.00, 371.4, 324.3)"> </text><text xml:space="preserve" font-family="Helvetica-Light,Helvetica" font-size="49.0" fill="#000000" transform="matrix(1.00, 0.00, -0.00, -1.00, 385.0, 324.3)">B</text><text xml:space="preserve" font-family="Helvetica-Light,Helvetica" font-size="49.0" fill="#000000" transform="matrix(1.00, 0.00, -0.00, -1.00, 417.7, 324.3)">e</text><text xml:space="preserve" font-family="Helvetica-Light,Helvetica" font-size="49.0" fill="#000000" transform="matrix(1.00, 0.00, -0.00, -1.00, 444.9, 324.3)">n</text><text xml:space="preserve" font-family="Helvetica-Light,Helvetica" font-size="49.0" fill="#000000" transform="matrix(1.00, 0.00, -0.00, -1.00, 472.1, 324.3)">c</text><text xml:space="preserve" font-family="Helvetica-Light,Helvetica" font-size="49.0" fill="#000000" transform="matrix(1.00, 0.00, -0.00, -1.00, 499.4, 324.3)">h</text><text xml:space="preserve" font-family="Helvetica-Light,Helvetica" font-size="49.0" fill="#000000" transform="matrix(1.00, 0.00, -0.00, -1.00, 526.6, 324.3)">m</text><text xml:space="preserve" font-family="Helvetica-Light,Helvetica" font-size="49.0" fill="#000000" transform="matrix(1.00, 0.00, -0.00, -1.00, 567.4, 324.3)">a</text><text xml:space="preserve" font-family="Helvetica-Light,Helvetica" font-size="49.0" fill="#000000" transform="matrix(1.00, 0.00, -0.00, -1.00, 594.6, 324.3)">r</text><text xml:space="preserve" font-family="Helvetica-Light,Helvetica" font-size="49.0" fill="#000000" transform="matrix(1.00, 0.00, -0.00, -1.00, 610.9, 324.3)">k</text><text xml:space="preserve" font-family="Helvetica-Light,Helvetica" font-size="49.0" fill="#000000" transform="matrix(1.00, 0.00, -0.00, -1.00, 635.4, 324.3)">i</text><text xml:space="preserve" font-family="Helvetica-Light,Helvetica" font-size="49.0" fill="#000000" transform="matrix(1.00, 0.00, -0.00, -1.00, 646.2, 324.3)">n</text><text xml:space="preserve" font-family="Helvetica-Light,Helvetica" font-size="49.0" fill="#000000" transform="matrix(1.00, 0.00, -0.00, -1.00, 673.5, 324.3)">g</text><text xml:space="preserve" font-family="Helvetica-Light,Helvetica" font-size="49.0" fill="#000000" transform="matrix(1.00, 0.00, -0.00, -1.00, 703.4, 324.3)"> </text><text xml:space="preserve" font-family="Helvetica-Light,Helvetica" font-size="49.0" fill="#000000" transform="matrix(1.00, 0.00, -0.00, -1.00, 717.0, 324.3)">/</text><text xml:space="preserve" font-family="Helvetica-Light,Helvetica" font-size="49.0" fill="#000000" transform="matrix(1.00, 0.00, -0.00, -1.00, 730.6, 324.3)"> </text><text xml:space="preserve" font-family="Helvetica-Light,Helvetica" font-size="49.0" fill="#000000" transform="matrix(1.00, 0.00, -0.00, -1.00, 744.2, 324.3)">M</text><text xml:space="preserve" font-family="Helvetica-Light,Helvetica" font-size="49.0" fill="#000000" transform="matrix(1.00, 0.00, -0.00, -1.00, 785.0, 324.3)">o</text><text xml:space="preserve" font-family="Helvetica-Light,Helvetica" font-size="49.0" fill="#000000" transform="matrix(1.00, 0.00, -0.00, -1.00, 812.2, 324.3)">n</text><text xml:space="preserve" font-family="Helvetica-Light,Helvetica" font-size="49.0" fill="#000000" transform="matrix(1.00, 0.00, -0.00, -1.00, 839.4, 324.3)">i</text><text xml:space="preserve" font-family="Helvetica-Light,Helvetica" font-size="49.0" fill="#000000" transform="matrix(1.00, 0.00, -0.00, -1.00, 850.3, 324.3)">t</text><text xml:space="preserve" font-family="Helvetica-Light,Helvetica" font-size="49.0" fill="#000000" transform="matrix(1.00, 0.00, -0.00, -1.00, 863.9, 324.3)">o</text><text xml:space="preserve" font-family="Helvetica-Light,Helvetica" font-size="49.0" fill="#000000" transform="matrix(1.00, 0.00, -0.00, -1.00, 891.1, 324.3)">r</text><text xml:space="preserve" font-family="Helvetica-Light,Helvetica" font-size="49.0" fill="#000000" transform="matrix(1.00, 0.00, -0.00, -1.00, 907.4, 324.3)">i</text><text xml:space="preserve" font-family="Helvetica-Light,Helvetica" font-size="49.0" fill="#000000" transform="matrix(1.00, 0.00, -0.00, -1.00, 918.3, 324.3)">n</text><text xml:space="preserve" font-family="Helvetica-Light,Helvetica" font-size="49.0" fill="#000000" transform="matrix(1.00, 0.00, -0.00, -1.00, 945.5, 324.3)">g</text><text xml:space="preserve" font-family="Helvetica-Light,Helvetica" font-size="51.0" fill="#000000" transform="matrix(1.00, 0.00, -0.00, -1.00, 36.8, 226.7)">P</text><text xml:space="preserve" font-family="Helvetica-Light,Helvetica" font-size="51.0" fill="#000000" transform="matrix(1.00, 0.00, -0.00, -1.00, 68.0, 226.7)">H</text><text xml:space="preserve" font-family="Helvetica-Light,Helvetica" font-size="51.0" fill="#000000" transform="matrix(1.00, 0.00, -0.00, -1.00, 104.8, 226.7)">P</text><text xml:space="preserve" font-family="Helvetica-Light,Helvetica" font-size="51.0" fill="#000000" transform="matrix(1.00, 0.00, -0.00, -1.00, 136.0, 226.7)">7</text><text xml:space="preserve" font-family="Helvetica-Light,Helvetica" font-size="51.0" fill="#000000" transform="matrix(1.00, 0.00, -0.00, -1.00, 164.3, 226.7)">:</text><text xml:space="preserve" font-family="Helvetica-Light,Helvetica" font-size="51.0" fill="#000000" transform="matrix(1.00, 0.00, -0.00, -1.00, 178.5, 226.7)"> </text><text xml:space="preserve" font-family="Helvetica-Light,Helvetica" font-size="51.0" fill="#000000" transform="matrix(1.00, 0.00, -0.00, -1.00, 192.7, 226.7)">P</text><text xml:space="preserve" font-family="Helvetica-Light,Helvetica" font-size="51.0" fill="#000000" transform="matrix(1.00, 0.00, -0.00, -1.00, 223.9, 226.7)">a</text><text xml:space="preserve" font-family="Helvetica-Light,Helvetica" font-size="51.0" fill="#000000" transform="matrix(1.00, 0.00, -0.00, -1.00, 252.2, 226.7)">c</text><text xml:space="preserve" font-family="Helvetica-Light,Helvetica" font-size="51.0" fill="#000000" transform="matrix(1.00, 0.00, -0.00, -1.00, 280.6, 226.7)">k</text><text xml:space="preserve" font-family="Helvetica-Light,Helvetica" font-size="51.0" fill="#000000" transform="matrix(1.00, 0.00, -0.00, -1.00, 306.1, 226.7)">a</text><text xml:space="preserve" font-family="Helvetica-Light,Helvetica" font-size="51.0" fill="#000000" transform="matrix(1.00, 0.00, -0.00, -1.00, 334.4, 226.7)">g</text><text xml:space="preserve" font-family="Helvetica-Light,Helvetica" font-size="51.0" fill="#000000" transform="matrix(1.00, 0.00, -0.00, -1.00, 365.6, 226.7)">i</text><text xml:space="preserve" font-family="Helvetica-Light,Helvetica" font-size="51.0" fill="#000000" transform="matrix(1.00, 0.00, -0.00, -1.00, 376.9, 226.7)">n</text><text xml:space="preserve" font-family="Helvetica-Light,Helvetica" font-size="51.0" fill="#000000" transform="matrix(1.00, 0.00, -0.00, -1.00, 405.3, 226.7)">g</text><text xml:space="preserve" font-family="Helvetica-Light,Helvetica" font-size="51.0" fill="#000000" transform="matrix(1.00, 0.00, -0.00, -1.00, 436.4, 226.7)"> </text><text xml:space="preserve" font-family="Helvetica-Light,Helvetica" font-size="51.0" fill="#000000" transform="matrix(1.00, 0.00, -0.00, -1.00, 450.6, 226.7)">r</text><text xml:space="preserve" font-family="Helvetica-Light,Helvetica" font-size="51.0" fill="#000000" transform="matrix(1.00, 0.00, -0.00, -1.00, 466.7, 226.7)">e</text><text xml:space="preserve" font-family="Helvetica-Light,Helvetica" font-size="51.0" fill="#000000" transform="matrix(1.00, 0.00, -0.00, -1.00, 495.0, 226.7)">a</text><text xml:space="preserve" font-family="Helvetica-Light,Helvetica" font-size="51.0" fill="#000000" transform="matrix(1.00, 0.00, -0.00, -1.00, 523.4, 226.7)">d</text><text xml:space="preserve" font-family="Helvetica-Light,Helvetica" font-size="51.0" fill="#000000" transform="matrix(1.00, 0.00, -0.00, -1.00, 554.5, 226.7)">y</text><text xml:space="preserve" font-family="Helvetica-Light,Helvetica" font-size="51.0" fill="#000000" transform="matrix(1.00, 0.00, -0.00, -1.00, 580.0, 226.7)"> </text><text xml:space="preserve" font-family="Helvetica-Light,Helvetica" font-size="51.0" fill="#000000" transform="matrix(1.00, 0.00, -0.00, -1.00, 594.2, 226.7)">c</text><text xml:space="preserve" font-family="Helvetica-Light,Helvetica" font-size="51.0" fill="#000000" transform="matrix(1.00, 0.00, -0.00, -1.00, 622.6, 226.7)">o</text><text xml:space="preserve" font-family="Helvetica-Light,Helvetica" font-size="51.0" fill="#000000" transform="matrix(1.00, 0.00, -0.00, -1.00, 650.9, 226.7)">d</text><text xml:space="preserve" font-family="Helvetica-Light,Helvetica" font-size="51.0" fill="#000000" transform="matrix(1.00, 0.00, -0.00, -1.00, 682.1, 226.7)">e</text><text xml:space="preserve" font-family="Helvetica-Light,Helvetica" font-size="51.0" fill="#000000" transform="matrix(1.00, 0.00, -0.00, -1.00, 36.8, 116.7)">P</text><text xml:space="preserve" font-family="Helvetica-Light,Helvetica" font-size="51.0" fill="#000000" transform="matrix(1.00, 0.00, -0.00, -1.00, 68.0, 116.7)">H</text><text xml:space="preserve" font-family="Helvetica-Light,Helvetica" font-size="51.0" fill="#000000" transform="matrix(1.00, 0.00, -0.00, -1.00, 104.8, 116.7)">P</text><text xml:space="preserve" font-family="Helvetica-Light,Helvetica" font-size="51.0" fill="#000000" transform="matrix(1.00, 0.00, -0.00, -1.00, 136.0, 116.7)">7</text><text xml:space="preserve" font-family="Helvetica-Light,Helvetica" font-size="51.0" fill="#000000" transform="matrix(1.00, 0.00, -0.00, -1.00, 164.3, 116.7)">:</text><text xml:space="preserve" font-family="Helvetica-Light,Helvetica" font-size="51.0" fill="#000000" transform="matrix(1.00, 0.00, -0.00, -1.00, 178.5, 116.7)"> </text><text xml:space="preserve" font-family="Helvetica-Light,Helvetica" font-size="51.0" fill="#000000" transform="matrix(1.00, 0.00, -0.00, -1.00, 192.7, 116.7)">D</text><text xml:space="preserve" font-family="Helvetica-Light,Helvetica" font-size="51.0" fill="#000000" transform="matrix(1.00, 0.00, -0.00, -1.00, 229.5, 116.7)">e</text><text xml:space="preserve" font-family="Helvetica-Light,Helvetica" font-size="51.0" fill="#000000" transform="matrix(1.00, 0.00, -0.00, -1.00, 257.9, 116.7)">p</text><text xml:space="preserve" font-family="Helvetica-Light,Helvetica" font-size="51.0" fill="#000000" transform="matrix(1.00, 0.00, -0.00, -1.00, 289.0, 116.7)">l</text><text xml:space="preserve" font-family="Helvetica-Light,Helvetica" font-size="51.0" fill="#000000" transform="matrix(1.00, 0.00, -0.00, -1.00, 300.4, 116.7)">o</text><text xml:space="preserve" font-family="Helvetica-Light,Helvetica" font-size="51.0" fill="#000000" transform="matrix(1.00, 0.00, -0.00, -1.00, 328.7, 116.7)">y</text><text xml:space="preserve" font-family="Helvetica-Light,Helvetica" font-size="51.0" fill="#000000" transform="matrix(1.00, 0.00, -0.00, -1.00, 354.2, 116.7)">i</text><text xml:space="preserve" font-family="Helvetica-Light,Helvetica" font-size="51.0" fill="#000000" transform="matrix(1.00, 0.00, -0.00, -1.00, 365.5, 116.7)">n</text><text xml:space="preserve" font-family="Helvetica-Light,Helvetica" font-size="51.0" fill="#000000" transform="matrix(1.00, 0.00, -0.00, -1.00, 393.9, 116.7)">g</text><text xml:space="preserve" font-family="Helvetica-Light,Helvetica" font-size="51.0" fill="#000000" transform="matrix(1.00, 0.00, -0.00, -1.00, 425.0, 116.7)"> </text><text xml:space="preserve" font-family="Helvetica-Light,Helvetica" font-size="51.0" fill="#000000" transform="matrix(1.00, 0.00, -0.00, -1.00, 439.2, 116.7)">r</text><text xml:space="preserve" font-family="Helvetica-Light,Helvetica" font-size="51.0" fill="#000000" transform="matrix(1.00, 0.00, -0.00, -1.00, 455.3, 116.7)">e</text><text xml:space="preserve" font-family="Helvetica-Light,Helvetica" font-size="51.0" fill="#000000" transform="matrix(1.00, 0.00, -0.00, -1.00, 483.6, 116.7)">a</text><text xml:space="preserve" font-family="Helvetica-Light,Helvetica" font-size="51.0" fill="#000000" transform="matrix(1.00, 0.00, -0.00, -1.00, 512.0, 116.7)">d</text><text xml:space="preserve" font-family="Helvetica-Light,Helvetica" font-size="51.0" fill="#000000" transform="matrix(1.00, 0.00, -0.00, -1.00, 543.2, 116.7)">y</text><text xml:space="preserve" font-family="Helvetica-Light,Helvetica" font-size="51.0" fill="#000000" transform="matrix(1.00, 0.00, -0.00, -1.00, 568.7, 116.7)"> </text><text xml:space="preserve" font-family="Helvetica-Light,Helvetica" font-size="51.0" fill="#000000" transform="matrix(1.00, 0.00, -0.00, -1.00, 582.8, 116.7)">c</text><text xml:space="preserve" font-family="Helvetica-Light,Helvetica" font-size="51.0" fill="#000000" transform="matrix(1.00, 0.00, -0.00, -1.00, 611.2, 116.7)">o</text><text xml:space="preserve" font-family="Helvetica-Light,Helvetica" font-size="51.0" fill="#000000" transform="matrix(1.00, 0.00, -0.00, -1.00, 639.6, 116.7)">d</text><text xml:space="preserve" font-family="Helvetica-Light,Helvetica" font-size="51.0" fill="#000000" transform="matrix(1.00, 0.00, -0.00, -1.00, 670.7, 116.7)">e</text><text xml:space="preserve" font-family="Helvetica-Light,Helvetica" font-size="51.0" fill="#000000" transform="matrix(1.00, 0.00, -0.00, -1.00, 36.8, 419.2)">P</text><text xml:space="preserve" font-family="Helvetica-Light,Helvetica" font-size="51.0" fill="#000000" transform="matrix(1.00, 0.00, -0.00, -1.00, 68.0, 419.2)">H</text><text xml:space="preserve" font-family="Helvetica-Light,Helvetica" font-size="51.0" fill="#000000" transform="matrix(1.00, 0.00, -0.00, -1.00, 104.8, 419.2)">P</text><text xml:space="preserve" font-family="Helvetica-Light,Helvetica" font-size="51.0" fill="#000000" transform="matrix(1.00, 0.00, -0.00, -1.00, 136.0, 419.2)">7</text><text xml:space="preserve" font-family="Helvetica-Light,Helvetica" font-size="51.0" fill="#000000" transform="matrix(1.00, 0.00, -0.00, -1.00, 164.3, 419.2)">:</text><text xml:space="preserve" font-family="Helvetica-Light,Helvetica" font-size="51.0" fill="#000000" transform="matrix(1.00, 0.00, -0.00, -1.00, 178.5, 419.2)"> </text><text xml:space="preserve" font-family="Helvetica-Light,Helvetica" font-size="51.0" fill="#000000" transform="matrix(1.00, 0.00, -0.00, -1.00, 192.7, 419.2)">C</text><text xml:space="preserve" font-family="Helvetica-Light,Helvetica" font-size="51.0" fill="#000000" transform="matrix(1.00, 0.00, -0.00, -1.00, 229.5, 419.2)">h</text><text xml:space="preserve" font-family="Helvetica-Light,Helvetica" font-size="51.0" fill="#000000" transform="matrix(1.00, 0.00, -0.00, -1.00, 257.9, 419.2)">e</text><text xml:space="preserve" font-family="Helvetica-Light,Helvetica" font-size="51.0" fill="#000000" transform="matrix(1.00, 0.00, -0.00, -1.00, 286.2, 419.2)">c</text><text xml:space="preserve" font-family="Helvetica-Light,Helvetica" font-size="51.0" fill="#000000" transform="matrix(1.00, 0.00, -0.00, -1.00, 314.6, 419.2)">k</text><text xml:space="preserve" font-family="Helvetica-Light,Helvetica" font-size="51.0" fill="#000000" transform="matrix(1.00, 0.00, -0.00, -1.00, 340.1, 419.2)">i</text><text xml:space="preserve" font-family="Helvetica-Light,Helvetica" font-size="51.0" fill="#000000" transform="matrix(1.00, 0.00, -0.00, -1.00, 351.4, 419.2)">n</text><text xml:space="preserve" font-family="Helvetica-Light,Helvetica" font-size="51.0" fill="#000000" transform="matrix(1.00, 0.00, -0.00, -1.00, 379.8, 419.2)">g</text><text xml:space="preserve" font-family="Helvetica-Light,Helvetica" font-size="51.0" fill="#000000" transform="matrix(1.00, 0.00, -0.00, -1.00, 410.9, 419.2)"> </text><text xml:space="preserve" font-family="Helvetica-Light,Helvetica" font-size="51.0" fill="#000000" transform="matrix(1.00, 0.00, -0.00, -1.00, 425.1, 419.2)">c</text><text xml:space="preserve" font-family="Helvetica-Light,Helvetica" font-size="51.0" fill="#000000" transform="matrix(1.00, 0.00, -0.00, -1.00, 453.5, 419.2)">o</text><text xml:space="preserve" font-family="Helvetica-Light,Helvetica" font-size="51.0" fill="#000000" transform="matrix(1.00, 0.00, -0.00, -1.00, 481.8, 419.2)">m</text><text xml:space="preserve" font-family="Helvetica-Light,Helvetica" font-size="51.0" fill="#000000" transform="matrix(1.00, 0.00, -0.00, -1.00, 524.3, 419.2)">p</text><text xml:space="preserve" font-family="Helvetica-Light,Helvetica" font-size="51.0" fill="#000000" transform="matrix(1.00, 0.00, -0.00, -1.00, 555.5, 419.2)">a</text><text xml:space="preserve" font-family="Helvetica-Light,Helvetica" font-size="51.0" fill="#000000" transform="matrix(1.00, 0.00, -0.00, -1.00, 583.8, 419.2)">t</text><text xml:space="preserve" font-family="Helvetica-Light,Helvetica" font-size="51.0" fill="#000000" transform="matrix(1.00, 0.00, -0.00, -1.00, 598.0, 419.2)">i</text><text xml:space="preserve" font-family="Helvetica-Light,Helvetica" font-size="51.0" fill="#000000" transform="matrix(1.00, 0.00, -0.00, -1.00, 609.3, 419.2)">b</text><text xml:space="preserve" font-family="Helvetica-Light,Helvetica" font-size="51.0" fill="#000000" transform="matrix(1.00, 0.00, -0.00, -1.00, 640.5, 419.2)">i</text><text xml:space="preserve" font-family="Helvetica-Light,Helvetica" font-size="51.0" fill="#000000" transform="matrix(1.00, 0.00, -0.00, -1.00, 651.8, 419.2)">l</text><text xml:space="preserve" font-family="Helvetica-Light,Helvetica" font-size="51.0" fill="#000000" transform="matrix(1.00, 0.00, -0.00, -1.00, 663.1, 419.2)">i</text><text xml:space="preserve" font-family="Helvetica-Light,Helvetica" font-size="51.0" fill="#000000" transform="matrix(1.00, 0.00, -0.00, -1.00, 674.4, 419.2)">t</text><text xml:space="preserve" font-family="Helvetica-Light,Helvetica" font-size="51.0" fill="#000000" transform="matrix(1.00, 0.00, -0.00, -1.00, 688.6, 419.2)">y</text></g></svg>