<?xml version="1.0" encoding="UTF-8" standalone="no"?><svg xmlns="http://www.w3.org/2000/svg" xmlns:xlink="http://www.w3.org/1999/xlink" clip-rule="evenodd" stroke-miterlimit="10" viewBox="0 0 940 39"><desc>SVG generated by Keynote</desc><defs></defs><g transform="matrix(1.00, 0.00, -0.00, -1.00, 0.0, 39.0)"><text xml:space="preserve" font-family="Helvetica-Light,Helvetica" font-size="37.0" fill="#000000" transform="matrix(1.00, 0.00, -0.00, -1.00, -2.2, 10.4)">I</text><text xml:space="preserve" font-family="Helvetica-Light,Helvetica" font-size="37.0" fill="#000000" transform="matrix(1.00, 0.00, -0.00, -1.00, 8.1, 10.4)">m</text><text xml:space="preserve" font-family="Helvetica-Light,Helvetica" font-size="37.0" fill="#000000" transform="matrix(1.00, 0.00, -0.00, -1.00, 38.9, 10.4)">p</text><text xml:space="preserve" font-family="Helvetica-Light,Helvetica" font-size="37.0" fill="#000000" transform="matrix(1.00, 0.00, -0.00, -1.00, 61.6, 10.4)">o</text><text xml:space="preserve" font-family="Helvetica-Light,Helvetica" font-size="37.0" fill="#000000" transform="matrix(1.00, 0.00, -0.00, -1.00, 82.1, 10.4)">r</text><text xml:space="preserve" font-family="Helvetica-Light,Helvetica" font-size="37.0" fill="#000000" transform="matrix(1.00, 0.00, -0.00, -1.00, 95.1, 10.4)">t</text><text xml:space="preserve" font-family="Helvetica-Light,Helvetica" font-size="37.0" fill="#000000" transform="matrix(1.00, 0.00, -0.00, -1.00, 105.4, 10.4)">a</text><text xml:space="preserve" font-family="Helvetica-Light,Helvetica" font-size="37.0" fill="#000000" transform="matrix(1.00, 0.00, -0.00, -1.00, 126.0, 10.4)">n</text><text xml:space="preserve" font-family="Helvetica-Light,Helvetica" font-size="37.0" fill="#000000" transform="matrix(1.00, 0.00, -0.00, -1.00, 146.5, 10.4)">t</text><text xml:space="preserve" font-family="Helvetica-Light,Helvetica" font-size="37.0" fill="#000000" transform="matrix(1.00, 0.00, -0.00, -1.00, 156.8, 10.4)"> </text><text xml:space="preserve" font-family="Helvetica-Light,Helvetica" font-size="37.0" fill="#000000" transform="matrix(1.00, 0.00, -0.00, -1.00, 167.1, 10.4)">f</text><text xml:space="preserve" font-family="Helvetica-Light,Helvetica" font-size="37.0" fill="#000000" transform="matrix(1.00, 0.00, -0.00, -1.00, 177.4, 10.4)">o</text><text xml:space="preserve" font-family="Helvetica-Light,Helvetica" font-size="37.0" fill="#000000" transform="matrix(1.00, 0.00, -0.00, -1.00, 198.0, 10.4)">r</text><text xml:space="preserve" font-family="Helvetica-Light,Helvetica" font-size="37.0" fill="#000000" transform="matrix(1.00, 0.00, -0.00, -1.00, 210.3, 10.4)"> </text><text xml:space="preserve" font-family="Helvetica-Light,Helvetica" font-size="37.0" fill="#000000" transform="matrix(1.00, 0.00, -0.00, -1.00, 220.6, 10.4)">a</text><text xml:space="preserve" font-family="Helvetica-Light,Helvetica" font-size="37.0" fill="#000000" transform="matrix(1.00, 0.00, -0.00, -1.00, 241.2, 10.4)">b</text><text xml:space="preserve" font-family="Helvetica-Light,Helvetica" font-size="37.0" fill="#000000" transform="matrix(1.00, 0.00, -0.00, -1.00, 263.8, 10.4)">s</text><text xml:space="preserve" font-family="Helvetica-Light,Helvetica" font-size="37.0" fill="#000000" transform="matrix(1.00, 0.00, -0.00, -1.00, 282.3, 10.4)">t</text><text xml:space="preserve" font-family="Helvetica-Light,Helvetica" font-size="37.0" fill="#000000" transform="matrix(1.00, 0.00, -0.00, -1.00, 292.5, 10.4)">r</text><text xml:space="preserve" font-family="Helvetica-Light,Helvetica" font-size="37.0" fill="#000000" transform="matrix(1.00, 0.00, -0.00, -1.00, 304.9, 10.4)">a</text><text xml:space="preserve" font-family="Helvetica-Light,Helvetica" font-size="37.0" fill="#000000" transform="matrix(1.00, 0.00, -0.00, -1.00, 325.4, 10.4)">c</text><text xml:space="preserve" font-family="Helvetica-Light,Helvetica" font-size="37.0" fill="#000000" transform="matrix(1.00, 0.00, -0.00, -1.00, 346.0, 10.4)">t</text><text xml:space="preserve" font-family="Helvetica-Light,Helvetica" font-size="37.0" fill="#000000" transform="matrix(1.00, 0.00, -0.00, -1.00, 356.3, 10.4)">i</text><text xml:space="preserve" font-family="Helvetica-Light,Helvetica" font-size="37.0" fill="#000000" transform="matrix(1.00, 0.00, -0.00, -1.00, 364.5, 10.4)">n</text><text xml:space="preserve" font-family="Helvetica-Light,Helvetica" font-size="37.0" fill="#000000" transform="matrix(1.00, 0.00, -0.00, -1.00, 385.1, 10.4)">g</text><text xml:space="preserve" font-family="Helvetica-Light,Helvetica" font-size="37.0" fill="#000000" transform="matrix(1.00, 0.00, -0.00, -1.00, 407.7, 10.4)"> </text><text xml:space="preserve" font-family="Helvetica-Light,Helvetica" font-size="37.0" fill="#000000" transform="matrix(1.00, 0.00, -0.00, -1.00, 418.0, 10.4)">d</text><text xml:space="preserve" font-family="Helvetica-Light,Helvetica" font-size="37.0" fill="#000000" transform="matrix(1.00, 0.00, -0.00, -1.00, 440.6, 10.4)">o</text><text xml:space="preserve" font-family="Helvetica-Light,Helvetica" font-size="37.0" fill="#000000" transform="matrix(1.00, 0.00, -0.00, -1.00, 461.2, 10.4)">m</text><text xml:space="preserve" font-family="Helvetica-Light,Helvetica" font-size="37.0" fill="#000000" transform="matrix(1.00, 0.00, -0.00, -1.00, 492.0, 10.4)">a</text><text xml:space="preserve" font-family="Helvetica-Light,Helvetica" font-size="37.0" fill="#000000" transform="matrix(1.00, 0.00, -0.00, -1.00, 512.5, 10.4)">i</text><text xml:space="preserve" font-family="Helvetica-Light,Helvetica" font-size="37.0" fill="#000000" transform="matrix(1.00, 0.00, -0.00, -1.00, 520.8, 10.4)">n</text><text xml:space="preserve" font-family="Helvetica-Light,Helvetica" font-size="37.0" fill="#000000" transform="matrix(1.00, 0.00, -0.00, -1.00, 541.3, 10.4)"> </text><text xml:space="preserve" font-family="Helvetica-Light,Helvetica" font-size="37.0" fill="#000000" transform="matrix(1.00, 0.00, -0.00, -1.00, 551.6, 10.4)">m</text><text xml:space="preserve" font-family="Helvetica-Light,Helvetica" font-size="37.0" fill="#000000" transform="matrix(1.00, 0.00, -0.00, -1.00, 582.4, 10.4)">o</text><text xml:space="preserve" font-family="Helvetica-Light,Helvetica" font-size="37.0" fill="#000000" transform="matrix(1.00, 0.00, -0.00, -1.00, 603.0, 10.4)">d</text><text xml:space="preserve" font-family="Helvetica-Light,Helvetica" font-size="37.0" fill="#000000" transform="matrix(1.00, 0.00, -0.00, -1.00, 625.6, 10.4)">e</text><text xml:space="preserve" font-family="Helvetica-Light,Helvetica" font-size="37.0" fill="#000000" transform="matrix(1.00, 0.00, -0.00, -1.00, 646.2, 10.4)">l</text><text xml:space="preserve" font-family="Helvetica-Light,Helvetica" font-size="37.0" fill="#000000" transform="matrix(1.00, 0.00, -0.00, -1.00, 654.4, 10.4)">s</text><text xml:space="preserve" font-family="Helvetica-Light,Helvetica" font-size="37.0" fill="#000000" transform="matrix(1.00, 0.00, -0.00, -1.00, 672.9, 10.4)"> </text><text xml:space="preserve" font-family="Helvetica-Light,Helvetica" font-size="37.0" fill="#000000" transform="matrix(1.00, 0.00, -0.00, -1.00, 683.2, 10.4)">l</text><text xml:space="preserve" font-family="Helvetica-Light,Helvetica" font-size="37.0" fill="#000000" transform="matrix(1.00, 0.00, -0.00, -1.00, 691.4, 10.4)">i</text><text xml:space="preserve" font-family="Helvetica-Light,Helvetica" font-size="37.0" fill="#000000" transform="matrix(1.00, 0.00, -0.00, -1.00, 699.6, 10.4)">k</text><text xml:space="preserve" font-family="Helvetica-Light,Helvetica" font-size="37.0" fill="#000000" transform="matrix(1.00, 0.00, -0.00, -1.00, 718.1, 10.4)">e</text><text xml:space="preserve" font-family="Helvetica-Light,Helvetica" font-size="37.0" fill="#000000" transform="matrix(1.00, 0.00, -0.00, -1.00, 738.7, 10.4)"> </text><text xml:space="preserve" font-family="Helvetica-Light,Helvetica" font-size="37.0" fill="#000000" transform="matrix(1.00, 0.00, -0.00, -1.00, 749.0, 10.4)">s</text><text xml:space="preserve" font-family="Helvetica-Light,Helvetica" font-size="37.0" fill="#000000" transform="matrix(1.00, 0.00, -0.00, -1.00, 767.5, 10.4)">e</text><text xml:space="preserve" font-family="Helvetica-Light,Helvetica" font-size="37.0" fill="#000000" transform="matrix(1.00, 0.00, -0.00, -1.00, 788.1, 10.4)">r</text><text xml:space="preserve" font-family="Helvetica-Light,Helvetica" font-size="37.0" fill="#000000" transform="matrix(1.00, 0.00, -0.00, -1.00, 800.4, 10.4)">v</text><text xml:space="preserve" font-family="Helvetica-Light,Helvetica" font-size="37.0" fill="#000000" transform="matrix(1.00, 0.00, -0.00, -1.00, 818.9, 10.4)">i</text><text xml:space="preserve" font-family="Helvetica-Light,Helvetica" font-size="37.0" fill="#000000" transform="matrix(1.00, 0.00, -0.00, -1.00, 827.1, 10.4)">c</text><text xml:space="preserve" font-family="Helvetica-Light,Helvetica" font-size="37.0" fill="#000000" transform="matrix(1.00, 0.00, -0.00, -1.00, 847.7, 10.4)">e</text><text xml:space="preserve" font-family="Helvetica-Light,Helvetica" font-size="37.0" fill="#000000" transform="matrix(1.00, 0.00, -0.00, -1.00, 868.2, 10.4)">s</text><text xml:space="preserve" font-family="Helvetica-Light,Helvetica" font-size="37.0" fill="#000000" transform="matrix(1.00, 0.00, -0.00, -1.00, 886.7, 10.4)"> </text><text xml:space="preserve" font-family="Helvetica-Light,Helvetica" font-size="37.0" fill="#000000" transform="matrix(1.00, 0.00, -0.00, -1.00, 897.0, 10.4)">t</text><text xml:space="preserve" font-family="Helvetica-Light,Helvetica" font-size="37.0" fill="#000000" transform="matrix(1.00, 0.00, -0.00, -1.00, 907.3, 10.4)">o</text><text xml:space="preserve" font-family="Helvetica-Light,Helvetica" font-size="37.0" fill="#000000" transform="matrix(1.00, 0.00, -0.00, -1.00, 927.9, 10.4)">:</text><text xml:space="preserve" font-family="Helvetica-Light,Helvetica" font-size="37.0" fill="#000000" transform="matrix(1.00, 0.00, -0.00, -1.00, 938.2, 10.4)"> </text></g></svg>