<?xml version="1.0" encoding="UTF-8" standalone="no"?><svg xmlns="http://www.w3.org/2000/svg" xmlns:xlink="http://www.w3.org/1999/xlink" clip-rule="evenodd" stroke-miterlimit="10" viewBox="0 0 223 39"><desc>SVG generated by Keynote</desc><defs></defs><g transform="matrix(1.00, 0.00, -0.00, -1.00, 0.0, 39.0)"><text xml:space="preserve" font-family="Helvetica-Light,Helvetica" font-size="37.0" fill="#000000" transform="matrix(1.00, 0.00, -0.00, -1.00, 1.3, 10.4)">A</text><text xml:space="preserve" font-family="Helvetica-Light,Helvetica" font-size="37.0" fill="#000000" transform="matrix(1.00, 0.00, -0.00, -1.00, 26.0, 10.4)">P</text><text xml:space="preserve" font-family="Helvetica-Light,Helvetica" font-size="37.0" fill="#000000" transform="matrix(1.00, 0.00, -0.00, -1.00, 48.6, 10.4)">I</text><text xml:space="preserve" font-family="Helvetica-Light,Helvetica" font-size="37.0" fill="#000000" transform="matrix(1.00, 0.00, -0.00, -1.00, 58.9, 10.4)"> </text><text xml:space="preserve" font-family="Helvetica-Light,Helvetica" font-size="37.0" fill="#000000" transform="matrix(1.00, 0.00, -0.00, -1.00, 69.2, 10.4)">r</text><text xml:space="preserve" font-family="Helvetica-Light,Helvetica" font-size="37.0" fill="#000000" transform="matrix(1.00, 0.00, -0.00, -1.00, 80.8, 10.4)">e</text><text xml:space="preserve" font-family="Helvetica-Light,Helvetica" font-size="37.0" fill="#000000" transform="matrix(1.00, 0.00, -0.00, -1.00, 101.4, 10.4)">s</text><text xml:space="preserve" font-family="Helvetica-Light,Helvetica" font-size="37.0" fill="#000000" transform="matrix(1.00, 0.00, -0.00, -1.00, 119.9, 10.4)">p</text><text xml:space="preserve" font-family="Helvetica-Light,Helvetica" font-size="37.0" fill="#000000" transform="matrix(1.00, 0.00, -0.00, -1.00, 142.5, 10.4)">o</text><text xml:space="preserve" font-family="Helvetica-Light,Helvetica" font-size="37.0" fill="#000000" transform="matrix(1.00, 0.00, -0.00, -1.00, 163.1, 10.4)">n</text><text xml:space="preserve" font-family="Helvetica-Light,Helvetica" font-size="37.0" fill="#000000" transform="matrix(1.00, 0.00, -0.00, -1.00, 183.6, 10.4)">s</text><text xml:space="preserve" font-family="Helvetica-Light,Helvetica" font-size="37.0" fill="#000000" transform="matrix(1.00, 0.00, -0.00, -1.00, 202.1, 10.4)">e</text></g></svg>