<?xml version="1.0" encoding="UTF-8" standalone="no"?><svg xmlns="http://www.w3.org/2000/svg" xmlns:xlink="http://www.w3.org/1999/xlink" clip-rule="evenodd" stroke-miterlimit="10" viewBox="0 0 801 82"><desc>SVG generated by Keynote</desc><defs></defs><g transform="matrix(1.00, 0.00, -0.00, -1.00, 0.0, 82.0)"><text xml:space="preserve" font-family="Helvetica-Light,Helvetica" font-size="83.0" fill="#000000" transform="matrix(1.00, 0.00, -0.00, -1.00, -5.1, 18.2)">D</text><text xml:space="preserve" font-family="Helvetica-Light,Helvetica" font-size="83.0" fill="#000000" transform="matrix(1.00, 0.00, -0.00, -1.00, 54.8, 18.2)">a</text><text xml:space="preserve" font-family="Helvetica-Light,Helvetica" font-size="83.0" fill="#000000" transform="matrix(1.00, 0.00, -0.00, -1.00, 101.0, 18.2)">t</text><text xml:space="preserve" font-family="Helvetica-Light,Helvetica" font-size="83.0" fill="#000000" transform="matrix(1.00, 0.00, -0.00, -1.00, 124.0, 18.2)">a</text><text xml:space="preserve" font-family="Helvetica-Light,Helvetica" font-size="83.0" fill="#000000" transform="matrix(1.00, 0.00, -0.00, -1.00, 170.2, 18.2)"> </text><text xml:space="preserve" font-family="Helvetica-Light,Helvetica" font-size="83.0" fill="#000000" transform="matrix(1.00, 0.00, -0.00, -1.00, 193.3, 18.2)">T</text><text xml:space="preserve" font-family="Helvetica-Light,Helvetica" font-size="83.0" fill="#000000" transform="matrix(1.00, 0.00, -0.00, -1.00, 231.8, 18.2)">r</text><text xml:space="preserve" font-family="Helvetica-Light,Helvetica" font-size="83.0" fill="#000000" transform="matrix(1.00, 0.00, -0.00, -1.00, 259.4, 18.2)">a</text><text xml:space="preserve" font-family="Helvetica-Light,Helvetica" font-size="83.0" fill="#000000" transform="matrix(1.00, 0.00, -0.00, -1.00, 305.6, 18.2)">n</text><text xml:space="preserve" font-family="Helvetica-Light,Helvetica" font-size="83.0" fill="#000000" transform="matrix(1.00, 0.00, -0.00, -1.00, 351.7, 18.2)">s</text><text xml:space="preserve" font-family="Helvetica-Light,Helvetica" font-size="83.0" fill="#000000" transform="matrix(1.00, 0.00, -0.00, -1.00, 393.2, 18.2)">f</text><text xml:space="preserve" font-family="Helvetica-Light,Helvetica" font-size="83.0" fill="#000000" transform="matrix(1.00, 0.00, -0.00, -1.00, 416.3, 18.2)">e</text><text xml:space="preserve" font-family="Helvetica-Light,Helvetica" font-size="83.0" fill="#000000" transform="matrix(1.00, 0.00, -0.00, -1.00, 462.4, 18.2)">r</text><text xml:space="preserve" font-family="Helvetica-Light,Helvetica" font-size="83.0" fill="#000000" transform="matrix(1.00, 0.00, -0.00, -1.00, 490.1, 18.2)"> </text><text xml:space="preserve" font-family="Helvetica-Light,Helvetica" font-size="83.0" fill="#000000" transform="matrix(1.00, 0.00, -0.00, -1.00, 513.1, 18.2)">O</text><text xml:space="preserve" font-family="Helvetica-Light,Helvetica" font-size="83.0" fill="#000000" transform="matrix(1.00, 0.00, -0.00, -1.00, 577.7, 18.2)">b</text><text xml:space="preserve" font-family="Helvetica-Light,Helvetica" font-size="83.0" fill="#000000" transform="matrix(1.00, 0.00, -0.00, -1.00, 628.4, 18.2)">j</text><text xml:space="preserve" font-family="Helvetica-Light,Helvetica" font-size="83.0" fill="#000000" transform="matrix(1.00, 0.00, -0.00, -1.00, 646.9, 18.2)">e</text><text xml:space="preserve" font-family="Helvetica-Light,Helvetica" font-size="83.0" fill="#000000" transform="matrix(1.00, 0.00, -0.00, -1.00, 693.0, 18.2)">c</text><text xml:space="preserve" font-family="Helvetica-Light,Helvetica" font-size="83.0" fill="#000000" transform="matrix(1.00, 0.00, -0.00, -1.00, 739.2, 18.2)">t</text><text xml:space="preserve" font-family="Helvetica-Light,Helvetica" font-size="83.0" fill="#000000" transform="matrix(1.00, 0.00, -0.00, -1.00, 762.2, 18.2)">s</text></g></svg>