<?xml version="1.0" encoding="UTF-8" standalone="no"?><svg xmlns="http://www.w3.org/2000/svg" xmlns:xlink="http://www.w3.org/1999/xlink" clip-rule="evenodd" stroke-miterlimit="10" viewBox="0 0 1024 768"><desc>SVG generated by Keynote</desc><defs></defs><g transform="matrix(1.00, 0.00, -0.00, -1.00, 0.0, 768.0)"><path d="M 0.0 768.0 L 1024.0 768.0 L 1024.0 0.0 L 0.0 0.0 Z M 0.0 768.0 " fill="#FEFFFF"></path><text xml:space="preserve" font-family="Helvetica-Light,Helvetica" font-size="45.9" fill="#000000" transform="matrix(1.00, 0.00, -0.00, -1.00, 107.8, 677.6)">P</text><text xml:space="preserve" font-family="Helvetica-Light,Helvetica" font-size="45.9" fill="#000000" transform="matrix(1.00, 0.00, -0.00, -1.00, 135.8, 677.6)">H</text><text xml:space="preserve" font-family="Helvetica-Light,Helvetica" font-size="45.9" fill="#000000" transform="matrix(1.00, 0.00, -0.00, -1.00, 169.0, 677.6)">P</text><text xml:space="preserve" font-family="Helvetica-Light,Helvetica" font-size="45.9" fill="#000000" transform="matrix(1.00, 0.00, -0.00, -1.00, 197.0, 677.6)">7</text><text xml:space="preserve" font-family="Helvetica-Light,Helvetica" font-size="45.9" fill="#000000" transform="matrix(1.00, 0.00, -0.00, -1.00, 222.5, 677.6)">:</text><text xml:space="preserve" font-family="Helvetica-Light,Helvetica" font-size="45.9" fill="#000000" transform="matrix(1.00, 0.00, -0.00, -1.00, 235.3, 677.6)"> </text><text xml:space="preserve" font-family="Helvetica-Light,Helvetica" font-size="45.9" fill="#000000" transform="matrix(1.00, 0.00, -0.00, -1.00, 248.1, 677.6)">B</text><text xml:space="preserve" font-family="Helvetica-Light,Helvetica" font-size="45.9" fill="#000000" transform="matrix(1.00, 0.00, -0.00, -1.00, 278.7, 677.6)">a</text><text xml:space="preserve" font-family="Helvetica-Light,Helvetica" font-size="45.9" fill="#000000" transform="matrix(1.00, 0.00, -0.00, -1.00, 304.2, 677.6)">c</text><text xml:space="preserve" font-family="Helvetica-Light,Helvetica" font-size="45.9" fill="#000000" transform="matrix(1.00, 0.00, -0.00, -1.00, 329.7, 677.6)">k</text><text xml:space="preserve" font-family="Helvetica-Light,Helvetica" font-size="45.9" fill="#000000" transform="matrix(1.00, 0.00, -0.00, -1.00, 352.7, 677.6)">w</text><text xml:space="preserve" font-family="Helvetica-Light,Helvetica" font-size="45.9" fill="#000000" transform="matrix(1.00, 0.00, -0.00, -1.00, 385.8, 677.6)">a</text><text xml:space="preserve" font-family="Helvetica-Light,Helvetica" font-size="45.9" fill="#000000" transform="matrix(1.00, 0.00, -0.00, -1.00, 411.3, 677.6)">r</text><text xml:space="preserve" font-family="Helvetica-Light,Helvetica" font-size="45.9" fill="#000000" transform="matrix(1.00, 0.00, -0.00, -1.00, 425.8, 677.6)">d</text><text xml:space="preserve" font-family="Helvetica-Light,Helvetica" font-size="45.9" fill="#000000" transform="matrix(1.00, 0.00, -0.00, -1.00, 453.8, 677.6)">s</text><text xml:space="preserve" font-family="Helvetica-Light,Helvetica" font-size="45.9" fill="#000000" transform="matrix(1.00, 0.00, -0.00, -1.00, 476.8, 677.6)"> </text><text xml:space="preserve" font-family="Helvetica-Light,Helvetica" font-size="45.9" fill="#000000" transform="matrix(1.00, 0.00, -0.00, -1.00, 489.5, 677.6)">I</text><text xml:space="preserve" font-family="Helvetica-Light,Helvetica" font-size="45.9" fill="#000000" transform="matrix(1.00, 0.00, -0.00, -1.00, 502.3, 677.6)">n</text><text xml:space="preserve" font-family="Helvetica-Light,Helvetica" font-size="45.9" fill="#000000" transform="matrix(1.00, 0.00, -0.00, -1.00, 527.8, 677.6)">c</text><text xml:space="preserve" font-family="Helvetica-Light,Helvetica" font-size="45.9" fill="#000000" transform="matrix(1.00, 0.00, -0.00, -1.00, 553.3, 677.6)">o</text><text xml:space="preserve" font-family="Helvetica-Light,Helvetica" font-size="45.9" fill="#000000" transform="matrix(1.00, 0.00, -0.00, -1.00, 578.9, 677.6)">m</text><text xml:space="preserve" font-family="Helvetica-Light,Helvetica" font-size="45.9" fill="#000000" transform="matrix(1.00, 0.00, -0.00, -1.00, 617.1, 677.6)">p</text><text xml:space="preserve" font-family="Helvetica-Light,Helvetica" font-size="45.9" fill="#000000" transform="matrix(1.00, 0.00, -0.00, -1.00, 645.1, 677.6)">a</text><text xml:space="preserve" font-family="Helvetica-Light,Helvetica" font-size="45.9" fill="#000000" transform="matrix(1.00, 0.00, -0.00, -1.00, 670.7, 677.6)">t</text><text xml:space="preserve" font-family="Helvetica-Light,Helvetica" font-size="45.9" fill="#000000" transform="matrix(1.00, 0.00, -0.00, -1.00, 683.4, 677.6)">i</text><text xml:space="preserve" font-family="Helvetica-Light,Helvetica" font-size="45.9" fill="#000000" transform="matrix(1.00, 0.00, -0.00, -1.00, 693.6, 677.6)">b</text><text xml:space="preserve" font-family="Helvetica-Light,Helvetica" font-size="45.9" fill="#000000" transform="matrix(1.00, 0.00, -0.00, -1.00, 721.7, 677.6)">l</text><text xml:space="preserve" font-family="Helvetica-Light,Helvetica" font-size="45.9" fill="#000000" transform="matrix(1.00, 0.00, -0.00, -1.00, 731.8, 677.6)">e</text><text xml:space="preserve" font-family="Helvetica-Light,Helvetica" font-size="45.9" fill="#000000" transform="matrix(1.00, 0.00, -0.00, -1.00, 757.4, 677.6)"> </text><text xml:space="preserve" font-family="Helvetica-Light,Helvetica" font-size="45.9" fill="#000000" transform="matrix(1.00, 0.00, -0.00, -1.00, 770.1, 677.6)">B</text><text xml:space="preserve" font-family="Helvetica-Light,Helvetica" font-size="45.9" fill="#000000" transform="matrix(1.00, 0.00, -0.00, -1.00, 800.7, 677.6)">r</text><text xml:space="preserve" font-family="Helvetica-Light,Helvetica" font-size="45.9" fill="#000000" transform="matrix(1.00, 0.00, -0.00, -1.00, 815.2, 677.6)">e</text><text xml:space="preserve" font-family="Helvetica-Light,Helvetica" font-size="45.9" fill="#000000" transform="matrix(1.00, 0.00, -0.00, -1.00, 840.7, 677.6)">a</text><text xml:space="preserve" font-family="Helvetica-Light,Helvetica" font-size="45.9" fill="#000000" transform="matrix(1.00, 0.00, -0.00, -1.00, 866.2, 677.6)">k</text><text xml:space="preserve" font-family="Helvetica-Light,Helvetica" font-size="45.9" fill="#000000" transform="matrix(1.00, 0.00, -0.00, -1.00, 889.2, 677.6)">s</text><text xml:space="preserve" font-family="Helvetica-Light,Helvetica" font-size="51.0" fill="#000000" transform="matrix(1.00, 0.00, -0.00, -1.00, 146.8, 578.2)">P</text><text xml:space="preserve" font-family="Helvetica-Light,Helvetica" font-size="51.0" fill="#000000" transform="matrix(1.00, 0.00, -0.00, -1.00, 178.0, 578.2)">r</text><text xml:space="preserve" font-family="Helvetica-Light,Helvetica" font-size="51.0" fill="#000000" transform="matrix(1.00, 0.00, -0.00, -1.00, 194.1, 578.2)">e</text><text xml:space="preserve" font-family="Helvetica-Light,Helvetica" font-size="51.0" fill="#000000" transform="matrix(1.00, 0.00, -0.00, -1.00, 222.4, 578.2)">g</text><text xml:space="preserve" font-family="Helvetica-Light,Helvetica" font-size="51.0" fill="#000000" transform="matrix(1.00, 0.00, -0.00, -1.00, 253.6, 578.2)">_</text><text xml:space="preserve" font-family="Helvetica-Light,Helvetica" font-size="51.0" fill="#000000" transform="matrix(1.00, 0.00, -0.00, -1.00, 279.1, 578.2)">*</text><text xml:space="preserve" font-family="Helvetica-Light,Helvetica" font-size="51.0" fill="#000000" transform="matrix(1.00, 0.00, -0.00, -1.00, 298.9, 578.2)"> </text><text xml:space="preserve" font-family="Helvetica-Light,Helvetica" font-size="51.0" fill="#000000" transform="matrix(1.00, 0.00, -0.00, -1.00, 313.1, 578.2)">e</text><text xml:space="preserve" font-family="Helvetica-Light,Helvetica" font-size="51.0" fill="#000000" transform="matrix(1.00, 0.00, -0.00, -1.00, 341.5, 578.2)">v</text><text xml:space="preserve" font-family="Helvetica-Light,Helvetica" font-size="51.0" fill="#000000" transform="matrix(1.00, 0.00, -0.00, -1.00, 367.0, 578.2)">a</text><text xml:space="preserve" font-family="Helvetica-Light,Helvetica" font-size="51.0" fill="#000000" transform="matrix(1.00, 0.00, -0.00, -1.00, 395.3, 578.2)">l</text><text xml:space="preserve" font-family="Helvetica-Light,Helvetica" font-size="51.0" fill="#000000" transform="matrix(1.00, 0.00, -0.00, -1.00, 406.6, 578.2)"> </text><text xml:space="preserve" font-family="Helvetica-Light,Helvetica" font-size="51.0" fill="#000000" transform="matrix(1.00, 0.00, -0.00, -1.00, 420.8, 578.2)">/</text><text xml:space="preserve" font-family="Helvetica-Light,Helvetica" font-size="51.0" fill="#000000" transform="matrix(1.00, 0.00, -0.00, -1.00, 435.0, 578.2)">e</text><text xml:space="preserve" font-family="Helvetica-Light,Helvetica" font-size="51.0" fill="#000000" transform="matrix(1.00, 0.00, -0.00, -1.00, 463.4, 578.2)"> </text><text xml:space="preserve" font-family="Helvetica-Light,Helvetica" font-size="51.0" fill="#000000" transform="matrix(1.00, 0.00, -0.00, -1.00, 477.5, 578.2)">m</text><text xml:space="preserve" font-family="Helvetica-Light,Helvetica" font-size="51.0" fill="#000000" transform="matrix(1.00, 0.00, -0.00, -1.00, 520.0, 578.2)">o</text><text xml:space="preserve" font-family="Helvetica-Light,Helvetica" font-size="51.0" fill="#000000" transform="matrix(1.00, 0.00, -0.00, -1.00, 548.4, 578.2)">d</text><text xml:space="preserve" font-family="Helvetica-Light,Helvetica" font-size="51.0" fill="#000000" transform="matrix(1.00, 0.00, -0.00, -1.00, 579.5, 578.2)">i</text><text xml:space="preserve" font-family="Helvetica-Light,Helvetica" font-size="51.0" fill="#000000" transform="matrix(1.00, 0.00, -0.00, -1.00, 590.9, 578.2)">ﬁ</text><text xml:space="preserve" font-family="Helvetica-Light,Helvetica" font-size="51.0" fill="#000000" transform="matrix(1.00, 0.00, -0.00, -1.00, 616.4, 578.2)">e</text><text xml:space="preserve" font-family="Helvetica-Light,Helvetica" font-size="51.0" fill="#000000" transform="matrix(1.00, 0.00, -0.00, -1.00, 644.7, 578.2)">r</text><text xml:space="preserve" font-family="Helvetica-Light,Helvetica" font-size="51.0" fill="#000000" transform="matrix(1.00, 0.00, -0.00, -1.00, 661.7, 578.2)"> </text><text xml:space="preserve" font-family="Helvetica-Light,Helvetica" font-size="51.0" fill="#000000" transform="matrix(1.00, 0.00, -0.00, -1.00, 675.9, 578.2)">r</text><text xml:space="preserve" font-family="Helvetica-Light,Helvetica" font-size="51.0" fill="#000000" transform="matrix(1.00, 0.00, -0.00, -1.00, 691.9, 578.2)">e</text><text xml:space="preserve" font-family="Helvetica-Light,Helvetica" font-size="51.0" fill="#000000" transform="matrix(1.00, 0.00, -0.00, -1.00, 720.3, 578.2)">m</text><text xml:space="preserve" font-family="Helvetica-Light,Helvetica" font-size="51.0" fill="#000000" transform="matrix(1.00, 0.00, -0.00, -1.00, 762.8, 578.2)">o</text><text xml:space="preserve" font-family="Helvetica-Light,Helvetica" font-size="51.0" fill="#000000" transform="matrix(1.00, 0.00, -0.00, -1.00, 791.1, 578.2)">v</text><text xml:space="preserve" font-family="Helvetica-Light,Helvetica" font-size="51.0" fill="#000000" transform="matrix(1.00, 0.00, -0.00, -1.00, 816.6, 578.2)">e</text><text xml:space="preserve" font-family="Helvetica-Light,Helvetica" font-size="51.0" fill="#000000" transform="matrix(1.00, 0.00, -0.00, -1.00, 845.0, 578.2)">d</text><text xml:space="preserve" font-family="CourierNewPSMT,Courier New" font-size="23.0" fill="#000000" transform="matrix(1.00, 0.00, -0.00, -1.00, 58.2, 436.9)">e</text><text xml:space="preserve" font-family="CourierNewPSMT,Courier New" font-size="23.0" fill="#000000" transform="matrix(1.00, 0.00, -0.00, -1.00, 72.0, 436.9)">c</text><text xml:space="preserve" font-family="CourierNewPSMT,Courier New" font-size="23.0" fill="#000000" transform="matrix(1.00, 0.00, -0.00, -1.00, 85.8, 436.9)">h</text><text xml:space="preserve" font-family="CourierNewPSMT,Courier New" font-size="23.0" fill="#000000" transform="matrix(1.00, 0.00, -0.00, -1.00, 99.6, 436.9)">o</text><text xml:space="preserve" font-family="CourierNewPSMT,Courier New" font-size="23.0" fill="#000000" transform="matrix(1.00, 0.00, -0.00, -1.00, 113.4, 436.9)"> </text><text xml:space="preserve" font-family="CourierNewPSMT,Courier New" font-size="23.0" fill="#021993" transform="matrix(1.00, 0.00, -0.00, -1.00, 127.2, 436.9)">p</text><text xml:space="preserve" font-family="CourierNewPSMT,Courier New" font-size="23.0" fill="#021993" transform="matrix(1.00, 0.00, -0.00, -1.00, 141.0, 436.9)">r</text><text xml:space="preserve" font-family="CourierNewPSMT,Courier New" font-size="23.0" fill="#021993" transform="matrix(1.00, 0.00, -0.00, -1.00, 154.8, 436.9)">e</text><text xml:space="preserve" font-family="CourierNewPSMT,Courier New" font-size="23.0" fill="#021993" transform="matrix(1.00, 0.00, -0.00, -1.00, 168.6, 436.9)">g</text><text xml:space="preserve" font-family="CourierNewPSMT,Courier New" font-size="23.0" fill="#021993" transform="matrix(1.00, 0.00, -0.00, -1.00, 182.4, 436.9)">_</text><text xml:space="preserve" font-family="CourierNewPSMT,Courier New" font-size="23.0" fill="#021993" transform="matrix(1.00, 0.00, -0.00, -1.00, 196.2, 436.9)">r</text><text xml:space="preserve" font-family="CourierNewPSMT,Courier New" font-size="23.0" fill="#021993" transform="matrix(1.00, 0.00, -0.00, -1.00, 210.1, 436.9)">e</text><text xml:space="preserve" font-family="CourierNewPSMT,Courier New" font-size="23.0" fill="#021993" transform="matrix(1.00, 0.00, -0.00, -1.00, 223.9, 436.9)">p</text><text xml:space="preserve" font-family="CourierNewPSMT,Courier New" font-size="23.0" fill="#021993" transform="matrix(1.00, 0.00, -0.00, -1.00, 237.7, 436.9)">l</text><text xml:space="preserve" font-family="CourierNewPSMT,Courier New" font-size="23.0" fill="#021993" transform="matrix(1.00, 0.00, -0.00, -1.00, 251.5, 436.9)">a</text><text xml:space="preserve" font-family="CourierNewPSMT,Courier New" font-size="23.0" fill="#021993" transform="matrix(1.00, 0.00, -0.00, -1.00, 265.3, 436.9)">c</text><text xml:space="preserve" font-family="CourierNewPSMT,Courier New" font-size="23.0" fill="#021993" transform="matrix(1.00, 0.00, -0.00, -1.00, 279.1, 436.9)">e</text><text xml:space="preserve" font-family="CourierNewPSMT,Courier New" font-size="23.0" fill="#000000" transform="matrix(1.00, 0.00, -0.00, -1.00, 292.9, 436.9)">(</text><text xml:space="preserve" font-family="CourierNewPSMT,Courier New" font-size="23.0" fill="#CC1C00" transform="matrix(1.00, 0.00, -0.00, -1.00, 306.7, 436.9)">‘</text><text xml:space="preserve" font-family="CourierNewPSMT,Courier New" font-size="23.0" fill="#CC1C00" transform="matrix(1.00, 0.00, -0.00, -1.00, 320.5, 436.9)">/</text><text xml:space="preserve" font-family="CourierNewPSMT,Courier New" font-size="23.0" fill="#CC1C00" transform="matrix(1.00, 0.00, -0.00, -1.00, 334.3, 436.9)">…</text><text xml:space="preserve" font-family="CourierNewPSMT,Courier New" font-size="23.0" fill="#CC1C00" transform="matrix(1.00, 0.00, -0.00, -1.00, 348.1, 436.9)">…</text><text xml:space="preserve" font-family="CourierNewPSMT,Courier New" font-size="23.0" fill="#CC1C00" transform="matrix(1.00, 0.00, -0.00, -1.00, 361.9, 436.9)">/</text><text xml:space="preserve" font-family="CourierNewPSMT,Courier New" font-size="23.0" fill="#CC1C00" transform="matrix(1.00, 0.00, -0.00, -1.00, 375.7, 436.9)">e</text><text xml:space="preserve" font-family="CourierNewPSMT,Courier New" font-size="23.0" fill="#CC1C00" transform="matrix(1.00, 0.00, -0.00, -1.00, 389.5, 436.9)">’</text><text xml:space="preserve" font-family="CourierNewPSMT,Courier New" font-size="23.0" fill="#000000" transform="matrix(1.00, 0.00, -0.00, -1.00, 403.3, 436.9)">,</text><text xml:space="preserve" font-family="CourierNewPSMT,Courier New" font-size="23.0" fill="#000000" transform="matrix(1.00, 0.00, -0.00, -1.00, 417.1, 436.9)"> </text><text xml:space="preserve" font-family="CourierNewPSMT,Courier New" font-size="23.0" fill="#CC1C00" transform="matrix(1.00, 0.00, -0.00, -1.00, 430.9, 436.9)">‘</text><text xml:space="preserve" font-family="CourierNewPSMT,Courier New" font-size="23.0" fill="#CC1C00" transform="matrix(1.00, 0.00, -0.00, -1.00, 444.7, 436.9)">$</text><text xml:space="preserve" font-family="CourierNewPSMT,Courier New" font-size="23.0" fill="#CC1C00" transform="matrix(1.00, 0.00, -0.00, -1.00, 458.5, 436.9)">t</text><text xml:space="preserve" font-family="CourierNewPSMT,Courier New" font-size="23.0" fill="#CC1C00" transform="matrix(1.00, 0.00, -0.00, -1.00, 472.3, 436.9)">h</text><text xml:space="preserve" font-family="CourierNewPSMT,Courier New" font-size="23.0" fill="#CC1C00" transform="matrix(1.00, 0.00, -0.00, -1.00, 486.1, 436.9)">i</text><text xml:space="preserve" font-family="CourierNewPSMT,Courier New" font-size="23.0" fill="#CC1C00" transform="matrix(1.00, 0.00, -0.00, -1.00, 499.9, 436.9)">s</text><text xml:space="preserve" font-family="CourierNewPSMT,Courier New" font-size="23.0" fill="#CC1C00" transform="matrix(1.00, 0.00, -0.00, -1.00, 513.7, 436.9)">-</text><text xml:space="preserve" font-family="CourierNewPSMT,Courier New" font-size="23.0" fill="#CC1C00" transform="matrix(1.00, 0.00, -0.00, -1.00, 527.5, 436.9)">&gt;</text><text xml:space="preserve" font-family="CourierNewPSMT,Courier New" font-size="23.0" fill="#CC1C00" transform="matrix(1.00, 0.00, -0.00, -1.00, 541.3, 436.9)">f</text><text xml:space="preserve" font-family="CourierNewPSMT,Courier New" font-size="23.0" fill="#CC1C00" transform="matrix(1.00, 0.00, -0.00, -1.00, 555.1, 436.9)">o</text><text xml:space="preserve" font-family="CourierNewPSMT,Courier New" font-size="23.0" fill="#CC1C00" transform="matrix(1.00, 0.00, -0.00, -1.00, 568.9, 436.9)">o</text><text xml:space="preserve" font-family="CourierNewPSMT,Courier New" font-size="23.0" fill="#CC1C00" transform="matrix(1.00, 0.00, -0.00, -1.00, 582.7, 436.9)">-</text><text xml:space="preserve" font-family="CourierNewPSMT,Courier New" font-size="23.0" fill="#CC1C00" transform="matrix(1.00, 0.00, -0.00, -1.00, 596.5, 436.9)">&gt;</text><text xml:space="preserve" font-family="CourierNewPSMT,Courier New" font-size="23.0" fill="#FF40FF" transform="matrix(1.00, 0.00, -0.00, -1.00, 610.3, 436.9)">\</text><text xml:space="preserve" font-family="CourierNewPSMT,Courier New" font-size="23.0" fill="#FF40FF" transform="matrix(1.00, 0.00, -0.00, -1.00, 624.1, 436.9)">\</text><text xml:space="preserve" font-family="CourierNewPSMT,Courier New" font-size="23.0" fill="#CC1C00" transform="matrix(1.00, 0.00, -0.00, -1.00, 637.9, 436.9)">1</text><text xml:space="preserve" font-family="CourierNewPSMT,Courier New" font-size="23.0" fill="#CC1C00" transform="matrix(1.00, 0.00, -0.00, -1.00, 651.7, 436.9)">'</text><text xml:space="preserve" font-family="CourierNewPSMT,Courier New" font-size="23.0" fill="#000000" transform="matrix(1.00, 0.00, -0.00, -1.00, 665.5, 436.9)">,</text><text xml:space="preserve" font-family="CourierNewPSMT,Courier New" font-size="23.0" fill="#000000" transform="matrix(1.00, 0.00, -0.00, -1.00, 679.3, 436.9)"> </text><text xml:space="preserve" font-family="CourierNewPSMT,Courier New" font-size="23.0" fill="#000000" transform="matrix(1.00, 0.00, -0.00, -1.00, 693.1, 436.9)">$</text><text xml:space="preserve" font-family="CourierNewPSMT,Courier New" font-size="23.0" fill="#000000" transform="matrix(1.00, 0.00, -0.00, -1.00, 706.9, 436.9)">t</text><text xml:space="preserve" font-family="CourierNewPSMT,Courier New" font-size="23.0" fill="#000000" transform="matrix(1.00, 0.00, -0.00, -1.00, 720.7, 436.9)">e</text><text xml:space="preserve" font-family="CourierNewPSMT,Courier New" font-size="23.0" fill="#000000" transform="matrix(1.00, 0.00, -0.00, -1.00, 734.5, 436.9)">x</text><text xml:space="preserve" font-family="CourierNewPSMT,Courier New" font-size="23.0" fill="#000000" transform="matrix(1.00, 0.00, -0.00, -1.00, 748.3, 436.9)">t</text><text xml:space="preserve" font-family="CourierNewPSMT,Courier New" font-size="23.0" fill="#000000" transform="matrix(1.00, 0.00, -0.00, -1.00, 762.1, 436.9)">)</text><text xml:space="preserve" font-family="CourierNewPSMT,Courier New" font-size="23.0" fill="#000000" transform="matrix(1.00, 0.00, -0.00, -1.00, 776.0, 436.9)">;</text><text xml:space="preserve" font-family="CourierNewPSMT,Courier New" font-size="23.0" fill="#000000" transform="matrix(1.00, 0.00, -0.00, -1.00, 789.8, 436.9)"> </text><text xml:space="preserve" font-family="CourierNewPSMT,Courier New" font-size="23.0" fill="#000000" transform="matrix(1.00, 0.00, -0.00, -1.00, 56.5, 353.9)">e</text><text xml:space="preserve" font-family="CourierNewPSMT,Courier New" font-size="23.0" fill="#000000" transform="matrix(1.00, 0.00, -0.00, -1.00, 70.3, 353.9)">c</text><text xml:space="preserve" font-family="CourierNewPSMT,Courier New" font-size="23.0" fill="#000000" transform="matrix(1.00, 0.00, -0.00, -1.00, 84.1, 353.9)">h</text><text xml:space="preserve" font-family="CourierNewPSMT,Courier New" font-size="23.0" fill="#000000" transform="matrix(1.00, 0.00, -0.00, -1.00, 97.9, 353.9)">o</text><text xml:space="preserve" font-family="CourierNewPSMT,Courier New" font-size="23.0" fill="#000000" transform="matrix(1.00, 0.00, -0.00, -1.00, 111.7, 353.9)"> </text><text xml:space="preserve" font-family="CourierNewPSMT,Courier New" font-size="23.0" fill="#021993" transform="matrix(1.00, 0.00, -0.00, -1.00, 125.5, 353.9)">p</text><text xml:space="preserve" font-family="CourierNewPSMT,Courier New" font-size="23.0" fill="#021993" transform="matrix(1.00, 0.00, -0.00, -1.00, 139.3, 353.9)">r</text><text xml:space="preserve" font-family="CourierNewPSMT,Courier New" font-size="23.0" fill="#021993" transform="matrix(1.00, 0.00, -0.00, -1.00, 153.1, 353.9)">e</text><text xml:space="preserve" font-family="CourierNewPSMT,Courier New" font-size="23.0" fill="#021993" transform="matrix(1.00, 0.00, -0.00, -1.00, 166.9, 353.9)">g</text><text xml:space="preserve" font-family="CourierNewPSMT,Courier New" font-size="23.0" fill="#021993" transform="matrix(1.00, 0.00, -0.00, -1.00, 180.7, 353.9)">_</text><text xml:space="preserve" font-family="CourierNewPSMT,Courier New" font-size="23.0" fill="#021993" transform="matrix(1.00, 0.00, -0.00, -1.00, 194.5, 353.9)">r</text><text xml:space="preserve" font-family="CourierNewPSMT,Courier New" font-size="23.0" fill="#021993" transform="matrix(1.00, 0.00, -0.00, -1.00, 208.3, 353.9)">e</text><text xml:space="preserve" font-family="CourierNewPSMT,Courier New" font-size="23.0" fill="#021993" transform="matrix(1.00, 0.00, -0.00, -1.00, 222.1, 353.9)">p</text><text xml:space="preserve" font-family="CourierNewPSMT,Courier New" font-size="23.0" fill="#021993" transform="matrix(1.00, 0.00, -0.00, -1.00, 235.9, 353.9)">l</text><text xml:space="preserve" font-family="CourierNewPSMT,Courier New" font-size="23.0" fill="#021993" transform="matrix(1.00, 0.00, -0.00, -1.00, 249.7, 353.9)">a</text><text xml:space="preserve" font-family="CourierNewPSMT,Courier New" font-size="23.0" fill="#021993" transform="matrix(1.00, 0.00, -0.00, -1.00, 263.5, 353.9)">c</text><text xml:space="preserve" font-family="CourierNewPSMT,Courier New" font-size="23.0" fill="#021993" transform="matrix(1.00, 0.00, -0.00, -1.00, 277.3, 353.9)">e</text><text xml:space="preserve" font-family="CourierNewPSMT,Courier New" font-size="23.0" fill="#021993" transform="matrix(1.00, 0.00, -0.00, -1.00, 291.1, 353.9)">_</text><text xml:space="preserve" font-family="CourierNewPSMT,Courier New" font-size="23.0" fill="#021993" transform="matrix(1.00, 0.00, -0.00, -1.00, 304.9, 353.9)">c</text><text xml:space="preserve" font-family="CourierNewPSMT,Courier New" font-size="23.0" fill="#021993" transform="matrix(1.00, 0.00, -0.00, -1.00, 318.7, 353.9)">a</text><text xml:space="preserve" font-family="CourierNewPSMT,Courier New" font-size="23.0" fill="#021993" transform="matrix(1.00, 0.00, -0.00, -1.00, 332.6, 353.9)">l</text><text xml:space="preserve" font-family="CourierNewPSMT,Courier New" font-size="23.0" fill="#021993" transform="matrix(1.00, 0.00, -0.00, -1.00, 346.4, 353.9)">l</text><text xml:space="preserve" font-family="CourierNewPSMT,Courier New" font-size="23.0" fill="#021993" transform="matrix(1.00, 0.00, -0.00, -1.00, 360.2, 353.9)">b</text><text xml:space="preserve" font-family="CourierNewPSMT,Courier New" font-size="23.0" fill="#021993" transform="matrix(1.00, 0.00, -0.00, -1.00, 374.0, 353.9)">a</text><text xml:space="preserve" font-family="CourierNewPSMT,Courier New" font-size="23.0" fill="#021993" transform="matrix(1.00, 0.00, -0.00, -1.00, 387.8, 353.9)">c</text><text xml:space="preserve" font-family="CourierNewPSMT,Courier New" font-size="23.0" fill="#021993" transform="matrix(1.00, 0.00, -0.00, -1.00, 401.6, 353.9)">k</text><text xml:space="preserve" font-family="CourierNewPSMT,Courier New" font-size="23.0" fill="#000000" transform="matrix(1.00, 0.00, -0.00, -1.00, 415.3, 353.9)">(</text><text xml:space="preserve" font-family="CourierNewPSMT,Courier New" font-size="23.0" fill="#000000" transform="matrix(1.00, 0.00, -0.00, -1.00, 429.1, 353.9)"> </text><text xml:space="preserve" font-family="CourierNewPSMT,Courier New" font-size="23.0" fill="#000000" transform="matrix(1.00, 0.00, -0.00, -1.00, 56.5, 327.9)"> </text><text xml:space="preserve" font-family="CourierNewPSMT,Courier New" font-size="23.0" fill="#000000" transform="matrix(1.00, 0.00, -0.00, -1.00, 70.3, 327.9)"> </text><text xml:space="preserve" font-family="CourierNewPSMT,Courier New" font-size="23.0" fill="#CC1C00" transform="matrix(1.00, 0.00, -0.00, -1.00, 84.1, 327.9)">‘</text><text xml:space="preserve" font-family="CourierNewPSMT,Courier New" font-size="23.0" fill="#CC1C00" transform="matrix(1.00, 0.00, -0.00, -1.00, 97.9, 327.9)">/</text><text xml:space="preserve" font-family="CourierNewPSMT,Courier New" font-size="23.0" fill="#CC1C00" transform="matrix(1.00, 0.00, -0.00, -1.00, 111.7, 327.9)">…</text><text xml:space="preserve" font-family="CourierNewPSMT,Courier New" font-size="23.0" fill="#CC1C00" transform="matrix(1.00, 0.00, -0.00, -1.00, 125.5, 327.9)">…</text><text xml:space="preserve" font-family="CourierNewPSMT,Courier New" font-size="23.0" fill="#CC1C00" transform="matrix(1.00, 0.00, -0.00, -1.00, 139.3, 327.9)">/</text><text xml:space="preserve" font-family="CourierNewPSMT,Courier New" font-size="23.0" fill="#CC1C00" transform="matrix(1.00, 0.00, -0.00, -1.00, 153.1, 327.9)">‘</text><text xml:space="preserve" font-family="CourierNewPSMT,Courier New" font-size="23.0" fill="#000000" transform="matrix(1.00, 0.00, -0.00, -1.00, 166.9, 327.9)">,</text><text xml:space="preserve" font-family="CourierNewPSMT,Courier New" font-size="23.0" fill="#000000" transform="matrix(1.00, 0.00, -0.00, -1.00, 180.7, 327.9)"> </text><text xml:space="preserve" font-family="CourierNewPSMT,Courier New" font-size="23.0" fill="#000000" transform="matrix(1.00, 0.00, -0.00, -1.00, 194.5, 327.9)"> </text><text xml:space="preserve" font-family="CourierNewPSMT,Courier New" font-size="23.0" fill="#000000" transform="matrix(1.00, 0.00, -0.00, -1.00, 56.5, 301.9)"> </text><text xml:space="preserve" font-family="CourierNewPSMT,Courier New" font-size="23.0" fill="#000000" transform="matrix(1.00, 0.00, -0.00, -1.00, 70.3, 301.9)"> </text><text xml:space="preserve" font-family="CourierNewPS-BoldMT,Courier New" font-weight="bold" font-size="23.0" fill="#000000" transform="matrix(1.00, 0.00, -0.00, -1.00, 84.1, 301.9)">f</text><text xml:space="preserve" font-family="CourierNewPS-BoldMT,Courier New" font-weight="bold" font-size="23.0" fill="#000000" transform="matrix(1.00, 0.00, -0.00, -1.00, 97.9, 301.9)">u</text><text xml:space="preserve" font-family="CourierNewPS-BoldMT,Courier New" font-weight="bold" font-size="23.0" fill="#000000" transform="matrix(1.00, 0.00, -0.00, -1.00, 111.7, 301.9)">n</text><text xml:space="preserve" font-family="CourierNewPS-BoldMT,Courier New" font-weight="bold" font-size="23.0" fill="#000000" transform="matrix(1.00, 0.00, -0.00, -1.00, 125.5, 301.9)">c</text><text xml:space="preserve" font-family="CourierNewPS-BoldMT,Courier New" font-weight="bold" font-size="23.0" fill="#000000" transform="matrix(1.00, 0.00, -0.00, -1.00, 139.3, 301.9)">t</text><text xml:space="preserve" font-family="CourierNewPS-BoldMT,Courier New" font-weight="bold" font-size="23.0" fill="#000000" transform="matrix(1.00, 0.00, -0.00, -1.00, 153.1, 301.9)">i</text><text xml:space="preserve" font-family="CourierNewPS-BoldMT,Courier New" font-weight="bold" font-size="23.0" fill="#000000" transform="matrix(1.00, 0.00, -0.00, -1.00, 166.9, 301.9)">o</text><text xml:space="preserve" font-family="CourierNewPS-BoldMT,Courier New" font-weight="bold" font-size="23.0" fill="#000000" transform="matrix(1.00, 0.00, -0.00, -1.00, 180.7, 301.9)">n</text><text xml:space="preserve" font-family="CourierNewPSMT,Courier New" font-size="23.0" fill="#000000" transform="matrix(1.00, 0.00, -0.00, -1.00, 194.5, 301.9)">(</text><text xml:space="preserve" font-family="CourierNewPSMT,Courier New" font-size="23.0" fill="#000000" transform="matrix(1.00, 0.00, -0.00, -1.00, 208.3, 301.9)">$</text><text xml:space="preserve" font-family="CourierNewPSMT,Courier New" font-size="23.0" fill="#000000" transform="matrix(1.00, 0.00, -0.00, -1.00, 222.1, 301.9)">m</text><text xml:space="preserve" font-family="CourierNewPSMT,Courier New" font-size="23.0" fill="#000000" transform="matrix(1.00, 0.00, -0.00, -1.00, 235.9, 301.9)">a</text><text xml:space="preserve" font-family="CourierNewPSMT,Courier New" font-size="23.0" fill="#000000" transform="matrix(1.00, 0.00, -0.00, -1.00, 249.7, 301.9)">t</text><text xml:space="preserve" font-family="CourierNewPSMT,Courier New" font-size="23.0" fill="#000000" transform="matrix(1.00, 0.00, -0.00, -1.00, 263.5, 301.9)">c</text><text xml:space="preserve" font-family="CourierNewPSMT,Courier New" font-size="23.0" fill="#000000" transform="matrix(1.00, 0.00, -0.00, -1.00, 277.3, 301.9)">h</text><text xml:space="preserve" font-family="CourierNewPSMT,Courier New" font-size="23.0" fill="#000000" transform="matrix(1.00, 0.00, -0.00, -1.00, 291.1, 301.9)">)</text><text xml:space="preserve" font-family="CourierNewPSMT,Courier New" font-size="23.0" fill="#000000" transform="matrix(1.00, 0.00, -0.00, -1.00, 304.9, 301.9)"> </text><text xml:space="preserve" font-family="CourierNewPSMT,Courier New" font-size="23.0" fill="#000000" transform="matrix(1.00, 0.00, -0.00, -1.00, 318.7, 301.9)">{</text><text xml:space="preserve" font-family="CourierNewPSMT,Courier New" font-size="23.0" fill="#000000" transform="matrix(1.00, 0.00, -0.00, -1.00, 332.5, 301.9)"> </text><text xml:space="preserve" font-family="CourierNewPSMT,Courier New" font-size="23.0" fill="#000000" transform="matrix(1.00, 0.00, -0.00, -1.00, 56.5, 275.9)"> </text><text xml:space="preserve" font-family="CourierNewPSMT,Courier New" font-size="23.0" fill="#000000" transform="matrix(1.00, 0.00, -0.00, -1.00, 70.3, 275.9)"> </text><text xml:space="preserve" font-family="CourierNewPSMT,Courier New" font-size="23.0" fill="#000000" transform="matrix(1.00, 0.00, -0.00, -1.00, 84.1, 275.9)"> </text><text xml:space="preserve" font-family="CourierNewPSMT,Courier New" font-size="23.0" fill="#000000" transform="matrix(1.00, 0.00, -0.00, -1.00, 97.9, 275.9)"> </text><text xml:space="preserve" font-family="CourierNewPS-BoldMT,Courier New" font-weight="bold" font-size="23.0" fill="#000000" transform="matrix(1.00, 0.00, -0.00, -1.00, 111.7, 275.9)">r</text><text xml:space="preserve" font-family="CourierNewPS-BoldMT,Courier New" font-weight="bold" font-size="23.0" fill="#000000" transform="matrix(1.00, 0.00, -0.00, -1.00, 125.5, 275.9)">e</text><text xml:space="preserve" font-family="CourierNewPS-BoldMT,Courier New" font-weight="bold" font-size="23.0" fill="#000000" transform="matrix(1.00, 0.00, -0.00, -1.00, 139.3, 275.9)">t</text><text xml:space="preserve" font-family="CourierNewPS-BoldMT,Courier New" font-weight="bold" font-size="23.0" fill="#000000" transform="matrix(1.00, 0.00, -0.00, -1.00, 153.1, 275.9)">u</text><text xml:space="preserve" font-family="CourierNewPS-BoldMT,Courier New" font-weight="bold" font-size="23.0" fill="#000000" transform="matrix(1.00, 0.00, -0.00, -1.00, 166.9, 275.9)">r</text><text xml:space="preserve" font-family="CourierNewPS-BoldMT,Courier New" font-weight="bold" font-size="23.0" fill="#000000" transform="matrix(1.00, 0.00, -0.00, -1.00, 180.7, 275.9)">n</text><text xml:space="preserve" font-family="CourierNewPSMT,Courier New" font-size="23.0" fill="#000000" transform="matrix(1.00, 0.00, -0.00, -1.00, 194.5, 275.9)"> </text><text xml:space="preserve" font-family="CourierNewPSMT,Courier New" font-size="23.0" fill="#000000" transform="matrix(1.00, 0.00, -0.00, -1.00, 208.3, 275.9)">$</text><text xml:space="preserve" font-family="CourierNewPS-BoldMT,Courier New" font-weight="bold" font-size="23.0" fill="#000000" transform="matrix(1.00, 0.00, -0.00, -1.00, 222.1, 275.9)">t</text><text xml:space="preserve" font-family="CourierNewPS-BoldMT,Courier New" font-weight="bold" font-size="23.0" fill="#000000" transform="matrix(1.00, 0.00, -0.00, -1.00, 235.9, 275.9)">h</text><text xml:space="preserve" font-family="CourierNewPS-BoldMT,Courier New" font-weight="bold" font-size="23.0" fill="#000000" transform="matrix(1.00, 0.00, -0.00, -1.00, 249.7, 275.9)">i</text><text xml:space="preserve" font-family="CourierNewPS-BoldMT,Courier New" font-weight="bold" font-size="23.0" fill="#000000" transform="matrix(1.00, 0.00, -0.00, -1.00, 263.5, 275.9)">s</text><text xml:space="preserve" font-family="CourierNewPSMT,Courier New" font-size="23.0" fill="#000000" transform="matrix(1.00, 0.00, -0.00, -1.00, 277.3, 275.9)">-</text><text xml:space="preserve" font-family="CourierNewPSMT,Courier New" font-size="23.0" fill="#000000" transform="matrix(1.00, 0.00, -0.00, -1.00, 291.1, 275.9)">&gt;</text><text xml:space="preserve" font-family="CourierNewPSMT,Courier New" font-size="23.0" fill="#000000" transform="matrix(1.00, 0.00, -0.00, -1.00, 304.9, 275.9)">f</text><text xml:space="preserve" font-family="CourierNewPSMT,Courier New" font-size="23.0" fill="#000000" transform="matrix(1.00, 0.00, -0.00, -1.00, 318.7, 275.9)">o</text><text xml:space="preserve" font-family="CourierNewPSMT,Courier New" font-size="23.0" fill="#000000" transform="matrix(1.00, 0.00, -0.00, -1.00, 332.5, 275.9)">o</text><text xml:space="preserve" font-family="CourierNewPSMT,Courier New" font-size="23.0" fill="#000000" transform="matrix(1.00, 0.00, -0.00, -1.00, 346.3, 275.9)">-</text><text xml:space="preserve" font-family="CourierNewPSMT,Courier New" font-size="23.0" fill="#000000" transform="matrix(1.00, 0.00, -0.00, -1.00, 360.1, 275.9)">&gt;</text><text xml:space="preserve" font-family="CourierNewPSMT,Courier New" font-size="23.0" fill="#000000" transform="matrix(1.00, 0.00, -0.00, -1.00, 373.9, 275.9)">{</text><text xml:space="preserve" font-family="CourierNewPSMT,Courier New" font-size="23.0" fill="#000000" transform="matrix(1.00, 0.00, -0.00, -1.00, 387.7, 275.9)">$</text><text xml:space="preserve" font-family="CourierNewPSMT,Courier New" font-size="23.0" fill="#000000" transform="matrix(1.00, 0.00, -0.00, -1.00, 401.6, 275.9)">m</text><text xml:space="preserve" font-family="CourierNewPSMT,Courier New" font-size="23.0" fill="#000000" transform="matrix(1.00, 0.00, -0.00, -1.00, 415.4, 275.9)">a</text><text xml:space="preserve" font-family="CourierNewPSMT,Courier New" font-size="23.0" fill="#000000" transform="matrix(1.00, 0.00, -0.00, -1.00, 429.2, 275.9)">t</text><text xml:space="preserve" font-family="CourierNewPSMT,Courier New" font-size="23.0" fill="#000000" transform="matrix(1.00, 0.00, -0.00, -1.00, 443.0, 275.9)">c</text><text xml:space="preserve" font-family="CourierNewPSMT,Courier New" font-size="23.0" fill="#000000" transform="matrix(1.00, 0.00, -0.00, -1.00, 456.8, 275.9)">h</text><text xml:space="preserve" font-family="CourierNewPSMT,Courier New" font-size="23.0" fill="#000000" transform="matrix(1.00, 0.00, -0.00, -1.00, 470.6, 275.9)">[</text><text xml:space="preserve" font-family="CourierNewPSMT,Courier New" font-size="23.0" fill="#BE8F00" transform="matrix(1.00, 0.00, -0.00, -1.00, 484.3, 275.9)">1</text><text xml:space="preserve" font-family="CourierNewPSMT,Courier New" font-size="23.0" fill="#000000" transform="matrix(1.00, 0.00, -0.00, -1.00, 498.1, 275.9)">]</text><text xml:space="preserve" font-family="CourierNewPSMT,Courier New" font-size="23.0" fill="#000000" transform="matrix(1.00, 0.00, -0.00, -1.00, 512.0, 275.9)">}</text><text xml:space="preserve" font-family="CourierNewPSMT,Courier New" font-size="23.0" fill="#000000" transform="matrix(1.00, 0.00, -0.00, -1.00, 525.8, 275.9)">;</text><text xml:space="preserve" font-family="CourierNewPSMT,Courier New" font-size="23.0" fill="#000000" transform="matrix(1.00, 0.00, -0.00, -1.00, 539.6, 275.9)"> </text><text xml:space="preserve" font-family="CourierNewPSMT,Courier New" font-size="23.0" fill="#000000" transform="matrix(1.00, 0.00, -0.00, -1.00, 56.5, 249.9)"> </text><text xml:space="preserve" font-family="CourierNewPSMT,Courier New" font-size="23.0" fill="#000000" transform="matrix(1.00, 0.00, -0.00, -1.00, 70.3, 249.9)"> </text><text xml:space="preserve" font-family="CourierNewPSMT,Courier New" font-size="23.0" fill="#000000" transform="matrix(1.00, 0.00, -0.00, -1.00, 84.1, 249.9)">}</text><text xml:space="preserve" font-family="CourierNewPSMT,Courier New" font-size="23.0" fill="#000000" transform="matrix(1.00, 0.00, -0.00, -1.00, 97.9, 249.9)">,</text><text xml:space="preserve" font-family="CourierNewPSMT,Courier New" font-size="23.0" fill="#000000" transform="matrix(1.00, 0.00, -0.00, -1.00, 111.7, 249.9)"> </text><text xml:space="preserve" font-family="CourierNewPSMT,Courier New" font-size="23.0" fill="#000000" transform="matrix(1.00, 0.00, -0.00, -1.00, 56.5, 223.9)"> </text><text xml:space="preserve" font-family="CourierNewPSMT,Courier New" font-size="23.0" fill="#000000" transform="matrix(1.00, 0.00, -0.00, -1.00, 70.3, 223.9)"> </text><text xml:space="preserve" font-family="CourierNewPSMT,Courier New" font-size="23.0" fill="#000000" transform="matrix(1.00, 0.00, -0.00, -1.00, 84.1, 223.9)">$</text><text xml:space="preserve" font-family="CourierNewPSMT,Courier New" font-size="23.0" fill="#000000" transform="matrix(1.00, 0.00, -0.00, -1.00, 97.9, 223.9)">t</text><text xml:space="preserve" font-family="CourierNewPSMT,Courier New" font-size="23.0" fill="#000000" transform="matrix(1.00, 0.00, -0.00, -1.00, 111.7, 223.9)">e</text><text xml:space="preserve" font-family="CourierNewPSMT,Courier New" font-size="23.0" fill="#000000" transform="matrix(1.00, 0.00, -0.00, -1.00, 125.5, 223.9)">x</text><text xml:space="preserve" font-family="CourierNewPSMT,Courier New" font-size="23.0" fill="#000000" transform="matrix(1.00, 0.00, -0.00, -1.00, 139.3, 223.9)">t</text><text xml:space="preserve" font-family="CourierNewPSMT,Courier New" font-size="23.0" fill="#000000" transform="matrix(1.00, 0.00, -0.00, -1.00, 153.1, 223.9)">)</text><text xml:space="preserve" font-family="CourierNewPSMT,Courier New" font-size="23.0" fill="#000000" transform="matrix(1.00, 0.00, -0.00, -1.00, 166.9, 223.9)">;</text><text xml:space="preserve" font-family="CourierNewPSMT,Courier New" font-size="23.0" fill="#000000" transform="matrix(1.00, 0.00, -0.00, -1.00, 180.7, 223.9)"> </text></g></svg>