<?xml version="1.0" encoding="UTF-8" standalone="no"?><svg xmlns="http://www.w3.org/2000/svg" xmlns:xlink="http://www.w3.org/1999/xlink" clip-rule="evenodd" stroke-miterlimit="10" viewBox="0 0 1024 768"><desc>SVG generated by Keynote</desc><defs><pattern id="80DF5815-6FC9-4FF5-AACD-68E5F87B27DB" patternUnits="userSpaceOnUse" width="600" height="600" viewBox="0 0 600 600"><image xlink:href="../../574F8B15-84CD-4CED-9DF2-DC9D45A83AF7/assets/C3C0FC898C94653CAF8AD846D6CCD108.png" width="600.00" height="600.00"></image></pattern><linearGradient id="gradSh1.10" x1="0.0" y1="0.0" x2="100.0" y2="0.0" gradientUnits="userSpaceOnUse" gradientTransform="matrix(0.00, -0.48, -2.12, 0.00, 284.0, 358.0)"><stop offset="0.00000" stop-color="#FBFBFB"></stop><stop offset="0.01466" stop-color="#FAFAFA"></stop><stop offset="1.00000" stop-color="#BEBEBE"></stop></linearGradient><linearGradient id="gradSh1.11" x1="0.0" y1="0.0" x2="100.0" y2="0.0" gradientUnits="userSpaceOnUse" gradientTransform="matrix(0.00, -0.48, -2.12, 0.00, 284.0, 424.0)"><stop offset="0.00000" stop-color="#FBFBFB"></stop><stop offset="0.01466" stop-color="#FAFAFA"></stop><stop offset="1.00000" stop-color="#BEBEBE"></stop></linearGradient><pattern id="98431D5E-30F4-414D-87CD-38ABAF6B542C" patternUnits="userSpaceOnUse" width="600" height="600" viewBox="0 0 600 600"><image xlink:href="../../401985A4-86AF-4A51-AD81-2DE604ABC568/assets/1DCD970325A402F83F095B3789B6FDC2.png" width="600.00" height="600.00"></image></pattern><linearGradient id="gradSh1.12" x1="0.0" y1="0.0" x2="100.0" y2="0.0" gradientUnits="userSpaceOnUse" gradientTransform="matrix(0.00, -0.48, -2.12, 0.00, 785.0, 356.0)"><stop offset="0.00000" stop-color="#FBFBFB"></stop><stop offset="0.01466" stop-color="#FAFAFA"></stop><stop offset="1.00000" stop-color="#BEBEBE"></stop></linearGradient><linearGradient id="gradSh1.13" x1="0.0" y1="0.0" x2="100.0" y2="0.0" gradientUnits="userSpaceOnUse" gradientTransform="matrix(0.00, -0.48, -2.12, 0.00, 785.0, 424.0)"><stop offset="0.00000" stop-color="#FBFBFB"></stop><stop offset="0.01466" stop-color="#FAFAFA"></stop><stop offset="1.00000" stop-color="#BEBEBE"></stop></linearGradient></defs><g transform="matrix(1.00, 0.00, -0.00, -1.00, 0.0, 768.0)"><path d="M 0.0 768.0 L 1024.0 768.0 L 1024.0 0.0 L 0.0 0.0 Z M 0.0 768.0 " fill="#FEFFFF"></path><text xml:space="preserve" font-family="Helvetica-Light,Helvetica" font-size="68.0" fill="#000000" transform="matrix(1.00, 0.00, -0.00, -1.00, 20.7, 637.6)">C</text><text xml:space="preserve" font-family="Helvetica-Light,Helvetica" font-size="68.0" fill="#000000" transform="matrix(1.00, 0.00, -0.00, -1.00, 69.8, 637.6)">o</text><text xml:space="preserve" font-family="Helvetica-Light,Helvetica" font-size="68.0" fill="#000000" transform="matrix(1.00, 0.00, -0.00, -1.00, 107.6, 637.6)">n</text><text xml:space="preserve" font-family="Helvetica-Light,Helvetica" font-size="68.0" fill="#000000" transform="matrix(1.00, 0.00, -0.00, -1.00, 145.4, 637.6)">t</text><text xml:space="preserve" font-family="Helvetica-Light,Helvetica" font-size="68.0" fill="#000000" transform="matrix(1.00, 0.00, -0.00, -1.00, 164.3, 637.6)">i</text><text xml:space="preserve" font-family="Helvetica-Light,Helvetica" font-size="68.0" fill="#000000" transform="matrix(1.00, 0.00, -0.00, -1.00, 179.4, 637.6)">n</text><text xml:space="preserve" font-family="Helvetica-Light,Helvetica" font-size="68.0" fill="#000000" transform="matrix(1.00, 0.00, -0.00, -1.00, 217.2, 637.6)">u</text><text xml:space="preserve" font-family="Helvetica-Light,Helvetica" font-size="68.0" fill="#000000" transform="matrix(1.00, 0.00, -0.00, -1.00, 255.0, 637.6)">o</text><text xml:space="preserve" font-family="Helvetica-Light,Helvetica" font-size="68.0" fill="#000000" transform="matrix(1.00, 0.00, -0.00, -1.00, 292.8, 637.6)">u</text><text xml:space="preserve" font-family="Helvetica-Light,Helvetica" font-size="68.0" fill="#000000" transform="matrix(1.00, 0.00, -0.00, -1.00, 330.6, 637.6)">s</text><text xml:space="preserve" font-family="Helvetica-Light,Helvetica" font-size="68.0" fill="#000000" transform="matrix(1.00, 0.00, -0.00, -1.00, 364.6, 637.6)"> </text><text xml:space="preserve" font-family="Helvetica-Light,Helvetica" font-size="68.0" fill="#000000" transform="matrix(1.00, 0.00, -0.00, -1.00, 383.5, 637.6)">I</text><text xml:space="preserve" font-family="Helvetica-Light,Helvetica" font-size="68.0" fill="#000000" transform="matrix(1.00, 0.00, -0.00, -1.00, 402.5, 637.6)">n</text><text xml:space="preserve" font-family="Helvetica-Light,Helvetica" font-size="68.0" fill="#000000" transform="matrix(1.00, 0.00, -0.00, -1.00, 440.3, 637.6)">t</text><text xml:space="preserve" font-family="Helvetica-Light,Helvetica" font-size="68.0" fill="#000000" transform="matrix(1.00, 0.00, -0.00, -1.00, 459.2, 637.6)">e</text><text xml:space="preserve" font-family="Helvetica-Light,Helvetica" font-size="68.0" fill="#000000" transform="matrix(1.00, 0.00, -0.00, -1.00, 497.0, 637.6)">g</text><text xml:space="preserve" font-family="Helvetica-Light,Helvetica" font-size="68.0" fill="#000000" transform="matrix(1.00, 0.00, -0.00, -1.00, 538.5, 637.6)">r</text><text xml:space="preserve" font-family="Helvetica-Light,Helvetica" font-size="68.0" fill="#000000" transform="matrix(1.00, 0.00, -0.00, -1.00, 561.2, 637.6)">a</text><text xml:space="preserve" font-family="Helvetica-Light,Helvetica" font-size="68.0" fill="#000000" transform="matrix(1.00, 0.00, -0.00, -1.00, 599.0, 637.6)">t</text><text xml:space="preserve" font-family="Helvetica-Light,Helvetica" font-size="68.0" fill="#000000" transform="matrix(1.00, 0.00, -0.00, -1.00, 617.9, 637.6)">i</text><text xml:space="preserve" font-family="Helvetica-Light,Helvetica" font-size="68.0" fill="#000000" transform="matrix(1.00, 0.00, -0.00, -1.00, 633.0, 637.6)">o</text><text xml:space="preserve" font-family="Helvetica-Light,Helvetica" font-size="68.0" fill="#000000" transform="matrix(1.00, 0.00, -0.00, -1.00, 670.8, 637.6)">n</text><text xml:space="preserve" font-family="Helvetica-Light,Helvetica" font-size="68.0" fill="#000000" transform="matrix(1.00, 0.00, -0.00, -1.00, 708.6, 637.6)"> </text><text xml:space="preserve" font-family="Helvetica-Light,Helvetica" font-size="68.0" fill="#000000" transform="matrix(1.00, 0.00, -0.00, -1.00, 727.5, 637.6)">P</text><text xml:space="preserve" font-family="Helvetica-Light,Helvetica" font-size="68.0" fill="#000000" transform="matrix(1.00, 0.00, -0.00, -1.00, 769.0, 637.6)">i</text><text xml:space="preserve" font-family="Helvetica-Light,Helvetica" font-size="68.0" fill="#000000" transform="matrix(1.00, 0.00, -0.00, -1.00, 784.1, 637.6)">p</text><text xml:space="preserve" font-family="Helvetica-Light,Helvetica" font-size="68.0" fill="#000000" transform="matrix(1.00, 0.00, -0.00, -1.00, 825.7, 637.6)">e</text><text xml:space="preserve" font-family="Helvetica-Light,Helvetica" font-size="68.0" fill="#000000" transform="matrix(1.00, 0.00, -0.00, -1.00, 863.5, 637.6)">l</text><text xml:space="preserve" font-family="Helvetica-Light,Helvetica" font-size="68.0" fill="#000000" transform="matrix(1.00, 0.00, -0.00, -1.00, 878.6, 637.6)">i</text><text xml:space="preserve" font-family="Helvetica-Light,Helvetica" font-size="68.0" fill="#000000" transform="matrix(1.00, 0.00, -0.00, -1.00, 893.7, 637.6)">n</text><text xml:space="preserve" font-family="Helvetica-Light,Helvetica" font-size="68.0" fill="#000000" transform="matrix(1.00, 0.00, -0.00, -1.00, 931.5, 637.6)">e</text><text xml:space="preserve" font-family="Helvetica-Light,Helvetica" font-size="68.0" fill="#000000" transform="matrix(1.00, 0.00, -0.00, -1.00, 969.3, 637.6)">s</text><image xlink:href="../../1E2A332B-A4C9-4B56-9384-4689274B4605/assets/6B6F3BF312BD5ADB2935917AF537C558.png" width="368.00" height="195.00" transform="matrix(1.00, 0.00, -0.00, -1.00, 100.2, 479.3)" opacity="0.50"></image><g><clipPath id="clip0x610000eb6f20"><path d="M 103.0 478.0 L 465.0 478.0 L 465.0 290.0 L 103.0 290.0 Z M 103.2 478.3 "></path></clipPath><g clip-path="url(#clip0x610000eb6f20)"><path d="M 103.0 290.0 L 465.0 290.0 L 465.0 478.0 L 103.0 478.0 Z M 103.0 290.0 " fill="url(#80DF5815-6FC9-4FF5-AACD-68E5F87B27DB)"></path></g></g><g><clipPath id="clip0x6000020bb2a0"><path d="M 101.2 289.7 L 466.8 289.7 L 466.8 480.3 L 101.2 480.3 Z M 101.2 289.7 "></path></clipPath><g clip-path="url(#clip0x6000020bb2a0)"><text xml:space="preserve" font-family="Helvetica-Light,Helvetica" font-size="24.0" fill="#FEFFFE" transform="matrix(1.00, 0.00, -0.00, -1.00, 241.8, 450.9)">P</text><text xml:space="preserve" font-family="Helvetica-Light,Helvetica" font-size="24.0" fill="#FEFFFE" transform="matrix(1.00, 0.00, -0.00, -1.00, 256.4, 450.9)">r</text><text xml:space="preserve" font-family="Helvetica-Light,Helvetica" font-size="24.0" fill="#FEFFFE" transform="matrix(1.00, 0.00, -0.00, -1.00, 264.0, 450.9)">e</text><text xml:space="preserve" font-family="Helvetica-Light,Helvetica" font-size="24.0" fill="#FEFFFE" transform="matrix(1.00, 0.00, -0.00, -1.00, 277.3, 450.9)">p</text><text xml:space="preserve" font-family="Helvetica-Light,Helvetica" font-size="24.0" fill="#FEFFFE" transform="matrix(1.00, 0.00, -0.00, -1.00, 292.0, 450.9)">a</text><text xml:space="preserve" font-family="Helvetica-Light,Helvetica" font-size="24.0" fill="#FEFFFE" transform="matrix(1.00, 0.00, -0.00, -1.00, 305.3, 450.9)">r</text><text xml:space="preserve" font-family="Helvetica-Light,Helvetica" font-size="24.0" fill="#FEFFFE" transform="matrix(1.00, 0.00, -0.00, -1.00, 312.9, 450.9)">e</text></g></g><image xlink:href="../../1E2A332B-A4C9-4B56-9384-4689274B4605/assets/C60C39423A5EF510509EB59B6B14A5A8.png" width="216.00" height="52.00" transform="matrix(1.00, 0.00, -0.00, -1.00, 176.1, 357.7)" opacity="0.50"></image><g><clipPath id="clip0x618001eac360"><path d="M 179.0 357.0 L 389.0 357.0 L 389.0 311.0 L 179.0 311.0 Z M 179.1 356.7 "></path></clipPath><g clip-path="url(#clip0x618001eac360)"><path d="M 179.0 357.0 L 389.0 357.0 L 389.0 311.0 L 179.0 311.0 Z M 179.1 356.7 " fill="url(#gradSh1.10)"></path></g></g><g><clipPath id="clip0x6180020ad440"><path d="M 177.1 310.7 L 390.9 310.7 L 390.9 356.7 L 177.1 356.7 Z M 177.1 310.7 "></path></clipPath><g clip-path="url(#clip0x6180020ad440)"><text xml:space="preserve" font-family="Helvetica-Light,Helvetica" font-size="24.0" fill="#000000" transform="matrix(1.00, 0.00, -0.00, -1.00, 236.0, 324.2)">u</text><text xml:space="preserve" font-family="Helvetica-Light,Helvetica" font-size="24.0" fill="#000000" transform="matrix(1.00, 0.00, -0.00, -1.00, 249.3, 324.2)">n</text><text xml:space="preserve" font-family="Helvetica-Light,Helvetica" font-size="24.0" fill="#000000" transform="matrix(1.00, 0.00, -0.00, -1.00, 262.7, 324.2)">i</text><text xml:space="preserve" font-family="Helvetica-Light,Helvetica" font-size="24.0" fill="#000000" transform="matrix(1.00, 0.00, -0.00, -1.00, 268.0, 324.2)">t</text><text xml:space="preserve" font-family="Helvetica-Light,Helvetica" font-size="24.0" fill="#000000" transform="matrix(1.00, 0.00, -0.00, -1.00, 274.7, 324.2)"> </text><text xml:space="preserve" font-family="Helvetica-Light,Helvetica" font-size="24.0" fill="#000000" transform="matrix(1.00, 0.00, -0.00, -1.00, 281.3, 324.2)">t</text><text xml:space="preserve" font-family="Helvetica-Light,Helvetica" font-size="24.0" fill="#000000" transform="matrix(1.00, 0.00, -0.00, -1.00, 288.0, 324.2)">e</text><text xml:space="preserve" font-family="Helvetica-Light,Helvetica" font-size="24.0" fill="#000000" transform="matrix(1.00, 0.00, -0.00, -1.00, 301.4, 324.2)">s</text><text xml:space="preserve" font-family="Helvetica-Light,Helvetica" font-size="24.0" fill="#000000" transform="matrix(1.00, 0.00, -0.00, -1.00, 313.4, 324.2)">t</text><text xml:space="preserve" font-family="Helvetica-Light,Helvetica" font-size="24.0" fill="#000000" transform="matrix(1.00, 0.00, -0.00, -1.00, 320.0, 324.2)">s</text><text xml:space="preserve" font-family="Helvetica-Light,Helvetica" font-size="24.0" fill="#000000" transform="matrix(1.00, 0.00, -0.00, -1.00, 332.0, 324.2)"> </text></g></g><image xlink:href="../../1E2A332B-A4C9-4B56-9384-4689274B4605/assets/D0A05DF2CC447FC93A727EF259D4690E.png" width="216.00" height="52.00" transform="matrix(1.00, 0.00, -0.00, -1.00, 176.1, 423.8)" opacity="0.50"></image><g><clipPath id="clip0x6000020bb3c0"><path d="M 179.0 423.0 L 389.0 423.0 L 389.0 377.0 L 179.0 377.0 Z M 179.1 422.8 "></path></clipPath><g clip-path="url(#clip0x6000020bb3c0)"><path d="M 179.0 423.0 L 389.0 423.0 L 389.0 377.0 L 179.0 377.0 Z M 179.1 422.8 " fill="url(#gradSh1.11)"></path></g></g><g><clipPath id="clip0x6000024bd2e0"><path d="M 177.1 376.8 L 390.9 376.8 L 390.9 422.8 L 177.1 422.8 Z M 177.1 376.8 "></path></clipPath><g clip-path="url(#clip0x6000024bd2e0)"><text xml:space="preserve" font-family="Helvetica-Light,Helvetica" font-size="24.0" fill="#000000" transform="matrix(1.00, 0.00, -0.00, -1.00, 196.0, 390.3)">c</text><text xml:space="preserve" font-family="Helvetica-Light,Helvetica" font-size="24.0" fill="#000000" transform="matrix(1.00, 0.00, -0.00, -1.00, 209.3, 390.3)">o</text><text xml:space="preserve" font-family="Helvetica-Light,Helvetica" font-size="24.0" fill="#000000" transform="matrix(1.00, 0.00, -0.00, -1.00, 222.7, 390.3)">m</text><text xml:space="preserve" font-family="Helvetica-Light,Helvetica" font-size="24.0" fill="#000000" transform="matrix(1.00, 0.00, -0.00, -1.00, 242.7, 390.3)">p</text><text xml:space="preserve" font-family="Helvetica-Light,Helvetica" font-size="24.0" fill="#000000" transform="matrix(1.00, 0.00, -0.00, -1.00, 257.3, 390.3)">o</text><text xml:space="preserve" font-family="Helvetica-Light,Helvetica" font-size="24.0" fill="#000000" transform="matrix(1.00, 0.00, -0.00, -1.00, 270.7, 390.3)">s</text><text xml:space="preserve" font-family="Helvetica-Light,Helvetica" font-size="24.0" fill="#000000" transform="matrix(1.00, 0.00, -0.00, -1.00, 282.7, 390.3)">e</text><text xml:space="preserve" font-family="Helvetica-Light,Helvetica" font-size="24.0" fill="#000000" transform="matrix(1.00, 0.00, -0.00, -1.00, 296.0, 390.3)">r</text><text xml:space="preserve" font-family="Helvetica-Light,Helvetica" font-size="24.0" fill="#000000" transform="matrix(1.00, 0.00, -0.00, -1.00, 304.0, 390.3)"> </text><text xml:space="preserve" font-family="Helvetica-Light,Helvetica" font-size="24.0" fill="#000000" transform="matrix(1.00, 0.00, -0.00, -1.00, 310.7, 390.3)">i</text><text xml:space="preserve" font-family="Helvetica-Light,Helvetica" font-size="24.0" fill="#000000" transform="matrix(1.00, 0.00, -0.00, -1.00, 316.0, 390.3)">n</text><text xml:space="preserve" font-family="Helvetica-Light,Helvetica" font-size="24.0" fill="#000000" transform="matrix(1.00, 0.00, -0.00, -1.00, 329.3, 390.3)">s</text><text xml:space="preserve" font-family="Helvetica-Light,Helvetica" font-size="24.0" fill="#000000" transform="matrix(1.00, 0.00, -0.00, -1.00, 341.3, 390.3)">t</text><text xml:space="preserve" font-family="Helvetica-Light,Helvetica" font-size="24.0" fill="#000000" transform="matrix(1.00, 0.00, -0.00, -1.00, 348.0, 390.3)">a</text><text xml:space="preserve" font-family="Helvetica-Light,Helvetica" font-size="24.0" fill="#000000" transform="matrix(1.00, 0.00, -0.00, -1.00, 361.4, 390.3)">l</text><text xml:space="preserve" font-family="Helvetica-Light,Helvetica" font-size="24.0" fill="#000000" transform="matrix(1.00, 0.00, -0.00, -1.00, 366.7, 390.3)">l</text></g></g><image xlink:href="../../1E2A332B-A4C9-4B56-9384-4689274B4605/assets/A381564F7816912576D45DFB880F8D9D.png" width="366.00" height="193.00" transform="matrix(1.00, 0.00, -0.00, -1.00, 603.8, 479.1)" opacity="0.79"></image><g><clipPath id="clip0x6080014a6780"><path d="M 604.0 478.0 L 966.0 478.0 L 966.0 290.0 L 604.0 290.0 Z M 604.2 478.3 "></path></clipPath><g clip-path="url(#clip0x6080014a6780)"><path d="M 604.0 290.0 L 966.0 290.0 L 966.0 478.0 L 604.0 478.0 Z M 604.0 290.0 " fill="url(#98431D5E-30F4-414D-87CD-38ABAF6B542C)"></path></g></g><g><clipPath id="clip0x6080014a7e60"><path d="M 602.2 289.7 L 967.8 289.7 L 967.8 480.3 L 602.2 480.3 Z M 602.2 289.7 "></path></clipPath><g clip-path="url(#clip0x6080014a7e60)"><text xml:space="preserve" font-family="Helvetica-Light,Helvetica" font-size="24.0" fill="#FEFFFE" transform="matrix(1.00, 0.00, -0.00, -1.00, 742.8, 450.9)">P</text><text xml:space="preserve" font-family="Helvetica-Light,Helvetica" font-size="24.0" fill="#FEFFFE" transform="matrix(1.00, 0.00, -0.00, -1.00, 757.4, 450.9)">r</text><text xml:space="preserve" font-family="Helvetica-Light,Helvetica" font-size="24.0" fill="#FEFFFE" transform="matrix(1.00, 0.00, -0.00, -1.00, 765.0, 450.9)">e</text><text xml:space="preserve" font-family="Helvetica-Light,Helvetica" font-size="24.0" fill="#FEFFFE" transform="matrix(1.00, 0.00, -0.00, -1.00, 778.3, 450.9)">p</text><text xml:space="preserve" font-family="Helvetica-Light,Helvetica" font-size="24.0" fill="#FEFFFE" transform="matrix(1.00, 0.00, -0.00, -1.00, 793.0, 450.9)">a</text><text xml:space="preserve" font-family="Helvetica-Light,Helvetica" font-size="24.0" fill="#FEFFFE" transform="matrix(1.00, 0.00, -0.00, -1.00, 806.3, 450.9)">r</text><text xml:space="preserve" font-family="Helvetica-Light,Helvetica" font-size="24.0" fill="#FEFFFE" transform="matrix(1.00, 0.00, -0.00, -1.00, 813.9, 450.9)">e</text></g></g><image xlink:href="../../1E2A332B-A4C9-4B56-9384-4689274B4605/assets/CA946BD103E3E37ECA395949C6C002A0.png" width="216.00" height="52.00" transform="matrix(1.00, 0.00, -0.00, -1.00, 677.1, 356.0)" opacity="0.50"></image><g><clipPath id="clip0x6080014a8160"><path d="M 680.0 355.0 L 890.0 355.0 L 890.0 309.0 L 680.0 309.0 Z M 680.1 355.0 "></path></clipPath><g clip-path="url(#clip0x6080014a8160)"><path d="M 680.0 355.0 L 890.0 355.0 L 890.0 309.0 L 680.0 309.0 Z M 680.1 355.0 " fill="url(#gradSh1.12)"></path></g></g><g><clipPath id="clip0x6080016a8700"><path d="M 678.1 309.0 L 891.9 309.0 L 891.9 355.0 L 678.1 355.0 Z M 678.1 309.0 "></path></clipPath><g clip-path="url(#clip0x6080016a8700)"><text xml:space="preserve" font-family="Helvetica-Light,Helvetica" font-size="24.0" fill="#000000" transform="matrix(1.00, 0.00, -0.00, -1.00, 737.0, 322.5)">u</text><text xml:space="preserve" font-family="Helvetica-Light,Helvetica" font-size="24.0" fill="#000000" transform="matrix(1.00, 0.00, -0.00, -1.00, 750.3, 322.5)">n</text><text xml:space="preserve" font-family="Helvetica-Light,Helvetica" font-size="24.0" fill="#000000" transform="matrix(1.00, 0.00, -0.00, -1.00, 763.7, 322.5)">i</text><text xml:space="preserve" font-family="Helvetica-Light,Helvetica" font-size="24.0" fill="#000000" transform="matrix(1.00, 0.00, -0.00, -1.00, 769.0, 322.5)">t</text><text xml:space="preserve" font-family="Helvetica-Light,Helvetica" font-size="24.0" fill="#000000" transform="matrix(1.00, 0.00, -0.00, -1.00, 775.7, 322.5)"> </text><text xml:space="preserve" font-family="Helvetica-Light,Helvetica" font-size="24.0" fill="#000000" transform="matrix(1.00, 0.00, -0.00, -1.00, 782.3, 322.5)">t</text><text xml:space="preserve" font-family="Helvetica-Light,Helvetica" font-size="24.0" fill="#000000" transform="matrix(1.00, 0.00, -0.00, -1.00, 789.0, 322.5)">e</text><text xml:space="preserve" font-family="Helvetica-Light,Helvetica" font-size="24.0" fill="#000000" transform="matrix(1.00, 0.00, -0.00, -1.00, 802.4, 322.5)">s</text><text xml:space="preserve" font-family="Helvetica-Light,Helvetica" font-size="24.0" fill="#000000" transform="matrix(1.00, 0.00, -0.00, -1.00, 814.4, 322.5)">t</text><text xml:space="preserve" font-family="Helvetica-Light,Helvetica" font-size="24.0" fill="#000000" transform="matrix(1.00, 0.00, -0.00, -1.00, 821.0, 322.5)">s</text><text xml:space="preserve" font-family="Helvetica-Light,Helvetica" font-size="24.0" fill="#000000" transform="matrix(1.00, 0.00, -0.00, -1.00, 833.0, 322.5)"> </text></g></g><image xlink:href="../../1E2A332B-A4C9-4B56-9384-4689274B4605/assets/D0A05DF2CC447FC93A727EF259D4690E.png" width="216.00" height="52.00" transform="matrix(1.00, 0.00, -0.00, -1.00, 677.1, 423.8)" opacity="0.50"></image><g><clipPath id="clip0x6180020ad920"><path d="M 680.0 423.0 L 890.0 423.0 L 890.0 377.0 L 680.0 377.0 Z M 680.1 422.8 "></path></clipPath><g clip-path="url(#clip0x6180020ad920)"><path d="M 680.0 423.0 L 890.0 423.0 L 890.0 377.0 L 680.0 377.0 Z M 680.1 422.8 " fill="url(#gradSh1.13)"></path></g></g><g><clipPath id="clip0x6180022ac720"><path d="M 678.1 376.8 L 891.9 376.8 L 891.9 422.8 L 678.1 422.8 Z M 678.1 376.8 "></path></clipPath><g clip-path="url(#clip0x6180022ac720)"><text xml:space="preserve" font-family="Helvetica-Light,Helvetica" font-size="24.0" fill="#000000" transform="matrix(1.00, 0.00, -0.00, -1.00, 697.0, 390.3)">c</text><text xml:space="preserve" font-family="Helvetica-Light,Helvetica" font-size="24.0" fill="#000000" transform="matrix(1.00, 0.00, -0.00, -1.00, 710.3, 390.3)">o</text><text xml:space="preserve" font-family="Helvetica-Light,Helvetica" font-size="24.0" fill="#000000" transform="matrix(1.00, 0.00, -0.00, -1.00, 723.7, 390.3)">m</text><text xml:space="preserve" font-family="Helvetica-Light,Helvetica" font-size="24.0" fill="#000000" transform="matrix(1.00, 0.00, -0.00, -1.00, 743.7, 390.3)">p</text><text xml:space="preserve" font-family="Helvetica-Light,Helvetica" font-size="24.0" fill="#000000" transform="matrix(1.00, 0.00, -0.00, -1.00, 758.3, 390.3)">o</text><text xml:space="preserve" font-family="Helvetica-Light,Helvetica" font-size="24.0" fill="#000000" transform="matrix(1.00, 0.00, -0.00, -1.00, 771.7, 390.3)">s</text><text xml:space="preserve" font-family="Helvetica-Light,Helvetica" font-size="24.0" fill="#000000" transform="matrix(1.00, 0.00, -0.00, -1.00, 783.7, 390.3)">e</text><text xml:space="preserve" font-family="Helvetica-Light,Helvetica" font-size="24.0" fill="#000000" transform="matrix(1.00, 0.00, -0.00, -1.00, 797.0, 390.3)">r</text><text xml:space="preserve" font-family="Helvetica-Light,Helvetica" font-size="24.0" fill="#000000" transform="matrix(1.00, 0.00, -0.00, -1.00, 805.0, 390.3)"> </text><text xml:space="preserve" font-family="Helvetica-Light,Helvetica" font-size="24.0" fill="#000000" transform="matrix(1.00, 0.00, -0.00, -1.00, 811.7, 390.3)">i</text><text xml:space="preserve" font-family="Helvetica-Light,Helvetica" font-size="24.0" fill="#000000" transform="matrix(1.00, 0.00, -0.00, -1.00, 817.0, 390.3)">n</text><text xml:space="preserve" font-family="Helvetica-Light,Helvetica" font-size="24.0" fill="#000000" transform="matrix(1.00, 0.00, -0.00, -1.00, 830.3, 390.3)">s</text><text xml:space="preserve" font-family="Helvetica-Light,Helvetica" font-size="24.0" fill="#000000" transform="matrix(1.00, 0.00, -0.00, -1.00, 842.3, 390.3)">t</text><text xml:space="preserve" font-family="Helvetica-Light,Helvetica" font-size="24.0" fill="#000000" transform="matrix(1.00, 0.00, -0.00, -1.00, 849.0, 390.3)">a</text><text xml:space="preserve" font-family="Helvetica-Light,Helvetica" font-size="24.0" fill="#000000" transform="matrix(1.00, 0.00, -0.00, -1.00, 862.4, 390.3)">l</text><text xml:space="preserve" font-family="Helvetica-Light,Helvetica" font-size="24.0" fill="#000000" transform="matrix(1.00, 0.00, -0.00, -1.00, 867.7, 390.3)">l</text></g></g><text xml:space="preserve" font-family="Helvetica-Light,Helvetica" font-size="36.0" fill="#000000" transform="matrix(1.00, 0.00, -0.00, -1.00, 228.0, 204.9)">P</text><text xml:space="preserve" font-family="Helvetica-Light,Helvetica" font-size="36.0" fill="#000000" transform="matrix(1.00, 0.00, -0.00, -1.00, 250.0, 204.9)">H</text><text xml:space="preserve" font-family="Helvetica-Light,Helvetica" font-size="36.0" fill="#000000" transform="matrix(1.00, 0.00, -0.00, -1.00, 276.0, 204.9)">P</text><text xml:space="preserve" font-family="Helvetica-Light,Helvetica" font-size="36.0" fill="#000000" transform="matrix(1.00, 0.00, -0.00, -1.00, 298.0, 204.9)">5</text><text xml:space="preserve" font-family="Helvetica-Light,Helvetica" font-size="36.0" fill="#000000" transform="matrix(1.00, 0.00, -0.00, -1.00, 740.0, 204.9)">P</text><text xml:space="preserve" font-family="Helvetica-Light,Helvetica" font-size="36.0" fill="#000000" transform="matrix(1.00, 0.00, -0.00, -1.00, 762.0, 204.9)">H</text><text xml:space="preserve" font-family="Helvetica-Light,Helvetica" font-size="36.0" fill="#000000" transform="matrix(1.00, 0.00, -0.00, -1.00, 788.0, 204.9)">P</text><text xml:space="preserve" font-family="Helvetica-Light,Helvetica" font-size="36.0" fill="#000000" transform="matrix(1.00, 0.00, -0.00, -1.00, 810.0, 204.9)">7</text></g></svg>