<?xml version="1.0" encoding="UTF-8" standalone="no"?><svg xmlns="http://www.w3.org/2000/svg" xmlns:xlink="http://www.w3.org/1999/xlink" clip-rule="evenodd" stroke-miterlimit="10" viewBox="0 0 1024 768"><desc>SVG generated by Keynote</desc><defs></defs><g transform="matrix(1.00, 0.00, -0.00, -1.00, 0.0, 768.0)"><path d="M 0.0 768.0 L 1024.0 768.0 L 1024.0 0.0 L 0.0 0.0 Z M 0.0 768.0 " fill="#FEFFFF"></path><text xml:space="preserve" font-family="Helvetica-Light,Helvetica" font-size="62.0" fill="#000000" transform="matrix(1.00, 0.00, -0.00, -1.00, 256.3, 579.8)">T</text><text xml:space="preserve" font-family="Helvetica-Light,Helvetica" font-size="62.0" fill="#000000" transform="matrix(1.00, 0.00, -0.00, -1.00, 290.8, 579.8)">h</text><text xml:space="preserve" font-family="Helvetica-Light,Helvetica" font-size="62.0" fill="#000000" transform="matrix(1.00, 0.00, -0.00, -1.00, 325.3, 579.8)">a</text><text xml:space="preserve" font-family="Helvetica-Light,Helvetica" font-size="62.0" fill="#000000" transform="matrix(1.00, 0.00, -0.00, -1.00, 359.7, 579.8)">n</text><text xml:space="preserve" font-family="Helvetica-Light,Helvetica" font-size="62.0" fill="#000000" transform="matrix(1.00, 0.00, -0.00, -1.00, 394.2, 579.8)">k</text><text xml:space="preserve" font-family="Helvetica-Light,Helvetica" font-size="62.0" fill="#000000" transform="matrix(1.00, 0.00, -0.00, -1.00, 425.2, 579.8)"> </text><text xml:space="preserve" font-family="Helvetica-Light,Helvetica" font-size="62.0" fill="#000000" transform="matrix(1.00, 0.00, -0.00, -1.00, 442.4, 579.8)">y</text><text xml:space="preserve" font-family="Helvetica-Light,Helvetica" font-size="62.0" fill="#000000" transform="matrix(1.00, 0.00, -0.00, -1.00, 473.4, 579.8)">o</text><text xml:space="preserve" font-family="Helvetica-Light,Helvetica" font-size="62.0" fill="#000000" transform="matrix(1.00, 0.00, -0.00, -1.00, 507.9, 579.8)">u</text><text xml:space="preserve" font-family="Helvetica-Light,Helvetica" font-size="62.0" fill="#000000" transform="matrix(1.00, 0.00, -0.00, -1.00, 542.4, 579.8)"> </text><text xml:space="preserve" font-family="Helvetica-Light,Helvetica" font-size="62.0" fill="#000000" transform="matrix(1.00, 0.00, -0.00, -1.00, 559.6, 579.8)">S</text><text xml:space="preserve" font-family="Helvetica-Light,Helvetica" font-size="62.0" fill="#000000" transform="matrix(1.00, 0.00, -0.00, -1.00, 597.5, 579.8)">i</text><text xml:space="preserve" font-family="Helvetica-Light,Helvetica" font-size="62.0" fill="#000000" transform="matrix(1.00, 0.00, -0.00, -1.00, 611.3, 579.8)">n</text><text xml:space="preserve" font-family="Helvetica-Light,Helvetica" font-size="62.0" fill="#000000" transform="matrix(1.00, 0.00, -0.00, -1.00, 645.7, 579.8)">g</text><text xml:space="preserve" font-family="Helvetica-Light,Helvetica" font-size="62.0" fill="#000000" transform="matrix(1.00, 0.00, -0.00, -1.00, 683.6, 579.8)">a</text><text xml:space="preserve" font-family="Helvetica-Light,Helvetica" font-size="62.0" fill="#000000" transform="matrix(1.00, 0.00, -0.00, -1.00, 718.1, 579.8)">p</text><text xml:space="preserve" font-family="Helvetica-Light,Helvetica" font-size="62.0" fill="#000000" transform="matrix(1.00, 0.00, -0.00, -1.00, 756.0, 579.8)">o</text><text xml:space="preserve" font-family="Helvetica-Light,Helvetica" font-size="62.0" fill="#000000" transform="matrix(1.00, 0.00, -0.00, -1.00, 790.4, 579.8)">r</text><text xml:space="preserve" font-family="Helvetica-Light,Helvetica" font-size="62.0" fill="#000000" transform="matrix(1.00, 0.00, -0.00, -1.00, 810.0, 579.8)">e</text><text xml:space="preserve" font-family="Helvetica-Light,Helvetica" font-size="62.0" fill="#000000" transform="matrix(1.00, 0.00, -0.00, -1.00, 280.1, 414.8)">T</text><text xml:space="preserve" font-family="Helvetica-Light,Helvetica" font-size="62.0" fill="#000000" transform="matrix(1.00, 0.00, -0.00, -1.00, 309.4, 414.8)">w</text><text xml:space="preserve" font-family="Helvetica-Light,Helvetica" font-size="62.0" fill="#000000" transform="matrix(1.00, 0.00, -0.00, -1.00, 354.2, 414.8)">i</text><text xml:space="preserve" font-family="Helvetica-Light,Helvetica" font-size="62.0" fill="#000000" transform="matrix(1.00, 0.00, -0.00, -1.00, 367.9, 414.8)">t</text><text xml:space="preserve" font-family="Helvetica-Light,Helvetica" font-size="62.0" fill="#000000" transform="matrix(1.00, 0.00, -0.00, -1.00, 385.2, 414.8)">t</text><text xml:space="preserve" font-family="Helvetica-Light,Helvetica" font-size="62.0" fill="#000000" transform="matrix(1.00, 0.00, -0.00, -1.00, 402.4, 414.8)">e</text><text xml:space="preserve" font-family="Helvetica-Light,Helvetica" font-size="62.0" fill="#000000" transform="matrix(1.00, 0.00, -0.00, -1.00, 436.9, 414.8)">r</text><text xml:space="preserve" font-family="Helvetica-Light,Helvetica" font-size="62.0" fill="#000000" transform="matrix(1.00, 0.00, -0.00, -1.00, 457.5, 414.8)">:</text><text xml:space="preserve" font-family="Helvetica-Light,Helvetica" font-size="62.0" fill="#000000" transform="matrix(1.00, 0.00, -0.00, -1.00, 474.7, 414.8)"> </text><text xml:space="preserve" font-family="Helvetica-Light,Helvetica" font-size="62.0" fill="#000000" transform="matrix(1.00, 0.00, -0.00, -1.00, 492.0, 414.8)">@</text><text xml:space="preserve" font-family="Helvetica-Light,Helvetica" font-size="62.0" fill="#000000" transform="matrix(1.00, 0.00, -0.00, -1.00, 541.6, 414.8)">d</text><text xml:space="preserve" font-family="Helvetica-Light,Helvetica" font-size="62.0" fill="#000000" transform="matrix(1.00, 0.00, -0.00, -1.00, 579.5, 414.8)">r</text><text xml:space="preserve" font-family="Helvetica-Light,Helvetica" font-size="62.0" fill="#000000" transform="matrix(1.00, 0.00, -0.00, -1.00, 600.1, 414.8)">4</text><text xml:space="preserve" font-family="Helvetica-Light,Helvetica" font-size="62.0" fill="#000000" transform="matrix(1.00, 0.00, -0.00, -1.00, 634.6, 414.8)">g</text><text xml:space="preserve" font-family="Helvetica-Light,Helvetica" font-size="62.0" fill="#000000" transform="matrix(1.00, 0.00, -0.00, -1.00, 672.5, 414.8)">o</text><text xml:space="preserve" font-family="Helvetica-Light,Helvetica" font-size="62.0" fill="#000000" transform="matrix(1.00, 0.00, -0.00, -1.00, 706.9, 414.8)">o</text><text xml:space="preserve" font-family="Helvetica-Light,Helvetica" font-size="62.0" fill="#000000" transform="matrix(1.00, 0.00, -0.00, -1.00, 741.4, 414.8)">n</text><text xml:space="preserve" font-family="Helvetica-Light,Helvetica" font-size="62.0" fill="#000000" transform="matrix(1.00, 0.00, -0.00, -1.00, 775.9, 414.8)">i</text><text xml:space="preserve" font-family="Helvetica-Light,Helvetica" font-size="62.0" fill="#000000" transform="matrix(1.00, 0.00, -0.00, -1.00, 789.6, 414.8)">s</text><text xml:space="preserve" font-family="Helvetica-Light,Helvetica" font-size="62.0" fill="#000000" transform="matrix(1.00, 0.00, -0.00, -1.00, 186.2, 294.8)">E</text><text xml:space="preserve" font-family="Helvetica-Light,Helvetica" font-size="62.0" fill="#000000" transform="matrix(1.00, 0.00, -0.00, -1.00, 224.1, 294.8)">m</text><text xml:space="preserve" font-family="Helvetica-Light,Helvetica" font-size="62.0" fill="#000000" transform="matrix(1.00, 0.00, -0.00, -1.00, 275.8, 294.8)">a</text><text xml:space="preserve" font-family="Helvetica-Light,Helvetica" font-size="62.0" fill="#000000" transform="matrix(1.00, 0.00, -0.00, -1.00, 310.2, 294.8)">i</text><text xml:space="preserve" font-family="Helvetica-Light,Helvetica" font-size="62.0" fill="#000000" transform="matrix(1.00, 0.00, -0.00, -1.00, 324.0, 294.8)">l</text><text xml:space="preserve" font-family="Helvetica-Light,Helvetica" font-size="62.0" fill="#000000" transform="matrix(1.00, 0.00, -0.00, -1.00, 337.8, 294.8)">:</text><text xml:space="preserve" font-family="Helvetica-Light,Helvetica" font-size="62.0" fill="#000000" transform="matrix(1.00, 0.00, -0.00, -1.00, 355.0, 294.8)"> </text><text xml:space="preserve" font-family="Helvetica-Light,Helvetica" font-size="62.0" fill="#000000" transform="matrix(1.00, 0.00, -0.00, -1.00, 372.2, 294.8)">d</text><text xml:space="preserve" font-family="Helvetica-Light,Helvetica" font-size="62.0" fill="#000000" transform="matrix(1.00, 0.00, -0.00, -1.00, 410.1, 294.8)">r</text><text xml:space="preserve" font-family="Helvetica-Light,Helvetica" font-size="62.0" fill="#000000" transform="matrix(1.00, 0.00, -0.00, -1.00, 430.8, 294.8)">a</text><text xml:space="preserve" font-family="Helvetica-Light,Helvetica" font-size="62.0" fill="#000000" transform="matrix(1.00, 0.00, -0.00, -1.00, 465.2, 294.8)">g</text><text xml:space="preserve" font-family="Helvetica-Light,Helvetica" font-size="62.0" fill="#000000" transform="matrix(1.00, 0.00, -0.00, -1.00, 503.1, 294.8)">o</text><text xml:space="preserve" font-family="Helvetica-Light,Helvetica" font-size="62.0" fill="#000000" transform="matrix(1.00, 0.00, -0.00, -1.00, 537.6, 294.8)">o</text><text xml:space="preserve" font-family="Helvetica-Light,Helvetica" font-size="62.0" fill="#000000" transform="matrix(1.00, 0.00, -0.00, -1.00, 572.0, 294.8)">n</text><text xml:space="preserve" font-family="Helvetica-Light,Helvetica" font-size="62.0" fill="#000000" transform="matrix(1.00, 0.00, -0.00, -1.00, 606.5, 294.8)">i</text><text xml:space="preserve" font-family="Helvetica-Light,Helvetica" font-size="62.0" fill="#000000" transform="matrix(1.00, 0.00, -0.00, -1.00, 620.3, 294.8)">s</text><text xml:space="preserve" font-family="Helvetica-Light,Helvetica" font-size="62.0" fill="#000000" transform="matrix(1.00, 0.00, -0.00, -1.00, 651.3, 294.8)">@</text><text xml:space="preserve" font-family="Helvetica-Light,Helvetica" font-size="62.0" fill="#000000" transform="matrix(1.00, 0.00, -0.00, -1.00, 700.9, 294.8)">p</text><text xml:space="preserve" font-family="Helvetica-Light,Helvetica" font-size="62.0" fill="#000000" transform="matrix(1.00, 0.00, -0.00, -1.00, 738.8, 294.8)">h</text><text xml:space="preserve" font-family="Helvetica-Light,Helvetica" font-size="62.0" fill="#000000" transform="matrix(1.00, 0.00, -0.00, -1.00, 773.2, 294.8)">p</text><text xml:space="preserve" font-family="Helvetica-Light,Helvetica" font-size="62.0" fill="#000000" transform="matrix(1.00, 0.00, -0.00, -1.00, 811.1, 294.8)">.</text><text xml:space="preserve" font-family="Helvetica-Light,Helvetica" font-size="62.0" fill="#000000" transform="matrix(1.00, 0.00, -0.00, -1.00, 828.4, 294.8)">n</text><text xml:space="preserve" font-family="Helvetica-Light,Helvetica" font-size="62.0" fill="#000000" transform="matrix(1.00, 0.00, -0.00, -1.00, 862.8, 294.8)">e</text><text xml:space="preserve" font-family="Helvetica-Light,Helvetica" font-size="62.0" fill="#000000" transform="matrix(1.00, 0.00, -0.00, -1.00, 897.3, 294.8)">t</text><g><clipPath id="clip0x618004aac480"><path d="M 371.2 287.6 L 914.5 287.6 L 914.5 292.7 L 371.2 292.7 Z M 371.2 287.6 "></path></clipPath><g clip-path="url(#clip0x618004aac480)"><path d="M 223.1 68.4 L 765.4 68.4 " fill="none" stroke="#000000" stroke-width="3.10" transform="matrix(1.00, 0.00, 0.00, -1.00, 149.1, 358.5)"></path></g></g></g></svg>