<?xml version="1.0" encoding="UTF-8" standalone="no"?><svg xmlns="http://www.w3.org/2000/svg" xmlns:xlink="http://www.w3.org/1999/xlink" clip-rule="evenodd" stroke-miterlimit="10" viewBox="0 0 1024 768"><desc>SVG generated by Keynote</desc><defs></defs><g transform="matrix(1.00, 0.00, -0.00, -1.00, 0.0, 768.0)"><path d="M 0.0 768.0 L 1024.0 768.0 L 1024.0 0.0 L 0.0 0.0 Z M 0.0 768.0 " fill="#FEFFFF"></path><image xlink:href="58266F46DC3ED9EF5A44347B89FD0A84.png" width="1813.00" height="827.00" transform="matrix(0.56, 0.00, -0.00, -0.56, -10.0, 655.0)"></image><text xml:space="preserve" font-family="Helvetica-Light,Helvetica" font-size="51.0" fill="#000000" transform="matrix(1.00, 0.00, -0.00, -1.00, 180.9, 688.7)">P</text><text xml:space="preserve" font-family="Helvetica-Light,Helvetica" font-size="51.0" fill="#000000" transform="matrix(1.00, 0.00, -0.00, -1.00, 212.0, 688.7)">H</text><text xml:space="preserve" font-family="Helvetica-Light,Helvetica" font-size="51.0" fill="#000000" transform="matrix(1.00, 0.00, -0.00, -1.00, 248.9, 688.7)">P</text><text xml:space="preserve" font-family="Helvetica-Light,Helvetica" font-size="51.0" fill="#000000" transform="matrix(1.00, 0.00, -0.00, -1.00, 280.0, 688.7)">7</text><text xml:space="preserve" font-family="Helvetica-Light,Helvetica" font-size="51.0" fill="#000000" transform="matrix(1.00, 0.00, -0.00, -1.00, 308.4, 688.7)">:</text><text xml:space="preserve" font-family="Helvetica-Light,Helvetica" font-size="51.0" fill="#000000" transform="matrix(1.00, 0.00, -0.00, -1.00, 322.6, 688.7)"> </text><text xml:space="preserve" font-family="Helvetica-Light,Helvetica" font-size="51.0" fill="#000000" transform="matrix(1.00, 0.00, -0.00, -1.00, 336.7, 688.7)">D</text><text xml:space="preserve" font-family="Helvetica-Light,Helvetica" font-size="51.0" fill="#000000" transform="matrix(1.00, 0.00, -0.00, -1.00, 373.6, 688.7)">e</text><text xml:space="preserve" font-family="Helvetica-Light,Helvetica" font-size="51.0" fill="#000000" transform="matrix(1.00, 0.00, -0.00, -1.00, 401.9, 688.7)">p</text><text xml:space="preserve" font-family="Helvetica-Light,Helvetica" font-size="51.0" fill="#000000" transform="matrix(1.00, 0.00, -0.00, -1.00, 433.1, 688.7)">l</text><text xml:space="preserve" font-family="Helvetica-Light,Helvetica" font-size="51.0" fill="#000000" transform="matrix(1.00, 0.00, -0.00, -1.00, 444.4, 688.7)">o</text><text xml:space="preserve" font-family="Helvetica-Light,Helvetica" font-size="51.0" fill="#000000" transform="matrix(1.00, 0.00, -0.00, -1.00, 472.8, 688.7)">y</text><text xml:space="preserve" font-family="Helvetica-Light,Helvetica" font-size="51.0" fill="#000000" transform="matrix(1.00, 0.00, -0.00, -1.00, 498.3, 688.7)">i</text><text xml:space="preserve" font-family="Helvetica-Light,Helvetica" font-size="51.0" fill="#000000" transform="matrix(1.00, 0.00, -0.00, -1.00, 509.6, 688.7)">n</text><text xml:space="preserve" font-family="Helvetica-Light,Helvetica" font-size="51.0" fill="#000000" transform="matrix(1.00, 0.00, -0.00, -1.00, 537.9, 688.7)">g</text><text xml:space="preserve" font-family="Helvetica-Light,Helvetica" font-size="51.0" fill="#000000" transform="matrix(1.00, 0.00, -0.00, -1.00, 569.1, 688.7)"> </text><text xml:space="preserve" font-family="Helvetica-Light,Helvetica" font-size="51.0" fill="#000000" transform="matrix(1.00, 0.00, -0.00, -1.00, 583.3, 688.7)">r</text><text xml:space="preserve" font-family="Helvetica-Light,Helvetica" font-size="51.0" fill="#000000" transform="matrix(1.00, 0.00, -0.00, -1.00, 599.3, 688.7)">e</text><text xml:space="preserve" font-family="Helvetica-Light,Helvetica" font-size="51.0" fill="#000000" transform="matrix(1.00, 0.00, -0.00, -1.00, 627.7, 688.7)">a</text><text xml:space="preserve" font-family="Helvetica-Light,Helvetica" font-size="51.0" fill="#000000" transform="matrix(1.00, 0.00, -0.00, -1.00, 656.0, 688.7)">d</text><text xml:space="preserve" font-family="Helvetica-Light,Helvetica" font-size="51.0" fill="#000000" transform="matrix(1.00, 0.00, -0.00, -1.00, 687.2, 688.7)">y</text><text xml:space="preserve" font-family="Helvetica-Light,Helvetica" font-size="51.0" fill="#000000" transform="matrix(1.00, 0.00, -0.00, -1.00, 712.7, 688.7)"> </text><text xml:space="preserve" font-family="Helvetica-Light,Helvetica" font-size="51.0" fill="#000000" transform="matrix(1.00, 0.00, -0.00, -1.00, 726.9, 688.7)">c</text><text xml:space="preserve" font-family="Helvetica-Light,Helvetica" font-size="51.0" fill="#000000" transform="matrix(1.00, 0.00, -0.00, -1.00, 755.2, 688.7)">o</text><text xml:space="preserve" font-family="Helvetica-Light,Helvetica" font-size="51.0" fill="#000000" transform="matrix(1.00, 0.00, -0.00, -1.00, 783.6, 688.7)">d</text><text xml:space="preserve" font-family="Helvetica-Light,Helvetica" font-size="51.0" fill="#000000" transform="matrix(1.00, 0.00, -0.00, -1.00, 814.8, 688.7)">e</text></g></svg>