<?xml version="1.0" encoding="UTF-8" standalone="no"?><svg xmlns="http://www.w3.org/2000/svg" xmlns:xlink="http://www.w3.org/1999/xlink" clip-rule="evenodd" stroke-miterlimit="10" viewBox="0 0 1024 768"><desc>SVG generated by Keynote</desc><defs></defs><g transform="matrix(1.00, 0.00, -0.00, -1.00, 0.0, 768.0)"><path d="M 0.0 768.0 L 1024.0 768.0 L 1024.0 0.0 L 0.0 0.0 Z M 0.0 768.0 " fill="#FEFFFF"></path><text xml:space="preserve" font-family="Helvetica-Light,Helvetica" font-size="64.8" fill="#000000" transform="matrix(1.00, 0.00, -0.00, -1.00, 81.7, 649.9)">P</text><text xml:space="preserve" font-family="Helvetica-Light,Helvetica" font-size="64.8" fill="#000000" transform="matrix(1.00, 0.00, -0.00, -1.00, 121.3, 649.9)">H</text><text xml:space="preserve" font-family="Helvetica-Light,Helvetica" font-size="64.8" fill="#000000" transform="matrix(1.00, 0.00, -0.00, -1.00, 168.1, 649.9)">P</text><text xml:space="preserve" font-family="Helvetica-Light,Helvetica" font-size="64.8" fill="#000000" transform="matrix(1.00, 0.00, -0.00, -1.00, 207.7, 649.9)">7</text><text xml:space="preserve" font-family="Helvetica-Light,Helvetica" font-size="64.8" fill="#000000" transform="matrix(1.00, 0.00, -0.00, -1.00, 243.7, 649.9)">:</text><text xml:space="preserve" font-family="Helvetica-Light,Helvetica" font-size="64.8" fill="#000000" transform="matrix(1.00, 0.00, -0.00, -1.00, 261.7, 649.9)"> </text><text xml:space="preserve" font-family="Helvetica-Light,Helvetica" font-size="64.8" fill="#000000" transform="matrix(1.00, 0.00, -0.00, -1.00, 279.8, 649.9)">C</text><text xml:space="preserve" font-family="Helvetica-Light,Helvetica" font-size="64.8" fill="#000000" transform="matrix(1.00, 0.00, -0.00, -1.00, 326.5, 649.9)">h</text><text xml:space="preserve" font-family="Helvetica-Light,Helvetica" font-size="64.8" fill="#000000" transform="matrix(1.00, 0.00, -0.00, -1.00, 362.6, 649.9)">e</text><text xml:space="preserve" font-family="Helvetica-Light,Helvetica" font-size="64.8" fill="#000000" transform="matrix(1.00, 0.00, -0.00, -1.00, 398.6, 649.9)">c</text><text xml:space="preserve" font-family="Helvetica-Light,Helvetica" font-size="64.8" fill="#000000" transform="matrix(1.00, 0.00, -0.00, -1.00, 434.6, 649.9)">k</text><text xml:space="preserve" font-family="Helvetica-Light,Helvetica" font-size="64.8" fill="#000000" transform="matrix(1.00, 0.00, -0.00, -1.00, 467.0, 649.9)">i</text><text xml:space="preserve" font-family="Helvetica-Light,Helvetica" font-size="64.8" fill="#000000" transform="matrix(1.00, 0.00, -0.00, -1.00, 481.4, 649.9)">n</text><text xml:space="preserve" font-family="Helvetica-Light,Helvetica" font-size="64.8" fill="#000000" transform="matrix(1.00, 0.00, -0.00, -1.00, 517.4, 649.9)">g</text><text xml:space="preserve" font-family="Helvetica-Light,Helvetica" font-size="64.8" fill="#000000" transform="matrix(1.00, 0.00, -0.00, -1.00, 557.0, 649.9)"> </text><text xml:space="preserve" font-family="Helvetica-Light,Helvetica" font-size="64.8" fill="#000000" transform="matrix(1.00, 0.00, -0.00, -1.00, 575.1, 649.9)">c</text><text xml:space="preserve" font-family="Helvetica-Light,Helvetica" font-size="64.8" fill="#000000" transform="matrix(1.00, 0.00, -0.00, -1.00, 611.1, 649.9)">o</text><text xml:space="preserve" font-family="Helvetica-Light,Helvetica" font-size="64.8" fill="#000000" transform="matrix(1.00, 0.00, -0.00, -1.00, 647.1, 649.9)">m</text><text xml:space="preserve" font-family="Helvetica-Light,Helvetica" font-size="64.8" fill="#000000" transform="matrix(1.00, 0.00, -0.00, -1.00, 701.1, 649.9)">p</text><text xml:space="preserve" font-family="Helvetica-Light,Helvetica" font-size="64.8" fill="#000000" transform="matrix(1.00, 0.00, -0.00, -1.00, 740.7, 649.9)">a</text><text xml:space="preserve" font-family="Helvetica-Light,Helvetica" font-size="64.8" fill="#000000" transform="matrix(1.00, 0.00, -0.00, -1.00, 776.7, 649.9)">t</text><text xml:space="preserve" font-family="Helvetica-Light,Helvetica" font-size="64.8" fill="#000000" transform="matrix(1.00, 0.00, -0.00, -1.00, 794.7, 649.9)">i</text><text xml:space="preserve" font-family="Helvetica-Light,Helvetica" font-size="64.8" fill="#000000" transform="matrix(1.00, 0.00, -0.00, -1.00, 809.1, 649.9)">b</text><text xml:space="preserve" font-family="Helvetica-Light,Helvetica" font-size="64.8" fill="#000000" transform="matrix(1.00, 0.00, -0.00, -1.00, 848.7, 649.9)">i</text><text xml:space="preserve" font-family="Helvetica-Light,Helvetica" font-size="64.8" fill="#000000" transform="matrix(1.00, 0.00, -0.00, -1.00, 863.1, 649.9)">l</text><text xml:space="preserve" font-family="Helvetica-Light,Helvetica" font-size="64.8" fill="#000000" transform="matrix(1.00, 0.00, -0.00, -1.00, 877.5, 649.9)">i</text><text xml:space="preserve" font-family="Helvetica-Light,Helvetica" font-size="64.8" fill="#000000" transform="matrix(1.00, 0.00, -0.00, -1.00, 891.9, 649.9)">t</text><text xml:space="preserve" font-family="Helvetica-Light,Helvetica" font-size="64.8" fill="#000000" transform="matrix(1.00, 0.00, -0.00, -1.00, 909.9, 649.9)">y</text><text xml:space="preserve" font-family="Helvetica-Light,Helvetica" font-size="50.0" fill="#000000" transform="matrix(1.00, 0.00, -0.00, -1.00, 70.1, 505.5)">m</text><text xml:space="preserve" font-family="Helvetica-Light,Helvetica" font-size="50.0" fill="#000000" transform="matrix(1.00, 0.00, -0.00, -1.00, 111.8, 505.5)">o</text><text xml:space="preserve" font-family="Helvetica-Light,Helvetica" font-size="50.0" fill="#000000" transform="matrix(1.00, 0.00, -0.00, -1.00, 139.6, 505.5)">u</text><text xml:space="preserve" font-family="Helvetica-Light,Helvetica" font-size="50.0" fill="#000000" transform="matrix(1.00, 0.00, -0.00, -1.00, 167.4, 505.5)">n</text><text xml:space="preserve" font-family="Helvetica-Light,Helvetica" font-size="50.0" fill="#000000" transform="matrix(1.00, 0.00, -0.00, -1.00, 195.2, 505.5)">t</text><text xml:space="preserve" font-family="Helvetica-Light,Helvetica" font-size="50.0" fill="#000000" transform="matrix(1.00, 0.00, -0.00, -1.00, 209.1, 505.5)">s</text><text xml:space="preserve" font-family="Helvetica-Light,Helvetica" font-size="50.0" fill="#000000" transform="matrix(1.00, 0.00, -0.00, -1.00, 234.1, 505.5)"> </text><text xml:space="preserve" font-family="Helvetica-Light,Helvetica" font-size="50.0" fill="#000000" transform="matrix(1.00, 0.00, -0.00, -1.00, 248.0, 505.5)">y</text><text xml:space="preserve" font-family="Helvetica-Light,Helvetica" font-size="50.0" fill="#000000" transform="matrix(1.00, 0.00, -0.00, -1.00, 273.0, 505.5)">o</text><text xml:space="preserve" font-family="Helvetica-Light,Helvetica" font-size="50.0" fill="#000000" transform="matrix(1.00, 0.00, -0.00, -1.00, 300.8, 505.5)">u</text><text xml:space="preserve" font-family="Helvetica-Light,Helvetica" font-size="50.0" fill="#000000" transform="matrix(1.00, 0.00, -0.00, -1.00, 328.6, 505.5)">r</text><text xml:space="preserve" font-family="Helvetica-Light,Helvetica" font-size="50.0" fill="#000000" transform="matrix(1.00, 0.00, -0.00, -1.00, 345.2, 505.5)"> </text><text xml:space="preserve" font-family="Helvetica-Light,Helvetica" font-size="50.0" fill="#000000" transform="matrix(1.00, 0.00, -0.00, -1.00, 359.1, 505.5)">c</text><text xml:space="preserve" font-family="Helvetica-Light,Helvetica" font-size="50.0" fill="#000000" transform="matrix(1.00, 0.00, -0.00, -1.00, 386.9, 505.5)">o</text><text xml:space="preserve" font-family="Helvetica-Light,Helvetica" font-size="50.0" fill="#000000" transform="matrix(1.00, 0.00, -0.00, -1.00, 414.7, 505.5)">d</text><text xml:space="preserve" font-family="Helvetica-Light,Helvetica" font-size="50.0" fill="#000000" transform="matrix(1.00, 0.00, -0.00, -1.00, 445.3, 505.5)">e</text><text xml:space="preserve" font-family="Helvetica-Light,Helvetica" font-size="50.0" fill="#000000" transform="matrix(1.00, 0.00, -0.00, -1.00, 473.1, 505.5)"> </text><text xml:space="preserve" font-family="Helvetica-Light,Helvetica" font-size="50.0" fill="#000000" transform="matrix(1.00, 0.00, -0.00, -1.00, 487.0, 505.5)">i</text><text xml:space="preserve" font-family="Helvetica-Light,Helvetica" font-size="50.0" fill="#000000" transform="matrix(1.00, 0.00, -0.00, -1.00, 498.1, 505.5)">n</text><text xml:space="preserve" font-family="Helvetica-Light,Helvetica" font-size="50.0" fill="#000000" transform="matrix(1.00, 0.00, -0.00, -1.00, 525.9, 505.5)">s</text><text xml:space="preserve" font-family="Helvetica-Light,Helvetica" font-size="50.0" fill="#000000" transform="matrix(1.00, 0.00, -0.00, -1.00, 550.9, 505.5)">i</text><text xml:space="preserve" font-family="Helvetica-Light,Helvetica" font-size="50.0" fill="#000000" transform="matrix(1.00, 0.00, -0.00, -1.00, 562.0, 505.5)">d</text><text xml:space="preserve" font-family="Helvetica-Light,Helvetica" font-size="50.0" fill="#000000" transform="matrix(1.00, 0.00, -0.00, -1.00, 592.5, 505.5)">e</text><text xml:space="preserve" font-family="Helvetica-Light,Helvetica" font-size="50.0" fill="#000000" transform="matrix(1.00, 0.00, -0.00, -1.00, 620.3, 505.5)">,</text><text xml:space="preserve" font-family="Helvetica-Light,Helvetica" font-size="50.0" fill="#000000" transform="matrix(1.00, 0.00, -0.00, -1.00, 634.2, 505.5)"> </text><text xml:space="preserve" font-family="Helvetica-Light,Helvetica" font-size="50.0" fill="#000000" transform="matrix(1.00, 0.00, -0.00, -1.00, 648.1, 505.5)">e</text><text xml:space="preserve" font-family="Helvetica-Light,Helvetica" font-size="50.0" fill="#000000" transform="matrix(1.00, 0.00, -0.00, -1.00, 675.9, 505.5)">x</text><text xml:space="preserve" font-family="Helvetica-Light,Helvetica" font-size="50.0" fill="#000000" transform="matrix(1.00, 0.00, -0.00, -1.00, 700.9, 505.5)">e</text><text xml:space="preserve" font-family="Helvetica-Light,Helvetica" font-size="50.0" fill="#000000" transform="matrix(1.00, 0.00, -0.00, -1.00, 728.7, 505.5)">c</text><text xml:space="preserve" font-family="Helvetica-Light,Helvetica" font-size="50.0" fill="#000000" transform="matrix(1.00, 0.00, -0.00, -1.00, 756.5, 505.5)">u</text><text xml:space="preserve" font-family="Helvetica-Light,Helvetica" font-size="50.0" fill="#000000" transform="matrix(1.00, 0.00, -0.00, -1.00, 784.3, 505.5)">t</text><text xml:space="preserve" font-family="Helvetica-Light,Helvetica" font-size="50.0" fill="#000000" transform="matrix(1.00, 0.00, -0.00, -1.00, 798.2, 505.5)">e</text><text xml:space="preserve" font-family="Helvetica-Light,Helvetica" font-size="50.0" fill="#000000" transform="matrix(1.00, 0.00, -0.00, -1.00, 826.0, 505.5)"> </text><text xml:space="preserve" font-family="Helvetica-Light,Helvetica" font-size="50.0" fill="#000000" transform="matrix(1.00, 0.00, -0.00, -1.00, 839.9, 505.5)">p</text><text xml:space="preserve" font-family="Helvetica-Light,Helvetica" font-size="50.0" fill="#000000" transform="matrix(1.00, 0.00, -0.00, -1.00, 870.5, 505.5)">h</text><text xml:space="preserve" font-family="Helvetica-Light,Helvetica" font-size="50.0" fill="#000000" transform="matrix(1.00, 0.00, -0.00, -1.00, 898.3, 505.5)">a</text><text xml:space="preserve" font-family="Helvetica-Light,Helvetica" font-size="50.0" fill="#000000" transform="matrix(1.00, 0.00, -0.00, -1.00, 926.1, 505.5)">n</text><text xml:space="preserve" font-family="CourierNewPS-ItalicMT,Courier New" font-style="italic" font-size="30.0" fill="#959395" transform="matrix(1.00, 0.00, -0.00, -1.00, 241.5, 311.0)">#</text><text xml:space="preserve" font-family="CourierNewPS-ItalicMT,Courier New" font-style="italic" font-size="30.0" fill="#959395" transform="matrix(1.00, 0.00, -0.00, -1.00, 259.5, 311.0)">!</text><text xml:space="preserve" font-family="CourierNewPS-ItalicMT,Courier New" font-style="italic" font-size="30.0" fill="#959395" transform="matrix(1.00, 0.00, -0.00, -1.00, 277.5, 311.0)">/</text><text xml:space="preserve" font-family="CourierNewPS-ItalicMT,Courier New" font-style="italic" font-size="30.0" fill="#959395" transform="matrix(1.00, 0.00, -0.00, -1.00, 295.5, 311.0)">b</text><text xml:space="preserve" font-family="CourierNewPS-ItalicMT,Courier New" font-style="italic" font-size="30.0" fill="#959395" transform="matrix(1.00, 0.00, -0.00, -1.00, 313.5, 311.0)">i</text><text xml:space="preserve" font-family="CourierNewPS-ItalicMT,Courier New" font-style="italic" font-size="30.0" fill="#959395" transform="matrix(1.00, 0.00, -0.00, -1.00, 331.5, 311.0)">n</text><text xml:space="preserve" font-family="CourierNewPS-ItalicMT,Courier New" font-style="italic" font-size="30.0" fill="#959395" transform="matrix(1.00, 0.00, -0.00, -1.00, 349.5, 311.0)">/</text><text xml:space="preserve" font-family="CourierNewPS-ItalicMT,Courier New" font-style="italic" font-size="30.0" fill="#959395" transform="matrix(1.00, 0.00, -0.00, -1.00, 367.5, 311.0)">b</text><text xml:space="preserve" font-family="CourierNewPS-ItalicMT,Courier New" font-style="italic" font-size="30.0" fill="#959395" transform="matrix(1.00, 0.00, -0.00, -1.00, 385.5, 311.0)">a</text><text xml:space="preserve" font-family="CourierNewPS-ItalicMT,Courier New" font-style="italic" font-size="30.0" fill="#959395" transform="matrix(1.00, 0.00, -0.00, -1.00, 403.5, 311.0)">s</text><text xml:space="preserve" font-family="CourierNewPS-ItalicMT,Courier New" font-style="italic" font-size="30.0" fill="#959395" transform="matrix(1.00, 0.00, -0.00, -1.00, 421.5, 311.0)">h</text><text xml:space="preserve" font-family="CourierNewPSMT,Courier New" font-size="30.0" fill="#000000" transform="matrix(1.00, 0.00, -0.00, -1.00, 439.5, 311.0)"> </text><text xml:space="preserve" font-family="CourierNewPSMT,Courier New" font-size="30.0" fill="#000000" transform="matrix(1.00, 0.00, -0.00, -1.00, 241.5, 277.0)">d</text><text xml:space="preserve" font-family="CourierNewPSMT,Courier New" font-size="30.0" fill="#000000" transform="matrix(1.00, 0.00, -0.00, -1.00, 259.5, 277.0)">o</text><text xml:space="preserve" font-family="CourierNewPSMT,Courier New" font-size="30.0" fill="#000000" transform="matrix(1.00, 0.00, -0.00, -1.00, 277.5, 277.0)">c</text><text xml:space="preserve" font-family="CourierNewPSMT,Courier New" font-size="30.0" fill="#000000" transform="matrix(1.00, 0.00, -0.00, -1.00, 295.5, 277.0)">k</text><text xml:space="preserve" font-family="CourierNewPSMT,Courier New" font-size="30.0" fill="#000000" transform="matrix(1.00, 0.00, -0.00, -1.00, 313.5, 277.0)">e</text><text xml:space="preserve" font-family="CourierNewPSMT,Courier New" font-size="30.0" fill="#000000" transform="matrix(1.00, 0.00, -0.00, -1.00, 331.5, 277.0)">r</text><text xml:space="preserve" font-family="CourierNewPSMT,Courier New" font-size="30.0" fill="#000000" transform="matrix(1.00, 0.00, -0.00, -1.00, 349.5, 277.0)"> </text><text xml:space="preserve" font-family="CourierNewPSMT,Courier New" font-size="30.0" fill="#000000" transform="matrix(1.00, 0.00, -0.00, -1.00, 367.5, 277.0)">r</text><text xml:space="preserve" font-family="CourierNewPSMT,Courier New" font-size="30.0" fill="#000000" transform="matrix(1.00, 0.00, -0.00, -1.00, 385.5, 277.0)">u</text><text xml:space="preserve" font-family="CourierNewPSMT,Courier New" font-size="30.0" fill="#000000" transform="matrix(1.00, 0.00, -0.00, -1.00, 403.5, 277.0)">n</text><text xml:space="preserve" font-family="CourierNewPSMT,Courier New" font-size="30.0" fill="#000000" transform="matrix(1.00, 0.00, -0.00, -1.00, 421.5, 277.0)"> </text><text xml:space="preserve" font-family="CourierNewPSMT,Courier New" font-size="30.0" fill="#000000" transform="matrix(1.00, 0.00, -0.00, -1.00, 439.5, 277.0)">-</text><text xml:space="preserve" font-family="CourierNewPSMT,Courier New" font-size="30.0" fill="#000000" transform="matrix(1.00, 0.00, -0.00, -1.00, 457.5, 277.0)">v</text><text xml:space="preserve" font-family="CourierNewPSMT,Courier New" font-size="30.0" fill="#000000" transform="matrix(1.00, 0.00, -0.00, -1.00, 475.5, 277.0)"> </text><text xml:space="preserve" font-family="CourierNewPSMT,Courier New" font-size="30.0" fill="#021993" transform="matrix(1.00, 0.00, -0.00, -1.00, 493.5, 277.0)">$</text><text xml:space="preserve" font-family="CourierNewPSMT,Courier New" font-size="30.0" fill="#021993" transform="matrix(1.00, 0.00, -0.00, -1.00, 511.5, 277.0)">P</text><text xml:space="preserve" font-family="CourierNewPSMT,Courier New" font-size="30.0" fill="#021993" transform="matrix(1.00, 0.00, -0.00, -1.00, 529.5, 277.0)">W</text><text xml:space="preserve" font-family="CourierNewPSMT,Courier New" font-size="30.0" fill="#021993" transform="matrix(1.00, 0.00, -0.00, -1.00, 547.5, 277.0)">D</text><text xml:space="preserve" font-family="CourierNewPSMT,Courier New" font-size="30.0" fill="#000000" transform="matrix(1.00, 0.00, -0.00, -1.00, 565.5, 277.0)">:</text><text xml:space="preserve" font-family="CourierNewPSMT,Courier New" font-size="30.0" fill="#000000" transform="matrix(1.00, 0.00, -0.00, -1.00, 583.5, 277.0)">/</text><text xml:space="preserve" font-family="CourierNewPSMT,Courier New" font-size="30.0" fill="#000000" transform="matrix(1.00, 0.00, -0.00, -1.00, 601.5, 277.0)">m</text><text xml:space="preserve" font-family="CourierNewPSMT,Courier New" font-size="30.0" fill="#000000" transform="matrix(1.00, 0.00, -0.00, -1.00, 619.5, 277.0)">n</text><text xml:space="preserve" font-family="CourierNewPSMT,Courier New" font-size="30.0" fill="#000000" transform="matrix(1.00, 0.00, -0.00, -1.00, 637.5, 277.0)">t</text><text xml:space="preserve" font-family="CourierNewPSMT,Courier New" font-size="30.0" fill="#000000" transform="matrix(1.00, 0.00, -0.00, -1.00, 655.5, 277.0)">/</text><text xml:space="preserve" font-family="CourierNewPSMT,Courier New" font-size="30.0" fill="#000000" transform="matrix(1.00, 0.00, -0.00, -1.00, 673.5, 277.0)">s</text><text xml:space="preserve" font-family="CourierNewPSMT,Courier New" font-size="30.0" fill="#000000" transform="matrix(1.00, 0.00, -0.00, -1.00, 691.6, 277.0)">r</text><text xml:space="preserve" font-family="CourierNewPSMT,Courier New" font-size="30.0" fill="#000000" transform="matrix(1.00, 0.00, -0.00, -1.00, 709.6, 277.0)">c</text><text xml:space="preserve" font-family="CourierNewPSMT,Courier New" font-size="30.0" fill="#000000" transform="matrix(1.00, 0.00, -0.00, -1.00, 727.6, 277.0)"> </text><text xml:space="preserve" font-family="CourierNewPSMT,Courier New" font-size="30.0" fill="#000000" transform="matrix(1.00, 0.00, -0.00, -1.00, 745.5, 277.0)">\</text><text xml:space="preserve" font-family="CourierNewPSMT,Courier New" font-size="30.0" fill="#000000" transform="matrix(1.00, 0.00, -0.00, -1.00, 763.5, 277.0)"> </text><text xml:space="preserve" font-family="CourierNewPSMT,Courier New" font-size="30.0" fill="#000000" transform="matrix(1.00, 0.00, -0.00, -1.00, 241.5, 243.0)"> </text><text xml:space="preserve" font-family="CourierNewPSMT,Courier New" font-size="30.0" fill="#000000" transform="matrix(1.00, 0.00, -0.00, -1.00, 259.5, 243.0)"> </text><text xml:space="preserve" font-family="CourierNewPSMT,Courier New" font-size="30.0" fill="#000000" transform="matrix(1.00, 0.00, -0.00, -1.00, 277.5, 243.0)">—</text><text xml:space="preserve" font-family="CourierNewPSMT,Courier New" font-size="30.0" fill="#000000" transform="matrix(1.00, 0.00, -0.00, -1.00, 295.5, 243.0)">e</text><text xml:space="preserve" font-family="CourierNewPSMT,Courier New" font-size="30.0" fill="#000000" transform="matrix(1.00, 0.00, -0.00, -1.00, 313.5, 243.0)">n</text><text xml:space="preserve" font-family="CourierNewPSMT,Courier New" font-size="30.0" fill="#000000" transform="matrix(1.00, 0.00, -0.00, -1.00, 331.5, 243.0)">t</text><text xml:space="preserve" font-family="CourierNewPSMT,Courier New" font-size="30.0" fill="#000000" transform="matrix(1.00, 0.00, -0.00, -1.00, 349.5, 243.0)">r</text><text xml:space="preserve" font-family="CourierNewPSMT,Courier New" font-size="30.0" fill="#000000" transform="matrix(1.00, 0.00, -0.00, -1.00, 367.5, 243.0)">y</text><text xml:space="preserve" font-family="CourierNewPSMT,Courier New" font-size="30.0" fill="#000000" transform="matrix(1.00, 0.00, -0.00, -1.00, 385.5, 243.0)">p</text><text xml:space="preserve" font-family="CourierNewPSMT,Courier New" font-size="30.0" fill="#000000" transform="matrix(1.00, 0.00, -0.00, -1.00, 403.5, 243.0)">o</text><text xml:space="preserve" font-family="CourierNewPSMT,Courier New" font-size="30.0" fill="#000000" transform="matrix(1.00, 0.00, -0.00, -1.00, 421.5, 243.0)">i</text><text xml:space="preserve" font-family="CourierNewPSMT,Courier New" font-size="30.0" fill="#000000" transform="matrix(1.00, 0.00, -0.00, -1.00, 439.5, 243.0)">n</text><text xml:space="preserve" font-family="CourierNewPSMT,Courier New" font-size="30.0" fill="#000000" transform="matrix(1.00, 0.00, -0.00, -1.00, 457.5, 243.0)">t</text><text xml:space="preserve" font-family="CourierNewPSMT,Courier New" font-size="30.0" fill="#000000" transform="matrix(1.00, 0.00, -0.00, -1.00, 475.5, 243.0)">=</text><text xml:space="preserve" font-family="CourierNewPSMT,Courier New" font-size="30.0" fill="#CC1C00" transform="matrix(1.00, 0.00, -0.00, -1.00, 493.5, 243.0)">"</text><text xml:space="preserve" font-family="CourierNewPSMT,Courier New" font-size="30.0" fill="#CC1C00" transform="matrix(1.00, 0.00, -0.00, -1.00, 511.5, 243.0)">r</text><text xml:space="preserve" font-family="CourierNewPSMT,Courier New" font-size="30.0" fill="#CC1C00" transform="matrix(1.00, 0.00, -0.00, -1.00, 529.5, 243.0)">u</text><text xml:space="preserve" font-family="CourierNewPSMT,Courier New" font-size="30.0" fill="#CC1C00" transform="matrix(1.00, 0.00, -0.00, -1.00, 547.5, 243.0)">n</text><text xml:space="preserve" font-family="CourierNewPSMT,Courier New" font-size="30.0" fill="#CC1C00" transform="matrix(1.00, 0.00, -0.00, -1.00, 565.5, 243.0)">-</text><text xml:space="preserve" font-family="CourierNewPSMT,Courier New" font-size="30.0" fill="#CC1C00" transform="matrix(1.00, 0.00, -0.00, -1.00, 583.5, 243.0)">p</text><text xml:space="preserve" font-family="CourierNewPSMT,Courier New" font-size="30.0" fill="#CC1C00" transform="matrix(1.00, 0.00, -0.00, -1.00, 601.5, 243.0)">h</text><text xml:space="preserve" font-family="CourierNewPSMT,Courier New" font-size="30.0" fill="#CC1C00" transform="matrix(1.00, 0.00, -0.00, -1.00, 619.5, 243.0)">a</text><text xml:space="preserve" font-family="CourierNewPSMT,Courier New" font-size="30.0" fill="#CC1C00" transform="matrix(1.00, 0.00, -0.00, -1.00, 637.5, 243.0)">n</text><text xml:space="preserve" font-family="CourierNewPSMT,Courier New" font-size="30.0" fill="#CC1C00" transform="matrix(1.00, 0.00, -0.00, -1.00, 655.6, 243.0)">.</text><text xml:space="preserve" font-family="CourierNewPSMT,Courier New" font-size="30.0" fill="#CC1C00" transform="matrix(1.00, 0.00, -0.00, -1.00, 673.6, 243.0)">s</text><text xml:space="preserve" font-family="CourierNewPSMT,Courier New" font-size="30.0" fill="#CC1C00" transform="matrix(1.00, 0.00, -0.00, -1.00, 691.6, 243.0)">h</text><text xml:space="preserve" font-family="CourierNewPSMT,Courier New" font-size="30.0" fill="#CC1C00" transform="matrix(1.00, 0.00, -0.00, -1.00, 709.6, 243.0)">"</text><text xml:space="preserve" font-family="CourierNewPSMT,Courier New" font-size="30.0" fill="#000000" transform="matrix(1.00, 0.00, -0.00, -1.00, 727.5, 243.0)"> </text><text xml:space="preserve" font-family="CourierNewPSMT,Courier New" font-size="30.0" fill="#000000" transform="matrix(1.00, 0.00, -0.00, -1.00, 745.5, 243.0)">\</text><text xml:space="preserve" font-family="CourierNewPSMT,Courier New" font-size="30.0" fill="#000000" transform="matrix(1.00, 0.00, -0.00, -1.00, 763.5, 243.0)"> </text><text xml:space="preserve" font-family="CourierNewPSMT,Courier New" font-size="30.0" fill="#000000" transform="matrix(1.00, 0.00, -0.00, -1.00, 241.5, 209.0)"> </text><text xml:space="preserve" font-family="CourierNewPSMT,Courier New" font-size="30.0" fill="#000000" transform="matrix(1.00, 0.00, -0.00, -1.00, 259.5, 209.0)"> </text><text xml:space="preserve" font-family="CourierNewPSMT,Courier New" font-size="30.0" fill="#000000" transform="matrix(1.00, 0.00, -0.00, -1.00, 277.5, 209.0)">c</text><text xml:space="preserve" font-family="CourierNewPSMT,Courier New" font-size="30.0" fill="#000000" transform="matrix(1.00, 0.00, -0.00, -1.00, 295.5, 209.0)">l</text><text xml:space="preserve" font-family="CourierNewPSMT,Courier New" font-size="30.0" fill="#000000" transform="matrix(1.00, 0.00, -0.00, -1.00, 313.5, 209.0)">o</text><text xml:space="preserve" font-family="CourierNewPSMT,Courier New" font-size="30.0" fill="#000000" transform="matrix(1.00, 0.00, -0.00, -1.00, 331.5, 209.0)">u</text><text xml:space="preserve" font-family="CourierNewPSMT,Courier New" font-size="30.0" fill="#000000" transform="matrix(1.00, 0.00, -0.00, -1.00, 349.5, 209.0)">d</text><text xml:space="preserve" font-family="CourierNewPSMT,Courier New" font-size="30.0" fill="#000000" transform="matrix(1.00, 0.00, -0.00, -1.00, 367.5, 209.0)">f</text><text xml:space="preserve" font-family="CourierNewPSMT,Courier New" font-size="30.0" fill="#000000" transform="matrix(1.00, 0.00, -0.00, -1.00, 385.5, 209.0)">l</text><text xml:space="preserve" font-family="CourierNewPSMT,Courier New" font-size="30.0" fill="#000000" transform="matrix(1.00, 0.00, -0.00, -1.00, 403.5, 209.0)">a</text><text xml:space="preserve" font-family="CourierNewPSMT,Courier New" font-size="30.0" fill="#000000" transform="matrix(1.00, 0.00, -0.00, -1.00, 421.5, 209.0)">r</text><text xml:space="preserve" font-family="CourierNewPSMT,Courier New" font-size="30.0" fill="#000000" transform="matrix(1.00, 0.00, -0.00, -1.00, 439.5, 209.0)">e</text><text xml:space="preserve" font-family="CourierNewPSMT,Courier New" font-size="30.0" fill="#000000" transform="matrix(1.00, 0.00, -0.00, -1.00, 457.5, 209.0)">/</text><text xml:space="preserve" font-family="CourierNewPSMT,Courier New" font-size="30.0" fill="#000000" transform="matrix(1.00, 0.00, -0.00, -1.00, 475.5, 209.0)">p</text><text xml:space="preserve" font-family="CourierNewPSMT,Courier New" font-size="30.0" fill="#000000" transform="matrix(1.00, 0.00, -0.00, -1.00, 493.5, 209.0)">h</text><text xml:space="preserve" font-family="CourierNewPSMT,Courier New" font-size="30.0" fill="#000000" transform="matrix(1.00, 0.00, -0.00, -1.00, 511.5, 209.0)">a</text><text xml:space="preserve" font-family="CourierNewPSMT,Courier New" font-size="30.0" fill="#000000" transform="matrix(1.00, 0.00, -0.00, -1.00, 529.5, 209.0)">n</text><text xml:space="preserve" font-family="CourierNewPSMT,Courier New" font-size="30.0" fill="#000000" transform="matrix(1.00, 0.00, -0.00, -1.00, 547.6, 209.0)">:</text><text xml:space="preserve" font-family="CourierNewPSMT,Courier New" font-size="30.0" fill="#000000" transform="matrix(1.00, 0.00, -0.00, -1.00, 565.6, 209.0)">l</text><text xml:space="preserve" font-family="CourierNewPSMT,Courier New" font-size="30.0" fill="#000000" transform="matrix(1.00, 0.00, -0.00, -1.00, 583.6, 209.0)">a</text><text xml:space="preserve" font-family="CourierNewPSMT,Courier New" font-size="30.0" fill="#000000" transform="matrix(1.00, 0.00, -0.00, -1.00, 601.6, 209.0)">t</text><text xml:space="preserve" font-family="CourierNewPSMT,Courier New" font-size="30.0" fill="#000000" transform="matrix(1.00, 0.00, -0.00, -1.00, 619.6, 209.0)">e</text><text xml:space="preserve" font-family="CourierNewPSMT,Courier New" font-size="30.0" fill="#000000" transform="matrix(1.00, 0.00, -0.00, -1.00, 637.6, 209.0)">s</text><text xml:space="preserve" font-family="CourierNewPSMT,Courier New" font-size="30.0" fill="#000000" transform="matrix(1.00, 0.00, -0.00, -1.00, 655.6, 209.0)">t</text><text xml:space="preserve" font-family="CourierNewPSMT,Courier New" font-size="30.0" fill="#000000" transform="matrix(1.00, 0.00, -0.00, -1.00, 673.6, 209.0)"> </text><text xml:space="preserve" font-family="Helvetica-Light,Helvetica" font-size="50.0" fill="#000000" transform="matrix(1.00, 0.00, -0.00, -1.00, 337.9, 392.5)">p</text><text xml:space="preserve" font-family="Helvetica-Light,Helvetica" font-size="50.0" fill="#000000" transform="matrix(1.00, 0.00, -0.00, -1.00, 368.4, 392.5)">h</text><text xml:space="preserve" font-family="Helvetica-Light,Helvetica" font-size="50.0" fill="#000000" transform="matrix(1.00, 0.00, -0.00, -1.00, 396.2, 392.5)">a</text><text xml:space="preserve" font-family="Helvetica-Light,Helvetica" font-size="50.0" fill="#000000" transform="matrix(1.00, 0.00, -0.00, -1.00, 424.0, 392.5)">n</text><text xml:space="preserve" font-family="Helvetica-Light,Helvetica" font-size="50.0" fill="#000000" transform="matrix(1.00, 0.00, -0.00, -1.00, 451.8, 392.5)">-</text><text xml:space="preserve" font-family="Helvetica-Light,Helvetica" font-size="50.0" fill="#000000" transform="matrix(1.00, 0.00, -0.00, -1.00, 468.5, 392.5)">d</text><text xml:space="preserve" font-family="Helvetica-Light,Helvetica" font-size="50.0" fill="#000000" transform="matrix(1.00, 0.00, -0.00, -1.00, 499.0, 392.5)">o</text><text xml:space="preserve" font-family="Helvetica-Light,Helvetica" font-size="50.0" fill="#000000" transform="matrix(1.00, 0.00, -0.00, -1.00, 526.8, 392.5)">c</text><text xml:space="preserve" font-family="Helvetica-Light,Helvetica" font-size="50.0" fill="#000000" transform="matrix(1.00, 0.00, -0.00, -1.00, 554.6, 392.5)">k</text><text xml:space="preserve" font-family="Helvetica-Light,Helvetica" font-size="50.0" fill="#000000" transform="matrix(1.00, 0.00, -0.00, -1.00, 579.6, 392.5)">e</text><text xml:space="preserve" font-family="Helvetica-Light,Helvetica" font-size="50.0" fill="#000000" transform="matrix(1.00, 0.00, -0.00, -1.00, 607.4, 392.5)">r</text><text xml:space="preserve" font-family="Helvetica-Light,Helvetica" font-size="50.0" fill="#000000" transform="matrix(1.00, 0.00, -0.00, -1.00, 619.5, 392.5)">.</text><text xml:space="preserve" font-family="Helvetica-Light,Helvetica" font-size="50.0" fill="#000000" transform="matrix(1.00, 0.00, -0.00, -1.00, 633.3, 392.5)">s</text><text xml:space="preserve" font-family="Helvetica-Light,Helvetica" font-size="50.0" fill="#000000" transform="matrix(1.00, 0.00, -0.00, -1.00, 658.3, 392.5)">h</text></g></svg>