<?xml version="1.0" encoding="UTF-8" standalone="no"?><svg xmlns="http://www.w3.org/2000/svg" xmlns:xlink="http://www.w3.org/1999/xlink" clip-rule="evenodd" stroke-miterlimit="10" viewBox="0 0 1024 768"><desc>SVG generated by Keynote</desc><defs></defs><g transform="matrix(1.00, 0.00, -0.00, -1.00, 0.0, 768.0)"><path d="M 0.0 768.0 L 1024.0 768.0 L 1024.0 0.0 L 0.0 0.0 Z M 0.0 768.0 " fill="#FEFFFF"></path><text xml:space="preserve" font-family="Helvetica-Light,Helvetica" font-size="83.0" fill="#000000" transform="matrix(1.00, 0.00, -0.00, -1.00, 116.9, 620.2)">D</text><text xml:space="preserve" font-family="Helvetica-Light,Helvetica" font-size="83.0" fill="#000000" transform="matrix(1.00, 0.00, -0.00, -1.00, 176.8, 620.2)">a</text><text xml:space="preserve" font-family="Helvetica-Light,Helvetica" font-size="83.0" fill="#000000" transform="matrix(1.00, 0.00, -0.00, -1.00, 223.0, 620.2)">t</text><text xml:space="preserve" font-family="Helvetica-Light,Helvetica" font-size="83.0" fill="#000000" transform="matrix(1.00, 0.00, -0.00, -1.00, 246.0, 620.2)">a</text><text xml:space="preserve" font-family="Helvetica-Light,Helvetica" font-size="83.0" fill="#000000" transform="matrix(1.00, 0.00, -0.00, -1.00, 292.2, 620.2)"> </text><text xml:space="preserve" font-family="Helvetica-Light,Helvetica" font-size="83.0" fill="#000000" transform="matrix(1.00, 0.00, -0.00, -1.00, 315.3, 620.2)">T</text><text xml:space="preserve" font-family="Helvetica-Light,Helvetica" font-size="83.0" fill="#000000" transform="matrix(1.00, 0.00, -0.00, -1.00, 353.8, 620.2)">r</text><text xml:space="preserve" font-family="Helvetica-Light,Helvetica" font-size="83.0" fill="#000000" transform="matrix(1.00, 0.00, -0.00, -1.00, 381.4, 620.2)">a</text><text xml:space="preserve" font-family="Helvetica-Light,Helvetica" font-size="83.0" fill="#000000" transform="matrix(1.00, 0.00, -0.00, -1.00, 427.6, 620.2)">n</text><text xml:space="preserve" font-family="Helvetica-Light,Helvetica" font-size="83.0" fill="#000000" transform="matrix(1.00, 0.00, -0.00, -1.00, 473.7, 620.2)">s</text><text xml:space="preserve" font-family="Helvetica-Light,Helvetica" font-size="83.0" fill="#000000" transform="matrix(1.00, 0.00, -0.00, -1.00, 515.2, 620.2)">f</text><text xml:space="preserve" font-family="Helvetica-Light,Helvetica" font-size="83.0" fill="#000000" transform="matrix(1.00, 0.00, -0.00, -1.00, 538.3, 620.2)">e</text><text xml:space="preserve" font-family="Helvetica-Light,Helvetica" font-size="83.0" fill="#000000" transform="matrix(1.00, 0.00, -0.00, -1.00, 584.4, 620.2)">r</text><text xml:space="preserve" font-family="Helvetica-Light,Helvetica" font-size="83.0" fill="#000000" transform="matrix(1.00, 0.00, -0.00, -1.00, 612.1, 620.2)"> </text><text xml:space="preserve" font-family="Helvetica-Light,Helvetica" font-size="83.0" fill="#000000" transform="matrix(1.00, 0.00, -0.00, -1.00, 635.1, 620.2)">O</text><text xml:space="preserve" font-family="Helvetica-Light,Helvetica" font-size="83.0" fill="#000000" transform="matrix(1.00, 0.00, -0.00, -1.00, 699.7, 620.2)">b</text><text xml:space="preserve" font-family="Helvetica-Light,Helvetica" font-size="83.0" fill="#000000" transform="matrix(1.00, 0.00, -0.00, -1.00, 750.4, 620.2)">j</text><text xml:space="preserve" font-family="Helvetica-Light,Helvetica" font-size="83.0" fill="#000000" transform="matrix(1.00, 0.00, -0.00, -1.00, 768.9, 620.2)">e</text><text xml:space="preserve" font-family="Helvetica-Light,Helvetica" font-size="83.0" fill="#000000" transform="matrix(1.00, 0.00, -0.00, -1.00, 815.0, 620.2)">c</text><text xml:space="preserve" font-family="Helvetica-Light,Helvetica" font-size="83.0" fill="#000000" transform="matrix(1.00, 0.00, -0.00, -1.00, 861.2, 620.2)">t</text><text xml:space="preserve" font-family="Helvetica-Light,Helvetica" font-size="83.0" fill="#000000" transform="matrix(1.00, 0.00, -0.00, -1.00, 884.2, 620.2)">s</text></g></svg>