<?xml version="1.0" encoding="UTF-8" standalone="no"?><svg xmlns="http://www.w3.org/2000/svg" xmlns:xlink="http://www.w3.org/1999/xlink" clip-rule="evenodd" stroke-miterlimit="10" viewBox="0 0 1024 768"><desc>SVG generated by Keynote</desc><defs></defs><g transform="matrix(1.00, 0.00, -0.00, -1.00, 0.0, 768.0)"><path d="M 0.0 768.0 L 1024.0 768.0 L 1024.0 0.0 L 0.0 0.0 Z M 0.0 768.0 " fill="#FEFFFF"></path><text xml:space="preserve" font-family="Helvetica-Light,Helvetica" font-size="51.0" fill="#000000" transform="matrix(1.00, 0.00, -0.00, -1.00, 180.9, 662.7)">P</text><text xml:space="preserve" font-family="Helvetica-Light,Helvetica" font-size="51.0" fill="#000000" transform="matrix(1.00, 0.00, -0.00, -1.00, 212.0, 662.7)">H</text><text xml:space="preserve" font-family="Helvetica-Light,Helvetica" font-size="51.0" fill="#000000" transform="matrix(1.00, 0.00, -0.00, -1.00, 248.9, 662.7)">P</text><text xml:space="preserve" font-family="Helvetica-Light,Helvetica" font-size="51.0" fill="#000000" transform="matrix(1.00, 0.00, -0.00, -1.00, 280.0, 662.7)">7</text><text xml:space="preserve" font-family="Helvetica-Light,Helvetica" font-size="51.0" fill="#000000" transform="matrix(1.00, 0.00, -0.00, -1.00, 308.4, 662.7)">:</text><text xml:space="preserve" font-family="Helvetica-Light,Helvetica" font-size="51.0" fill="#000000" transform="matrix(1.00, 0.00, -0.00, -1.00, 322.6, 662.7)"> </text><text xml:space="preserve" font-family="Helvetica-Light,Helvetica" font-size="51.0" fill="#000000" transform="matrix(1.00, 0.00, -0.00, -1.00, 336.7, 662.7)">D</text><text xml:space="preserve" font-family="Helvetica-Light,Helvetica" font-size="51.0" fill="#000000" transform="matrix(1.00, 0.00, -0.00, -1.00, 373.6, 662.7)">e</text><text xml:space="preserve" font-family="Helvetica-Light,Helvetica" font-size="51.0" fill="#000000" transform="matrix(1.00, 0.00, -0.00, -1.00, 401.9, 662.7)">p</text><text xml:space="preserve" font-family="Helvetica-Light,Helvetica" font-size="51.0" fill="#000000" transform="matrix(1.00, 0.00, -0.00, -1.00, 433.1, 662.7)">l</text><text xml:space="preserve" font-family="Helvetica-Light,Helvetica" font-size="51.0" fill="#000000" transform="matrix(1.00, 0.00, -0.00, -1.00, 444.4, 662.7)">o</text><text xml:space="preserve" font-family="Helvetica-Light,Helvetica" font-size="51.0" fill="#000000" transform="matrix(1.00, 0.00, -0.00, -1.00, 472.8, 662.7)">y</text><text xml:space="preserve" font-family="Helvetica-Light,Helvetica" font-size="51.0" fill="#000000" transform="matrix(1.00, 0.00, -0.00, -1.00, 498.3, 662.7)">i</text><text xml:space="preserve" font-family="Helvetica-Light,Helvetica" font-size="51.0" fill="#000000" transform="matrix(1.00, 0.00, -0.00, -1.00, 509.6, 662.7)">n</text><text xml:space="preserve" font-family="Helvetica-Light,Helvetica" font-size="51.0" fill="#000000" transform="matrix(1.00, 0.00, -0.00, -1.00, 537.9, 662.7)">g</text><text xml:space="preserve" font-family="Helvetica-Light,Helvetica" font-size="51.0" fill="#000000" transform="matrix(1.00, 0.00, -0.00, -1.00, 569.1, 662.7)"> </text><text xml:space="preserve" font-family="Helvetica-Light,Helvetica" font-size="51.0" fill="#000000" transform="matrix(1.00, 0.00, -0.00, -1.00, 583.3, 662.7)">r</text><text xml:space="preserve" font-family="Helvetica-Light,Helvetica" font-size="51.0" fill="#000000" transform="matrix(1.00, 0.00, -0.00, -1.00, 599.3, 662.7)">e</text><text xml:space="preserve" font-family="Helvetica-Light,Helvetica" font-size="51.0" fill="#000000" transform="matrix(1.00, 0.00, -0.00, -1.00, 627.7, 662.7)">a</text><text xml:space="preserve" font-family="Helvetica-Light,Helvetica" font-size="51.0" fill="#000000" transform="matrix(1.00, 0.00, -0.00, -1.00, 656.0, 662.7)">d</text><text xml:space="preserve" font-family="Helvetica-Light,Helvetica" font-size="51.0" fill="#000000" transform="matrix(1.00, 0.00, -0.00, -1.00, 687.2, 662.7)">y</text><text xml:space="preserve" font-family="Helvetica-Light,Helvetica" font-size="51.0" fill="#000000" transform="matrix(1.00, 0.00, -0.00, -1.00, 712.7, 662.7)"> </text><text xml:space="preserve" font-family="Helvetica-Light,Helvetica" font-size="51.0" fill="#000000" transform="matrix(1.00, 0.00, -0.00, -1.00, 726.9, 662.7)">c</text><text xml:space="preserve" font-family="Helvetica-Light,Helvetica" font-size="51.0" fill="#000000" transform="matrix(1.00, 0.00, -0.00, -1.00, 755.2, 662.7)">o</text><text xml:space="preserve" font-family="Helvetica-Light,Helvetica" font-size="51.0" fill="#000000" transform="matrix(1.00, 0.00, -0.00, -1.00, 783.6, 662.7)">d</text><text xml:space="preserve" font-family="Helvetica-Light,Helvetica" font-size="51.0" fill="#000000" transform="matrix(1.00, 0.00, -0.00, -1.00, 814.8, 662.7)">e</text><text xml:space="preserve" font-family="Helvetica-Light,Helvetica" font-size="50.0" fill="#000000" transform="matrix(1.00, 0.00, -0.00, -1.00, 191.1, 557.5)">R</text><text xml:space="preserve" font-family="Helvetica-Light,Helvetica" font-size="50.0" fill="#000000" transform="matrix(1.00, 0.00, -0.00, -1.00, 224.5, 557.5)">o</text><text xml:space="preserve" font-family="Helvetica-Light,Helvetica" font-size="50.0" fill="#000000" transform="matrix(1.00, 0.00, -0.00, -1.00, 252.3, 557.5)">l</text><text xml:space="preserve" font-family="Helvetica-Light,Helvetica" font-size="50.0" fill="#000000" transform="matrix(1.00, 0.00, -0.00, -1.00, 263.4, 557.5)">l</text><text xml:space="preserve" font-family="Helvetica-Light,Helvetica" font-size="50.0" fill="#000000" transform="matrix(1.00, 0.00, -0.00, -1.00, 274.5, 557.5)">i</text><text xml:space="preserve" font-family="Helvetica-Light,Helvetica" font-size="50.0" fill="#000000" transform="matrix(1.00, 0.00, -0.00, -1.00, 285.6, 557.5)">n</text><text xml:space="preserve" font-family="Helvetica-Light,Helvetica" font-size="50.0" fill="#000000" transform="matrix(1.00, 0.00, -0.00, -1.00, 313.4, 557.5)">g</text><text xml:space="preserve" font-family="Helvetica-Light,Helvetica" font-size="50.0" fill="#000000" transform="matrix(1.00, 0.00, -0.00, -1.00, 343.9, 557.5)"> </text><text xml:space="preserve" font-family="Helvetica-Light,Helvetica" font-size="50.0" fill="#000000" transform="matrix(1.00, 0.00, -0.00, -1.00, 357.8, 557.5)">U</text><text xml:space="preserve" font-family="Helvetica-Light,Helvetica" font-size="50.0" fill="#000000" transform="matrix(1.00, 0.00, -0.00, -1.00, 393.9, 557.5)">p</text><text xml:space="preserve" font-family="Helvetica-Light,Helvetica" font-size="50.0" fill="#000000" transform="matrix(1.00, 0.00, -0.00, -1.00, 424.5, 557.5)">d</text><text xml:space="preserve" font-family="Helvetica-Light,Helvetica" font-size="50.0" fill="#000000" transform="matrix(1.00, 0.00, -0.00, -1.00, 455.0, 557.5)">a</text><text xml:space="preserve" font-family="Helvetica-Light,Helvetica" font-size="50.0" fill="#000000" transform="matrix(1.00, 0.00, -0.00, -1.00, 482.8, 557.5)">t</text><text xml:space="preserve" font-family="Helvetica-Light,Helvetica" font-size="50.0" fill="#000000" transform="matrix(1.00, 0.00, -0.00, -1.00, 496.7, 557.5)">e</text><text xml:space="preserve" font-family="Helvetica-Light,Helvetica" font-size="50.0" fill="#000000" transform="matrix(1.00, 0.00, -0.00, -1.00, 524.5, 557.5)"> </text><text xml:space="preserve" font-family="Helvetica-Light,Helvetica" font-size="50.0" fill="#000000" transform="matrix(1.00, 0.00, -0.00, -1.00, 538.4, 557.5)">D</text><text xml:space="preserve" font-family="Helvetica-Light,Helvetica" font-size="50.0" fill="#000000" transform="matrix(1.00, 0.00, -0.00, -1.00, 574.5, 557.5)">e</text><text xml:space="preserve" font-family="Helvetica-Light,Helvetica" font-size="50.0" fill="#000000" transform="matrix(1.00, 0.00, -0.00, -1.00, 602.3, 557.5)">p</text><text xml:space="preserve" font-family="Helvetica-Light,Helvetica" font-size="50.0" fill="#000000" transform="matrix(1.00, 0.00, -0.00, -1.00, 632.9, 557.5)">l</text><text xml:space="preserve" font-family="Helvetica-Light,Helvetica" font-size="50.0" fill="#000000" transform="matrix(1.00, 0.00, -0.00, -1.00, 644.0, 557.5)">o</text><text xml:space="preserve" font-family="Helvetica-Light,Helvetica" font-size="50.0" fill="#000000" transform="matrix(1.00, 0.00, -0.00, -1.00, 671.8, 557.5)">y</text><text xml:space="preserve" font-family="Helvetica-Light,Helvetica" font-size="50.0" fill="#000000" transform="matrix(1.00, 0.00, -0.00, -1.00, 696.8, 557.5)">m</text><text xml:space="preserve" font-family="Helvetica-Light,Helvetica" font-size="50.0" fill="#000000" transform="matrix(1.00, 0.00, -0.00, -1.00, 738.4, 557.5)">e</text><text xml:space="preserve" font-family="Helvetica-Light,Helvetica" font-size="50.0" fill="#000000" transform="matrix(1.00, 0.00, -0.00, -1.00, 766.2, 557.5)">n</text><text xml:space="preserve" font-family="Helvetica-Light,Helvetica" font-size="50.0" fill="#000000" transform="matrix(1.00, 0.00, -0.00, -1.00, 794.0, 557.5)">t</text><text xml:space="preserve" font-family="Helvetica-Light,Helvetica" font-size="50.0" fill="#000000" transform="matrix(1.00, 0.00, -0.00, -1.00, 807.9, 557.5)">s</text><image xlink:href="../../5991F4D5-72A0-4D71-8A5A-9A236476EA3C/assets/3EAB58908106C87F86F070B7F4EA3FB6.png" width="1444.00" height="1000.00" transform="matrix(0.49, 0.00, -0.00, -0.49, 158.0, 528.0)"></image></g></svg>