<?xml version="1.0" encoding="UTF-8" standalone="no"?><svg xmlns="http://www.w3.org/2000/svg" xmlns:xlink="http://www.w3.org/1999/xlink" clip-rule="evenodd" stroke-miterlimit="10" viewBox="0 0 1024 768"><desc>SVG generated by Keynote</desc><defs></defs><g transform="matrix(1.00, 0.00, -0.00, -1.00, 0.0, 768.0)"><path d="M 0.0 768.0 L 1024.0 768.0 L 1024.0 0.0 L 0.0 0.0 Z M 0.0 768.0 " fill="#FEFFFF"></path><text xml:space="preserve" font-family="Helvetica-Light,Helvetica" font-size="80.0" fill="#000000" transform="matrix(1.00, 0.00, -0.00, -1.00, 201.6, 675.6)">C</text><text xml:space="preserve" font-family="Helvetica-Light,Helvetica" font-size="80.0" fill="#000000" transform="matrix(1.00, 0.00, -0.00, -1.00, 259.3, 675.6)">o</text><text xml:space="preserve" font-family="Helvetica-Light,Helvetica" font-size="80.0" fill="#000000" transform="matrix(1.00, 0.00, -0.00, -1.00, 303.8, 675.6)">n</text><text xml:space="preserve" font-family="Helvetica-Light,Helvetica" font-size="80.0" fill="#000000" transform="matrix(1.00, 0.00, -0.00, -1.00, 348.3, 675.6)">t</text><text xml:space="preserve" font-family="Helvetica-Light,Helvetica" font-size="80.0" fill="#000000" transform="matrix(1.00, 0.00, -0.00, -1.00, 370.5, 675.6)">r</text><text xml:space="preserve" font-family="Helvetica-Light,Helvetica" font-size="80.0" fill="#000000" transform="matrix(1.00, 0.00, -0.00, -1.00, 395.7, 675.6)">o</text><text xml:space="preserve" font-family="Helvetica-Light,Helvetica" font-size="80.0" fill="#000000" transform="matrix(1.00, 0.00, -0.00, -1.00, 440.2, 675.6)">l</text><text xml:space="preserve" font-family="Helvetica-Light,Helvetica" font-size="80.0" fill="#000000" transform="matrix(1.00, 0.00, -0.00, -1.00, 458.0, 675.6)">l</text><text xml:space="preserve" font-family="Helvetica-Light,Helvetica" font-size="80.0" fill="#000000" transform="matrix(1.00, 0.00, -0.00, -1.00, 475.7, 675.6)">e</text><text xml:space="preserve" font-family="Helvetica-Light,Helvetica" font-size="80.0" fill="#000000" transform="matrix(1.00, 0.00, -0.00, -1.00, 520.2, 675.6)">r</text><text xml:space="preserve" font-family="Helvetica-Light,Helvetica" font-size="80.0" fill="#000000" transform="matrix(1.00, 0.00, -0.00, -1.00, 546.8, 675.6)"> </text><text xml:space="preserve" font-family="Helvetica-Light,Helvetica" font-size="80.0" fill="#000000" transform="matrix(1.00, 0.00, -0.00, -1.00, 569.1, 675.6)">D</text><text xml:space="preserve" font-family="Helvetica-Light,Helvetica" font-size="80.0" fill="#000000" transform="matrix(1.00, 0.00, -0.00, -1.00, 626.8, 675.6)">e</text><text xml:space="preserve" font-family="Helvetica-Light,Helvetica" font-size="80.0" fill="#000000" transform="matrix(1.00, 0.00, -0.00, -1.00, 671.3, 675.6)">s</text><text xml:space="preserve" font-family="Helvetica-Light,Helvetica" font-size="80.0" fill="#000000" transform="matrix(1.00, 0.00, -0.00, -1.00, 711.3, 675.6)">i</text><text xml:space="preserve" font-family="Helvetica-Light,Helvetica" font-size="80.0" fill="#000000" transform="matrix(1.00, 0.00, -0.00, -1.00, 729.1, 675.6)">g</text><text xml:space="preserve" font-family="Helvetica-Light,Helvetica" font-size="80.0" fill="#000000" transform="matrix(1.00, 0.00, -0.00, -1.00, 778.0, 675.6)">n</text><text xml:space="preserve" font-family="Inconsolata-Regular,Inconsolata" font-size="27.0" fill="#2C9DDA" transform="matrix(1.00, 0.00, -0.00, -1.00, 83.7, 444.6)"> </text><text xml:space="preserve" font-family="Inconsolata-Regular,Inconsolata" font-size="27.0" fill="#2C9DDA" transform="matrix(1.00, 0.00, -0.00, -1.00, 97.2, 444.6)"> </text><text xml:space="preserve" font-family="Inconsolata-Regular,Inconsolata" font-size="27.0" fill="#2C9DDA" transform="matrix(1.00, 0.00, -0.00, -1.00, 110.7, 444.6)">7</text><text xml:space="preserve" font-family="Inconsolata-Regular,Inconsolata" font-size="27.0" fill="#2C9DDA" transform="matrix(1.00, 0.00, -0.00, -1.00, 124.2, 444.6)"> </text><text xml:space="preserve" font-family="Inconsolata-Regular,Inconsolata" font-size="27.0" fill="#6A8188" transform="matrix(1.00, 0.00, -0.00, -1.00, 137.7, 444.6)">#</text><text xml:space="preserve" font-family="Inconsolata-Regular,Inconsolata" font-size="27.0" fill="#6A8188" transform="matrix(1.00, 0.00, -0.00, -1.00, 151.2, 444.6)"> </text><text xml:space="preserve" font-family="Inconsolata-Regular,Inconsolata" font-size="27.0" fill="#6A8188" transform="matrix(1.00, 0.00, -0.00, -1.00, 164.7, 444.6)">a</text><text xml:space="preserve" font-family="Inconsolata-Regular,Inconsolata" font-size="27.0" fill="#6A8188" transform="matrix(1.00, 0.00, -0.00, -1.00, 178.2, 444.6)">p</text><text xml:space="preserve" font-family="Inconsolata-Regular,Inconsolata" font-size="27.0" fill="#6A8188" transform="matrix(1.00, 0.00, -0.00, -1.00, 191.7, 444.6)">p</text><text xml:space="preserve" font-family="Inconsolata-Regular,Inconsolata" font-size="27.0" fill="#6A8188" transform="matrix(1.00, 0.00, -0.00, -1.00, 205.2, 444.6)">/</text><text xml:space="preserve" font-family="Inconsolata-Regular,Inconsolata" font-size="27.0" fill="#6A8188" transform="matrix(1.00, 0.00, -0.00, -1.00, 218.7, 444.6)">c</text><text xml:space="preserve" font-family="Inconsolata-Regular,Inconsolata" font-size="27.0" fill="#6A8188" transform="matrix(1.00, 0.00, -0.00, -1.00, 232.2, 444.6)">o</text><text xml:space="preserve" font-family="Inconsolata-Regular,Inconsolata" font-size="27.0" fill="#6A8188" transform="matrix(1.00, 0.00, -0.00, -1.00, 245.7, 444.6)">n</text><text xml:space="preserve" font-family="Inconsolata-Regular,Inconsolata" font-size="27.0" fill="#6A8188" transform="matrix(1.00, 0.00, -0.00, -1.00, 259.2, 444.6)">f</text><text xml:space="preserve" font-family="Inconsolata-Regular,Inconsolata" font-size="27.0" fill="#6A8188" transform="matrix(1.00, 0.00, -0.00, -1.00, 272.7, 444.6)">i</text><text xml:space="preserve" font-family="Inconsolata-Regular,Inconsolata" font-size="27.0" fill="#6A8188" transform="matrix(1.00, 0.00, -0.00, -1.00, 286.2, 444.6)">g</text><text xml:space="preserve" font-family="Inconsolata-Regular,Inconsolata" font-size="27.0" fill="#6A8188" transform="matrix(1.00, 0.00, -0.00, -1.00, 299.7, 444.6)">/</text><text xml:space="preserve" font-family="Inconsolata-Regular,Inconsolata" font-size="27.0" fill="#6A8188" transform="matrix(1.00, 0.00, -0.00, -1.00, 313.2, 444.6)">s</text><text xml:space="preserve" font-family="Inconsolata-Regular,Inconsolata" font-size="27.0" fill="#6A8188" transform="matrix(1.00, 0.00, -0.00, -1.00, 326.7, 444.6)">e</text><text xml:space="preserve" font-family="Inconsolata-Regular,Inconsolata" font-size="27.0" fill="#6A8188" transform="matrix(1.00, 0.00, -0.00, -1.00, 340.2, 444.6)">r</text><text xml:space="preserve" font-family="Inconsolata-Regular,Inconsolata" font-size="27.0" fill="#6A8188" transform="matrix(1.00, 0.00, -0.00, -1.00, 353.7, 444.6)">v</text><text xml:space="preserve" font-family="Inconsolata-Regular,Inconsolata" font-size="27.0" fill="#6A8188" transform="matrix(1.00, 0.00, -0.00, -1.00, 367.2, 444.6)">i</text><text xml:space="preserve" font-family="Inconsolata-Regular,Inconsolata" font-size="27.0" fill="#6A8188" transform="matrix(1.00, 0.00, -0.00, -1.00, 380.7, 444.6)">c</text><text xml:space="preserve" font-family="Inconsolata-Regular,Inconsolata" font-size="27.0" fill="#6A8188" transform="matrix(1.00, 0.00, -0.00, -1.00, 394.2, 444.6)">e</text><text xml:space="preserve" font-family="Inconsolata-Regular,Inconsolata" font-size="27.0" fill="#6A8188" transform="matrix(1.00, 0.00, -0.00, -1.00, 407.7, 444.6)">s</text><text xml:space="preserve" font-family="Inconsolata-Regular,Inconsolata" font-size="27.0" fill="#6A8188" transform="matrix(1.00, 0.00, -0.00, -1.00, 421.2, 444.6)">.</text><text xml:space="preserve" font-family="Inconsolata-Regular,Inconsolata" font-size="27.0" fill="#6A8188" transform="matrix(1.00, 0.00, -0.00, -1.00, 434.7, 444.6)">y</text><text xml:space="preserve" font-family="Inconsolata-Regular,Inconsolata" font-size="27.0" fill="#6A8188" transform="matrix(1.00, 0.00, -0.00, -1.00, 448.2, 444.6)">m</text><text xml:space="preserve" font-family="Inconsolata-Regular,Inconsolata" font-size="27.0" fill="#6A8188" transform="matrix(1.00, 0.00, -0.00, -1.00, 461.7, 444.6)">l</text><text xml:space="preserve" font-family="Inconsolata-Regular,Inconsolata" font-size="27.0" fill="#000000" transform="matrix(1.00, 0.00, -0.00, -1.00, 475.2, 444.6)"> </text><text xml:space="preserve" font-family="Inconsolata-Regular,Inconsolata" font-size="27.0" fill="#2C9DDA" transform="matrix(1.00, 0.00, -0.00, -1.00, 83.7, 416.6)"> </text><text xml:space="preserve" font-family="Inconsolata-Regular,Inconsolata" font-size="27.0" fill="#2C9DDA" transform="matrix(1.00, 0.00, -0.00, -1.00, 97.2, 416.6)"> </text><text xml:space="preserve" font-family="Inconsolata-Regular,Inconsolata" font-size="27.0" fill="#2C9DDA" transform="matrix(1.00, 0.00, -0.00, -1.00, 110.7, 416.6)">8</text><text xml:space="preserve" font-family="Inconsolata-Regular,Inconsolata" font-size="27.0" fill="#2C9DDA" transform="matrix(1.00, 0.00, -0.00, -1.00, 124.2, 416.6)"> </text><text xml:space="preserve" font-family="Inconsolata-Regular,Inconsolata" font-size="27.0" fill="#94A4A6" transform="matrix(1.00, 0.00, -0.00, -1.00, 137.7, 416.6)">s</text><text xml:space="preserve" font-family="Inconsolata-Regular,Inconsolata" font-size="27.0" fill="#94A4A6" transform="matrix(1.00, 0.00, -0.00, -1.00, 151.2, 416.6)">e</text><text xml:space="preserve" font-family="Inconsolata-Regular,Inconsolata" font-size="27.0" fill="#94A4A6" transform="matrix(1.00, 0.00, -0.00, -1.00, 164.7, 416.6)">r</text><text xml:space="preserve" font-family="Inconsolata-Regular,Inconsolata" font-size="27.0" fill="#94A4A6" transform="matrix(1.00, 0.00, -0.00, -1.00, 178.2, 416.6)">v</text><text xml:space="preserve" font-family="Inconsolata-Regular,Inconsolata" font-size="27.0" fill="#94A4A6" transform="matrix(1.00, 0.00, -0.00, -1.00, 191.7, 416.6)">i</text><text xml:space="preserve" font-family="Inconsolata-Regular,Inconsolata" font-size="27.0" fill="#94A4A6" transform="matrix(1.00, 0.00, -0.00, -1.00, 205.2, 416.6)">c</text><text xml:space="preserve" font-family="Inconsolata-Regular,Inconsolata" font-size="27.0" fill="#94A4A6" transform="matrix(1.00, 0.00, -0.00, -1.00, 218.7, 416.6)">e</text><text xml:space="preserve" font-family="Inconsolata-Regular,Inconsolata" font-size="27.0" fill="#94A4A6" transform="matrix(1.00, 0.00, -0.00, -1.00, 232.2, 416.6)">s</text><text xml:space="preserve" font-family="Inconsolata-Regular,Inconsolata" font-size="27.0" fill="#A3B0B0" transform="matrix(1.00, 0.00, -0.00, -1.00, 245.7, 416.6)">:</text><text xml:space="preserve" font-family="Inconsolata-Regular,Inconsolata" font-size="27.0" fill="#000000" transform="matrix(1.00, 0.00, -0.00, -1.00, 259.2, 416.6)"> </text><text xml:space="preserve" font-family="Inconsolata-Regular,Inconsolata" font-size="27.0" fill="#2C9DDA" transform="matrix(1.00, 0.00, -0.00, -1.00, 83.7, 388.6)"> </text><text xml:space="preserve" font-family="Inconsolata-Regular,Inconsolata" font-size="27.0" fill="#2C9DDA" transform="matrix(1.00, 0.00, -0.00, -1.00, 97.2, 388.6)"> </text><text xml:space="preserve" font-family="Inconsolata-Regular,Inconsolata" font-size="27.0" fill="#2C9DDA" transform="matrix(1.00, 0.00, -0.00, -1.00, 110.7, 388.6)">9</text><text xml:space="preserve" font-family="Inconsolata-Regular,Inconsolata" font-size="27.0" fill="#2C9DDA" transform="matrix(1.00, 0.00, -0.00, -1.00, 124.2, 388.6)"> </text><text xml:space="preserve" font-family="Inconsolata-Regular,Inconsolata" font-size="27.0" fill="#94A4A6" transform="matrix(1.00, 0.00, -0.00, -1.00, 137.7, 388.6)"> </text><text xml:space="preserve" font-family="Inconsolata-Regular,Inconsolata" font-size="27.0" fill="#94A4A6" transform="matrix(1.00, 0.00, -0.00, -1.00, 151.2, 388.6)"> </text><text xml:space="preserve" font-family="Inconsolata-Regular,Inconsolata" font-size="27.0" fill="#94A4A6" transform="matrix(1.00, 0.00, -0.00, -1.00, 164.7, 388.6)"> </text><text xml:space="preserve" font-family="Inconsolata-Regular,Inconsolata" font-size="27.0" fill="#94A4A6" transform="matrix(1.00, 0.00, -0.00, -1.00, 178.2, 388.6)"> </text><text xml:space="preserve" font-family="Inconsolata-Regular,Inconsolata" font-size="27.0" fill="#94A4A6" transform="matrix(1.00, 0.00, -0.00, -1.00, 191.7, 388.6)">a</text><text xml:space="preserve" font-family="Inconsolata-Regular,Inconsolata" font-size="27.0" fill="#94A4A6" transform="matrix(1.00, 0.00, -0.00, -1.00, 205.2, 388.6)">p</text><text xml:space="preserve" font-family="Inconsolata-Regular,Inconsolata" font-size="27.0" fill="#94A4A6" transform="matrix(1.00, 0.00, -0.00, -1.00, 218.7, 388.6)">p</text><text xml:space="preserve" font-family="Inconsolata-Regular,Inconsolata" font-size="27.0" fill="#A3B0B0" transform="matrix(1.00, 0.00, -0.00, -1.00, 232.2, 388.6)">.</text><text xml:space="preserve" font-family="Inconsolata-Regular,Inconsolata" font-size="27.0" fill="#A3B0B0" transform="matrix(1.00, 0.00, -0.00, -1.00, 245.7, 388.6)">b</text><text xml:space="preserve" font-family="Inconsolata-Regular,Inconsolata" font-size="27.0" fill="#A3B0B0" transform="matrix(1.00, 0.00, -0.00, -1.00, 259.2, 388.6)">l</text><text xml:space="preserve" font-family="Inconsolata-Regular,Inconsolata" font-size="27.0" fill="#A3B0B0" transform="matrix(1.00, 0.00, -0.00, -1.00, 272.7, 388.6)">o</text><text xml:space="preserve" font-family="Inconsolata-Regular,Inconsolata" font-size="27.0" fill="#A3B0B0" transform="matrix(1.00, 0.00, -0.00, -1.00, 286.2, 388.6)">g</text><text xml:space="preserve" font-family="Inconsolata-Regular,Inconsolata" font-size="27.0" fill="#94A4A6" transform="matrix(1.00, 0.00, -0.00, -1.00, 299.7, 388.6)">_</text><text xml:space="preserve" font-family="Inconsolata-Regular,Inconsolata" font-size="27.0" fill="#94A4A6" transform="matrix(1.00, 0.00, -0.00, -1.00, 313.2, 388.6)">c</text><text xml:space="preserve" font-family="Inconsolata-Regular,Inconsolata" font-size="27.0" fill="#94A4A6" transform="matrix(1.00, 0.00, -0.00, -1.00, 326.7, 388.6)">o</text><text xml:space="preserve" font-family="Inconsolata-Regular,Inconsolata" font-size="27.0" fill="#94A4A6" transform="matrix(1.00, 0.00, -0.00, -1.00, 340.2, 388.6)">n</text><text xml:space="preserve" font-family="Inconsolata-Regular,Inconsolata" font-size="27.0" fill="#94A4A6" transform="matrix(1.00, 0.00, -0.00, -1.00, 353.7, 388.6)">t</text><text xml:space="preserve" font-family="Inconsolata-Regular,Inconsolata" font-size="27.0" fill="#94A4A6" transform="matrix(1.00, 0.00, -0.00, -1.00, 367.2, 388.6)">r</text><text xml:space="preserve" font-family="Inconsolata-Regular,Inconsolata" font-size="27.0" fill="#94A4A6" transform="matrix(1.00, 0.00, -0.00, -1.00, 380.7, 388.6)">o</text><text xml:space="preserve" font-family="Inconsolata-Regular,Inconsolata" font-size="27.0" fill="#94A4A6" transform="matrix(1.00, 0.00, -0.00, -1.00, 394.2, 388.6)">l</text><text xml:space="preserve" font-family="Inconsolata-Regular,Inconsolata" font-size="27.0" fill="#94A4A6" transform="matrix(1.00, 0.00, -0.00, -1.00, 407.7, 388.6)">l</text><text xml:space="preserve" font-family="Inconsolata-Regular,Inconsolata" font-size="27.0" fill="#94A4A6" transform="matrix(1.00, 0.00, -0.00, -1.00, 421.2, 388.6)">e</text><text xml:space="preserve" font-family="Inconsolata-Regular,Inconsolata" font-size="27.0" fill="#94A4A6" transform="matrix(1.00, 0.00, -0.00, -1.00, 434.7, 388.6)">r</text><text xml:space="preserve" font-family="Inconsolata-Regular,Inconsolata" font-size="27.0" fill="#A3B0B0" transform="matrix(1.00, 0.00, -0.00, -1.00, 448.2, 388.6)">:</text><text xml:space="preserve" font-family="Inconsolata-Regular,Inconsolata" font-size="27.0" fill="#000000" transform="matrix(1.00, 0.00, -0.00, -1.00, 461.7, 388.6)"> </text><text xml:space="preserve" font-family="Inconsolata-Regular,Inconsolata" font-size="27.0" fill="#2C9DDA" transform="matrix(1.00, 0.00, -0.00, -1.00, 83.7, 360.6)"> </text><text xml:space="preserve" font-family="Inconsolata-Regular,Inconsolata" font-size="27.0" fill="#2C9DDA" transform="matrix(1.00, 0.00, -0.00, -1.00, 97.2, 360.6)">1</text><text xml:space="preserve" font-family="Inconsolata-Regular,Inconsolata" font-size="27.0" fill="#2C9DDA" transform="matrix(1.00, 0.00, -0.00, -1.00, 110.7, 360.6)">0</text><text xml:space="preserve" font-family="Inconsolata-Regular,Inconsolata" font-size="27.0" fill="#2C9DDA" transform="matrix(1.00, 0.00, -0.00, -1.00, 124.2, 360.6)"> </text><text xml:space="preserve" font-family="Inconsolata-Regular,Inconsolata" font-size="27.0" fill="#000000" transform="matrix(1.00, 0.00, -0.00, -1.00, 137.7, 360.6)"> </text><text xml:space="preserve" font-family="Inconsolata-Regular,Inconsolata" font-size="27.0" fill="#000000" transform="matrix(1.00, 0.00, -0.00, -1.00, 151.2, 360.6)"> </text><text xml:space="preserve" font-family="Inconsolata-Regular,Inconsolata" font-size="27.0" fill="#000000" transform="matrix(1.00, 0.00, -0.00, -1.00, 164.7, 360.6)"> </text><text xml:space="preserve" font-family="Inconsolata-Regular,Inconsolata" font-size="27.0" fill="#000000" transform="matrix(1.00, 0.00, -0.00, -1.00, 178.2, 360.6)"> </text><text xml:space="preserve" font-family="Inconsolata-Regular,Inconsolata" font-size="27.0" fill="#000000" transform="matrix(1.00, 0.00, -0.00, -1.00, 191.7, 360.6)"> </text><text xml:space="preserve" font-family="Inconsolata-Regular,Inconsolata" font-size="27.0" fill="#000000" transform="matrix(1.00, 0.00, -0.00, -1.00, 205.2, 360.6)"> </text><text xml:space="preserve" font-family="Inconsolata-Regular,Inconsolata" font-size="27.0" fill="#000000" transform="matrix(1.00, 0.00, -0.00, -1.00, 218.7, 360.6)"> </text><text xml:space="preserve" font-family="Inconsolata-Regular,Inconsolata" font-size="27.0" fill="#000000" transform="matrix(1.00, 0.00, -0.00, -1.00, 232.2, 360.6)"> </text><text xml:space="preserve" font-family="Inconsolata-Regular,Inconsolata" font-size="27.0" fill="#A6AAA8" transform="matrix(1.00, 0.00, -0.00, -1.00, 245.7, 360.6)">c</text><text xml:space="preserve" font-family="Inconsolata-Regular,Inconsolata" font-size="27.0" fill="#A6AAA8" transform="matrix(1.00, 0.00, -0.00, -1.00, 259.2, 360.6)">l</text><text xml:space="preserve" font-family="Inconsolata-Regular,Inconsolata" font-size="27.0" fill="#A6AAA8" transform="matrix(1.00, 0.00, -0.00, -1.00, 272.7, 360.6)">a</text><text xml:space="preserve" font-family="Inconsolata-Regular,Inconsolata" font-size="27.0" fill="#A6AAA8" transform="matrix(1.00, 0.00, -0.00, -1.00, 286.2, 360.6)">s</text><text xml:space="preserve" font-family="Inconsolata-Regular,Inconsolata" font-size="27.0" fill="#A6AAA8" transform="matrix(1.00, 0.00, -0.00, -1.00, 299.7, 360.6)">s</text><text xml:space="preserve" font-family="Inconsolata-Regular,Inconsolata" font-size="27.0" fill="#A3B0B0" transform="matrix(1.00, 0.00, -0.00, -1.00, 313.2, 360.6)">:</text><text xml:space="preserve" font-family="Inconsolata-Regular,Inconsolata" font-size="27.0" fill="#000000" transform="matrix(1.00, 0.00, -0.00, -1.00, 326.7, 360.6)"> </text><text xml:space="preserve" font-family="Inconsolata-Regular,Inconsolata" font-size="27.0" fill="#000000" transform="matrix(1.00, 0.00, -0.00, -1.00, 340.2, 360.6)"> </text><text xml:space="preserve" font-family="Inconsolata-Regular,Inconsolata" font-size="27.0" fill="#000000" transform="matrix(1.00, 0.00, -0.00, -1.00, 353.7, 360.6)"> </text><text xml:space="preserve" font-family="Inconsolata-Regular,Inconsolata" font-size="27.0" fill="#000000" transform="matrix(1.00, 0.00, -0.00, -1.00, 367.2, 360.6)"> </text><text xml:space="preserve" font-family="Inconsolata-Regular,Inconsolata" font-size="27.0" fill="#000000" transform="matrix(1.00, 0.00, -0.00, -1.00, 380.7, 360.6)"> </text><text xml:space="preserve" font-family="Inconsolata-Regular,Inconsolata" font-size="27.0" fill="#94A4A6" transform="matrix(1.00, 0.00, -0.00, -1.00, 394.2, 360.6)">A</text><text xml:space="preserve" font-family="Inconsolata-Regular,Inconsolata" font-size="27.0" fill="#94A4A6" transform="matrix(1.00, 0.00, -0.00, -1.00, 407.7, 360.6)">p</text><text xml:space="preserve" font-family="Inconsolata-Regular,Inconsolata" font-size="27.0" fill="#94A4A6" transform="matrix(1.00, 0.00, -0.00, -1.00, 421.2, 360.6)">p</text><text xml:space="preserve" font-family="Inconsolata-Regular,Inconsolata" font-size="27.0" fill="#94A4A6" transform="matrix(1.00, 0.00, -0.00, -1.00, 434.7, 360.6)">B</text><text xml:space="preserve" font-family="Inconsolata-Regular,Inconsolata" font-size="27.0" fill="#94A4A6" transform="matrix(1.00, 0.00, -0.00, -1.00, 448.2, 360.6)">u</text><text xml:space="preserve" font-family="Inconsolata-Regular,Inconsolata" font-size="27.0" fill="#94A4A6" transform="matrix(1.00, 0.00, -0.00, -1.00, 461.7, 360.6)">n</text><text xml:space="preserve" font-family="Inconsolata-Regular,Inconsolata" font-size="27.0" fill="#94A4A6" transform="matrix(1.00, 0.00, -0.00, -1.00, 475.2, 360.6)">d</text><text xml:space="preserve" font-family="Inconsolata-Regular,Inconsolata" font-size="27.0" fill="#94A4A6" transform="matrix(1.00, 0.00, -0.00, -1.00, 488.7, 360.6)">l</text><text xml:space="preserve" font-family="Inconsolata-Regular,Inconsolata" font-size="27.0" fill="#94A4A6" transform="matrix(1.00, 0.00, -0.00, -1.00, 502.2, 360.6)">e</text><text xml:space="preserve" font-family="Inconsolata-Regular,Inconsolata" font-size="27.0" fill="#94A4A6" transform="matrix(1.00, 0.00, -0.00, -1.00, 515.7, 360.6)">\</text><text xml:space="preserve" font-family="Inconsolata-Regular,Inconsolata" font-size="27.0" fill="#94A4A6" transform="matrix(1.00, 0.00, -0.00, -1.00, 529.2, 360.6)">C</text><text xml:space="preserve" font-family="Inconsolata-Regular,Inconsolata" font-size="27.0" fill="#94A4A6" transform="matrix(1.00, 0.00, -0.00, -1.00, 542.7, 360.6)">o</text><text xml:space="preserve" font-family="Inconsolata-Regular,Inconsolata" font-size="27.0" fill="#94A4A6" transform="matrix(1.00, 0.00, -0.00, -1.00, 556.2, 360.6)">n</text><text xml:space="preserve" font-family="Inconsolata-Regular,Inconsolata" font-size="27.0" fill="#94A4A6" transform="matrix(1.00, 0.00, -0.00, -1.00, 569.7, 360.6)">t</text><text xml:space="preserve" font-family="Inconsolata-Regular,Inconsolata" font-size="27.0" fill="#94A4A6" transform="matrix(1.00, 0.00, -0.00, -1.00, 583.2, 360.6)">r</text><text xml:space="preserve" font-family="Inconsolata-Regular,Inconsolata" font-size="27.0" fill="#94A4A6" transform="matrix(1.00, 0.00, -0.00, -1.00, 596.7, 360.6)">o</text><text xml:space="preserve" font-family="Inconsolata-Regular,Inconsolata" font-size="27.0" fill="#94A4A6" transform="matrix(1.00, 0.00, -0.00, -1.00, 610.2, 360.6)">l</text><text xml:space="preserve" font-family="Inconsolata-Regular,Inconsolata" font-size="27.0" fill="#94A4A6" transform="matrix(1.00, 0.00, -0.00, -1.00, 623.7, 360.6)">l</text><text xml:space="preserve" font-family="Inconsolata-Regular,Inconsolata" font-size="27.0" fill="#94A4A6" transform="matrix(1.00, 0.00, -0.00, -1.00, 637.2, 360.6)">e</text><text xml:space="preserve" font-family="Inconsolata-Regular,Inconsolata" font-size="27.0" fill="#94A4A6" transform="matrix(1.00, 0.00, -0.00, -1.00, 650.7, 360.6)">r</text><text xml:space="preserve" font-family="Inconsolata-Regular,Inconsolata" font-size="27.0" fill="#94A4A6" transform="matrix(1.00, 0.00, -0.00, -1.00, 664.2, 360.6)">\</text><text xml:space="preserve" font-family="Inconsolata-Regular,Inconsolata" font-size="27.0" fill="#94A4A6" transform="matrix(1.00, 0.00, -0.00, -1.00, 677.7, 360.6)">B</text><text xml:space="preserve" font-family="Inconsolata-Regular,Inconsolata" font-size="27.0" fill="#94A4A6" transform="matrix(1.00, 0.00, -0.00, -1.00, 691.2, 360.6)">l</text><text xml:space="preserve" font-family="Inconsolata-Regular,Inconsolata" font-size="27.0" fill="#94A4A6" transform="matrix(1.00, 0.00, -0.00, -1.00, 704.7, 360.6)">o</text><text xml:space="preserve" font-family="Inconsolata-Regular,Inconsolata" font-size="27.0" fill="#94A4A6" transform="matrix(1.00, 0.00, -0.00, -1.00, 718.2, 360.6)">g</text><text xml:space="preserve" font-family="Inconsolata-Regular,Inconsolata" font-size="27.0" fill="#94A4A6" transform="matrix(1.00, 0.00, -0.00, -1.00, 731.7, 360.6)">C</text><text xml:space="preserve" font-family="Inconsolata-Regular,Inconsolata" font-size="27.0" fill="#94A4A6" transform="matrix(1.00, 0.00, -0.00, -1.00, 745.2, 360.6)">o</text><text xml:space="preserve" font-family="Inconsolata-Regular,Inconsolata" font-size="27.0" fill="#94A4A6" transform="matrix(1.00, 0.00, -0.00, -1.00, 758.7, 360.6)">n</text><text xml:space="preserve" font-family="Inconsolata-Regular,Inconsolata" font-size="27.0" fill="#94A4A6" transform="matrix(1.00, 0.00, -0.00, -1.00, 772.2, 360.6)">t</text><text xml:space="preserve" font-family="Inconsolata-Regular,Inconsolata" font-size="27.0" fill="#94A4A6" transform="matrix(1.00, 0.00, -0.00, -1.00, 785.7, 360.6)">r</text><text xml:space="preserve" font-family="Inconsolata-Regular,Inconsolata" font-size="27.0" fill="#94A4A6" transform="matrix(1.00, 0.00, -0.00, -1.00, 799.2, 360.6)">o</text><text xml:space="preserve" font-family="Inconsolata-Regular,Inconsolata" font-size="27.0" fill="#94A4A6" transform="matrix(1.00, 0.00, -0.00, -1.00, 812.7, 360.6)">l</text><text xml:space="preserve" font-family="Inconsolata-Regular,Inconsolata" font-size="27.0" fill="#94A4A6" transform="matrix(1.00, 0.00, -0.00, -1.00, 826.2, 360.6)">l</text><text xml:space="preserve" font-family="Inconsolata-Regular,Inconsolata" font-size="27.0" fill="#94A4A6" transform="matrix(1.00, 0.00, -0.00, -1.00, 839.7, 360.6)">e</text><text xml:space="preserve" font-family="Inconsolata-Regular,Inconsolata" font-size="27.0" fill="#94A4A6" transform="matrix(1.00, 0.00, -0.00, -1.00, 853.2, 360.6)">r</text><text xml:space="preserve" font-family="Inconsolata-Regular,Inconsolata" font-size="27.0" fill="#94A4A6" transform="matrix(1.00, 0.00, -0.00, -1.00, 866.7, 360.6)"> </text><text xml:space="preserve" font-family="Inconsolata-Regular,Inconsolata" font-size="27.0" fill="#2C9DDA" transform="matrix(1.00, 0.00, -0.00, -1.00, 83.7, 332.6)"> </text><text xml:space="preserve" font-family="Inconsolata-Regular,Inconsolata" font-size="27.0" fill="#2C9DDA" transform="matrix(1.00, 0.00, -0.00, -1.00, 97.2, 332.6)">1</text><text xml:space="preserve" font-family="Inconsolata-Regular,Inconsolata" font-size="27.0" fill="#2C9DDA" transform="matrix(1.00, 0.00, -0.00, -1.00, 110.7, 332.6)">1</text><text xml:space="preserve" font-family="Inconsolata-Regular,Inconsolata" font-size="27.0" fill="#2C9DDA" transform="matrix(1.00, 0.00, -0.00, -1.00, 124.2, 332.6)"> </text><text xml:space="preserve" font-family="Inconsolata-Regular,Inconsolata" font-size="27.0" fill="#94A4A6" transform="matrix(1.00, 0.00, -0.00, -1.00, 137.7, 332.6)"> </text><text xml:space="preserve" font-family="Inconsolata-Regular,Inconsolata" font-size="27.0" fill="#94A4A6" transform="matrix(1.00, 0.00, -0.00, -1.00, 151.2, 332.6)"> </text><text xml:space="preserve" font-family="Inconsolata-Regular,Inconsolata" font-size="27.0" fill="#94A4A6" transform="matrix(1.00, 0.00, -0.00, -1.00, 164.7, 332.6)"> </text><text xml:space="preserve" font-family="Inconsolata-Regular,Inconsolata" font-size="27.0" fill="#94A4A6" transform="matrix(1.00, 0.00, -0.00, -1.00, 178.2, 332.6)"> </text><text xml:space="preserve" font-family="Inconsolata-Regular,Inconsolata" font-size="27.0" fill="#94A4A6" transform="matrix(1.00, 0.00, -0.00, -1.00, 191.7, 332.6)"> </text><text xml:space="preserve" font-family="Inconsolata-Regular,Inconsolata" font-size="27.0" fill="#94A4A6" transform="matrix(1.00, 0.00, -0.00, -1.00, 205.2, 332.6)"> </text><text xml:space="preserve" font-family="Inconsolata-Regular,Inconsolata" font-size="27.0" fill="#94A4A6" transform="matrix(1.00, 0.00, -0.00, -1.00, 218.7, 332.6)"> </text><text xml:space="preserve" font-family="Inconsolata-Regular,Inconsolata" font-size="27.0" fill="#94A4A6" transform="matrix(1.00, 0.00, -0.00, -1.00, 232.2, 332.6)"> </text><text xml:space="preserve" font-family="Inconsolata-Regular,Inconsolata" font-size="27.0" fill="#94A4A6" transform="matrix(1.00, 0.00, -0.00, -1.00, 245.7, 332.6)">a</text><text xml:space="preserve" font-family="Inconsolata-Regular,Inconsolata" font-size="27.0" fill="#94A4A6" transform="matrix(1.00, 0.00, -0.00, -1.00, 259.2, 332.6)">r</text><text xml:space="preserve" font-family="Inconsolata-Regular,Inconsolata" font-size="27.0" fill="#94A4A6" transform="matrix(1.00, 0.00, -0.00, -1.00, 272.7, 332.6)">g</text><text xml:space="preserve" font-family="Inconsolata-Regular,Inconsolata" font-size="27.0" fill="#94A4A6" transform="matrix(1.00, 0.00, -0.00, -1.00, 286.2, 332.6)">u</text><text xml:space="preserve" font-family="Inconsolata-Regular,Inconsolata" font-size="27.0" fill="#94A4A6" transform="matrix(1.00, 0.00, -0.00, -1.00, 299.7, 332.6)">m</text><text xml:space="preserve" font-family="Inconsolata-Regular,Inconsolata" font-size="27.0" fill="#94A4A6" transform="matrix(1.00, 0.00, -0.00, -1.00, 313.2, 332.6)">e</text><text xml:space="preserve" font-family="Inconsolata-Regular,Inconsolata" font-size="27.0" fill="#94A4A6" transform="matrix(1.00, 0.00, -0.00, -1.00, 326.7, 332.6)">n</text><text xml:space="preserve" font-family="Inconsolata-Regular,Inconsolata" font-size="27.0" fill="#94A4A6" transform="matrix(1.00, 0.00, -0.00, -1.00, 340.2, 332.6)">t</text><text xml:space="preserve" font-family="Inconsolata-Regular,Inconsolata" font-size="27.0" fill="#94A4A6" transform="matrix(1.00, 0.00, -0.00, -1.00, 353.7, 332.6)">s</text><text xml:space="preserve" font-family="Inconsolata-Regular,Inconsolata" font-size="27.0" fill="#A3B0B0" transform="matrix(1.00, 0.00, -0.00, -1.00, 367.2, 332.6)">:</text><text xml:space="preserve" font-family="Inconsolata-Regular,Inconsolata" font-size="27.0" fill="#A3B0B0" transform="matrix(1.00, 0.00, -0.00, -1.00, 380.7, 332.6)"> </text><text xml:space="preserve" font-family="Inconsolata-Regular,Inconsolata" font-size="27.0" fill="#A3B0B0" transform="matrix(1.00, 0.00, -0.00, -1.00, 394.2, 332.6)">[</text><text xml:space="preserve" font-family="Inconsolata-Regular,Inconsolata" font-size="27.0" fill="#E5493C" transform="matrix(1.00, 0.00, -0.00, -1.00, 407.7, 332.6)">'</text><text xml:space="preserve" font-family="Inconsolata-Regular,Inconsolata" font-size="27.0" fill="#7F87CF" transform="matrix(1.00, 0.00, -0.00, -1.00, 421.2, 332.6)">@</text><text xml:space="preserve" font-family="Inconsolata-Regular,Inconsolata" font-size="27.0" fill="#7F87CF" transform="matrix(1.00, 0.00, -0.00, -1.00, 434.7, 332.6)">r</text><text xml:space="preserve" font-family="Inconsolata-Regular,Inconsolata" font-size="27.0" fill="#7F87CF" transform="matrix(1.00, 0.00, -0.00, -1.00, 448.2, 332.6)">e</text><text xml:space="preserve" font-family="Inconsolata-Regular,Inconsolata" font-size="27.0" fill="#7F87CF" transform="matrix(1.00, 0.00, -0.00, -1.00, 461.7, 332.6)">q</text><text xml:space="preserve" font-family="Inconsolata-Regular,Inconsolata" font-size="27.0" fill="#7F87CF" transform="matrix(1.00, 0.00, -0.00, -1.00, 475.2, 332.6)">u</text><text xml:space="preserve" font-family="Inconsolata-Regular,Inconsolata" font-size="27.0" fill="#7F87CF" transform="matrix(1.00, 0.00, -0.00, -1.00, 488.7, 332.6)">e</text><text xml:space="preserve" font-family="Inconsolata-Regular,Inconsolata" font-size="27.0" fill="#7F87CF" transform="matrix(1.00, 0.00, -0.00, -1.00, 502.2, 332.6)">s</text><text xml:space="preserve" font-family="Inconsolata-Regular,Inconsolata" font-size="27.0" fill="#7F87CF" transform="matrix(1.00, 0.00, -0.00, -1.00, 515.7, 332.6)">t</text><text xml:space="preserve" font-family="Inconsolata-Regular,Inconsolata" font-size="27.0" fill="#E5493C" transform="matrix(1.00, 0.00, -0.00, -1.00, 529.2, 332.6)">'</text><text xml:space="preserve" font-family="Inconsolata-Regular,Inconsolata" font-size="27.0" fill="#A3B0B0" transform="matrix(1.00, 0.00, -0.00, -1.00, 542.7, 332.6)">,</text><text xml:space="preserve" font-family="Inconsolata-Regular,Inconsolata" font-size="27.0" fill="#000000" transform="matrix(1.00, 0.00, -0.00, -1.00, 556.2, 332.6)"> </text><text xml:space="preserve" font-family="Inconsolata-Regular,Inconsolata" font-size="27.0" fill="#E5493C" transform="matrix(1.00, 0.00, -0.00, -1.00, 569.7, 332.6)">‘</text><text xml:space="preserve" font-family="Inconsolata-Regular,Inconsolata" font-size="27.0" fill="#7F87CF" transform="matrix(1.00, 0.00, -0.00, -1.00, 583.2, 332.6)">@</text><text xml:space="preserve" font-family="Inconsolata-Regular,Inconsolata" font-size="27.0" fill="#7F87CF" transform="matrix(1.00, 0.00, -0.00, -1.00, 596.7, 332.6)">b</text><text xml:space="preserve" font-family="Inconsolata-Regular,Inconsolata" font-size="27.0" fill="#7F87CF" transform="matrix(1.00, 0.00, -0.00, -1.00, 610.2, 332.6)">l</text><text xml:space="preserve" font-family="Inconsolata-Regular,Inconsolata" font-size="27.0" fill="#7F87CF" transform="matrix(1.00, 0.00, -0.00, -1.00, 623.7, 332.6)">o</text><text xml:space="preserve" font-family="Inconsolata-Regular,Inconsolata" font-size="27.0" fill="#7F87CF" transform="matrix(1.00, 0.00, -0.00, -1.00, 637.2, 332.6)">g</text><text xml:space="preserve" font-family="Inconsolata-Regular,Inconsolata" font-size="27.0" fill="#7F87CF" transform="matrix(1.00, 0.00, -0.00, -1.00, 650.7, 332.6)">S</text><text xml:space="preserve" font-family="Inconsolata-Regular,Inconsolata" font-size="27.0" fill="#7F87CF" transform="matrix(1.00, 0.00, -0.00, -1.00, 664.2, 332.6)">e</text><text xml:space="preserve" font-family="Inconsolata-Regular,Inconsolata" font-size="27.0" fill="#7F87CF" transform="matrix(1.00, 0.00, -0.00, -1.00, 677.7, 332.6)">r</text><text xml:space="preserve" font-family="Inconsolata-Regular,Inconsolata" font-size="27.0" fill="#7F87CF" transform="matrix(1.00, 0.00, -0.00, -1.00, 691.2, 332.6)">v</text><text xml:space="preserve" font-family="Inconsolata-Regular,Inconsolata" font-size="27.0" fill="#7F87CF" transform="matrix(1.00, 0.00, -0.00, -1.00, 704.7, 332.6)">i</text><text xml:space="preserve" font-family="Inconsolata-Regular,Inconsolata" font-size="27.0" fill="#7F87CF" transform="matrix(1.00, 0.00, -0.00, -1.00, 718.2, 332.6)">c</text><text xml:space="preserve" font-family="Inconsolata-Regular,Inconsolata" font-size="27.0" fill="#7F87CF" transform="matrix(1.00, 0.00, -0.00, -1.00, 731.7, 332.6)">e</text><text xml:space="preserve" font-family="Inconsolata-Regular,Inconsolata" font-size="27.0" fill="#E5493C" transform="matrix(1.00, 0.00, -0.00, -1.00, 745.2, 332.6)">’</text><text xml:space="preserve" font-family="Inconsolata-Regular,Inconsolata" font-size="27.0" fill="#E5493C" transform="matrix(1.00, 0.00, -0.00, -1.00, 758.7, 332.6)">,</text><text xml:space="preserve" font-family="Inconsolata-Regular,Inconsolata" font-size="27.0" fill="#E5493C" transform="matrix(1.00, 0.00, -0.00, -1.00, 772.2, 332.6)"> </text><text xml:space="preserve" font-family="Inconsolata-Regular,Inconsolata" font-size="27.0" fill="#E5493C" transform="matrix(1.00, 0.00, -0.00, -1.00, 785.7, 332.6)">‘</text><text xml:space="preserve" font-family="Inconsolata-Regular,Inconsolata" font-size="27.0" fill="#164E86" transform="matrix(1.00, 0.00, -0.00, -1.00, 799.2, 332.6)">@</text><text xml:space="preserve" font-family="Inconsolata-Regular,Inconsolata" font-size="27.0" fill="#0264C0" transform="matrix(1.00, 0.00, -0.00, -1.00, 812.7, 332.6)">t</text><text xml:space="preserve" font-family="Inconsolata-Regular,Inconsolata" font-size="27.0" fill="#0264C0" transform="matrix(1.00, 0.00, -0.00, -1.00, 826.2, 332.6)">e</text><text xml:space="preserve" font-family="Inconsolata-Regular,Inconsolata" font-size="27.0" fill="#0264C0" transform="matrix(1.00, 0.00, -0.00, -1.00, 839.7, 332.6)">m</text><text xml:space="preserve" font-family="Inconsolata-Regular,Inconsolata" font-size="27.0" fill="#0264C0" transform="matrix(1.00, 0.00, -0.00, -1.00, 853.2, 332.6)">p</text><text xml:space="preserve" font-family="Inconsolata-Regular,Inconsolata" font-size="27.0" fill="#0264C0" transform="matrix(1.00, 0.00, -0.00, -1.00, 866.7, 332.6)">l</text><text xml:space="preserve" font-family="Inconsolata-Regular,Inconsolata" font-size="27.0" fill="#0264C0" transform="matrix(1.00, 0.00, -0.00, -1.00, 880.2, 332.6)">a</text><text xml:space="preserve" font-family="Inconsolata-Regular,Inconsolata" font-size="27.0" fill="#0264C0" transform="matrix(1.00, 0.00, -0.00, -1.00, 893.7, 332.6)">t</text><text xml:space="preserve" font-family="Inconsolata-Regular,Inconsolata" font-size="27.0" fill="#0264C0" transform="matrix(1.00, 0.00, -0.00, -1.00, 907.2, 332.6)">i</text><text xml:space="preserve" font-family="Inconsolata-Regular,Inconsolata" font-size="27.0" fill="#0264C0" transform="matrix(1.00, 0.00, -0.00, -1.00, 920.7, 332.6)">n</text><text xml:space="preserve" font-family="Inconsolata-Regular,Inconsolata" font-size="27.0" fill="#0264C0" transform="matrix(1.00, 0.00, -0.00, -1.00, 934.2, 332.6)">g</text><text xml:space="preserve" font-family="Inconsolata-Regular,Inconsolata" font-size="27.0" fill="#E5493C" transform="matrix(1.00, 0.00, -0.00, -1.00, 947.7, 332.6)">’</text><text xml:space="preserve" font-family="Inconsolata-Regular,Inconsolata" font-size="27.0" fill="#A3B0B0" transform="matrix(1.00, 0.00, -0.00, -1.00, 961.2, 332.6)">]</text><text xml:space="preserve" font-family="Inconsolata-Regular,Inconsolata" font-size="27.0" fill="#000000" transform="matrix(1.00, 0.00, -0.00, -1.00, 974.7, 332.6)"> </text><text xml:space="preserve" font-family="Helvetica-Light,Helvetica" font-size="32.8" fill="#000000" transform="matrix(1.00, 0.00, -0.00, -1.00, 251.6, 569.2)">S</text><text xml:space="preserve" font-family="Helvetica-Light,Helvetica" font-size="32.8" fill="#000000" transform="matrix(1.00, 0.00, -0.00, -1.00, 271.6, 569.2)">y</text><text xml:space="preserve" font-family="Helvetica-Light,Helvetica" font-size="32.8" fill="#000000" transform="matrix(1.00, 0.00, -0.00, -1.00, 288.0, 569.2)">m</text><text xml:space="preserve" font-family="Helvetica-Light,Helvetica" font-size="32.8" fill="#000000" transform="matrix(1.00, 0.00, -0.00, -1.00, 315.3, 569.2)">f</text><text xml:space="preserve" font-family="Helvetica-Light,Helvetica" font-size="32.8" fill="#000000" transform="matrix(1.00, 0.00, -0.00, -1.00, 324.5, 569.2)">o</text><text xml:space="preserve" font-family="Helvetica-Light,Helvetica" font-size="32.8" fill="#000000" transform="matrix(1.00, 0.00, -0.00, -1.00, 342.7, 569.2)">n</text><text xml:space="preserve" font-family="Helvetica-Light,Helvetica" font-size="32.8" fill="#000000" transform="matrix(1.00, 0.00, -0.00, -1.00, 360.9, 569.2)">y</text><text xml:space="preserve" font-family="Helvetica-Light,Helvetica" font-size="32.8" fill="#000000" transform="matrix(1.00, 0.00, -0.00, -1.00, 377.3, 569.2)"> </text><text xml:space="preserve" font-family="Helvetica-Light,Helvetica" font-size="32.8" fill="#000000" transform="matrix(1.00, 0.00, -0.00, -1.00, 386.4, 569.2)">F</text><text xml:space="preserve" font-family="Helvetica-Light,Helvetica" font-size="32.8" fill="#000000" transform="matrix(1.00, 0.00, -0.00, -1.00, 404.7, 569.2)">r</text><text xml:space="preserve" font-family="Helvetica-Light,Helvetica" font-size="32.8" fill="#000000" transform="matrix(1.00, 0.00, -0.00, -1.00, 415.6, 569.2)">a</text><text xml:space="preserve" font-family="Helvetica-Light,Helvetica" font-size="32.8" fill="#000000" transform="matrix(1.00, 0.00, -0.00, -1.00, 433.8, 569.2)">m</text><text xml:space="preserve" font-family="Helvetica-Light,Helvetica" font-size="32.8" fill="#000000" transform="matrix(1.00, 0.00, -0.00, -1.00, 461.2, 569.2)">e</text><text xml:space="preserve" font-family="Helvetica-Light,Helvetica" font-size="32.8" fill="#000000" transform="matrix(1.00, 0.00, -0.00, -1.00, 479.4, 569.2)">w</text><text xml:space="preserve" font-family="Helvetica-Light,Helvetica" font-size="32.8" fill="#000000" transform="matrix(1.00, 0.00, -0.00, -1.00, 503.1, 569.2)">o</text><text xml:space="preserve" font-family="Helvetica-Light,Helvetica" font-size="32.8" fill="#000000" transform="matrix(1.00, 0.00, -0.00, -1.00, 521.3, 569.2)">r</text><text xml:space="preserve" font-family="Helvetica-Light,Helvetica" font-size="32.8" fill="#000000" transform="matrix(1.00, 0.00, -0.00, -1.00, 532.2, 569.2)">k</text><text xml:space="preserve" font-family="Helvetica-Light,Helvetica" font-size="32.8" fill="#000000" transform="matrix(1.00, 0.00, -0.00, -1.00, 548.6, 569.2)"> </text><text xml:space="preserve" font-family="Helvetica-Light,Helvetica" font-size="32.8" fill="#000000" transform="matrix(1.00, 0.00, -0.00, -1.00, 557.8, 569.2)">C</text><text xml:space="preserve" font-family="Helvetica-Light,Helvetica" font-size="32.8" fill="#000000" transform="matrix(1.00, 0.00, -0.00, -1.00, 581.4, 569.2)">o</text><text xml:space="preserve" font-family="Helvetica-Light,Helvetica" font-size="32.8" fill="#000000" transform="matrix(1.00, 0.00, -0.00, -1.00, 599.7, 569.2)">n</text><text xml:space="preserve" font-family="Helvetica-Light,Helvetica" font-size="32.8" fill="#000000" transform="matrix(1.00, 0.00, -0.00, -1.00, 617.9, 569.2)">t</text><text xml:space="preserve" font-family="Helvetica-Light,Helvetica" font-size="32.8" fill="#000000" transform="matrix(1.00, 0.00, -0.00, -1.00, 627.0, 569.2)">r</text><text xml:space="preserve" font-family="Helvetica-Light,Helvetica" font-size="32.8" fill="#000000" transform="matrix(1.00, 0.00, -0.00, -1.00, 637.4, 569.2)">o</text><text xml:space="preserve" font-family="Helvetica-Light,Helvetica" font-size="32.8" fill="#000000" transform="matrix(1.00, 0.00, -0.00, -1.00, 655.6, 569.2)">l</text><text xml:space="preserve" font-family="Helvetica-Light,Helvetica" font-size="32.8" fill="#000000" transform="matrix(1.00, 0.00, -0.00, -1.00, 662.9, 569.2)">l</text><text xml:space="preserve" font-family="Helvetica-Light,Helvetica" font-size="32.8" fill="#000000" transform="matrix(1.00, 0.00, -0.00, -1.00, 670.2, 569.2)">e</text><text xml:space="preserve" font-family="Helvetica-Light,Helvetica" font-size="32.8" fill="#000000" transform="matrix(1.00, 0.00, -0.00, -1.00, 688.4, 569.2)">r</text><text xml:space="preserve" font-family="Helvetica-Light,Helvetica" font-size="32.8" fill="#000000" transform="matrix(1.00, 0.00, -0.00, -1.00, 699.3, 569.2)"> </text><text xml:space="preserve" font-family="Helvetica-Light,Helvetica" font-size="32.8" fill="#000000" transform="matrix(1.00, 0.00, -0.00, -1.00, 708.4, 569.2)">F</text><text xml:space="preserve" font-family="Helvetica-Light,Helvetica" font-size="32.8" fill="#000000" transform="matrix(1.00, 0.00, -0.00, -1.00, 726.7, 569.2)">a</text><text xml:space="preserve" font-family="Helvetica-Light,Helvetica" font-size="32.8" fill="#000000" transform="matrix(1.00, 0.00, -0.00, -1.00, 744.9, 569.2)">c</text><text xml:space="preserve" font-family="Helvetica-Light,Helvetica" font-size="32.8" fill="#000000" transform="matrix(1.00, 0.00, -0.00, -1.00, 763.2, 569.2)">t</text><text xml:space="preserve" font-family="Helvetica-Light,Helvetica" font-size="32.8" fill="#000000" transform="matrix(1.00, 0.00, -0.00, -1.00, 772.3, 569.2)">o</text><text xml:space="preserve" font-family="Helvetica-Light,Helvetica" font-size="32.8" fill="#000000" transform="matrix(1.00, 0.00, -0.00, -1.00, 790.5, 569.2)">r</text><text xml:space="preserve" font-family="Helvetica-Light,Helvetica" font-size="32.8" fill="#000000" transform="matrix(1.00, 0.00, -0.00, -1.00, 802.0, 569.2)">y</text></g></svg>