<?xml version="1.0" encoding="UTF-8" standalone="no"?><svg xmlns="http://www.w3.org/2000/svg" xmlns:xlink="http://www.w3.org/1999/xlink" clip-rule="evenodd" stroke-miterlimit="10" viewBox="0 0 1024 768"><desc>SVG generated by Keynote</desc><defs><pattern id="CCD67E49-5412-464D-BC52-C824F0419B8F" patternUnits="userSpaceOnUse" width="600" height="600" viewBox="0 0 600 600"><image xlink:href="../../574F8B15-84CD-4CED-9DF2-DC9D45A83AF7/assets/C3C0FC898C94653CAF8AD846D6CCD108.png" width="600.00" height="600.00"></image></pattern></defs><g transform="matrix(1.00, 0.00, -0.00, -1.00, 0.0, 768.0)"><path d="M 0.0 768.0 L 1024.0 768.0 L 1024.0 0.0 L 0.0 0.0 Z M 0.0 768.0 " fill="#FEFFFF"></path><image xlink:href="../../6481BA89-9258-4CBD-8624-B36CE60FDF89/assets/93A9ABE47E9D4B5EB731B07A20133AA5.png" width="153.00" height="118.00" transform="matrix(1.00, 0.00, -0.00, -1.00, 76.7, 430.5)" opacity="0.50"></image><g><clipPath id="clip0x6180012b6380"><path d="M 80.0 429.0 L 226.0 429.0 L 226.0 318.0 L 80.0 318.0 Z M 79.7 429.5 "></path></clipPath><g clip-path="url(#clip0x6180012b6380)"><image xlink:href="../../574F8B15-84CD-4CED-9DF2-DC9D45A83AF7/assets/C3C0FC898C94653CAF8AD846D6CCD108.png" width="600.00" height="600.00" transform="matrix(0.50, 0.00, -0.00, -0.50, 80.0, 429.0)"></image></g></g><g><clipPath id="clip0x6080010bab80"><path d="M 77.7 318.0 L 228.3 318.0 L 228.3 429.5 L 77.7 429.5 Z M 77.7 318.0 "></path></clipPath><g clip-path="url(#clip0x6080010bab80)"><text xml:space="preserve" font-family="Helvetica-Light,Helvetica" font-size="24.0" fill="#FEFFFE" transform="matrix(1.00, 0.00, -0.00, -1.00, 103.7, 364.0)">P</text><text xml:space="preserve" font-family="Helvetica-Light,Helvetica" font-size="24.0" fill="#FEFFFE" transform="matrix(1.00, 0.00, -0.00, -1.00, 118.3, 364.0)">H</text><text xml:space="preserve" font-family="Helvetica-Light,Helvetica" font-size="24.0" fill="#FEFFFE" transform="matrix(1.00, 0.00, -0.00, -1.00, 135.7, 364.0)">P</text><text xml:space="preserve" font-family="Helvetica-Light,Helvetica" font-size="24.0" fill="#FEFFFE" transform="matrix(1.00, 0.00, -0.00, -1.00, 150.3, 364.0)"> </text><text xml:space="preserve" font-family="Helvetica-Light,Helvetica" font-size="24.0" fill="#FEFFFE" transform="matrix(1.00, 0.00, -0.00, -1.00, 157.0, 364.0)">A</text><text xml:space="preserve" font-family="Helvetica-Light,Helvetica" font-size="24.0" fill="#FEFFFE" transform="matrix(1.00, 0.00, -0.00, -1.00, 173.0, 364.0)">p</text><text xml:space="preserve" font-family="Helvetica-Light,Helvetica" font-size="24.0" fill="#FEFFFE" transform="matrix(1.00, 0.00, -0.00, -1.00, 187.7, 364.0)">p</text></g></g><image xlink:href="../../6481BA89-9258-4CBD-8624-B36CE60FDF89/assets/93A9ABE47E9D4B5EB731B07A20133AA5.png" width="153.00" height="118.00" transform="matrix(1.00, 0.00, -0.00, -1.00, 385.7, 430.5)" opacity="0.50"></image><g><clipPath id="clip0x600001cbf500"><path d="M 389.0 429.0 L 535.0 429.0 L 535.0 318.0 L 389.0 318.0 Z M 388.7 429.5 "></path></clipPath><g clip-path="url(#clip0x600001cbf500)"><image xlink:href="../../574F8B15-84CD-4CED-9DF2-DC9D45A83AF7/assets/C3C0FC898C94653CAF8AD846D6CCD108.png" width="600.00" height="600.00" transform="matrix(0.50, 0.00, -0.00, -0.50, 389.0, 429.0)"></image></g></g><g><clipPath id="clip0x6080010bbd20"><path d="M 386.7 318.0 L 537.3 318.0 L 537.3 429.5 L 386.7 429.5 Z M 386.7 318.0 "></path></clipPath><g clip-path="url(#clip0x6080010bbd20)"><text xml:space="preserve" font-family="Helvetica-Light,Helvetica" font-size="24.0" fill="#FEFFFE" transform="matrix(1.00, 0.00, -0.00, -1.00, 412.6, 364.0)">L</text><text xml:space="preserve" font-family="Helvetica-Light,Helvetica" font-size="24.0" fill="#FEFFFE" transform="matrix(1.00, 0.00, -0.00, -1.00, 426.0, 364.0)">o</text><text xml:space="preserve" font-family="Helvetica-Light,Helvetica" font-size="24.0" fill="#FEFFFE" transform="matrix(1.00, 0.00, -0.00, -1.00, 439.3, 364.0)">g</text><text xml:space="preserve" font-family="Helvetica-Light,Helvetica" font-size="24.0" fill="#FEFFFE" transform="matrix(1.00, 0.00, -0.00, -1.00, 454.0, 364.0)">s</text><text xml:space="preserve" font-family="Helvetica-Light,Helvetica" font-size="24.0" fill="#FEFFFE" transform="matrix(1.00, 0.00, -0.00, -1.00, 466.0, 364.0)">t</text><text xml:space="preserve" font-family="Helvetica-Light,Helvetica" font-size="24.0" fill="#FEFFFE" transform="matrix(1.00, 0.00, -0.00, -1.00, 472.7, 364.0)">a</text><text xml:space="preserve" font-family="Helvetica-Light,Helvetica" font-size="24.0" fill="#FEFFFE" transform="matrix(1.00, 0.00, -0.00, -1.00, 486.0, 364.0)">s</text><text xml:space="preserve" font-family="Helvetica-Light,Helvetica" font-size="24.0" fill="#FEFFFE" transform="matrix(1.00, 0.00, -0.00, -1.00, 498.0, 364.0)">h</text></g></g><text xml:space="preserve" font-family="Helvetica-Light,Helvetica" font-size="71.0" fill="#000000" transform="matrix(1.00, 0.00, -0.00, -1.00, 83.9, 636.8)">B</text><text xml:space="preserve" font-family="Helvetica-Light,Helvetica" font-size="71.0" fill="#000000" transform="matrix(1.00, 0.00, -0.00, -1.00, 131.3, 636.8)">e</text><text xml:space="preserve" font-family="Helvetica-Light,Helvetica" font-size="71.0" fill="#000000" transform="matrix(1.00, 0.00, -0.00, -1.00, 170.7, 636.8)">n</text><text xml:space="preserve" font-family="Helvetica-Light,Helvetica" font-size="71.0" fill="#000000" transform="matrix(1.00, 0.00, -0.00, -1.00, 210.2, 636.8)">c</text><text xml:space="preserve" font-family="Helvetica-Light,Helvetica" font-size="71.0" fill="#000000" transform="matrix(1.00, 0.00, -0.00, -1.00, 249.7, 636.8)">h</text><text xml:space="preserve" font-family="Helvetica-Light,Helvetica" font-size="71.0" fill="#000000" transform="matrix(1.00, 0.00, -0.00, -1.00, 289.2, 636.8)">m</text><text xml:space="preserve" font-family="Helvetica-Light,Helvetica" font-size="71.0" fill="#000000" transform="matrix(1.00, 0.00, -0.00, -1.00, 348.3, 636.8)">a</text><text xml:space="preserve" font-family="Helvetica-Light,Helvetica" font-size="71.0" fill="#000000" transform="matrix(1.00, 0.00, -0.00, -1.00, 387.8, 636.8)">r</text><text xml:space="preserve" font-family="Helvetica-Light,Helvetica" font-size="71.0" fill="#000000" transform="matrix(1.00, 0.00, -0.00, -1.00, 411.4, 636.8)">k</text><text xml:space="preserve" font-family="Helvetica-Light,Helvetica" font-size="71.0" fill="#000000" transform="matrix(1.00, 0.00, -0.00, -1.00, 446.9, 636.8)">i</text><text xml:space="preserve" font-family="Helvetica-Light,Helvetica" font-size="71.0" fill="#000000" transform="matrix(1.00, 0.00, -0.00, -1.00, 462.7, 636.8)">n</text><text xml:space="preserve" font-family="Helvetica-Light,Helvetica" font-size="71.0" fill="#000000" transform="matrix(1.00, 0.00, -0.00, -1.00, 502.2, 636.8)">g</text><text xml:space="preserve" font-family="Helvetica-Light,Helvetica" font-size="71.0" fill="#000000" transform="matrix(1.00, 0.00, -0.00, -1.00, 545.5, 636.8)"> </text><text xml:space="preserve" font-family="Helvetica-Light,Helvetica" font-size="71.0" fill="#000000" transform="matrix(1.00, 0.00, -0.00, -1.00, 565.3, 636.8)">/</text><text xml:space="preserve" font-family="Helvetica-Light,Helvetica" font-size="71.0" fill="#000000" transform="matrix(1.00, 0.00, -0.00, -1.00, 585.0, 636.8)"> </text><text xml:space="preserve" font-family="Helvetica-Light,Helvetica" font-size="71.0" fill="#000000" transform="matrix(1.00, 0.00, -0.00, -1.00, 604.8, 636.8)">M</text><text xml:space="preserve" font-family="Helvetica-Light,Helvetica" font-size="71.0" fill="#000000" transform="matrix(1.00, 0.00, -0.00, -1.00, 663.9, 636.8)">o</text><text xml:space="preserve" font-family="Helvetica-Light,Helvetica" font-size="71.0" fill="#000000" transform="matrix(1.00, 0.00, -0.00, -1.00, 703.4, 636.8)">n</text><text xml:space="preserve" font-family="Helvetica-Light,Helvetica" font-size="71.0" fill="#000000" transform="matrix(1.00, 0.00, -0.00, -1.00, 742.9, 636.8)">i</text><text xml:space="preserve" font-family="Helvetica-Light,Helvetica" font-size="71.0" fill="#000000" transform="matrix(1.00, 0.00, -0.00, -1.00, 758.6, 636.8)">t</text><text xml:space="preserve" font-family="Helvetica-Light,Helvetica" font-size="71.0" fill="#000000" transform="matrix(1.00, 0.00, -0.00, -1.00, 778.4, 636.8)">o</text><text xml:space="preserve" font-family="Helvetica-Light,Helvetica" font-size="71.0" fill="#000000" transform="matrix(1.00, 0.00, -0.00, -1.00, 817.8, 636.8)">r</text><text xml:space="preserve" font-family="Helvetica-Light,Helvetica" font-size="71.0" fill="#000000" transform="matrix(1.00, 0.00, -0.00, -1.00, 841.5, 636.8)">i</text><text xml:space="preserve" font-family="Helvetica-Light,Helvetica" font-size="71.0" fill="#000000" transform="matrix(1.00, 0.00, -0.00, -1.00, 857.2, 636.8)">n</text><text xml:space="preserve" font-family="Helvetica-Light,Helvetica" font-size="71.0" fill="#000000" transform="matrix(1.00, 0.00, -0.00, -1.00, 896.7, 636.8)">g</text><text xml:space="preserve" font-family="Helvetica-Light,Helvetica" font-size="36.0" fill="#000000" transform="matrix(1.00, 0.00, -0.00, -1.00, 227.5, 531.3)">E</text><text xml:space="preserve" font-family="Helvetica-Light,Helvetica" font-size="36.0" fill="#000000" transform="matrix(1.00, 0.00, -0.00, -1.00, 249.5, 531.3)">l</text><text xml:space="preserve" font-family="Helvetica-Light,Helvetica" font-size="36.0" fill="#000000" transform="matrix(1.00, 0.00, -0.00, -1.00, 257.4, 531.3)">a</text><text xml:space="preserve" font-family="Helvetica-Light,Helvetica" font-size="36.0" fill="#000000" transform="matrix(1.00, 0.00, -0.00, -1.00, 277.5, 531.3)">s</text><text xml:space="preserve" font-family="Helvetica-Light,Helvetica" font-size="36.0" fill="#000000" transform="matrix(1.00, 0.00, -0.00, -1.00, 295.5, 531.3)">t</text><text xml:space="preserve" font-family="Helvetica-Light,Helvetica" font-size="36.0" fill="#000000" transform="matrix(1.00, 0.00, -0.00, -1.00, 305.5, 531.3)">i</text><text xml:space="preserve" font-family="Helvetica-Light,Helvetica" font-size="36.0" fill="#000000" transform="matrix(1.00, 0.00, -0.00, -1.00, 313.5, 531.3)">c</text><text xml:space="preserve" font-family="Helvetica-Light,Helvetica" font-size="36.0" fill="#000000" transform="matrix(1.00, 0.00, -0.00, -1.00, 333.5, 531.3)">S</text><text xml:space="preserve" font-family="Helvetica-Light,Helvetica" font-size="36.0" fill="#000000" transform="matrix(1.00, 0.00, -0.00, -1.00, 355.5, 531.3)">e</text><text xml:space="preserve" font-family="Helvetica-Light,Helvetica" font-size="36.0" fill="#000000" transform="matrix(1.00, 0.00, -0.00, -1.00, 375.5, 531.3)">a</text><text xml:space="preserve" font-family="Helvetica-Light,Helvetica" font-size="36.0" fill="#000000" transform="matrix(1.00, 0.00, -0.00, -1.00, 395.5, 531.3)">r</text><text xml:space="preserve" font-family="Helvetica-Light,Helvetica" font-size="36.0" fill="#000000" transform="matrix(1.00, 0.00, -0.00, -1.00, 406.8, 531.3)">c</text><text xml:space="preserve" font-family="Helvetica-Light,Helvetica" font-size="36.0" fill="#000000" transform="matrix(1.00, 0.00, -0.00, -1.00, 426.9, 531.3)">h</text><text xml:space="preserve" font-family="Helvetica-Light,Helvetica" font-size="36.0" fill="#000000" transform="matrix(1.00, 0.00, -0.00, -1.00, 446.9, 531.3)"> </text><text xml:space="preserve" font-family="Helvetica-Light,Helvetica" font-size="36.0" fill="#000000" transform="matrix(1.00, 0.00, -0.00, -1.00, 456.9, 531.3)">+</text><text xml:space="preserve" font-family="Helvetica-Light,Helvetica" font-size="36.0" fill="#000000" transform="matrix(1.00, 0.00, -0.00, -1.00, 480.6, 531.3)"> </text><text xml:space="preserve" font-family="Helvetica-Light,Helvetica" font-size="36.0" fill="#000000" transform="matrix(1.00, 0.00, -0.00, -1.00, 490.7, 531.3)">L</text><text xml:space="preserve" font-family="Helvetica-Light,Helvetica" font-size="36.0" fill="#000000" transform="matrix(1.00, 0.00, -0.00, -1.00, 510.7, 531.3)">o</text><text xml:space="preserve" font-family="Helvetica-Light,Helvetica" font-size="36.0" fill="#000000" transform="matrix(1.00, 0.00, -0.00, -1.00, 530.7, 531.3)">g</text><text xml:space="preserve" font-family="Helvetica-Light,Helvetica" font-size="36.0" fill="#000000" transform="matrix(1.00, 0.00, -0.00, -1.00, 552.7, 531.3)">s</text><text xml:space="preserve" font-family="Helvetica-Light,Helvetica" font-size="36.0" fill="#000000" transform="matrix(1.00, 0.00, -0.00, -1.00, 570.7, 531.3)">t</text><text xml:space="preserve" font-family="Helvetica-Light,Helvetica" font-size="36.0" fill="#000000" transform="matrix(1.00, 0.00, -0.00, -1.00, 580.7, 531.3)">a</text><text xml:space="preserve" font-family="Helvetica-Light,Helvetica" font-size="36.0" fill="#000000" transform="matrix(1.00, 0.00, -0.00, -1.00, 600.7, 531.3)">s</text><text xml:space="preserve" font-family="Helvetica-Light,Helvetica" font-size="36.0" fill="#000000" transform="matrix(1.00, 0.00, -0.00, -1.00, 618.7, 531.3)">h</text><text xml:space="preserve" font-family="Helvetica-Light,Helvetica" font-size="36.0" fill="#000000" transform="matrix(1.00, 0.00, -0.00, -1.00, 638.7, 531.3)"> </text><text xml:space="preserve" font-family="Helvetica-Light,Helvetica" font-size="36.0" fill="#000000" transform="matrix(1.00, 0.00, -0.00, -1.00, 648.7, 531.3)">+</text><text xml:space="preserve" font-family="Helvetica-Light,Helvetica" font-size="36.0" fill="#000000" transform="matrix(1.00, 0.00, -0.00, -1.00, 672.5, 531.3)"> </text><text xml:space="preserve" font-family="Helvetica-Light,Helvetica" font-size="36.0" fill="#000000" transform="matrix(1.00, 0.00, -0.00, -1.00, 682.5, 531.3)">K</text><text xml:space="preserve" font-family="Helvetica-Light,Helvetica" font-size="36.0" fill="#000000" transform="matrix(1.00, 0.00, -0.00, -1.00, 706.5, 531.3)">i</text><text xml:space="preserve" font-family="Helvetica-Light,Helvetica" font-size="36.0" fill="#000000" transform="matrix(1.00, 0.00, -0.00, -1.00, 714.5, 531.3)">b</text><text xml:space="preserve" font-family="Helvetica-Light,Helvetica" font-size="36.0" fill="#000000" transform="matrix(1.00, 0.00, -0.00, -1.00, 736.5, 531.3)">a</text><text xml:space="preserve" font-family="Helvetica-Light,Helvetica" font-size="36.0" fill="#000000" transform="matrix(1.00, 0.00, -0.00, -1.00, 756.5, 531.3)">n</text><text xml:space="preserve" font-family="Helvetica-Light,Helvetica" font-size="36.0" fill="#000000" transform="matrix(1.00, 0.00, -0.00, -1.00, 776.5, 531.3)">a</text><text xml:space="preserve" font-family="Helvetica-Light,Helvetica" font-size="36.0" fill="#000000" transform="matrix(1.00, 0.00, -0.00, -1.00, 796.5, 531.3)"> </text><text xml:space="preserve" font-family="Helvetica-Light,Helvetica" font-size="36.0" fill="#000000" transform="matrix(1.00, 0.00, -0.00, -1.00, 806.6, 531.3)"> </text><text xml:space="preserve" font-family="Helvetica-Light,Helvetica" font-size="36.0" fill="#000000" transform="matrix(1.00, 0.00, -0.00, -1.00, 445.0, 488.3)">a</text><text xml:space="preserve" font-family="Helvetica-Light,Helvetica" font-size="36.0" fill="#000000" transform="matrix(1.00, 0.00, -0.00, -1.00, 465.0, 488.3)">k</text><text xml:space="preserve" font-family="Helvetica-Light,Helvetica" font-size="36.0" fill="#000000" transform="matrix(1.00, 0.00, -0.00, -1.00, 483.0, 488.3)">a</text><text xml:space="preserve" font-family="Helvetica-Light,Helvetica" font-size="36.0" fill="#000000" transform="matrix(1.00, 0.00, -0.00, -1.00, 503.0, 488.3)"> </text><text xml:space="preserve" font-family="Helvetica-Light,Helvetica" font-size="36.0" fill="#000000" transform="matrix(1.00, 0.00, -0.00, -1.00, 513.0, 488.3)">E</text><text xml:space="preserve" font-family="Helvetica-Light,Helvetica" font-size="36.0" fill="#000000" transform="matrix(1.00, 0.00, -0.00, -1.00, 535.0, 488.3)">L</text><text xml:space="preserve" font-family="Helvetica-Light,Helvetica" font-size="36.0" fill="#000000" transform="matrix(1.00, 0.00, -0.00, -1.00, 555.0, 488.3)">K</text><path d="M -0.2 -0.2 L 152.9 -0.2 L 153.8 -0.2 " fill="none" stroke="#000000" stroke-width="2.00" transform="matrix(1.00, 0.00, 0.00, -1.00, 226.2, 373.8)"></path><path d="M 379.0 369.2 L 388.6 374.0 L 379.0 378.8 Z M 379.0 369.2 " fill="#000000"></path><image xlink:href="../../6481BA89-9258-4CBD-8624-B36CE60FDF89/assets/B2263ACA1BA891717932AFB854325971.png" width="199.00" height="118.00" transform="matrix(1.00, 0.00, -0.00, -1.00, 662.7, 430.5)" opacity="0.50"></image><g><clipPath id="clip0x6080010bdd60"><path d="M 666.0 429.0 L 859.0 429.0 L 859.0 318.0 L 666.0 318.0 Z M 665.7 429.5 "></path></clipPath><g clip-path="url(#clip0x6080010bdd60)"><image xlink:href="../../574F8B15-84CD-4CED-9DF2-DC9D45A83AF7/assets/C3C0FC898C94653CAF8AD846D6CCD108.png" width="600.00" height="600.00" transform="matrix(0.50, 0.00, -0.00, -0.50, 666.0, 429.0)"></image></g></g><g><clipPath id="clip0x6180012b6320"><path d="M 663.7 318.0 L 861.1 318.0 L 861.1 429.5 L 663.7 429.5 Z M 663.7 318.0 "></path></clipPath><g clip-path="url(#clip0x6180012b6320)"><text xml:space="preserve" font-family="Helvetica-Light,Helvetica" font-size="24.0" fill="#FEFFFE" transform="matrix(1.00, 0.00, -0.00, -1.00, 689.3, 364.0)">E</text><text xml:space="preserve" font-family="Helvetica-Light,Helvetica" font-size="24.0" fill="#FEFFFE" transform="matrix(1.00, 0.00, -0.00, -1.00, 703.9, 364.0)">l</text><text xml:space="preserve" font-family="Helvetica-Light,Helvetica" font-size="24.0" fill="#FEFFFE" transform="matrix(1.00, 0.00, -0.00, -1.00, 709.3, 364.0)">a</text><text xml:space="preserve" font-family="Helvetica-Light,Helvetica" font-size="24.0" fill="#FEFFFE" transform="matrix(1.00, 0.00, -0.00, -1.00, 722.6, 364.0)">s</text><text xml:space="preserve" font-family="Helvetica-Light,Helvetica" font-size="24.0" fill="#FEFFFE" transform="matrix(1.00, 0.00, -0.00, -1.00, 734.6, 364.0)">t</text><text xml:space="preserve" font-family="Helvetica-Light,Helvetica" font-size="24.0" fill="#FEFFFE" transform="matrix(1.00, 0.00, -0.00, -1.00, 741.3, 364.0)">i</text><text xml:space="preserve" font-family="Helvetica-Light,Helvetica" font-size="24.0" fill="#FEFFFE" transform="matrix(1.00, 0.00, -0.00, -1.00, 746.6, 364.0)">c</text><text xml:space="preserve" font-family="Helvetica-Light,Helvetica" font-size="24.0" fill="#FEFFFE" transform="matrix(1.00, 0.00, -0.00, -1.00, 760.0, 364.0)">S</text><text xml:space="preserve" font-family="Helvetica-Light,Helvetica" font-size="24.0" fill="#FEFFFE" transform="matrix(1.00, 0.00, -0.00, -1.00, 774.6, 364.0)">e</text><text xml:space="preserve" font-family="Helvetica-Light,Helvetica" font-size="24.0" fill="#FEFFFE" transform="matrix(1.00, 0.00, -0.00, -1.00, 788.0, 364.0)">a</text><text xml:space="preserve" font-family="Helvetica-Light,Helvetica" font-size="24.0" fill="#FEFFFE" transform="matrix(1.00, 0.00, -0.00, -1.00, 801.3, 364.0)">r</text><text xml:space="preserve" font-family="Helvetica-Light,Helvetica" font-size="24.0" fill="#FEFFFE" transform="matrix(1.00, 0.00, -0.00, -1.00, 808.9, 364.0)">c</text><text xml:space="preserve" font-family="Helvetica-Light,Helvetica" font-size="24.0" fill="#FEFFFE" transform="matrix(1.00, 0.00, -0.00, -1.00, 822.2, 364.0)">h</text></g></g><path d="M 0.0 0.0 C 40.3 0.0 80.6 -0.3 120.8 -0.3 L 121.7 -0.3 " fill="none" stroke="#000000" stroke-width="2.00" transform="matrix(1.00, 0.00, 0.00, -1.00, 535.3, 373.7)"></path><path d="M 656.0 369.2 L 665.6 374.0 L 656.0 378.8 Z M 656.0 369.2 " fill="#000000"></path><image xlink:href="../../6481BA89-9258-4CBD-8624-B36CE60FDF89/assets/AE6F0CA75C1E60A5CAB8B98E84D1D95D.png" width="452.00" height="118.00" transform="matrix(1.00, 0.00, -0.00, -1.00, 236.2, 212.5)" opacity="0.50"></image><g><clipPath id="clip0x6180012b59c0"><path d="M 239.0 211.0 L 685.0 211.0 L 685.0 100.0 L 239.0 100.0 Z M 239.2 211.5 "></path></clipPath><g clip-path="url(#clip0x6180012b59c0)"><path d="M 239.0 100.0 L 685.0 100.0 L 685.0 211.0 L 239.0 211.0 Z M 239.0 100.0 " fill="url(#CCD67E49-5412-464D-BC52-C824F0419B8F)"></path></g></g><g><clipPath id="clip0x600001cbf2c0"><path d="M 237.2 100.0 L 686.8 100.0 L 686.8 211.5 L 237.2 211.5 Z M 237.2 100.0 "></path></clipPath><g clip-path="url(#clip0x600001cbf2c0)"><text xml:space="preserve" font-family="Helvetica-Light,Helvetica" font-size="24.0" fill="#FEFFFE" transform="matrix(1.00, 0.00, -0.00, -1.00, 345.5, 146.0)">K</text><text xml:space="preserve" font-family="Helvetica-Light,Helvetica" font-size="24.0" fill="#FEFFFE" transform="matrix(1.00, 0.00, -0.00, -1.00, 361.5, 146.0)">i</text><text xml:space="preserve" font-family="Helvetica-Light,Helvetica" font-size="24.0" fill="#FEFFFE" transform="matrix(1.00, 0.00, -0.00, -1.00, 366.9, 146.0)">b</text><text xml:space="preserve" font-family="Helvetica-Light,Helvetica" font-size="24.0" fill="#FEFFFE" transform="matrix(1.00, 0.00, -0.00, -1.00, 381.5, 146.0)">a</text><text xml:space="preserve" font-family="Helvetica-Light,Helvetica" font-size="24.0" fill="#FEFFFE" transform="matrix(1.00, 0.00, -0.00, -1.00, 394.9, 146.0)">n</text><text xml:space="preserve" font-family="Helvetica-Light,Helvetica" font-size="24.0" fill="#FEFFFE" transform="matrix(1.00, 0.00, -0.00, -1.00, 408.2, 146.0)">a</text><text xml:space="preserve" font-family="Helvetica-Light,Helvetica" font-size="24.0" fill="#FEFFFE" transform="matrix(1.00, 0.00, -0.00, -1.00, 421.5, 146.0)"> </text><text xml:space="preserve" font-family="Helvetica-Light,Helvetica" font-size="24.0" fill="#FEFFFE" transform="matrix(1.00, 0.00, -0.00, -1.00, 428.2, 146.0)">U</text><text xml:space="preserve" font-family="Helvetica-Light,Helvetica" font-size="24.0" fill="#FEFFFE" transform="matrix(1.00, 0.00, -0.00, -1.00, 445.5, 146.0)">I</text><text xml:space="preserve" font-family="Helvetica-Light,Helvetica" font-size="24.0" fill="#FEFFFE" transform="matrix(1.00, 0.00, -0.00, -1.00, 452.2, 146.0)"> </text><text xml:space="preserve" font-family="Helvetica-Light,Helvetica" font-size="24.0" fill="#FEFFFE" transform="matrix(1.00, 0.00, -0.00, -1.00, 458.9, 146.0)">D</text><text xml:space="preserve" font-family="Helvetica-Light,Helvetica" font-size="24.0" fill="#FEFFFE" transform="matrix(1.00, 0.00, -0.00, -1.00, 476.2, 146.0)">a</text><text xml:space="preserve" font-family="Helvetica-Light,Helvetica" font-size="24.0" fill="#FEFFFE" transform="matrix(1.00, 0.00, -0.00, -1.00, 489.6, 146.0)">s</text><text xml:space="preserve" font-family="Helvetica-Light,Helvetica" font-size="24.0" fill="#FEFFFE" transform="matrix(1.00, 0.00, -0.00, -1.00, 501.6, 146.0)">h</text><text xml:space="preserve" font-family="Helvetica-Light,Helvetica" font-size="24.0" fill="#FEFFFE" transform="matrix(1.00, 0.00, -0.00, -1.00, 514.9, 146.0)">b</text><text xml:space="preserve" font-family="Helvetica-Light,Helvetica" font-size="24.0" fill="#FEFFFE" transform="matrix(1.00, 0.00, -0.00, -1.00, 529.6, 146.0)">o</text><text xml:space="preserve" font-family="Helvetica-Light,Helvetica" font-size="24.0" fill="#FEFFFE" transform="matrix(1.00, 0.00, -0.00, -1.00, 542.9, 146.0)">a</text><text xml:space="preserve" font-family="Helvetica-Light,Helvetica" font-size="24.0" fill="#FEFFFE" transform="matrix(1.00, 0.00, -0.00, -1.00, 556.3, 146.0)">r</text><text xml:space="preserve" font-family="Helvetica-Light,Helvetica" font-size="24.0" fill="#FEFFFE" transform="matrix(1.00, 0.00, -0.00, -1.00, 563.8, 146.0)">d</text></g></g><path d="M 146.8 0.0 C 100.4 33.6 54.1 67.4 7.8 101.0 L 7.2 101.0 " fill="none" stroke="#000000" stroke-width="2.00" transform="matrix(1.00, 0.00, 0.00, -1.00, 538.8, 318.0)"></path><path d="M 544.0 221.5 L 539.0 211.9 L 549.6 213.7 Z M 544.0 221.5 " fill="#000000"></path><text xml:space="preserve" font-family="Helvetica-Light,Helvetica" font-size="22.0" fill="#000000" transform="matrix(1.00, 0.00, -0.00, -1.00, 264.7, 388.1)">M</text><text xml:space="preserve" font-family="Helvetica-Light,Helvetica" font-size="22.0" fill="#000000" transform="matrix(1.00, 0.00, -0.00, -1.00, 283.0, 388.1)">o</text><text xml:space="preserve" font-family="Helvetica-Light,Helvetica" font-size="22.0" fill="#000000" transform="matrix(1.00, 0.00, -0.00, -1.00, 295.3, 388.1)">n</text><text xml:space="preserve" font-family="Helvetica-Light,Helvetica" font-size="22.0" fill="#000000" transform="matrix(1.00, 0.00, -0.00, -1.00, 307.5, 388.1)">o</text><text xml:space="preserve" font-family="Helvetica-Light,Helvetica" font-size="22.0" fill="#000000" transform="matrix(1.00, 0.00, -0.00, -1.00, 319.7, 388.1)">l</text><text xml:space="preserve" font-family="Helvetica-Light,Helvetica" font-size="22.0" fill="#000000" transform="matrix(1.00, 0.00, -0.00, -1.00, 324.6, 388.1)">o</text><text xml:space="preserve" font-family="Helvetica-Light,Helvetica" font-size="22.0" fill="#000000" transform="matrix(1.00, 0.00, -0.00, -1.00, 336.8, 388.1)">g</text></g></svg>