<?xml version="1.0" encoding="UTF-8" standalone="no"?><svg xmlns="http://www.w3.org/2000/svg" xmlns:xlink="http://www.w3.org/1999/xlink" clip-rule="evenodd" stroke-miterlimit="10" viewBox="0 0 1024 768"><desc>SVG generated by Keynote</desc><defs></defs><g transform="matrix(1.00, 0.00, -0.00, -1.00, 0.0, 768.0)"><path d="M 0.0 768.0 L 1024.0 768.0 L 1024.0 0.0 L 0.0 0.0 Z M 0.0 768.0 " fill="#FEFFFF"></path><text xml:space="preserve" font-family="Helvetica-Light,Helvetica" font-size="64.8" fill="#000000" transform="matrix(1.00, 0.00, -0.00, -1.00, 81.7, 372.9)">P</text><text xml:space="preserve" font-family="Helvetica-Light,Helvetica" font-size="64.8" fill="#000000" transform="matrix(1.00, 0.00, -0.00, -1.00, 121.3, 372.9)">H</text><text xml:space="preserve" font-family="Helvetica-Light,Helvetica" font-size="64.8" fill="#000000" transform="matrix(1.00, 0.00, -0.00, -1.00, 168.1, 372.9)">P</text><text xml:space="preserve" font-family="Helvetica-Light,Helvetica" font-size="64.8" fill="#000000" transform="matrix(1.00, 0.00, -0.00, -1.00, 207.7, 372.9)">7</text><text xml:space="preserve" font-family="Helvetica-Light,Helvetica" font-size="64.8" fill="#000000" transform="matrix(1.00, 0.00, -0.00, -1.00, 243.7, 372.9)">:</text><text xml:space="preserve" font-family="Helvetica-Light,Helvetica" font-size="64.8" fill="#000000" transform="matrix(1.00, 0.00, -0.00, -1.00, 261.7, 372.9)"> </text><text xml:space="preserve" font-family="Helvetica-Light,Helvetica" font-size="64.8" fill="#000000" transform="matrix(1.00, 0.00, -0.00, -1.00, 279.8, 372.9)">C</text><text xml:space="preserve" font-family="Helvetica-Light,Helvetica" font-size="64.8" fill="#000000" transform="matrix(1.00, 0.00, -0.00, -1.00, 326.5, 372.9)">h</text><text xml:space="preserve" font-family="Helvetica-Light,Helvetica" font-size="64.8" fill="#000000" transform="matrix(1.00, 0.00, -0.00, -1.00, 362.6, 372.9)">e</text><text xml:space="preserve" font-family="Helvetica-Light,Helvetica" font-size="64.8" fill="#000000" transform="matrix(1.00, 0.00, -0.00, -1.00, 398.6, 372.9)">c</text><text xml:space="preserve" font-family="Helvetica-Light,Helvetica" font-size="64.8" fill="#000000" transform="matrix(1.00, 0.00, -0.00, -1.00, 434.6, 372.9)">k</text><text xml:space="preserve" font-family="Helvetica-Light,Helvetica" font-size="64.8" fill="#000000" transform="matrix(1.00, 0.00, -0.00, -1.00, 467.0, 372.9)">i</text><text xml:space="preserve" font-family="Helvetica-Light,Helvetica" font-size="64.8" fill="#000000" transform="matrix(1.00, 0.00, -0.00, -1.00, 481.4, 372.9)">n</text><text xml:space="preserve" font-family="Helvetica-Light,Helvetica" font-size="64.8" fill="#000000" transform="matrix(1.00, 0.00, -0.00, -1.00, 517.4, 372.9)">g</text><text xml:space="preserve" font-family="Helvetica-Light,Helvetica" font-size="64.8" fill="#000000" transform="matrix(1.00, 0.00, -0.00, -1.00, 557.0, 372.9)"> </text><text xml:space="preserve" font-family="Helvetica-Light,Helvetica" font-size="64.8" fill="#000000" transform="matrix(1.00, 0.00, -0.00, -1.00, 575.1, 372.9)">c</text><text xml:space="preserve" font-family="Helvetica-Light,Helvetica" font-size="64.8" fill="#000000" transform="matrix(1.00, 0.00, -0.00, -1.00, 611.1, 372.9)">o</text><text xml:space="preserve" font-family="Helvetica-Light,Helvetica" font-size="64.8" fill="#000000" transform="matrix(1.00, 0.00, -0.00, -1.00, 647.1, 372.9)">m</text><text xml:space="preserve" font-family="Helvetica-Light,Helvetica" font-size="64.8" fill="#000000" transform="matrix(1.00, 0.00, -0.00, -1.00, 701.1, 372.9)">p</text><text xml:space="preserve" font-family="Helvetica-Light,Helvetica" font-size="64.8" fill="#000000" transform="matrix(1.00, 0.00, -0.00, -1.00, 740.7, 372.9)">a</text><text xml:space="preserve" font-family="Helvetica-Light,Helvetica" font-size="64.8" fill="#000000" transform="matrix(1.00, 0.00, -0.00, -1.00, 776.7, 372.9)">t</text><text xml:space="preserve" font-family="Helvetica-Light,Helvetica" font-size="64.8" fill="#000000" transform="matrix(1.00, 0.00, -0.00, -1.00, 794.7, 372.9)">i</text><text xml:space="preserve" font-family="Helvetica-Light,Helvetica" font-size="64.8" fill="#000000" transform="matrix(1.00, 0.00, -0.00, -1.00, 809.1, 372.9)">b</text><text xml:space="preserve" font-family="Helvetica-Light,Helvetica" font-size="64.8" fill="#000000" transform="matrix(1.00, 0.00, -0.00, -1.00, 848.7, 372.9)">i</text><text xml:space="preserve" font-family="Helvetica-Light,Helvetica" font-size="64.8" fill="#000000" transform="matrix(1.00, 0.00, -0.00, -1.00, 863.1, 372.9)">l</text><text xml:space="preserve" font-family="Helvetica-Light,Helvetica" font-size="64.8" fill="#000000" transform="matrix(1.00, 0.00, -0.00, -1.00, 877.5, 372.9)">i</text><text xml:space="preserve" font-family="Helvetica-Light,Helvetica" font-size="64.8" fill="#000000" transform="matrix(1.00, 0.00, -0.00, -1.00, 891.9, 372.9)">t</text><text xml:space="preserve" font-family="Helvetica-Light,Helvetica" font-size="64.8" fill="#000000" transform="matrix(1.00, 0.00, -0.00, -1.00, 909.9, 372.9)">y</text></g></svg>