<?xml version="1.0" encoding="UTF-8" standalone="no"?><svg xmlns="http://www.w3.org/2000/svg" xmlns:xlink="http://www.w3.org/1999/xlink" clip-rule="evenodd" stroke-miterlimit="10" viewBox="0 0 1024 768"><desc>SVG generated by Keynote</desc><defs></defs><g transform="matrix(1.00, 0.00, -0.00, -1.00, 0.0, 768.0)"><path d="M 0.0 768.0 L 1024.0 768.0 L 1024.0 0.0 L 0.0 0.0 Z M 0.0 768.0 " fill="#FEFFFF"></path><text xml:space="preserve" font-family="Inconsolata-Regular,Inconsolata" font-size="33.0" fill="#2C9DDA" transform="matrix(1.00, 0.00, -0.00, -1.00, 246.5, 558.8)"> </text><text xml:space="preserve" font-family="Inconsolata-Regular,Inconsolata" font-size="33.0" fill="#2C9DDA" transform="matrix(1.00, 0.00, -0.00, -1.00, 263.0, 558.8)"> </text><text xml:space="preserve" font-family="Inconsolata-Regular,Inconsolata" font-size="33.0" fill="#2C9DDA" transform="matrix(1.00, 0.00, -0.00, -1.00, 279.5, 558.8)">1</text><text xml:space="preserve" font-family="Inconsolata-Regular,Inconsolata" font-size="33.0" fill="#2C9DDA" transform="matrix(1.00, 0.00, -0.00, -1.00, 296.0, 558.8)"> </text><text xml:space="preserve" font-family="Inconsolata-Regular,Inconsolata" font-size="33.0" fill="#96A600" transform="matrix(1.00, 0.00, -0.00, -1.00, 312.5, 558.8)">o</text><text xml:space="preserve" font-family="Inconsolata-Regular,Inconsolata" font-size="33.0" fill="#96A600" transform="matrix(1.00, 0.00, -0.00, -1.00, 329.0, 558.8)">b</text><text xml:space="preserve" font-family="Inconsolata-Regular,Inconsolata" font-size="33.0" fill="#96A600" transform="matrix(1.00, 0.00, -0.00, -1.00, 345.5, 558.8)">j</text><text xml:space="preserve" font-family="Inconsolata-Regular,Inconsolata" font-size="33.0" fill="#96A600" transform="matrix(1.00, 0.00, -0.00, -1.00, 362.0, 558.8)">e</text><text xml:space="preserve" font-family="Inconsolata-Regular,Inconsolata" font-size="33.0" fill="#96A600" transform="matrix(1.00, 0.00, -0.00, -1.00, 378.5, 558.8)">c</text><text xml:space="preserve" font-family="Inconsolata-Regular,Inconsolata" font-size="33.0" fill="#96A600" transform="matrix(1.00, 0.00, -0.00, -1.00, 395.0, 558.8)">t</text><text xml:space="preserve" font-family="Inconsolata-Regular,Inconsolata" font-size="33.0" fill="#A3B0B0" transform="matrix(1.00, 0.00, -0.00, -1.00, 411.5, 558.8)">(</text><text xml:space="preserve" font-family="Inconsolata-Regular,Inconsolata" font-size="33.0" fill="#94A4A6" transform="matrix(1.00, 0.00, -0.00, -1.00, 428.0, 558.8)">R</text><text xml:space="preserve" font-family="Inconsolata-Regular,Inconsolata" font-size="33.0" fill="#94A4A6" transform="matrix(1.00, 0.00, -0.00, -1.00, 444.5, 558.8)">e</text><text xml:space="preserve" font-family="Inconsolata-Regular,Inconsolata" font-size="33.0" fill="#94A4A6" transform="matrix(1.00, 0.00, -0.00, -1.00, 461.0, 558.8)">q</text><text xml:space="preserve" font-family="Inconsolata-Regular,Inconsolata" font-size="33.0" fill="#94A4A6" transform="matrix(1.00, 0.00, -0.00, -1.00, 477.5, 558.8)">u</text><text xml:space="preserve" font-family="Inconsolata-Regular,Inconsolata" font-size="33.0" fill="#94A4A6" transform="matrix(1.00, 0.00, -0.00, -1.00, 494.0, 558.8)">e</text><text xml:space="preserve" font-family="Inconsolata-Regular,Inconsolata" font-size="33.0" fill="#94A4A6" transform="matrix(1.00, 0.00, -0.00, -1.00, 510.5, 558.8)">s</text><text xml:space="preserve" font-family="Inconsolata-Regular,Inconsolata" font-size="33.0" fill="#94A4A6" transform="matrix(1.00, 0.00, -0.00, -1.00, 527.0, 558.8)">t</text><text xml:space="preserve" font-family="Inconsolata-Regular,Inconsolata" font-size="33.0" fill="#A3B0B0" transform="matrix(1.00, 0.00, -0.00, -1.00, 543.5, 558.8)">)</text><text xml:space="preserve" font-family="Inconsolata-Regular,Inconsolata" font-size="33.0" fill="#6A8188" transform="matrix(1.00, 0.00, -0.00, -1.00, 560.0, 558.8)">#</text><text xml:space="preserve" font-family="Inconsolata-Regular,Inconsolata" font-size="33.0" fill="#6A8188" transform="matrix(1.00, 0.00, -0.00, -1.00, 576.5, 558.8)">1</text><text xml:space="preserve" font-family="Inconsolata-Regular,Inconsolata" font-size="33.0" fill="#6A8188" transform="matrix(1.00, 0.00, -0.00, -1.00, 593.0, 558.8)"> </text><text xml:space="preserve" font-family="Inconsolata-Regular,Inconsolata" font-size="33.0" fill="#6A8188" transform="matrix(1.00, 0.00, -0.00, -1.00, 609.5, 558.8)">(</text><text xml:space="preserve" font-family="Inconsolata-Regular,Inconsolata" font-size="33.0" fill="#6A8188" transform="matrix(1.00, 0.00, -0.00, -1.00, 626.0, 558.8)">1</text><text xml:space="preserve" font-family="Inconsolata-Regular,Inconsolata" font-size="33.0" fill="#6A8188" transform="matrix(1.00, 0.00, -0.00, -1.00, 642.5, 558.8)">)</text><text xml:space="preserve" font-family="Inconsolata-Regular,Inconsolata" font-size="33.0" fill="#6A8188" transform="matrix(1.00, 0.00, -0.00, -1.00, 659.0, 558.8)"> </text><text xml:space="preserve" font-family="Inconsolata-Regular,Inconsolata" font-size="33.0" fill="#6A8188" transform="matrix(1.00, 0.00, -0.00, -1.00, 675.5, 558.8)">{</text><text xml:space="preserve" font-family="Inconsolata-Regular,Inconsolata" font-size="33.0" fill="#000000" transform="matrix(1.00, 0.00, -0.00, -1.00, 692.0, 558.8)"> </text><text xml:space="preserve" font-family="Inconsolata-Regular,Inconsolata" font-size="33.0" fill="#2C9DDA" transform="matrix(1.00, 0.00, -0.00, -1.00, 246.5, 524.8)"> </text><text xml:space="preserve" font-family="Inconsolata-Regular,Inconsolata" font-size="33.0" fill="#2C9DDA" transform="matrix(1.00, 0.00, -0.00, -1.00, 263.0, 524.8)"> </text><text xml:space="preserve" font-family="Inconsolata-Regular,Inconsolata" font-size="33.0" fill="#2C9DDA" transform="matrix(1.00, 0.00, -0.00, -1.00, 279.5, 524.8)">2</text><text xml:space="preserve" font-family="Inconsolata-Regular,Inconsolata" font-size="33.0" fill="#2C9DDA" transform="matrix(1.00, 0.00, -0.00, -1.00, 296.0, 524.8)"> </text><text xml:space="preserve" font-family="Inconsolata-Regular,Inconsolata" font-size="33.0" fill="#000000" transform="matrix(1.00, 0.00, -0.00, -1.00, 312.5, 524.8)"> </text><text xml:space="preserve" font-family="Inconsolata-Regular,Inconsolata" font-size="33.0" fill="#000000" transform="matrix(1.00, 0.00, -0.00, -1.00, 329.0, 524.8)"> </text><text xml:space="preserve" font-family="Inconsolata-Regular,Inconsolata" font-size="33.0" fill="#A3B0B0" transform="matrix(1.00, 0.00, -0.00, -1.00, 345.5, 524.8)">[</text><text xml:space="preserve" font-family="Inconsolata-Regular,Inconsolata" font-size="33.0" fill="#E5493C" transform="matrix(1.00, 0.00, -0.00, -1.00, 362.0, 524.8)">"</text><text xml:space="preserve" font-family="Inconsolata-Regular,Inconsolata" font-size="33.0" fill="#E5493C" transform="matrix(1.00, 0.00, -0.00, -1.00, 378.5, 524.8)">p</text><text xml:space="preserve" font-family="Inconsolata-Regular,Inconsolata" font-size="33.0" fill="#E5493C" transform="matrix(1.00, 0.00, -0.00, -1.00, 395.0, 524.8)">a</text><text xml:space="preserve" font-family="Inconsolata-Regular,Inconsolata" font-size="33.0" fill="#E5493C" transform="matrix(1.00, 0.00, -0.00, -1.00, 411.5, 524.8)">r</text><text xml:space="preserve" font-family="Inconsolata-Regular,Inconsolata" font-size="33.0" fill="#E5493C" transform="matrix(1.00, 0.00, -0.00, -1.00, 428.0, 524.8)">a</text><text xml:space="preserve" font-family="Inconsolata-Regular,Inconsolata" font-size="33.0" fill="#E5493C" transform="matrix(1.00, 0.00, -0.00, -1.00, 444.5, 524.8)">m</text><text xml:space="preserve" font-family="Inconsolata-Regular,Inconsolata" font-size="33.0" fill="#E5493C" transform="matrix(1.00, 0.00, -0.00, -1.00, 461.0, 524.8)">e</text><text xml:space="preserve" font-family="Inconsolata-Regular,Inconsolata" font-size="33.0" fill="#E5493C" transform="matrix(1.00, 0.00, -0.00, -1.00, 477.5, 524.8)">t</text><text xml:space="preserve" font-family="Inconsolata-Regular,Inconsolata" font-size="33.0" fill="#E5493C" transform="matrix(1.00, 0.00, -0.00, -1.00, 494.0, 524.8)">e</text><text xml:space="preserve" font-family="Inconsolata-Regular,Inconsolata" font-size="33.0" fill="#E5493C" transform="matrix(1.00, 0.00, -0.00, -1.00, 510.5, 524.8)">r</text><text xml:space="preserve" font-family="Inconsolata-Regular,Inconsolata" font-size="33.0" fill="#E5493C" transform="matrix(1.00, 0.00, -0.00, -1.00, 527.0, 524.8)">s</text><text xml:space="preserve" font-family="Inconsolata-Regular,Inconsolata" font-size="33.0" fill="#E5493C" transform="matrix(1.00, 0.00, -0.00, -1.00, 543.5, 524.8)">"</text><text xml:space="preserve" font-family="Inconsolata-Regular,Inconsolata" font-size="33.0" fill="#A3B0B0" transform="matrix(1.00, 0.00, -0.00, -1.00, 560.0, 524.8)">:</text><text xml:space="preserve" font-family="Inconsolata-Regular,Inconsolata" font-size="33.0" fill="#D6601A" transform="matrix(1.00, 0.00, -0.00, -1.00, 576.5, 524.8)">p</text><text xml:space="preserve" font-family="Inconsolata-Regular,Inconsolata" font-size="33.0" fill="#D6601A" transform="matrix(1.00, 0.00, -0.00, -1.00, 593.0, 524.8)">r</text><text xml:space="preserve" font-family="Inconsolata-Regular,Inconsolata" font-size="33.0" fill="#D6601A" transform="matrix(1.00, 0.00, -0.00, -1.00, 609.5, 524.8)">o</text><text xml:space="preserve" font-family="Inconsolata-Regular,Inconsolata" font-size="33.0" fill="#D6601A" transform="matrix(1.00, 0.00, -0.00, -1.00, 626.0, 524.8)">t</text><text xml:space="preserve" font-family="Inconsolata-Regular,Inconsolata" font-size="33.0" fill="#D6601A" transform="matrix(1.00, 0.00, -0.00, -1.00, 642.5, 524.8)">e</text><text xml:space="preserve" font-family="Inconsolata-Regular,Inconsolata" font-size="33.0" fill="#D6601A" transform="matrix(1.00, 0.00, -0.00, -1.00, 659.0, 524.8)">c</text><text xml:space="preserve" font-family="Inconsolata-Regular,Inconsolata" font-size="33.0" fill="#D6601A" transform="matrix(1.00, 0.00, -0.00, -1.00, 675.5, 524.8)">t</text><text xml:space="preserve" font-family="Inconsolata-Regular,Inconsolata" font-size="33.0" fill="#D6601A" transform="matrix(1.00, 0.00, -0.00, -1.00, 692.0, 524.8)">e</text><text xml:space="preserve" font-family="Inconsolata-Regular,Inconsolata" font-size="33.0" fill="#D6601A" transform="matrix(1.00, 0.00, -0.00, -1.00, 708.5, 524.8)">d</text><text xml:space="preserve" font-family="Inconsolata-Regular,Inconsolata" font-size="33.0" fill="#A3B0B0" transform="matrix(1.00, 0.00, -0.00, -1.00, 725.0, 524.8)">]</text><text xml:space="preserve" font-family="Inconsolata-Regular,Inconsolata" font-size="33.0" fill="#A3B0B0" transform="matrix(1.00, 0.00, -0.00, -1.00, 741.5, 524.8)">=</text><text xml:space="preserve" font-family="Inconsolata-Regular,Inconsolata" font-size="33.0" fill="#A3B0B0" transform="matrix(1.00, 0.00, -0.00, -1.00, 758.0, 524.8)">&gt;</text><text xml:space="preserve" font-family="Inconsolata-Regular,Inconsolata" font-size="33.0" fill="#000000" transform="matrix(1.00, 0.00, -0.00, -1.00, 774.5, 524.8)"> </text><text xml:space="preserve" font-family="Inconsolata-Regular,Inconsolata" font-size="33.0" fill="#2C9DDA" transform="matrix(1.00, 0.00, -0.00, -1.00, 246.5, 490.8)"> </text><text xml:space="preserve" font-family="Inconsolata-Regular,Inconsolata" font-size="33.0" fill="#2C9DDA" transform="matrix(1.00, 0.00, -0.00, -1.00, 263.0, 490.8)"> </text><text xml:space="preserve" font-family="Inconsolata-Regular,Inconsolata" font-size="33.0" fill="#2C9DDA" transform="matrix(1.00, 0.00, -0.00, -1.00, 279.5, 490.8)">3</text><text xml:space="preserve" font-family="Inconsolata-Regular,Inconsolata" font-size="33.0" fill="#2C9DDA" transform="matrix(1.00, 0.00, -0.00, -1.00, 296.0, 490.8)"> </text><text xml:space="preserve" font-family="Inconsolata-Regular,Inconsolata" font-size="33.0" fill="#000000" transform="matrix(1.00, 0.00, -0.00, -1.00, 312.5, 490.8)"> </text><text xml:space="preserve" font-family="Inconsolata-Regular,Inconsolata" font-size="33.0" fill="#000000" transform="matrix(1.00, 0.00, -0.00, -1.00, 329.0, 490.8)"> </text><text xml:space="preserve" font-family="Inconsolata-Regular,Inconsolata" font-size="33.0" fill="#D6601A" transform="matrix(1.00, 0.00, -0.00, -1.00, 345.5, 490.8)">a</text><text xml:space="preserve" font-family="Inconsolata-Regular,Inconsolata" font-size="33.0" fill="#D6601A" transform="matrix(1.00, 0.00, -0.00, -1.00, 362.0, 490.8)">r</text><text xml:space="preserve" font-family="Inconsolata-Regular,Inconsolata" font-size="33.0" fill="#D6601A" transform="matrix(1.00, 0.00, -0.00, -1.00, 378.5, 490.8)">r</text><text xml:space="preserve" font-family="Inconsolata-Regular,Inconsolata" font-size="33.0" fill="#D6601A" transform="matrix(1.00, 0.00, -0.00, -1.00, 395.0, 490.8)">a</text><text xml:space="preserve" font-family="Inconsolata-Regular,Inconsolata" font-size="33.0" fill="#D6601A" transform="matrix(1.00, 0.00, -0.00, -1.00, 411.5, 490.8)">y</text><text xml:space="preserve" font-family="Inconsolata-Regular,Inconsolata" font-size="33.0" fill="#A3B0B0" transform="matrix(1.00, 0.00, -0.00, -1.00, 428.0, 490.8)">(</text><text xml:space="preserve" font-family="Inconsolata-Regular,Inconsolata" font-size="33.0" fill="#E5493C" transform="matrix(1.00, 0.00, -0.00, -1.00, 444.5, 490.8)">2</text><text xml:space="preserve" font-family="Inconsolata-Regular,Inconsolata" font-size="33.0" fill="#A3B0B0" transform="matrix(1.00, 0.00, -0.00, -1.00, 461.0, 490.8)">)</text><text xml:space="preserve" font-family="Inconsolata-Regular,Inconsolata" font-size="33.0" fill="#A3B0B0" transform="matrix(1.00, 0.00, -0.00, -1.00, 477.5, 490.8)"> </text><text xml:space="preserve" font-family="Inconsolata-Regular,Inconsolata" font-size="33.0" fill="#A3B0B0" transform="matrix(1.00, 0.00, -0.00, -1.00, 494.0, 490.8)">{</text><text xml:space="preserve" font-family="Inconsolata-Regular,Inconsolata" font-size="33.0" fill="#000000" transform="matrix(1.00, 0.00, -0.00, -1.00, 510.5, 490.8)"> </text><text xml:space="preserve" font-family="Inconsolata-Regular,Inconsolata" font-size="33.0" fill="#2C9DDA" transform="matrix(1.00, 0.00, -0.00, -1.00, 246.5, 456.8)"> </text><text xml:space="preserve" font-family="Inconsolata-Regular,Inconsolata" font-size="33.0" fill="#2C9DDA" transform="matrix(1.00, 0.00, -0.00, -1.00, 263.0, 456.8)"> </text><text xml:space="preserve" font-family="Inconsolata-Regular,Inconsolata" font-size="33.0" fill="#2C9DDA" transform="matrix(1.00, 0.00, -0.00, -1.00, 279.5, 456.8)">4</text><text xml:space="preserve" font-family="Inconsolata-Regular,Inconsolata" font-size="33.0" fill="#2C9DDA" transform="matrix(1.00, 0.00, -0.00, -1.00, 296.0, 456.8)"> </text><text xml:space="preserve" font-family="Inconsolata-Regular,Inconsolata" font-size="33.0" fill="#000000" transform="matrix(1.00, 0.00, -0.00, -1.00, 312.5, 456.8)"> </text><text xml:space="preserve" font-family="Inconsolata-Regular,Inconsolata" font-size="33.0" fill="#000000" transform="matrix(1.00, 0.00, -0.00, -1.00, 329.0, 456.8)"> </text><text xml:space="preserve" font-family="Inconsolata-Regular,Inconsolata" font-size="33.0" fill="#000000" transform="matrix(1.00, 0.00, -0.00, -1.00, 345.5, 456.8)"> </text><text xml:space="preserve" font-family="Inconsolata-Regular,Inconsolata" font-size="33.0" fill="#000000" transform="matrix(1.00, 0.00, -0.00, -1.00, 362.0, 456.8)"> </text><text xml:space="preserve" font-family="Inconsolata-Regular,Inconsolata" font-size="33.0" fill="#A3B0B0" transform="matrix(1.00, 0.00, -0.00, -1.00, 378.5, 456.8)">[</text><text xml:space="preserve" font-family="Inconsolata-Regular,Inconsolata" font-size="33.0" fill="#E5493C" transform="matrix(1.00, 0.00, -0.00, -1.00, 395.0, 456.8)">0</text><text xml:space="preserve" font-family="Inconsolata-Regular,Inconsolata" font-size="33.0" fill="#A3B0B0" transform="matrix(1.00, 0.00, -0.00, -1.00, 411.5, 456.8)">]</text><text xml:space="preserve" font-family="Inconsolata-Regular,Inconsolata" font-size="33.0" fill="#A3B0B0" transform="matrix(1.00, 0.00, -0.00, -1.00, 428.0, 456.8)">=</text><text xml:space="preserve" font-family="Inconsolata-Regular,Inconsolata" font-size="33.0" fill="#A3B0B0" transform="matrix(1.00, 0.00, -0.00, -1.00, 444.5, 456.8)">&gt;</text><text xml:space="preserve" font-family="Inconsolata-Regular,Inconsolata" font-size="33.0" fill="#000000" transform="matrix(1.00, 0.00, -0.00, -1.00, 461.0, 456.8)"> </text><text xml:space="preserve" font-family="Inconsolata-Regular,Inconsolata" font-size="33.0" fill="#2C9DDA" transform="matrix(1.00, 0.00, -0.00, -1.00, 246.5, 422.8)"> </text><text xml:space="preserve" font-family="Inconsolata-Regular,Inconsolata" font-size="33.0" fill="#2C9DDA" transform="matrix(1.00, 0.00, -0.00, -1.00, 263.0, 422.8)"> </text><text xml:space="preserve" font-family="Inconsolata-Regular,Inconsolata" font-size="33.0" fill="#2C9DDA" transform="matrix(1.00, 0.00, -0.00, -1.00, 279.5, 422.8)">5</text><text xml:space="preserve" font-family="Inconsolata-Regular,Inconsolata" font-size="33.0" fill="#2C9DDA" transform="matrix(1.00, 0.00, -0.00, -1.00, 296.0, 422.8)"> </text><text xml:space="preserve" font-family="Inconsolata-Regular,Inconsolata" font-size="33.0" fill="#000000" transform="matrix(1.00, 0.00, -0.00, -1.00, 312.5, 422.8)"> </text><text xml:space="preserve" font-family="Inconsolata-Regular,Inconsolata" font-size="33.0" fill="#000000" transform="matrix(1.00, 0.00, -0.00, -1.00, 329.0, 422.8)"> </text><text xml:space="preserve" font-family="Inconsolata-Regular,Inconsolata" font-size="33.0" fill="#000000" transform="matrix(1.00, 0.00, -0.00, -1.00, 345.5, 422.8)"> </text><text xml:space="preserve" font-family="Inconsolata-Regular,Inconsolata" font-size="33.0" fill="#000000" transform="matrix(1.00, 0.00, -0.00, -1.00, 362.0, 422.8)"> </text><text xml:space="preserve" font-family="Inconsolata-Regular,Inconsolata" font-size="33.0" fill="#96A600" transform="matrix(1.00, 0.00, -0.00, -1.00, 378.5, 422.8)">s</text><text xml:space="preserve" font-family="Inconsolata-Regular,Inconsolata" font-size="33.0" fill="#96A600" transform="matrix(1.00, 0.00, -0.00, -1.00, 395.0, 422.8)">t</text><text xml:space="preserve" font-family="Inconsolata-Regular,Inconsolata" font-size="33.0" fill="#96A600" transform="matrix(1.00, 0.00, -0.00, -1.00, 411.5, 422.8)">r</text><text xml:space="preserve" font-family="Inconsolata-Regular,Inconsolata" font-size="33.0" fill="#96A600" transform="matrix(1.00, 0.00, -0.00, -1.00, 428.0, 422.8)">i</text><text xml:space="preserve" font-family="Inconsolata-Regular,Inconsolata" font-size="33.0" fill="#96A600" transform="matrix(1.00, 0.00, -0.00, -1.00, 444.5, 422.8)">n</text><text xml:space="preserve" font-family="Inconsolata-Regular,Inconsolata" font-size="33.0" fill="#96A600" transform="matrix(1.00, 0.00, -0.00, -1.00, 461.0, 422.8)">g</text><text xml:space="preserve" font-family="Inconsolata-Regular,Inconsolata" font-size="33.0" fill="#A3B0B0" transform="matrix(1.00, 0.00, -0.00, -1.00, 477.5, 422.8)">(</text><text xml:space="preserve" font-family="Inconsolata-Regular,Inconsolata" font-size="33.0" fill="#E5493C" transform="matrix(1.00, 0.00, -0.00, -1.00, 494.0, 422.8)">5</text><text xml:space="preserve" font-family="Inconsolata-Regular,Inconsolata" font-size="33.0" fill="#A3B0B0" transform="matrix(1.00, 0.00, -0.00, -1.00, 510.5, 422.8)">)</text><text xml:space="preserve" font-family="Inconsolata-Regular,Inconsolata" font-size="33.0" fill="#000000" transform="matrix(1.00, 0.00, -0.00, -1.00, 527.0, 422.8)"> </text><text xml:space="preserve" font-family="Inconsolata-Regular,Inconsolata" font-size="33.0" fill="#E5493C" transform="matrix(1.00, 0.00, -0.00, -1.00, 543.5, 422.8)">"</text><text xml:space="preserve" font-family="Inconsolata-Regular,Inconsolata" font-size="33.0" fill="#E5493C" transform="matrix(1.00, 0.00, -0.00, -1.00, 560.0, 422.8)">h</text><text xml:space="preserve" font-family="Inconsolata-Regular,Inconsolata" font-size="33.0" fill="#E5493C" transform="matrix(1.00, 0.00, -0.00, -1.00, 576.5, 422.8)">e</text><text xml:space="preserve" font-family="Inconsolata-Regular,Inconsolata" font-size="33.0" fill="#E5493C" transform="matrix(1.00, 0.00, -0.00, -1.00, 593.0, 422.8)">l</text><text xml:space="preserve" font-family="Inconsolata-Regular,Inconsolata" font-size="33.0" fill="#E5493C" transform="matrix(1.00, 0.00, -0.00, -1.00, 609.5, 422.8)">l</text><text xml:space="preserve" font-family="Inconsolata-Regular,Inconsolata" font-size="33.0" fill="#E5493C" transform="matrix(1.00, 0.00, -0.00, -1.00, 626.0, 422.8)">o</text><text xml:space="preserve" font-family="Inconsolata-Regular,Inconsolata" font-size="33.0" fill="#E5493C" transform="matrix(1.00, 0.00, -0.00, -1.00, 642.5, 422.8)">"</text><text xml:space="preserve" font-family="Inconsolata-Regular,Inconsolata" font-size="33.0" fill="#000000" transform="matrix(1.00, 0.00, -0.00, -1.00, 659.0, 422.8)"> </text><text xml:space="preserve" font-family="Inconsolata-Regular,Inconsolata" font-size="33.0" fill="#2C9DDA" transform="matrix(1.00, 0.00, -0.00, -1.00, 246.5, 388.8)"> </text><text xml:space="preserve" font-family="Inconsolata-Regular,Inconsolata" font-size="33.0" fill="#2C9DDA" transform="matrix(1.00, 0.00, -0.00, -1.00, 263.0, 388.8)"> </text><text xml:space="preserve" font-family="Inconsolata-Regular,Inconsolata" font-size="33.0" fill="#2C9DDA" transform="matrix(1.00, 0.00, -0.00, -1.00, 279.5, 388.8)">6</text><text xml:space="preserve" font-family="Inconsolata-Regular,Inconsolata" font-size="33.0" fill="#2C9DDA" transform="matrix(1.00, 0.00, -0.00, -1.00, 296.0, 388.8)"> </text><text xml:space="preserve" font-family="Inconsolata-Regular,Inconsolata" font-size="33.0" fill="#000000" transform="matrix(1.00, 0.00, -0.00, -1.00, 312.5, 388.8)"> </text><text xml:space="preserve" font-family="Inconsolata-Regular,Inconsolata" font-size="33.0" fill="#000000" transform="matrix(1.00, 0.00, -0.00, -1.00, 329.0, 388.8)"> </text><text xml:space="preserve" font-family="Inconsolata-Regular,Inconsolata" font-size="33.0" fill="#000000" transform="matrix(1.00, 0.00, -0.00, -1.00, 345.5, 388.8)"> </text><text xml:space="preserve" font-family="Inconsolata-Regular,Inconsolata" font-size="33.0" fill="#000000" transform="matrix(1.00, 0.00, -0.00, -1.00, 362.0, 388.8)"> </text><text xml:space="preserve" font-family="Inconsolata-Regular,Inconsolata" font-size="33.0" fill="#A3B0B0" transform="matrix(1.00, 0.00, -0.00, -1.00, 378.5, 388.8)">[</text><text xml:space="preserve" font-family="Inconsolata-Regular,Inconsolata" font-size="33.0" fill="#E5493C" transform="matrix(1.00, 0.00, -0.00, -1.00, 395.0, 388.8)">1</text><text xml:space="preserve" font-family="Inconsolata-Regular,Inconsolata" font-size="33.0" fill="#A3B0B0" transform="matrix(1.00, 0.00, -0.00, -1.00, 411.5, 388.8)">]</text><text xml:space="preserve" font-family="Inconsolata-Regular,Inconsolata" font-size="33.0" fill="#A3B0B0" transform="matrix(1.00, 0.00, -0.00, -1.00, 428.0, 388.8)">=</text><text xml:space="preserve" font-family="Inconsolata-Regular,Inconsolata" font-size="33.0" fill="#A3B0B0" transform="matrix(1.00, 0.00, -0.00, -1.00, 444.5, 388.8)">&gt;</text><text xml:space="preserve" font-family="Inconsolata-Regular,Inconsolata" font-size="33.0" fill="#000000" transform="matrix(1.00, 0.00, -0.00, -1.00, 461.0, 388.8)"> </text><text xml:space="preserve" font-family="Inconsolata-Regular,Inconsolata" font-size="33.0" fill="#2C9DDA" transform="matrix(1.00, 0.00, -0.00, -1.00, 246.5, 354.8)"> </text><text xml:space="preserve" font-family="Inconsolata-Regular,Inconsolata" font-size="33.0" fill="#2C9DDA" transform="matrix(1.00, 0.00, -0.00, -1.00, 263.0, 354.8)"> </text><text xml:space="preserve" font-family="Inconsolata-Regular,Inconsolata" font-size="33.0" fill="#2C9DDA" transform="matrix(1.00, 0.00, -0.00, -1.00, 279.5, 354.8)">7</text><text xml:space="preserve" font-family="Inconsolata-Regular,Inconsolata" font-size="33.0" fill="#2C9DDA" transform="matrix(1.00, 0.00, -0.00, -1.00, 296.0, 354.8)"> </text><text xml:space="preserve" font-family="Inconsolata-Regular,Inconsolata" font-size="33.0" fill="#000000" transform="matrix(1.00, 0.00, -0.00, -1.00, 312.5, 354.8)"> </text><text xml:space="preserve" font-family="Inconsolata-Regular,Inconsolata" font-size="33.0" fill="#000000" transform="matrix(1.00, 0.00, -0.00, -1.00, 329.0, 354.8)"> </text><text xml:space="preserve" font-family="Inconsolata-Regular,Inconsolata" font-size="33.0" fill="#000000" transform="matrix(1.00, 0.00, -0.00, -1.00, 345.5, 354.8)"> </text><text xml:space="preserve" font-family="Inconsolata-Regular,Inconsolata" font-size="33.0" fill="#000000" transform="matrix(1.00, 0.00, -0.00, -1.00, 362.0, 354.8)"> </text><text xml:space="preserve" font-family="Inconsolata-Regular,Inconsolata" font-size="33.0" fill="#96A600" transform="matrix(1.00, 0.00, -0.00, -1.00, 378.5, 354.8)">s</text><text xml:space="preserve" font-family="Inconsolata-Regular,Inconsolata" font-size="33.0" fill="#96A600" transform="matrix(1.00, 0.00, -0.00, -1.00, 395.0, 354.8)">t</text><text xml:space="preserve" font-family="Inconsolata-Regular,Inconsolata" font-size="33.0" fill="#96A600" transform="matrix(1.00, 0.00, -0.00, -1.00, 411.5, 354.8)">r</text><text xml:space="preserve" font-family="Inconsolata-Regular,Inconsolata" font-size="33.0" fill="#96A600" transform="matrix(1.00, 0.00, -0.00, -1.00, 428.0, 354.8)">i</text><text xml:space="preserve" font-family="Inconsolata-Regular,Inconsolata" font-size="33.0" fill="#96A600" transform="matrix(1.00, 0.00, -0.00, -1.00, 444.5, 354.8)">n</text><text xml:space="preserve" font-family="Inconsolata-Regular,Inconsolata" font-size="33.0" fill="#96A600" transform="matrix(1.00, 0.00, -0.00, -1.00, 461.0, 354.8)">g</text><text xml:space="preserve" font-family="Inconsolata-Regular,Inconsolata" font-size="33.0" fill="#A3B0B0" transform="matrix(1.00, 0.00, -0.00, -1.00, 477.5, 354.8)">(</text><text xml:space="preserve" font-family="Inconsolata-Regular,Inconsolata" font-size="33.0" fill="#E5493C" transform="matrix(1.00, 0.00, -0.00, -1.00, 494.0, 354.8)">7</text><text xml:space="preserve" font-family="Inconsolata-Regular,Inconsolata" font-size="33.0" fill="#A3B0B0" transform="matrix(1.00, 0.00, -0.00, -1.00, 510.5, 354.8)">)</text><text xml:space="preserve" font-family="Inconsolata-Regular,Inconsolata" font-size="33.0" fill="#000000" transform="matrix(1.00, 0.00, -0.00, -1.00, 527.0, 354.8)"> </text><text xml:space="preserve" font-family="Inconsolata-Regular,Inconsolata" font-size="33.0" fill="#E5493C" transform="matrix(1.00, 0.00, -0.00, -1.00, 543.5, 354.8)">"</text><text xml:space="preserve" font-family="Inconsolata-Regular,Inconsolata" font-size="33.0" fill="#E5493C" transform="matrix(1.00, 0.00, -0.00, -1.00, 560.0, 354.8)">p</text><text xml:space="preserve" font-family="Inconsolata-Regular,Inconsolata" font-size="33.0" fill="#E5493C" transform="matrix(1.00, 0.00, -0.00, -1.00, 576.5, 354.8)">h</text><text xml:space="preserve" font-family="Inconsolata-Regular,Inconsolata" font-size="33.0" fill="#E5493C" transform="matrix(1.00, 0.00, -0.00, -1.00, 593.0, 354.8)">p</text><text xml:space="preserve" font-family="Inconsolata-Regular,Inconsolata" font-size="33.0" fill="#E5493C" transform="matrix(1.00, 0.00, -0.00, -1.00, 609.5, 354.8)">k</text><text xml:space="preserve" font-family="Inconsolata-Regular,Inconsolata" font-size="33.0" fill="#E5493C" transform="matrix(1.00, 0.00, -0.00, -1.00, 626.0, 354.8)">o</text><text xml:space="preserve" font-family="Inconsolata-Regular,Inconsolata" font-size="33.0" fill="#E5493C" transform="matrix(1.00, 0.00, -0.00, -1.00, 642.5, 354.8)">n</text><text xml:space="preserve" font-family="Inconsolata-Regular,Inconsolata" font-size="33.0" fill="#E5493C" transform="matrix(1.00, 0.00, -0.00, -1.00, 659.0, 354.8)">f</text><text xml:space="preserve" font-family="Inconsolata-Regular,Inconsolata" font-size="33.0" fill="#E5493C" transform="matrix(1.00, 0.00, -0.00, -1.00, 675.5, 354.8)">"</text><text xml:space="preserve" font-family="Inconsolata-Regular,Inconsolata" font-size="33.0" fill="#000000" transform="matrix(1.00, 0.00, -0.00, -1.00, 692.0, 354.8)"> </text><text xml:space="preserve" font-family="Inconsolata-Regular,Inconsolata" font-size="33.0" fill="#2C9DDA" transform="matrix(1.00, 0.00, -0.00, -1.00, 246.5, 320.8)"> </text><text xml:space="preserve" font-family="Inconsolata-Regular,Inconsolata" font-size="33.0" fill="#2C9DDA" transform="matrix(1.00, 0.00, -0.00, -1.00, 263.0, 320.8)"> </text><text xml:space="preserve" font-family="Inconsolata-Regular,Inconsolata" font-size="33.0" fill="#2C9DDA" transform="matrix(1.00, 0.00, -0.00, -1.00, 279.5, 320.8)">8</text><text xml:space="preserve" font-family="Inconsolata-Regular,Inconsolata" font-size="33.0" fill="#2C9DDA" transform="matrix(1.00, 0.00, -0.00, -1.00, 296.0, 320.8)"> </text><text xml:space="preserve" font-family="Inconsolata-Regular,Inconsolata" font-size="33.0" fill="#000000" transform="matrix(1.00, 0.00, -0.00, -1.00, 312.5, 320.8)"> </text><text xml:space="preserve" font-family="Inconsolata-Regular,Inconsolata" font-size="33.0" fill="#000000" transform="matrix(1.00, 0.00, -0.00, -1.00, 329.0, 320.8)"> </text><text xml:space="preserve" font-family="Inconsolata-Regular,Inconsolata" font-size="33.0" fill="#A3B0B0" transform="matrix(1.00, 0.00, -0.00, -1.00, 345.5, 320.8)">}</text><text xml:space="preserve" font-family="Inconsolata-Regular,Inconsolata" font-size="33.0" fill="#000000" transform="matrix(1.00, 0.00, -0.00, -1.00, 362.0, 320.8)"> </text><text xml:space="preserve" font-family="Inconsolata-Regular,Inconsolata" font-size="33.0" fill="#2C9DDA" transform="matrix(1.00, 0.00, -0.00, -1.00, 246.5, 286.8)"> </text><text xml:space="preserve" font-family="Inconsolata-Regular,Inconsolata" font-size="33.0" fill="#2C9DDA" transform="matrix(1.00, 0.00, -0.00, -1.00, 263.0, 286.8)"> </text><text xml:space="preserve" font-family="Inconsolata-Regular,Inconsolata" font-size="33.0" fill="#2C9DDA" transform="matrix(1.00, 0.00, -0.00, -1.00, 279.5, 286.8)">9</text><text xml:space="preserve" font-family="Inconsolata-Regular,Inconsolata" font-size="33.0" fill="#2C9DDA" transform="matrix(1.00, 0.00, -0.00, -1.00, 296.0, 286.8)"> </text><text xml:space="preserve" font-family="Inconsolata-Regular,Inconsolata" font-size="33.0" fill="#A3B0B0" transform="matrix(1.00, 0.00, -0.00, -1.00, 312.5, 286.8)">}</text><text xml:space="preserve" font-family="Inconsolata-Regular,Inconsolata" font-size="33.0" fill="#000000" transform="matrix(1.00, 0.00, -0.00, -1.00, 329.0, 286.8)"> </text><text xml:space="preserve" font-family="Inconsolata-Regular,Inconsolata" font-size="33.0" fill="#2C9DDA" transform="matrix(1.00, 0.00, -0.00, -1.00, 246.5, 252.8)"> </text><text xml:space="preserve" font-family="Inconsolata-Regular,Inconsolata" font-size="33.0" fill="#2C9DDA" transform="matrix(1.00, 0.00, -0.00, -1.00, 263.0, 252.8)">1</text><text xml:space="preserve" font-family="Inconsolata-Regular,Inconsolata" font-size="33.0" fill="#2C9DDA" transform="matrix(1.00, 0.00, -0.00, -1.00, 279.5, 252.8)">0</text><text xml:space="preserve" font-family="Inconsolata-Regular,Inconsolata" font-size="33.0" fill="#2C9DDA" transform="matrix(1.00, 0.00, -0.00, -1.00, 296.0, 252.8)"> </text><text xml:space="preserve" font-family="Inconsolata-Regular,Inconsolata" font-size="33.0" fill="#000000" transform="matrix(1.00, 0.00, -0.00, -1.00, 312.5, 252.8)"> </text><text xml:space="preserve" font-family="Helvetica-Light,Helvetica" font-size="80.0" fill="#000000" transform="matrix(1.00, 0.00, -0.00, -1.00, 256.4, 676.6)">M</text><text xml:space="preserve" font-family="Helvetica-Light,Helvetica" font-size="80.0" fill="#000000" transform="matrix(1.00, 0.00, -0.00, -1.00, 323.0, 676.6)">u</text><text xml:space="preserve" font-family="Helvetica-Light,Helvetica" font-size="80.0" fill="#000000" transform="matrix(1.00, 0.00, -0.00, -1.00, 367.5, 676.6)">t</text><text xml:space="preserve" font-family="Helvetica-Light,Helvetica" font-size="80.0" fill="#000000" transform="matrix(1.00, 0.00, -0.00, -1.00, 389.7, 676.6)">a</text><text xml:space="preserve" font-family="Helvetica-Light,Helvetica" font-size="80.0" fill="#000000" transform="matrix(1.00, 0.00, -0.00, -1.00, 434.2, 676.6)">b</text><text xml:space="preserve" font-family="Helvetica-Light,Helvetica" font-size="80.0" fill="#000000" transform="matrix(1.00, 0.00, -0.00, -1.00, 483.1, 676.6)">l</text><text xml:space="preserve" font-family="Helvetica-Light,Helvetica" font-size="80.0" fill="#000000" transform="matrix(1.00, 0.00, -0.00, -1.00, 500.8, 676.6)">e</text><text xml:space="preserve" font-family="Helvetica-Light,Helvetica" font-size="80.0" fill="#000000" transform="matrix(1.00, 0.00, -0.00, -1.00, 545.3, 676.6)"> </text><text xml:space="preserve" font-family="Helvetica-Light,Helvetica" font-size="80.0" fill="#000000" transform="matrix(1.00, 0.00, -0.00, -1.00, 567.6, 676.6)">O</text><text xml:space="preserve" font-family="Helvetica-Light,Helvetica" font-size="80.0" fill="#000000" transform="matrix(1.00, 0.00, -0.00, -1.00, 629.8, 676.6)">b</text><text xml:space="preserve" font-family="Helvetica-Light,Helvetica" font-size="80.0" fill="#000000" transform="matrix(1.00, 0.00, -0.00, -1.00, 678.7, 676.6)">j</text><text xml:space="preserve" font-family="Helvetica-Light,Helvetica" font-size="80.0" fill="#000000" transform="matrix(1.00, 0.00, -0.00, -1.00, 696.4, 676.6)">e</text><text xml:space="preserve" font-family="Helvetica-Light,Helvetica" font-size="80.0" fill="#000000" transform="matrix(1.00, 0.00, -0.00, -1.00, 740.9, 676.6)">c</text><text xml:space="preserve" font-family="Helvetica-Light,Helvetica" font-size="80.0" fill="#000000" transform="matrix(1.00, 0.00, -0.00, -1.00, 785.4, 676.6)">t</text></g></svg>