<?xml version="1.0" encoding="UTF-8" standalone="no"?><svg xmlns="http://www.w3.org/2000/svg" xmlns:xlink="http://www.w3.org/1999/xlink" clip-rule="evenodd" stroke-miterlimit="10" viewBox="0 0 501 42"><desc>SVG generated by Keynote</desc><defs></defs><g transform="matrix(1.00, 0.00, -0.00, -1.00, 0.0, 42.0)"><text xml:space="preserve" font-family="Helvetica-Light,Helvetica" font-size="40.5" fill="#000000" transform="matrix(1.00, 0.00, -0.00, -1.00, -0.5, 10.2)">S</text><text xml:space="preserve" font-family="Helvetica-Light,Helvetica" font-size="40.5" fill="#000000" transform="matrix(1.00, 0.00, -0.00, -1.00, 24.2, 10.2)">i</text><text xml:space="preserve" font-family="Helvetica-Light,Helvetica" font-size="40.5" fill="#000000" transform="matrix(1.00, 0.00, -0.00, -1.00, 33.2, 10.2)">d</text><text xml:space="preserve" font-family="Helvetica-Light,Helvetica" font-size="40.5" fill="#000000" transform="matrix(1.00, 0.00, -0.00, -1.00, 57.9, 10.2)">e</text><text xml:space="preserve" font-family="Helvetica-Light,Helvetica" font-size="40.5" fill="#000000" transform="matrix(1.00, 0.00, -0.00, -1.00, 80.4, 10.2)">-</text><text xml:space="preserve" font-family="Helvetica-Light,Helvetica" font-size="40.5" fill="#000000" transform="matrix(1.00, 0.00, -0.00, -1.00, 93.9, 10.2)">e</text><text xml:space="preserve" font-family="Helvetica-Light,Helvetica" font-size="40.5" fill="#000000" transform="matrix(1.00, 0.00, -0.00, -1.00, 116.4, 10.2)">f</text><text xml:space="preserve" font-family="Helvetica-Light,Helvetica" font-size="40.5" fill="#000000" transform="matrix(1.00, 0.00, -0.00, -1.00, 126.9, 10.2)">f</text><text xml:space="preserve" font-family="Helvetica-Light,Helvetica" font-size="40.5" fill="#000000" transform="matrix(1.00, 0.00, -0.00, -1.00, 138.2, 10.2)">e</text><text xml:space="preserve" font-family="Helvetica-Light,Helvetica" font-size="40.5" fill="#000000" transform="matrix(1.00, 0.00, -0.00, -1.00, 160.7, 10.2)">c</text><text xml:space="preserve" font-family="Helvetica-Light,Helvetica" font-size="40.5" fill="#000000" transform="matrix(1.00, 0.00, -0.00, -1.00, 183.2, 10.2)">t</text><text xml:space="preserve" font-family="Helvetica-Light,Helvetica" font-size="40.5" fill="#000000" transform="matrix(1.00, 0.00, -0.00, -1.00, 194.4, 10.2)"> </text><text xml:space="preserve" font-family="Helvetica-Light,Helvetica" font-size="40.5" fill="#000000" transform="matrix(1.00, 0.00, -0.00, -1.00, 205.7, 10.2)">f</text><text xml:space="preserve" font-family="Helvetica-Light,Helvetica" font-size="40.5" fill="#000000" transform="matrix(1.00, 0.00, -0.00, -1.00, 216.9, 10.2)">r</text><text xml:space="preserve" font-family="Helvetica-Light,Helvetica" font-size="40.5" fill="#000000" transform="matrix(1.00, 0.00, -0.00, -1.00, 229.7, 10.2)">e</text><text xml:space="preserve" font-family="Helvetica-Light,Helvetica" font-size="40.5" fill="#000000" transform="matrix(1.00, 0.00, -0.00, -1.00, 252.2, 10.2)">e</text><text xml:space="preserve" font-family="Helvetica-Light,Helvetica" font-size="40.5" fill="#000000" transform="matrix(1.00, 0.00, -0.00, -1.00, 274.7, 10.2)"> </text><text xml:space="preserve" font-family="Helvetica-Light,Helvetica" font-size="40.5" fill="#000000" transform="matrix(1.00, 0.00, -0.00, -1.00, 285.9, 10.2)">(</text><text xml:space="preserve" font-family="Helvetica-Light,Helvetica" font-size="40.5" fill="#000000" transform="matrix(1.00, 0.00, -0.00, -1.00, 299.4, 10.2)">i</text><text xml:space="preserve" font-family="Helvetica-Light,Helvetica" font-size="40.5" fill="#000000" transform="matrix(1.00, 0.00, -0.00, -1.00, 308.4, 10.2)">m</text><text xml:space="preserve" font-family="Helvetica-Light,Helvetica" font-size="40.5" fill="#000000" transform="matrix(1.00, 0.00, -0.00, -1.00, 342.1, 10.2)">m</text><text xml:space="preserve" font-family="Helvetica-Light,Helvetica" font-size="40.5" fill="#000000" transform="matrix(1.00, 0.00, -0.00, -1.00, 375.8, 10.2)">u</text><text xml:space="preserve" font-family="Helvetica-Light,Helvetica" font-size="40.5" fill="#000000" transform="matrix(1.00, 0.00, -0.00, -1.00, 398.3, 10.2)">t</text><text xml:space="preserve" font-family="Helvetica-Light,Helvetica" font-size="40.5" fill="#000000" transform="matrix(1.00, 0.00, -0.00, -1.00, 409.6, 10.2)">a</text><text xml:space="preserve" font-family="Helvetica-Light,Helvetica" font-size="40.5" fill="#000000" transform="matrix(1.00, 0.00, -0.00, -1.00, 432.1, 10.2)">b</text><text xml:space="preserve" font-family="Helvetica-Light,Helvetica" font-size="40.5" fill="#000000" transform="matrix(1.00, 0.00, -0.00, -1.00, 456.8, 10.2)">l</text><text xml:space="preserve" font-family="Helvetica-Light,Helvetica" font-size="40.5" fill="#000000" transform="matrix(1.00, 0.00, -0.00, -1.00, 465.8, 10.2)">e</text><text xml:space="preserve" font-family="Helvetica-Light,Helvetica" font-size="40.5" fill="#000000" transform="matrix(1.00, 0.00, -0.00, -1.00, 488.3, 10.2)">)</text></g></svg>