<?xml version="1.0" encoding="UTF-8" standalone="no"?><svg xmlns="http://www.w3.org/2000/svg" xmlns:xlink="http://www.w3.org/1999/xlink" clip-rule="evenodd" stroke-miterlimit="10" viewBox="0 0 801 90"><desc>SVG generated by Keynote</desc><defs></defs><g transform="matrix(1.00, 0.00, -0.00, -1.00, 0.0, 90.0)"><text xml:space="preserve" font-family="Helvetica-Light,Helvetica" font-size="40.5" fill="#000000" transform="matrix(1.00, 0.00, -0.00, -1.00, -0.3, 58.2)">S</text><text xml:space="preserve" font-family="Helvetica-Light,Helvetica" font-size="40.5" fill="#000000" transform="matrix(1.00, 0.00, -0.00, -1.00, 24.4, 58.2)">t</text><text xml:space="preserve" font-family="Helvetica-Light,Helvetica" font-size="40.5" fill="#000000" transform="matrix(1.00, 0.00, -0.00, -1.00, 35.7, 58.2)">r</text><text xml:space="preserve" font-family="Helvetica-Light,Helvetica" font-size="40.5" fill="#000000" transform="matrix(1.00, 0.00, -0.00, -1.00, 48.4, 58.2)">o</text><text xml:space="preserve" font-family="Helvetica-Light,Helvetica" font-size="40.5" fill="#000000" transform="matrix(1.00, 0.00, -0.00, -1.00, 70.9, 58.2)">n</text><text xml:space="preserve" font-family="Helvetica-Light,Helvetica" font-size="40.5" fill="#000000" transform="matrix(1.00, 0.00, -0.00, -1.00, 93.4, 58.2)">g</text><text xml:space="preserve" font-family="Helvetica-Light,Helvetica" font-size="40.5" fill="#000000" transform="matrix(1.00, 0.00, -0.00, -1.00, 118.2, 58.2)"> </text><text xml:space="preserve" font-family="Helvetica-Light,Helvetica" font-size="40.5" fill="#000000" transform="matrix(1.00, 0.00, -0.00, -1.00, 129.4, 58.2)">b</text><text xml:space="preserve" font-family="Helvetica-Light,Helvetica" font-size="40.5" fill="#000000" transform="matrix(1.00, 0.00, -0.00, -1.00, 154.1, 58.2)">u</text><text xml:space="preserve" font-family="Helvetica-Light,Helvetica" font-size="40.5" fill="#000000" transform="matrix(1.00, 0.00, -0.00, -1.00, 176.6, 58.2)">s</text><text xml:space="preserve" font-family="Helvetica-Light,Helvetica" font-size="40.5" fill="#000000" transform="matrix(1.00, 0.00, -0.00, -1.00, 196.9, 58.2)">i</text><text xml:space="preserve" font-family="Helvetica-Light,Helvetica" font-size="40.5" fill="#000000" transform="matrix(1.00, 0.00, -0.00, -1.00, 205.9, 58.2)">n</text><text xml:space="preserve" font-family="Helvetica-Light,Helvetica" font-size="40.5" fill="#000000" transform="matrix(1.00, 0.00, -0.00, -1.00, 228.4, 58.2)">e</text><text xml:space="preserve" font-family="Helvetica-Light,Helvetica" font-size="40.5" fill="#000000" transform="matrix(1.00, 0.00, -0.00, -1.00, 250.9, 58.2)">s</text><text xml:space="preserve" font-family="Helvetica-Light,Helvetica" font-size="40.5" fill="#000000" transform="matrix(1.00, 0.00, -0.00, -1.00, 271.1, 58.2)">s</text><text xml:space="preserve" font-family="Helvetica-Light,Helvetica" font-size="40.5" fill="#000000" transform="matrix(1.00, 0.00, -0.00, -1.00, 291.3, 58.2)"> </text><text xml:space="preserve" font-family="Helvetica-Light,Helvetica" font-size="40.5" fill="#000000" transform="matrix(1.00, 0.00, -0.00, -1.00, 302.6, 58.2)">t</text><text xml:space="preserve" font-family="Helvetica-Light,Helvetica" font-size="40.5" fill="#000000" transform="matrix(1.00, 0.00, -0.00, -1.00, 313.8, 58.2)">y</text><text xml:space="preserve" font-family="Helvetica-Light,Helvetica" font-size="40.5" fill="#000000" transform="matrix(1.00, 0.00, -0.00, -1.00, 334.1, 58.2)">p</text><text xml:space="preserve" font-family="Helvetica-Light,Helvetica" font-size="40.5" fill="#000000" transform="matrix(1.00, 0.00, -0.00, -1.00, 358.8, 58.2)">e</text><text xml:space="preserve" font-family="Helvetica-Light,Helvetica" font-size="40.5" fill="#000000" transform="matrix(1.00, 0.00, -0.00, -1.00, 381.3, 58.2)">s</text><text xml:space="preserve" font-family="Helvetica-Light,Helvetica" font-size="40.5" fill="#000000" transform="matrix(1.00, 0.00, -0.00, -1.00, 401.5, 58.2)">,</text><text xml:space="preserve" font-family="Helvetica-Light,Helvetica" font-size="40.5" fill="#000000" transform="matrix(1.00, 0.00, -0.00, -1.00, 412.8, 58.2)"> </text><text xml:space="preserve" font-family="Helvetica-Light,Helvetica" font-size="40.5" fill="#000000" transform="matrix(1.00, 0.00, -0.00, -1.00, 424.0, 58.2)">v</text><text xml:space="preserve" font-family="Helvetica-Light,Helvetica" font-size="40.5" fill="#000000" transform="matrix(1.00, 0.00, -0.00, -1.00, 444.3, 58.2)">e</text><text xml:space="preserve" font-family="Helvetica-Light,Helvetica" font-size="40.5" fill="#000000" transform="matrix(1.00, 0.00, -0.00, -1.00, 466.8, 58.2)">r</text><text xml:space="preserve" font-family="Helvetica-Light,Helvetica" font-size="40.5" fill="#000000" transform="matrix(1.00, 0.00, -0.00, -1.00, 480.2, 58.2)">s</text><text xml:space="preserve" font-family="Helvetica-Light,Helvetica" font-size="40.5" fill="#000000" transform="matrix(1.00, 0.00, -0.00, -1.00, 500.5, 58.2)">u</text><text xml:space="preserve" font-family="Helvetica-Light,Helvetica" font-size="40.5" fill="#000000" transform="matrix(1.00, 0.00, -0.00, -1.00, 523.0, 58.2)">s</text><text xml:space="preserve" font-family="Helvetica-Light,Helvetica" font-size="40.5" fill="#000000" transform="matrix(1.00, 0.00, -0.00, -1.00, 543.2, 58.2)"> </text><text xml:space="preserve" font-family="Helvetica-Light,Helvetica" font-size="40.5" fill="#000000" transform="matrix(1.00, 0.00, -0.00, -1.00, 554.5, 58.2)">d</text><text xml:space="preserve" font-family="Helvetica-Light,Helvetica" font-size="40.5" fill="#000000" transform="matrix(1.00, 0.00, -0.00, -1.00, 579.2, 58.2)">y</text><text xml:space="preserve" font-family="Helvetica-Light,Helvetica" font-size="40.5" fill="#000000" transform="matrix(1.00, 0.00, -0.00, -1.00, 599.4, 58.2)">n</text><text xml:space="preserve" font-family="Helvetica-Light,Helvetica" font-size="40.5" fill="#000000" transform="matrix(1.00, 0.00, -0.00, -1.00, 621.9, 58.2)">a</text><text xml:space="preserve" font-family="Helvetica-Light,Helvetica" font-size="40.5" fill="#000000" transform="matrix(1.00, 0.00, -0.00, -1.00, 644.4, 58.2)">m</text><text xml:space="preserve" font-family="Helvetica-Light,Helvetica" font-size="40.5" fill="#000000" transform="matrix(1.00, 0.00, -0.00, -1.00, 678.1, 58.2)">i</text><text xml:space="preserve" font-family="Helvetica-Light,Helvetica" font-size="40.5" fill="#000000" transform="matrix(1.00, 0.00, -0.00, -1.00, 687.1, 58.2)">c</text><text xml:space="preserve" font-family="Helvetica-Light,Helvetica" font-size="40.5" fill="#000000" transform="matrix(1.00, 0.00, -0.00, -1.00, 709.6, 58.2)"> </text><text xml:space="preserve" font-family="Helvetica-Light,Helvetica" font-size="40.5" fill="#000000" transform="matrix(1.00, 0.00, -0.00, -1.00, 720.9, 58.2)">P</text><text xml:space="preserve" font-family="Helvetica-Light,Helvetica" font-size="40.5" fill="#000000" transform="matrix(1.00, 0.00, -0.00, -1.00, 745.6, 58.2)">H</text><text xml:space="preserve" font-family="Helvetica-Light,Helvetica" font-size="40.5" fill="#000000" transform="matrix(1.00, 0.00, -0.00, -1.00, 774.8, 58.2)">P</text><text xml:space="preserve" font-family="Helvetica-Light,Helvetica" font-size="40.5" fill="#000000" transform="matrix(1.00, 0.00, -0.00, -1.00, 799.6, 58.2)"> </text><text xml:space="preserve" font-family="Helvetica-Light,Helvetica" font-size="40.5" fill="#000000" transform="matrix(1.00, 0.00, -0.00, -1.00, 350.2, 10.2)">t</text><text xml:space="preserve" font-family="Helvetica-Light,Helvetica" font-size="40.5" fill="#000000" transform="matrix(1.00, 0.00, -0.00, -1.00, 361.4, 10.2)">y</text><text xml:space="preserve" font-family="Helvetica-Light,Helvetica" font-size="40.5" fill="#000000" transform="matrix(1.00, 0.00, -0.00, -1.00, 381.6, 10.2)">p</text><text xml:space="preserve" font-family="Helvetica-Light,Helvetica" font-size="40.5" fill="#000000" transform="matrix(1.00, 0.00, -0.00, -1.00, 406.4, 10.2)">e</text><text xml:space="preserve" font-family="Helvetica-Light,Helvetica" font-size="40.5" fill="#000000" transform="matrix(1.00, 0.00, -0.00, -1.00, 428.9, 10.2)">s</text></g></svg>