<?xml version="1.0" encoding="UTF-8" standalone="no"?><svg xmlns="http://www.w3.org/2000/svg" xmlns:xlink="http://www.w3.org/1999/xlink" clip-rule="evenodd" stroke-miterlimit="10" viewBox="0 0 744 42"><desc>SVG generated by Keynote</desc><defs></defs><g transform="matrix(1.00, 0.00, -0.00, -1.00, 0.0, 42.0)"><text xml:space="preserve" font-family="Helvetica-Light,Helvetica" font-size="40.5" fill="#000000" transform="matrix(1.00, 0.00, -0.00, -1.00, -0.9, 10.2)">G</text><text xml:space="preserve" font-family="Helvetica-Light,Helvetica" font-size="40.5" fill="#000000" transform="matrix(1.00, 0.00, -0.00, -1.00, 30.6, 10.2)">r</text><text xml:space="preserve" font-family="Helvetica-Light,Helvetica" font-size="40.5" fill="#000000" transform="matrix(1.00, 0.00, -0.00, -1.00, 43.3, 10.2)">e</text><text xml:space="preserve" font-family="Helvetica-Light,Helvetica" font-size="40.5" fill="#000000" transform="matrix(1.00, 0.00, -0.00, -1.00, 65.8, 10.2)">a</text><text xml:space="preserve" font-family="Helvetica-Light,Helvetica" font-size="40.5" fill="#000000" transform="matrix(1.00, 0.00, -0.00, -1.00, 88.3, 10.2)">t</text><text xml:space="preserve" font-family="Helvetica-Light,Helvetica" font-size="40.5" fill="#000000" transform="matrix(1.00, 0.00, -0.00, -1.00, 99.6, 10.2)">e</text><text xml:space="preserve" font-family="Helvetica-Light,Helvetica" font-size="40.5" fill="#000000" transform="matrix(1.00, 0.00, -0.00, -1.00, 122.1, 10.2)">r</text><text xml:space="preserve" font-family="Helvetica-Light,Helvetica" font-size="40.5" fill="#000000" transform="matrix(1.00, 0.00, -0.00, -1.00, 135.5, 10.2)"> </text><text xml:space="preserve" font-family="Helvetica-Light,Helvetica" font-size="40.5" fill="#000000" transform="matrix(1.00, 0.00, -0.00, -1.00, 146.8, 10.2)">c</text><text xml:space="preserve" font-family="Helvetica-Light,Helvetica" font-size="40.5" fill="#000000" transform="matrix(1.00, 0.00, -0.00, -1.00, 169.3, 10.2)">o</text><text xml:space="preserve" font-family="Helvetica-Light,Helvetica" font-size="40.5" fill="#000000" transform="matrix(1.00, 0.00, -0.00, -1.00, 191.8, 10.2)">n</text><text xml:space="preserve" font-family="Helvetica-Light,Helvetica" font-size="40.5" fill="#000000" transform="matrix(1.00, 0.00, -0.00, -1.00, 214.3, 10.2)">ﬁ</text><text xml:space="preserve" font-family="Helvetica-Light,Helvetica" font-size="40.5" fill="#000000" transform="matrix(1.00, 0.00, -0.00, -1.00, 234.5, 10.2)">d</text><text xml:space="preserve" font-family="Helvetica-Light,Helvetica" font-size="40.5" fill="#000000" transform="matrix(1.00, 0.00, -0.00, -1.00, 259.3, 10.2)">e</text><text xml:space="preserve" font-family="Helvetica-Light,Helvetica" font-size="40.5" fill="#000000" transform="matrix(1.00, 0.00, -0.00, -1.00, 281.8, 10.2)">n</text><text xml:space="preserve" font-family="Helvetica-Light,Helvetica" font-size="40.5" fill="#000000" transform="matrix(1.00, 0.00, -0.00, -1.00, 304.3, 10.2)">c</text><text xml:space="preserve" font-family="Helvetica-Light,Helvetica" font-size="40.5" fill="#000000" transform="matrix(1.00, 0.00, -0.00, -1.00, 326.8, 10.2)">e</text><text xml:space="preserve" font-family="Helvetica-Light,Helvetica" font-size="40.5" fill="#000000" transform="matrix(1.00, 0.00, -0.00, -1.00, 349.3, 10.2)"> </text><text xml:space="preserve" font-family="Helvetica-Light,Helvetica" font-size="40.5" fill="#000000" transform="matrix(1.00, 0.00, -0.00, -1.00, 360.5, 10.2)">o</text><text xml:space="preserve" font-family="Helvetica-Light,Helvetica" font-size="40.5" fill="#000000" transform="matrix(1.00, 0.00, -0.00, -1.00, 383.0, 10.2)">f</text><text xml:space="preserve" font-family="Helvetica-Light,Helvetica" font-size="40.5" fill="#000000" transform="matrix(1.00, 0.00, -0.00, -1.00, 394.3, 10.2)"> </text><text xml:space="preserve" font-family="Helvetica-Light,Helvetica" font-size="40.5" fill="#000000" transform="matrix(1.00, 0.00, -0.00, -1.00, 405.5, 10.2)">o</text><text xml:space="preserve" font-family="Helvetica-Light,Helvetica" font-size="40.5" fill="#000000" transform="matrix(1.00, 0.00, -0.00, -1.00, 428.0, 10.2)">b</text><text xml:space="preserve" font-family="Helvetica-Light,Helvetica" font-size="40.5" fill="#000000" transform="matrix(1.00, 0.00, -0.00, -1.00, 452.7, 10.2)">j</text><text xml:space="preserve" font-family="Helvetica-Light,Helvetica" font-size="40.5" fill="#000000" transform="matrix(1.00, 0.00, -0.00, -1.00, 461.7, 10.2)">e</text><text xml:space="preserve" font-family="Helvetica-Light,Helvetica" font-size="40.5" fill="#000000" transform="matrix(1.00, 0.00, -0.00, -1.00, 484.2, 10.2)">c</text><text xml:space="preserve" font-family="Helvetica-Light,Helvetica" font-size="40.5" fill="#000000" transform="matrix(1.00, 0.00, -0.00, -1.00, 506.7, 10.2)">t</text><text xml:space="preserve" font-family="Helvetica-Light,Helvetica" font-size="40.5" fill="#000000" transform="matrix(1.00, 0.00, -0.00, -1.00, 518.0, 10.2)"> </text><text xml:space="preserve" font-family="Helvetica-Light,Helvetica" font-size="40.5" fill="#000000" transform="matrix(1.00, 0.00, -0.00, -1.00, 529.2, 10.2)">c</text><text xml:space="preserve" font-family="Helvetica-Light,Helvetica" font-size="40.5" fill="#000000" transform="matrix(1.00, 0.00, -0.00, -1.00, 551.7, 10.2)">o</text><text xml:space="preserve" font-family="Helvetica-Light,Helvetica" font-size="40.5" fill="#000000" transform="matrix(1.00, 0.00, -0.00, -1.00, 574.2, 10.2)">r</text><text xml:space="preserve" font-family="Helvetica-Light,Helvetica" font-size="40.5" fill="#000000" transform="matrix(1.00, 0.00, -0.00, -1.00, 587.7, 10.2)">r</text><text xml:space="preserve" font-family="Helvetica-Light,Helvetica" font-size="40.5" fill="#000000" transform="matrix(1.00, 0.00, -0.00, -1.00, 600.5, 10.2)">e</text><text xml:space="preserve" font-family="Helvetica-Light,Helvetica" font-size="40.5" fill="#000000" transform="matrix(1.00, 0.00, -0.00, -1.00, 623.0, 10.2)">c</text><text xml:space="preserve" font-family="Helvetica-Light,Helvetica" font-size="40.5" fill="#000000" transform="matrix(1.00, 0.00, -0.00, -1.00, 645.5, 10.2)">t</text><text xml:space="preserve" font-family="Helvetica-Light,Helvetica" font-size="40.5" fill="#000000" transform="matrix(1.00, 0.00, -0.00, -1.00, 656.7, 10.2)">n</text><text xml:space="preserve" font-family="Helvetica-Light,Helvetica" font-size="40.5" fill="#000000" transform="matrix(1.00, 0.00, -0.00, -1.00, 679.2, 10.2)">e</text><text xml:space="preserve" font-family="Helvetica-Light,Helvetica" font-size="40.5" fill="#000000" transform="matrix(1.00, 0.00, -0.00, -1.00, 701.7, 10.2)">s</text><text xml:space="preserve" font-family="Helvetica-Light,Helvetica" font-size="40.5" fill="#000000" transform="matrix(1.00, 0.00, -0.00, -1.00, 722.0, 10.2)">s</text><text xml:space="preserve" font-family="LucidaGrande,Lucida Grande" font-size="40.5" fill="#000000" transform="matrix(1.00, 0.00, -0.00, -1.00, 742.2, 10.2)"> </text></g></svg>