<?xml version="1.0" encoding="UTF-8" standalone="no"?><svg xmlns="http://www.w3.org/2000/svg" xmlns:xlink="http://www.w3.org/1999/xlink" clip-rule="evenodd" stroke-miterlimit="10" viewBox="0 0 529 34"><desc>SVG generated by Keynote</desc><defs></defs><g transform="matrix(1.00, 0.00, -0.00, -1.00, 0.0, 34.0)"><text xml:space="preserve" font-family="Helvetica-Light,Helvetica" font-size="40.5" fill="#000000" transform="matrix(1.00, 0.00, -0.00, -1.00, -1.5, 3.2)">P</text><text xml:space="preserve" font-family="Helvetica-Light,Helvetica" font-size="40.5" fill="#000000" transform="matrix(1.00, 0.00, -0.00, -1.00, 23.2, 3.2)">r</text><text xml:space="preserve" font-family="Helvetica-Light,Helvetica" font-size="40.5" fill="#000000" transform="matrix(1.00, 0.00, -0.00, -1.00, 36.0, 3.2)">o</text><text xml:space="preserve" font-family="Helvetica-Light,Helvetica" font-size="40.5" fill="#000000" transform="matrix(1.00, 0.00, -0.00, -1.00, 58.5, 3.2)">v</text><text xml:space="preserve" font-family="Helvetica-Light,Helvetica" font-size="40.5" fill="#000000" transform="matrix(1.00, 0.00, -0.00, -1.00, 78.7, 3.2)">i</text><text xml:space="preserve" font-family="Helvetica-Light,Helvetica" font-size="40.5" fill="#000000" transform="matrix(1.00, 0.00, -0.00, -1.00, 87.7, 3.2)">d</text><text xml:space="preserve" font-family="Helvetica-Light,Helvetica" font-size="40.5" fill="#000000" transform="matrix(1.00, 0.00, -0.00, -1.00, 112.4, 3.2)">e</text><text xml:space="preserve" font-family="Helvetica-Light,Helvetica" font-size="40.5" fill="#000000" transform="matrix(1.00, 0.00, -0.00, -1.00, 134.9, 3.2)"> </text><text xml:space="preserve" font-family="Helvetica-Light,Helvetica" font-size="40.5" fill="#000000" transform="matrix(1.00, 0.00, -0.00, -1.00, 146.2, 3.2)">c</text><text xml:space="preserve" font-family="Helvetica-Light,Helvetica" font-size="40.5" fill="#000000" transform="matrix(1.00, 0.00, -0.00, -1.00, 168.7, 3.2)">e</text><text xml:space="preserve" font-family="Helvetica-Light,Helvetica" font-size="40.5" fill="#000000" transform="matrix(1.00, 0.00, -0.00, -1.00, 191.2, 3.2)">n</text><text xml:space="preserve" font-family="Helvetica-Light,Helvetica" font-size="40.5" fill="#000000" transform="matrix(1.00, 0.00, -0.00, -1.00, 213.7, 3.2)">t</text><text xml:space="preserve" font-family="Helvetica-Light,Helvetica" font-size="40.5" fill="#000000" transform="matrix(1.00, 0.00, -0.00, -1.00, 224.9, 3.2)">r</text><text xml:space="preserve" font-family="Helvetica-Light,Helvetica" font-size="40.5" fill="#000000" transform="matrix(1.00, 0.00, -0.00, -1.00, 238.4, 3.2)">a</text><text xml:space="preserve" font-family="Helvetica-Light,Helvetica" font-size="40.5" fill="#000000" transform="matrix(1.00, 0.00, -0.00, -1.00, 260.9, 3.2)">l</text><text xml:space="preserve" font-family="Helvetica-Light,Helvetica" font-size="40.5" fill="#000000" transform="matrix(1.00, 0.00, -0.00, -1.00, 269.9, 3.2)">i</text><text xml:space="preserve" font-family="Helvetica-Light,Helvetica" font-size="40.5" fill="#000000" transform="matrix(1.00, 0.00, -0.00, -1.00, 278.9, 3.2)">s</text><text xml:space="preserve" font-family="Helvetica-Light,Helvetica" font-size="40.5" fill="#000000" transform="matrix(1.00, 0.00, -0.00, -1.00, 299.1, 3.2)">e</text><text xml:space="preserve" font-family="Helvetica-Light,Helvetica" font-size="40.5" fill="#000000" transform="matrix(1.00, 0.00, -0.00, -1.00, 321.6, 3.2)">d</text><text xml:space="preserve" font-family="Helvetica-Light,Helvetica" font-size="40.5" fill="#000000" transform="matrix(1.00, 0.00, -0.00, -1.00, 346.3, 3.2)"> </text><text xml:space="preserve" font-family="Helvetica-Light,Helvetica" font-size="40.5" fill="#000000" transform="matrix(1.00, 0.00, -0.00, -1.00, 357.6, 3.2)">v</text><text xml:space="preserve" font-family="Helvetica-Light,Helvetica" font-size="40.5" fill="#000000" transform="matrix(1.00, 0.00, -0.00, -1.00, 377.8, 3.2)">a</text><text xml:space="preserve" font-family="Helvetica-Light,Helvetica" font-size="40.5" fill="#000000" transform="matrix(1.00, 0.00, -0.00, -1.00, 400.3, 3.2)">l</text><text xml:space="preserve" font-family="Helvetica-Light,Helvetica" font-size="40.5" fill="#000000" transform="matrix(1.00, 0.00, -0.00, -1.00, 409.3, 3.2)">i</text><text xml:space="preserve" font-family="Helvetica-Light,Helvetica" font-size="40.5" fill="#000000" transform="matrix(1.00, 0.00, -0.00, -1.00, 418.3, 3.2)">d</text><text xml:space="preserve" font-family="Helvetica-Light,Helvetica" font-size="40.5" fill="#000000" transform="matrix(1.00, 0.00, -0.00, -1.00, 443.0, 3.2)">a</text><text xml:space="preserve" font-family="Helvetica-Light,Helvetica" font-size="40.5" fill="#000000" transform="matrix(1.00, 0.00, -0.00, -1.00, 465.5, 3.2)">t</text><text xml:space="preserve" font-family="Helvetica-Light,Helvetica" font-size="40.5" fill="#000000" transform="matrix(1.00, 0.00, -0.00, -1.00, 476.8, 3.2)">i</text><text xml:space="preserve" font-family="Helvetica-Light,Helvetica" font-size="40.5" fill="#000000" transform="matrix(1.00, 0.00, -0.00, -1.00, 485.8, 3.2)">o</text><text xml:space="preserve" font-family="Helvetica-Light,Helvetica" font-size="40.5" fill="#000000" transform="matrix(1.00, 0.00, -0.00, -1.00, 508.3, 3.2)">n</text></g></svg>