<?xml version="1.0" encoding="UTF-8" standalone="no"?><svg xmlns="http://www.w3.org/2000/svg" xmlns:xlink="http://www.w3.org/1999/xlink" clip-rule="evenodd" stroke-miterlimit="10" viewBox="0 0 667 71"><desc>SVG generated by Keynote</desc><defs></defs><g transform="matrix(1.00, 0.00, -0.00, -1.00, 0.0, 71.0)"><text xml:space="preserve" font-family="Helvetica-Light,Helvetica" font-size="31.6" fill="#000000" transform="matrix(1.00, 0.00, -0.00, -1.00, -1.3, 46.2)">M</text><text xml:space="preserve" font-family="Helvetica-Light,Helvetica" font-size="31.6" fill="#000000" transform="matrix(1.00, 0.00, -0.00, -1.00, 25.0, 46.2)">o</text><text xml:space="preserve" font-family="Helvetica-Light,Helvetica" font-size="31.6" fill="#000000" transform="matrix(1.00, 0.00, -0.00, -1.00, 42.6, 46.2)">c</text><text xml:space="preserve" font-family="Helvetica-Light,Helvetica" font-size="31.6" fill="#000000" transform="matrix(1.00, 0.00, -0.00, -1.00, 60.2, 46.2)">k</text><text xml:space="preserve" font-family="Helvetica-Light,Helvetica" font-size="31.6" fill="#000000" transform="matrix(1.00, 0.00, -0.00, -1.00, 76.0, 46.2)"> </text><text xml:space="preserve" font-family="Helvetica-Light,Helvetica" font-size="31.6" fill="#000000" transform="matrix(1.00, 0.00, -0.00, -1.00, 84.8, 46.2)">o</text><text xml:space="preserve" font-family="Helvetica-Light,Helvetica" font-size="31.6" fill="#000000" transform="matrix(1.00, 0.00, -0.00, -1.00, 102.3, 46.2)">u</text><text xml:space="preserve" font-family="Helvetica-Light,Helvetica" font-size="31.6" fill="#000000" transform="matrix(1.00, 0.00, -0.00, -1.00, 119.9, 46.2)">t</text><text xml:space="preserve" font-family="Helvetica-Light,Helvetica" font-size="31.6" fill="#000000" transform="matrix(1.00, 0.00, -0.00, -1.00, 128.7, 46.2)"> </text><text xml:space="preserve" font-family="Helvetica-Light,Helvetica" font-size="31.6" fill="#000000" transform="matrix(1.00, 0.00, -0.00, -1.00, 137.5, 46.2)">B</text><text xml:space="preserve" font-family="Helvetica-Light,Helvetica" font-size="31.6" fill="#000000" transform="matrix(1.00, 0.00, -0.00, -1.00, 158.5, 46.2)">l</text><text xml:space="preserve" font-family="Helvetica-Light,Helvetica" font-size="31.6" fill="#000000" transform="matrix(1.00, 0.00, -0.00, -1.00, 165.6, 46.2)">o</text><text xml:space="preserve" font-family="Helvetica-Light,Helvetica" font-size="31.6" fill="#000000" transform="matrix(1.00, 0.00, -0.00, -1.00, 183.1, 46.2)">g</text><text xml:space="preserve" font-family="Helvetica-Light,Helvetica" font-size="31.6" fill="#000000" transform="matrix(1.00, 0.00, -0.00, -1.00, 202.4, 46.2)">S</text><text xml:space="preserve" font-family="Helvetica-Light,Helvetica" font-size="31.6" fill="#000000" transform="matrix(1.00, 0.00, -0.00, -1.00, 221.7, 46.2)">e</text><text xml:space="preserve" font-family="Helvetica-Light,Helvetica" font-size="31.6" fill="#000000" transform="matrix(1.00, 0.00, -0.00, -1.00, 239.3, 46.2)">r</text><text xml:space="preserve" font-family="Helvetica-Light,Helvetica" font-size="31.6" fill="#000000" transform="matrix(1.00, 0.00, -0.00, -1.00, 249.8, 46.2)">v</text><text xml:space="preserve" font-family="Helvetica-Light,Helvetica" font-size="31.6" fill="#000000" transform="matrix(1.00, 0.00, -0.00, -1.00, 265.6, 46.2)">i</text><text xml:space="preserve" font-family="Helvetica-Light,Helvetica" font-size="31.6" fill="#000000" transform="matrix(1.00, 0.00, -0.00, -1.00, 272.7, 46.2)">c</text><text xml:space="preserve" font-family="Helvetica-Light,Helvetica" font-size="31.6" fill="#000000" transform="matrix(1.00, 0.00, -0.00, -1.00, 290.2, 46.2)">e</text><text xml:space="preserve" font-family="Helvetica-Light,Helvetica" font-size="31.6" fill="#000000" transform="matrix(1.00, 0.00, -0.00, -1.00, 307.8, 46.2)"> </text><text xml:space="preserve" font-family="Helvetica-Light,Helvetica" font-size="31.6" fill="#000000" transform="matrix(1.00, 0.00, -0.00, -1.00, 316.6, 46.2)">a</text><text xml:space="preserve" font-family="Helvetica-Light,Helvetica" font-size="31.6" fill="#000000" transform="matrix(1.00, 0.00, -0.00, -1.00, 334.1, 46.2)">n</text><text xml:space="preserve" font-family="Helvetica-Light,Helvetica" font-size="31.6" fill="#000000" transform="matrix(1.00, 0.00, -0.00, -1.00, 351.7, 46.2)">d</text><text xml:space="preserve" font-family="Helvetica-Light,Helvetica" font-size="31.6" fill="#000000" transform="matrix(1.00, 0.00, -0.00, -1.00, 371.0, 46.2)"> </text><text xml:space="preserve" font-family="Helvetica-Light,Helvetica" font-size="31.6" fill="#000000" transform="matrix(1.00, 0.00, -0.00, -1.00, 379.8, 46.2)">f</text><text xml:space="preserve" font-family="Helvetica-Light,Helvetica" font-size="31.6" fill="#000000" transform="matrix(1.00, 0.00, -0.00, -1.00, 388.6, 46.2)">u</text><text xml:space="preserve" font-family="Helvetica-Light,Helvetica" font-size="31.6" fill="#000000" transform="matrix(1.00, 0.00, -0.00, -1.00, 406.2, 46.2)">l</text><text xml:space="preserve" font-family="Helvetica-Light,Helvetica" font-size="31.6" fill="#000000" transform="matrix(1.00, 0.00, -0.00, -1.00, 413.2, 46.2)">l</text><text xml:space="preserve" font-family="Helvetica-Light,Helvetica" font-size="31.6" fill="#000000" transform="matrix(1.00, 0.00, -0.00, -1.00, 420.2, 46.2)">y</text><text xml:space="preserve" font-family="Helvetica-Light,Helvetica" font-size="31.6" fill="#000000" transform="matrix(1.00, 0.00, -0.00, -1.00, 436.0, 46.2)"> </text><text xml:space="preserve" font-family="Helvetica-Light,Helvetica" font-size="31.6" fill="#000000" transform="matrix(1.00, 0.00, -0.00, -1.00, 444.8, 46.2)">t</text><text xml:space="preserve" font-family="Helvetica-Light,Helvetica" font-size="31.6" fill="#000000" transform="matrix(1.00, 0.00, -0.00, -1.00, 453.6, 46.2)">e</text><text xml:space="preserve" font-family="Helvetica-Light,Helvetica" font-size="31.6" fill="#000000" transform="matrix(1.00, 0.00, -0.00, -1.00, 471.1, 46.2)">s</text><text xml:space="preserve" font-family="Helvetica-Light,Helvetica" font-size="31.6" fill="#000000" transform="matrix(1.00, 0.00, -0.00, -1.00, 486.9, 46.2)">t</text><text xml:space="preserve" font-family="Helvetica-Light,Helvetica" font-size="31.6" fill="#000000" transform="matrix(1.00, 0.00, -0.00, -1.00, 495.7, 46.2)"> </text><text xml:space="preserve" font-family="Helvetica-Light,Helvetica" font-size="31.6" fill="#000000" transform="matrix(1.00, 0.00, -0.00, -1.00, 504.5, 46.2)">c</text><text xml:space="preserve" font-family="Helvetica-Light,Helvetica" font-size="31.6" fill="#000000" transform="matrix(1.00, 0.00, -0.00, -1.00, 522.1, 46.2)">o</text><text xml:space="preserve" font-family="Helvetica-Light,Helvetica" font-size="31.6" fill="#000000" transform="matrix(1.00, 0.00, -0.00, -1.00, 539.6, 46.2)">n</text><text xml:space="preserve" font-family="Helvetica-Light,Helvetica" font-size="31.6" fill="#000000" transform="matrix(1.00, 0.00, -0.00, -1.00, 557.2, 46.2)">t</text><text xml:space="preserve" font-family="Helvetica-Light,Helvetica" font-size="31.6" fill="#000000" transform="matrix(1.00, 0.00, -0.00, -1.00, 566.0, 46.2)">r</text><text xml:space="preserve" font-family="Helvetica-Light,Helvetica" font-size="31.6" fill="#000000" transform="matrix(1.00, 0.00, -0.00, -1.00, 576.0, 46.2)">o</text><text xml:space="preserve" font-family="Helvetica-Light,Helvetica" font-size="31.6" fill="#000000" transform="matrix(1.00, 0.00, -0.00, -1.00, 593.5, 46.2)">l</text><text xml:space="preserve" font-family="Helvetica-Light,Helvetica" font-size="31.6" fill="#000000" transform="matrix(1.00, 0.00, -0.00, -1.00, 600.5, 46.2)">l</text><text xml:space="preserve" font-family="Helvetica-Light,Helvetica" font-size="31.6" fill="#000000" transform="matrix(1.00, 0.00, -0.00, -1.00, 607.6, 46.2)">e</text><text xml:space="preserve" font-family="Helvetica-Light,Helvetica" font-size="31.6" fill="#000000" transform="matrix(1.00, 0.00, -0.00, -1.00, 625.1, 46.2)">r</text><text xml:space="preserve" font-family="Helvetica-Light,Helvetica" font-size="31.6" fill="#000000" transform="matrix(1.00, 0.00, -0.00, -1.00, 635.6, 46.2)"> </text><text xml:space="preserve" font-family="Helvetica-Light,Helvetica" font-size="31.6" fill="#000000" transform="matrix(1.00, 0.00, -0.00, -1.00, 644.4, 46.2)">+</text><text xml:space="preserve" font-family="Helvetica-Light,Helvetica" font-size="31.6" fill="#000000" transform="matrix(1.00, 0.00, -0.00, -1.00, 665.3, 46.2)"> </text><text xml:space="preserve" font-family="Helvetica-Light,Helvetica" font-size="31.6" fill="#000000" transform="matrix(1.00, 0.00, -0.00, -1.00, 86.2, 9.2)">t</text><text xml:space="preserve" font-family="Helvetica-Light,Helvetica" font-size="31.6" fill="#000000" transform="matrix(1.00, 0.00, -0.00, -1.00, 94.9, 9.2)">e</text><text xml:space="preserve" font-family="Helvetica-Light,Helvetica" font-size="31.6" fill="#000000" transform="matrix(1.00, 0.00, -0.00, -1.00, 112.5, 9.2)">m</text><text xml:space="preserve" font-family="Helvetica-Light,Helvetica" font-size="31.6" fill="#000000" transform="matrix(1.00, 0.00, -0.00, -1.00, 138.8, 9.2)">p</text><text xml:space="preserve" font-family="Helvetica-Light,Helvetica" font-size="31.6" fill="#000000" transform="matrix(1.00, 0.00, -0.00, -1.00, 158.1, 9.2)">l</text><text xml:space="preserve" font-family="Helvetica-Light,Helvetica" font-size="31.6" fill="#000000" transform="matrix(1.00, 0.00, -0.00, -1.00, 165.2, 9.2)">a</text><text xml:space="preserve" font-family="Helvetica-Light,Helvetica" font-size="31.6" fill="#000000" transform="matrix(1.00, 0.00, -0.00, -1.00, 182.7, 9.2)">t</text><text xml:space="preserve" font-family="Helvetica-Light,Helvetica" font-size="31.6" fill="#000000" transform="matrix(1.00, 0.00, -0.00, -1.00, 191.5, 9.2)">i</text><text xml:space="preserve" font-family="Helvetica-Light,Helvetica" font-size="31.6" fill="#000000" transform="matrix(1.00, 0.00, -0.00, -1.00, 198.5, 9.2)">n</text><text xml:space="preserve" font-family="Helvetica-Light,Helvetica" font-size="31.6" fill="#000000" transform="matrix(1.00, 0.00, -0.00, -1.00, 216.1, 9.2)">g</text><text xml:space="preserve" font-family="Helvetica-Light,Helvetica" font-size="31.6" fill="#000000" transform="matrix(1.00, 0.00, -0.00, -1.00, 235.4, 9.2)">,</text><text xml:space="preserve" font-family="Helvetica-Light,Helvetica" font-size="31.6" fill="#000000" transform="matrix(1.00, 0.00, -0.00, -1.00, 244.2, 9.2)"> </text><text xml:space="preserve" font-family="Helvetica-Light,Helvetica" font-size="31.6" fill="#000000" transform="matrix(1.00, 0.00, -0.00, -1.00, 253.0, 9.2)">w</text><text xml:space="preserve" font-family="Helvetica-Light,Helvetica" font-size="31.6" fill="#000000" transform="matrix(1.00, 0.00, -0.00, -1.00, 275.8, 9.2)">i</text><text xml:space="preserve" font-family="Helvetica-Light,Helvetica" font-size="31.6" fill="#000000" transform="matrix(1.00, 0.00, -0.00, -1.00, 282.8, 9.2)">t</text><text xml:space="preserve" font-family="Helvetica-Light,Helvetica" font-size="31.6" fill="#000000" transform="matrix(1.00, 0.00, -0.00, -1.00, 291.6, 9.2)">h</text><text xml:space="preserve" font-family="Helvetica-Light,Helvetica" font-size="31.6" fill="#000000" transform="matrix(1.00, 0.00, -0.00, -1.00, 309.2, 9.2)">o</text><text xml:space="preserve" font-family="Helvetica-Light,Helvetica" font-size="31.6" fill="#000000" transform="matrix(1.00, 0.00, -0.00, -1.00, 326.7, 9.2)">u</text><text xml:space="preserve" font-family="Helvetica-Light,Helvetica" font-size="31.6" fill="#000000" transform="matrix(1.00, 0.00, -0.00, -1.00, 344.3, 9.2)">t</text><text xml:space="preserve" font-family="Helvetica-Light,Helvetica" font-size="31.6" fill="#000000" transform="matrix(1.00, 0.00, -0.00, -1.00, 353.1, 9.2)"> </text><text xml:space="preserve" font-family="Helvetica-Light,Helvetica" font-size="31.6" fill="#000000" transform="matrix(1.00, 0.00, -0.00, -1.00, 361.9, 9.2)">u</text><text xml:space="preserve" font-family="Helvetica-Light,Helvetica" font-size="31.6" fill="#000000" transform="matrix(1.00, 0.00, -0.00, -1.00, 379.4, 9.2)">s</text><text xml:space="preserve" font-family="Helvetica-Light,Helvetica" font-size="31.6" fill="#000000" transform="matrix(1.00, 0.00, -0.00, -1.00, 395.2, 9.2)">i</text><text xml:space="preserve" font-family="Helvetica-Light,Helvetica" font-size="31.6" fill="#000000" transform="matrix(1.00, 0.00, -0.00, -1.00, 402.2, 9.2)">n</text><text xml:space="preserve" font-family="Helvetica-Light,Helvetica" font-size="31.6" fill="#000000" transform="matrix(1.00, 0.00, -0.00, -1.00, 419.8, 9.2)">g</text><text xml:space="preserve" font-family="Helvetica-Light,Helvetica" font-size="31.6" fill="#000000" transform="matrix(1.00, 0.00, -0.00, -1.00, 439.1, 9.2)"> </text><text xml:space="preserve" font-family="Helvetica-Light,Helvetica" font-size="31.6" fill="#000000" transform="matrix(1.00, 0.00, -0.00, -1.00, 447.9, 9.2)">S</text><text xml:space="preserve" font-family="Helvetica-Light,Helvetica" font-size="31.6" fill="#000000" transform="matrix(1.00, 0.00, -0.00, -1.00, 467.2, 9.2)">e</text><text xml:space="preserve" font-family="Helvetica-Light,Helvetica" font-size="31.6" fill="#000000" transform="matrix(1.00, 0.00, -0.00, -1.00, 484.8, 9.2)">l</text><text xml:space="preserve" font-family="Helvetica-Light,Helvetica" font-size="31.6" fill="#000000" transform="matrix(1.00, 0.00, -0.00, -1.00, 491.8, 9.2)">e</text><text xml:space="preserve" font-family="Helvetica-Light,Helvetica" font-size="31.6" fill="#000000" transform="matrix(1.00, 0.00, -0.00, -1.00, 509.4, 9.2)">n</text><text xml:space="preserve" font-family="Helvetica-Light,Helvetica" font-size="31.6" fill="#000000" transform="matrix(1.00, 0.00, -0.00, -1.00, 526.9, 9.2)">i</text><text xml:space="preserve" font-family="Helvetica-Light,Helvetica" font-size="31.6" fill="#000000" transform="matrix(1.00, 0.00, -0.00, -1.00, 534.0, 9.2)">u</text><text xml:space="preserve" font-family="Helvetica-Light,Helvetica" font-size="31.6" fill="#000000" transform="matrix(1.00, 0.00, -0.00, -1.00, 551.5, 9.2)">m</text></g></svg>