<?xml version="1.0" encoding="UTF-8" standalone="no"?><svg xmlns="http://www.w3.org/2000/svg" xmlns:xlink="http://www.w3.org/1999/xlink" clip-rule="evenodd" stroke-miterlimit="10" viewBox="0 0 218 59"><desc>SVG generated by Keynote</desc><defs><linearGradient id="gradSh1.24" x1="0.0" y1="0.0" x2="100.0" y2="0.0" gradientUnits="userSpaceOnUse" gradientTransform="matrix(0.00, -0.48, -2.12, 0.00, 109.0, 53.0)"><stop offset="0.00000" stop-color="#FBFBFB"></stop><stop offset="0.01466" stop-color="#FAFAFA"></stop><stop offset="1.00000" stop-color="#BEBEBE"></stop></linearGradient></defs><g transform="matrix(1.00, 0.00, -0.00, -1.00, 0.0, 59.0)"><image xlink:href="../../8ECB11D6-7614-4CE4-A3E0-187720BEC8CD/assets/2D99DAC2C8513801EE14CE7AD5DDDC08.png" width="216.00" height="52.00" transform="matrix(1.00, 0.00, -0.00, -1.00, 1.1, 53.2)" opacity="0.50"></image><g><clipPath id="clip0x6080024b2d20"><path d="M 4.0 52.0 L 214.0 52.0 L 214.0 6.0 L 4.0 6.0 Z M 4.1 52.2 "></path></clipPath><g clip-path="url(#clip0x6080024b2d20)"><path d="M 4.0 52.0 L 214.0 52.0 L 214.0 6.0 L 4.0 6.0 Z M 4.1 52.2 " fill="url(#gradSh1.24)"></path></g></g><g><clipPath id="clip0x6080026b3140"><path d="M 2.1 6.2 L 215.9 6.2 L 215.9 52.2 L 2.1 52.2 Z M 2.1 6.2 "></path></clipPath><g clip-path="url(#clip0x6080026b3140)"><text xml:space="preserve" font-family="Helvetica-Light,Helvetica" font-size="24.0" fill="#000000" transform="matrix(1.00, 0.00, -0.00, -1.00, 44.3, 19.7)">B</text><text xml:space="preserve" font-family="Helvetica-Light,Helvetica" font-size="24.0" fill="#000000" transform="matrix(1.00, 0.00, -0.00, -1.00, 60.3, 19.7)">l</text><text xml:space="preserve" font-family="Helvetica-Light,Helvetica" font-size="24.0" fill="#000000" transform="matrix(1.00, 0.00, -0.00, -1.00, 65.7, 19.7)">o</text><text xml:space="preserve" font-family="Helvetica-Light,Helvetica" font-size="24.0" fill="#000000" transform="matrix(1.00, 0.00, -0.00, -1.00, 79.0, 19.7)">g</text><text xml:space="preserve" font-family="Helvetica-Light,Helvetica" font-size="24.0" fill="#000000" transform="matrix(1.00, 0.00, -0.00, -1.00, 93.7, 19.7)">S</text><text xml:space="preserve" font-family="Helvetica-Light,Helvetica" font-size="24.0" fill="#000000" transform="matrix(1.00, 0.00, -0.00, -1.00, 108.3, 19.7)">e</text><text xml:space="preserve" font-family="Helvetica-Light,Helvetica" font-size="24.0" fill="#000000" transform="matrix(1.00, 0.00, -0.00, -1.00, 121.7, 19.7)">r</text><text xml:space="preserve" font-family="Helvetica-Light,Helvetica" font-size="24.0" fill="#000000" transform="matrix(1.00, 0.00, -0.00, -1.00, 129.7, 19.7)">v</text><text xml:space="preserve" font-family="Helvetica-Light,Helvetica" font-size="24.0" fill="#000000" transform="matrix(1.00, 0.00, -0.00, -1.00, 141.7, 19.7)">i</text><text xml:space="preserve" font-family="Helvetica-Light,Helvetica" font-size="24.0" fill="#000000" transform="matrix(1.00, 0.00, -0.00, -1.00, 147.0, 19.7)">c</text><text xml:space="preserve" font-family="Helvetica-Light,Helvetica" font-size="24.0" fill="#000000" transform="matrix(1.00, 0.00, -0.00, -1.00, 160.3, 19.7)">e</text></g></g></g></svg>