<?xml version="1.0" encoding="UTF-8" standalone="no"?><svg xmlns="http://www.w3.org/2000/svg" xmlns:xlink="http://www.w3.org/1999/xlink" clip-rule="evenodd" stroke-miterlimit="10" viewBox="0 0 218 59"><desc>SVG generated by Keynote</desc><defs><linearGradient id="gradSh1.25" x1="0.0" y1="0.0" x2="100.0" y2="0.0" gradientUnits="userSpaceOnUse" gradientTransform="matrix(0.00, -0.48, -2.12, 0.00, 109.0, 54.0)"><stop offset="0.00000" stop-color="#FBFBFB"></stop><stop offset="0.01466" stop-color="#FAFAFA"></stop><stop offset="1.00000" stop-color="#BEBEBE"></stop></linearGradient></defs><g transform="matrix(1.00, 0.00, -0.00, -1.00, 0.0, 59.0)"><image xlink:href="../../8ECB11D6-7614-4CE4-A3E0-187720BEC8CD/assets/9F145142B44F927CF5048A9E28A4967A.png" width="216.00" height="52.00" transform="matrix(1.00, 0.00, -0.00, -1.00, 1.1, 53.7)" opacity="0.50"></image><g><clipPath id="clip0x6000022b9a40"><path d="M 4.0 53.0 L 214.0 53.0 L 214.0 7.0 L 4.0 7.0 Z M 4.1 52.7 "></path></clipPath><g clip-path="url(#clip0x6000022b9a40)"><path d="M 4.0 53.0 L 214.0 53.0 L 214.0 7.0 L 4.0 7.0 Z M 4.1 52.7 " fill="url(#gradSh1.25)"></path></g></g><g><clipPath id="clip0x6000024bb1e0"><path d="M 2.1 6.8 L 215.9 6.8 L 215.9 52.7 L 2.1 52.7 Z M 2.1 6.8 "></path></clipPath><g clip-path="url(#clip0x6000024bb1e0)"><text xml:space="preserve" font-family="Helvetica-Light,Helvetica" font-size="24.0" fill="#000000" transform="matrix(1.00, 0.00, -0.00, -1.00, 43.7, 20.2)">U</text><text xml:space="preserve" font-family="Helvetica-Light,Helvetica" font-size="24.0" fill="#000000" transform="matrix(1.00, 0.00, -0.00, -1.00, 61.0, 20.2)">s</text><text xml:space="preserve" font-family="Helvetica-Light,Helvetica" font-size="24.0" fill="#000000" transform="matrix(1.00, 0.00, -0.00, -1.00, 73.0, 20.2)">e</text><text xml:space="preserve" font-family="Helvetica-Light,Helvetica" font-size="24.0" fill="#000000" transform="matrix(1.00, 0.00, -0.00, -1.00, 86.3, 20.2)">r</text><text xml:space="preserve" font-family="Helvetica-Light,Helvetica" font-size="24.0" fill="#000000" transform="matrix(1.00, 0.00, -0.00, -1.00, 94.3, 20.2)">S</text><text xml:space="preserve" font-family="Helvetica-Light,Helvetica" font-size="24.0" fill="#000000" transform="matrix(1.00, 0.00, -0.00, -1.00, 109.0, 20.2)">e</text><text xml:space="preserve" font-family="Helvetica-Light,Helvetica" font-size="24.0" fill="#000000" transform="matrix(1.00, 0.00, -0.00, -1.00, 122.3, 20.2)">r</text><text xml:space="preserve" font-family="Helvetica-Light,Helvetica" font-size="24.0" fill="#000000" transform="matrix(1.00, 0.00, -0.00, -1.00, 130.3, 20.2)">v</text><text xml:space="preserve" font-family="Helvetica-Light,Helvetica" font-size="24.0" fill="#000000" transform="matrix(1.00, 0.00, -0.00, -1.00, 142.3, 20.2)">i</text><text xml:space="preserve" font-family="Helvetica-Light,Helvetica" font-size="24.0" fill="#000000" transform="matrix(1.00, 0.00, -0.00, -1.00, 147.7, 20.2)">c</text><text xml:space="preserve" font-family="Helvetica-Light,Helvetica" font-size="24.0" fill="#000000" transform="matrix(1.00, 0.00, -0.00, -1.00, 161.0, 20.2)">e</text></g></g></g></svg>