<?xml version="1.0" encoding="UTF-8" standalone="no"?><svg xmlns="http://www.w3.org/2000/svg" xmlns:xlink="http://www.w3.org/1999/xlink" clip-rule="evenodd" stroke-miterlimit="10" viewBox="0 0 705 35"><desc>SVG generated by Keynote</desc><defs></defs><g transform="matrix(1.00, 0.00, -0.00, -1.00, 0.0, 35.0)"><text xml:space="preserve" font-family="Helvetica-Light,Helvetica" font-size="32.8" fill="#000000" transform="matrix(1.00, 0.00, -0.00, -1.00, -1.4, 9.4)">N</text><text xml:space="preserve" font-family="Helvetica-Light,Helvetica" font-size="32.8" fill="#000000" transform="matrix(1.00, 0.00, -0.00, -1.00, 22.3, 9.4)">o</text><text xml:space="preserve" font-family="Helvetica-Light,Helvetica" font-size="32.8" fill="#000000" transform="matrix(1.00, 0.00, -0.00, -1.00, 40.6, 9.4)">w</text><text xml:space="preserve" font-family="Helvetica-Light,Helvetica" font-size="32.8" fill="#000000" transform="matrix(1.00, 0.00, -0.00, -1.00, 64.2, 9.4)"> </text><text xml:space="preserve" font-family="Helvetica-Light,Helvetica" font-size="32.8" fill="#000000" transform="matrix(1.00, 0.00, -0.00, -1.00, 73.4, 9.4)">y</text><text xml:space="preserve" font-family="Helvetica-Light,Helvetica" font-size="32.8" fill="#000000" transform="matrix(1.00, 0.00, -0.00, -1.00, 89.8, 9.4)">o</text><text xml:space="preserve" font-family="Helvetica-Light,Helvetica" font-size="32.8" fill="#000000" transform="matrix(1.00, 0.00, -0.00, -1.00, 108.0, 9.4)">u</text><text xml:space="preserve" font-family="Helvetica-Light,Helvetica" font-size="32.8" fill="#000000" transform="matrix(1.00, 0.00, -0.00, -1.00, 126.2, 9.4)"> </text><text xml:space="preserve" font-family="Helvetica-Light,Helvetica" font-size="32.8" fill="#000000" transform="matrix(1.00, 0.00, -0.00, -1.00, 135.4, 9.4)">h</text><text xml:space="preserve" font-family="Helvetica-Light,Helvetica" font-size="32.8" fill="#000000" transform="matrix(1.00, 0.00, -0.00, -1.00, 153.6, 9.4)">a</text><text xml:space="preserve" font-family="Helvetica-Light,Helvetica" font-size="32.8" fill="#000000" transform="matrix(1.00, 0.00, -0.00, -1.00, 171.8, 9.4)">v</text><text xml:space="preserve" font-family="Helvetica-Light,Helvetica" font-size="32.8" fill="#000000" transform="matrix(1.00, 0.00, -0.00, -1.00, 188.2, 9.4)">e</text><text xml:space="preserve" font-family="Helvetica-Light,Helvetica" font-size="32.8" fill="#000000" transform="matrix(1.00, 0.00, -0.00, -1.00, 206.5, 9.4)"> </text><text xml:space="preserve" font-family="Helvetica-Light,Helvetica" font-size="32.8" fill="#000000" transform="matrix(1.00, 0.00, -0.00, -1.00, 215.6, 9.4)">t</text><text xml:space="preserve" font-family="Helvetica-Light,Helvetica" font-size="32.8" fill="#000000" transform="matrix(1.00, 0.00, -0.00, -1.00, 224.7, 9.4)">e</text><text xml:space="preserve" font-family="Helvetica-Light,Helvetica" font-size="32.8" fill="#000000" transform="matrix(1.00, 0.00, -0.00, -1.00, 242.9, 9.4)">s</text><text xml:space="preserve" font-family="Helvetica-Light,Helvetica" font-size="32.8" fill="#000000" transform="matrix(1.00, 0.00, -0.00, -1.00, 259.3, 9.4)">t</text><text xml:space="preserve" font-family="Helvetica-Light,Helvetica" font-size="32.8" fill="#000000" transform="matrix(1.00, 0.00, -0.00, -1.00, 268.5, 9.4)">a</text><text xml:space="preserve" font-family="Helvetica-Light,Helvetica" font-size="32.8" fill="#000000" transform="matrix(1.00, 0.00, -0.00, -1.00, 286.7, 9.4)">b</text><text xml:space="preserve" font-family="Helvetica-Light,Helvetica" font-size="32.8" fill="#000000" transform="matrix(1.00, 0.00, -0.00, -1.00, 306.7, 9.4)">l</text><text xml:space="preserve" font-family="Helvetica-Light,Helvetica" font-size="32.8" fill="#000000" transform="matrix(1.00, 0.00, -0.00, -1.00, 314.0, 9.4)">e</text><text xml:space="preserve" font-family="Helvetica-Light,Helvetica" font-size="32.8" fill="#000000" transform="matrix(1.00, 0.00, -0.00, -1.00, 332.3, 9.4)"> </text><text xml:space="preserve" font-family="Helvetica-Light,Helvetica" font-size="32.8" fill="#000000" transform="matrix(1.00, 0.00, -0.00, -1.00, 341.4, 9.4)">/</text><text xml:space="preserve" font-family="Helvetica-Light,Helvetica" font-size="32.8" fill="#000000" transform="matrix(1.00, 0.00, -0.00, -1.00, 350.5, 9.4)"> </text><text xml:space="preserve" font-family="Helvetica-Light,Helvetica" font-size="32.8" fill="#000000" transform="matrix(1.00, 0.00, -0.00, -1.00, 359.6, 9.4)">m</text><text xml:space="preserve" font-family="Helvetica-Light,Helvetica" font-size="32.8" fill="#000000" transform="matrix(1.00, 0.00, -0.00, -1.00, 386.9, 9.4)">a</text><text xml:space="preserve" font-family="Helvetica-Light,Helvetica" font-size="32.8" fill="#000000" transform="matrix(1.00, 0.00, -0.00, -1.00, 405.2, 9.4)">n</text><text xml:space="preserve" font-family="Helvetica-Light,Helvetica" font-size="32.8" fill="#000000" transform="matrix(1.00, 0.00, -0.00, -1.00, 423.4, 9.4)">a</text><text xml:space="preserve" font-family="Helvetica-Light,Helvetica" font-size="32.8" fill="#000000" transform="matrix(1.00, 0.00, -0.00, -1.00, 441.6, 9.4)">g</text><text xml:space="preserve" font-family="Helvetica-Light,Helvetica" font-size="32.8" fill="#000000" transform="matrix(1.00, 0.00, -0.00, -1.00, 461.7, 9.4)">e</text><text xml:space="preserve" font-family="Helvetica-Light,Helvetica" font-size="32.8" fill="#000000" transform="matrix(1.00, 0.00, -0.00, -1.00, 479.9, 9.4)">a</text><text xml:space="preserve" font-family="Helvetica-Light,Helvetica" font-size="32.8" fill="#000000" transform="matrix(1.00, 0.00, -0.00, -1.00, 498.2, 9.4)">b</text><text xml:space="preserve" font-family="Helvetica-Light,Helvetica" font-size="32.8" fill="#000000" transform="matrix(1.00, 0.00, -0.00, -1.00, 518.2, 9.4)">l</text><text xml:space="preserve" font-family="Helvetica-Light,Helvetica" font-size="32.8" fill="#000000" transform="matrix(1.00, 0.00, -0.00, -1.00, 525.5, 9.4)">e</text><text xml:space="preserve" font-family="Helvetica-Light,Helvetica" font-size="32.8" fill="#000000" transform="matrix(1.00, 0.00, -0.00, -1.00, 543.7, 9.4)"> </text><text xml:space="preserve" font-family="Helvetica-Light,Helvetica" font-size="32.8" fill="#000000" transform="matrix(1.00, 0.00, -0.00, -1.00, 552.8, 9.4)">c</text><text xml:space="preserve" font-family="Helvetica-Light,Helvetica" font-size="32.8" fill="#000000" transform="matrix(1.00, 0.00, -0.00, -1.00, 571.1, 9.4)">o</text><text xml:space="preserve" font-family="Helvetica-Light,Helvetica" font-size="32.8" fill="#000000" transform="matrix(1.00, 0.00, -0.00, -1.00, 589.3, 9.4)">n</text><text xml:space="preserve" font-family="Helvetica-Light,Helvetica" font-size="32.8" fill="#000000" transform="matrix(1.00, 0.00, -0.00, -1.00, 607.5, 9.4)">t</text><text xml:space="preserve" font-family="Helvetica-Light,Helvetica" font-size="32.8" fill="#000000" transform="matrix(1.00, 0.00, -0.00, -1.00, 616.7, 9.4)">r</text><text xml:space="preserve" font-family="Helvetica-Light,Helvetica" font-size="32.8" fill="#000000" transform="matrix(1.00, 0.00, -0.00, -1.00, 627.0, 9.4)">o</text><text xml:space="preserve" font-family="Helvetica-Light,Helvetica" font-size="32.8" fill="#000000" transform="matrix(1.00, 0.00, -0.00, -1.00, 645.2, 9.4)">l</text><text xml:space="preserve" font-family="Helvetica-Light,Helvetica" font-size="32.8" fill="#000000" transform="matrix(1.00, 0.00, -0.00, -1.00, 652.5, 9.4)">l</text><text xml:space="preserve" font-family="Helvetica-Light,Helvetica" font-size="32.8" fill="#000000" transform="matrix(1.00, 0.00, -0.00, -1.00, 659.8, 9.4)">e</text><text xml:space="preserve" font-family="Helvetica-Light,Helvetica" font-size="32.8" fill="#000000" transform="matrix(1.00, 0.00, -0.00, -1.00, 678.0, 9.4)">r</text><text xml:space="preserve" font-family="Helvetica-Light,Helvetica" font-size="32.8" fill="#000000" transform="matrix(1.00, 0.00, -0.00, -1.00, 689.0, 9.4)">s</text></g></svg>