<?xml version="1.0" encoding="UTF-8" standalone="no"?><svg xmlns="http://www.w3.org/2000/svg" xmlns:xlink="http://www.w3.org/1999/xlink" clip-rule="evenodd" stroke-miterlimit="10" viewBox="0 0 1024 768"><desc>SVG generated by Keynote</desc><defs></defs><g transform="matrix(1.00, 0.00, -0.00, -1.00, 0.0, 768.0)"><path d="M 0.0 768.0 L 1024.0 768.0 L 1024.0 0.0 L 0.0 0.0 Z M 0.0 768.0 " fill="#FEFFFF"></path><text xml:space="preserve" font-family="Helvetica-Light,Helvetica" font-size="48.0" fill="#000000" transform="matrix(1.00, 0.00, -0.00, -1.00, 119.5, 570.0)">E</text><text xml:space="preserve" font-family="Helvetica-Light,Helvetica" font-size="48.0" fill="#000000" transform="matrix(1.00, 0.00, -0.00, -1.00, 148.8, 570.0)">r</text><text xml:space="preserve" font-family="Helvetica-Light,Helvetica" font-size="48.0" fill="#000000" transform="matrix(1.00, 0.00, -0.00, -1.00, 164.8, 570.0)">r</text><text xml:space="preserve" font-family="Helvetica-Light,Helvetica" font-size="48.0" fill="#000000" transform="matrix(1.00, 0.00, -0.00, -1.00, 179.9, 570.0)">o</text><text xml:space="preserve" font-family="Helvetica-Light,Helvetica" font-size="48.0" fill="#000000" transform="matrix(1.00, 0.00, -0.00, -1.00, 206.6, 570.0)">r</text><text xml:space="preserve" font-family="Helvetica-Light,Helvetica" font-size="48.0" fill="#000000" transform="matrix(1.00, 0.00, -0.00, -1.00, 222.6, 570.0)">s</text><text xml:space="preserve" font-family="Helvetica-Light,Helvetica" font-size="48.0" fill="#000000" transform="matrix(1.00, 0.00, -0.00, -1.00, 246.6, 570.0)">/</text><text xml:space="preserve" font-family="Helvetica-Light,Helvetica" font-size="48.0" fill="#000000" transform="matrix(1.00, 0.00, -0.00, -1.00, 259.9, 570.0)">W</text><text xml:space="preserve" font-family="Helvetica-Light,Helvetica" font-size="48.0" fill="#000000" transform="matrix(1.00, 0.00, -0.00, -1.00, 300.8, 570.0)">a</text><text xml:space="preserve" font-family="Helvetica-Light,Helvetica" font-size="48.0" fill="#000000" transform="matrix(1.00, 0.00, -0.00, -1.00, 327.5, 570.0)">r</text><text xml:space="preserve" font-family="Helvetica-Light,Helvetica" font-size="48.0" fill="#000000" transform="matrix(1.00, 0.00, -0.00, -1.00, 344.3, 570.0)">n</text><text xml:space="preserve" font-family="Helvetica-Light,Helvetica" font-size="48.0" fill="#000000" transform="matrix(1.00, 0.00, -0.00, -1.00, 371.0, 570.0)">i</text><text xml:space="preserve" font-family="Helvetica-Light,Helvetica" font-size="48.0" fill="#000000" transform="matrix(1.00, 0.00, -0.00, -1.00, 381.7, 570.0)">n</text><text xml:space="preserve" font-family="Helvetica-Light,Helvetica" font-size="48.0" fill="#000000" transform="matrix(1.00, 0.00, -0.00, -1.00, 408.4, 570.0)">g</text><text xml:space="preserve" font-family="Helvetica-Light,Helvetica" font-size="48.0" fill="#000000" transform="matrix(1.00, 0.00, -0.00, -1.00, 437.7, 570.0)">s</text><text xml:space="preserve" font-family="Helvetica-Light,Helvetica" font-size="48.0" fill="#000000" transform="matrix(1.00, 0.00, -0.00, -1.00, 461.7, 570.0)"> </text><text xml:space="preserve" font-family="Helvetica-Light,Helvetica" font-size="48.0" fill="#000000" transform="matrix(1.00, 0.00, -0.00, -1.00, 475.0, 570.0)">B</text><text xml:space="preserve" font-family="Helvetica-Light,Helvetica" font-size="48.0" fill="#000000" transform="matrix(1.00, 0.00, -0.00, -1.00, 507.1, 570.0)">e</text><text xml:space="preserve" font-family="Helvetica-Light,Helvetica" font-size="48.0" fill="#000000" transform="matrix(1.00, 0.00, -0.00, -1.00, 533.7, 570.0)">c</text><text xml:space="preserve" font-family="Helvetica-Light,Helvetica" font-size="48.0" fill="#000000" transform="matrix(1.00, 0.00, -0.00, -1.00, 560.4, 570.0)">o</text><text xml:space="preserve" font-family="Helvetica-Light,Helvetica" font-size="48.0" fill="#000000" transform="matrix(1.00, 0.00, -0.00, -1.00, 587.1, 570.0)">m</text><text xml:space="preserve" font-family="Helvetica-Light,Helvetica" font-size="48.0" fill="#000000" transform="matrix(1.00, 0.00, -0.00, -1.00, 627.1, 570.0)">e</text><text xml:space="preserve" font-family="Helvetica-Light,Helvetica" font-size="48.0" fill="#000000" transform="matrix(1.00, 0.00, -0.00, -1.00, 653.8, 570.0)"> </text><text xml:space="preserve" font-family="Helvetica-Light,Helvetica" font-size="48.0" fill="#000000" transform="matrix(1.00, 0.00, -0.00, -1.00, 667.1, 570.0)">E</text><text xml:space="preserve" font-family="Helvetica-Light,Helvetica" font-size="48.0" fill="#000000" transform="matrix(1.00, 0.00, -0.00, -1.00, 696.5, 570.0)">x</text><text xml:space="preserve" font-family="Helvetica-Light,Helvetica" font-size="48.0" fill="#000000" transform="matrix(1.00, 0.00, -0.00, -1.00, 720.5, 570.0)">c</text><text xml:space="preserve" font-family="Helvetica-Light,Helvetica" font-size="48.0" fill="#000000" transform="matrix(1.00, 0.00, -0.00, -1.00, 747.2, 570.0)">e</text><text xml:space="preserve" font-family="Helvetica-Light,Helvetica" font-size="48.0" fill="#000000" transform="matrix(1.00, 0.00, -0.00, -1.00, 773.8, 570.0)">p</text><text xml:space="preserve" font-family="Helvetica-Light,Helvetica" font-size="48.0" fill="#000000" transform="matrix(1.00, 0.00, -0.00, -1.00, 803.2, 570.0)">t</text><text xml:space="preserve" font-family="Helvetica-Light,Helvetica" font-size="48.0" fill="#000000" transform="matrix(1.00, 0.00, -0.00, -1.00, 816.5, 570.0)">i</text><text xml:space="preserve" font-family="Helvetica-Light,Helvetica" font-size="48.0" fill="#000000" transform="matrix(1.00, 0.00, -0.00, -1.00, 827.2, 570.0)">o</text><text xml:space="preserve" font-family="Helvetica-Light,Helvetica" font-size="48.0" fill="#000000" transform="matrix(1.00, 0.00, -0.00, -1.00, 853.9, 570.0)">n</text><text xml:space="preserve" font-family="Helvetica-Light,Helvetica" font-size="48.0" fill="#000000" transform="matrix(1.00, 0.00, -0.00, -1.00, 880.5, 570.0)">s</text><image xlink:href="3DF33F7C131674DBFCD7E776CA301480.png" width="153.00" height="118.00" transform="matrix(1.00, 0.00, -0.00, -1.00, 386.7, 490.8)" opacity="0.50"></image><g><clipPath id="clip0x618000cb1ee0"><path d="M 390.0 490.0 L 536.0 490.0 L 536.0 378.0 L 390.0 378.0 Z M 389.7 489.8 "></path></clipPath><g clip-path="url(#clip0x618000cb1ee0)"><image xlink:href="C3C0FC898C94653CAF8AD846D6CCD108.png" width="600.00" height="600.00" transform="matrix(0.50, 0.00, -0.00, -0.50, 390.0, 490.0)"></image></g></g><g><clipPath id="clip0x608000ab9f20"><path d="M 387.7 378.2 L 538.3 378.2 L 538.3 489.8 L 387.7 489.8 Z M 387.7 378.2 "></path></clipPath><g clip-path="url(#clip0x608000ab9f20)"><text xml:space="preserve" font-family="Helvetica-Light,Helvetica" font-size="24.0" fill="#FEFFFE" transform="matrix(1.00, 0.00, -0.00, -1.00, 407.2, 424.3)">T</text><text xml:space="preserve" font-family="Helvetica-Light,Helvetica" font-size="24.0" fill="#FEFFFE" transform="matrix(1.00, 0.00, -0.00, -1.00, 420.5, 424.3)">h</text><text xml:space="preserve" font-family="Helvetica-Light,Helvetica" font-size="24.0" fill="#FEFFFE" transform="matrix(1.00, 0.00, -0.00, -1.00, 433.9, 424.3)">r</text><text xml:space="preserve" font-family="Helvetica-Light,Helvetica" font-size="24.0" fill="#FEFFFE" transform="matrix(1.00, 0.00, -0.00, -1.00, 441.4, 424.3)">o</text><text xml:space="preserve" font-family="Helvetica-Light,Helvetica" font-size="24.0" fill="#FEFFFE" transform="matrix(1.00, 0.00, -0.00, -1.00, 454.8, 424.3)">w</text><text xml:space="preserve" font-family="Helvetica-Light,Helvetica" font-size="24.0" fill="#FEFFFE" transform="matrix(1.00, 0.00, -0.00, -1.00, 472.1, 424.3)">a</text><text xml:space="preserve" font-family="Helvetica-Light,Helvetica" font-size="24.0" fill="#FEFFFE" transform="matrix(1.00, 0.00, -0.00, -1.00, 485.5, 424.3)">b</text><text xml:space="preserve" font-family="Helvetica-Light,Helvetica" font-size="24.0" fill="#FEFFFE" transform="matrix(1.00, 0.00, -0.00, -1.00, 500.1, 424.3)">l</text><text xml:space="preserve" font-family="Helvetica-Light,Helvetica" font-size="24.0" fill="#FEFFFE" transform="matrix(1.00, 0.00, -0.00, -1.00, 505.5, 424.3)">e</text></g></g><image xlink:href="A2CA2BAA0B626C13560384E54CF9867C.png" width="153.00" height="118.00" transform="matrix(1.00, 0.00, -0.00, -1.00, 732.7, 204.0)" opacity="0.50"></image><g><clipPath id="clip0x6000010a2880"><path d="M 736.0 203.0 L 882.0 203.0 L 882.0 91.0 L 736.0 91.0 Z M 735.7 203.0 "></path></clipPath><g clip-path="url(#clip0x6000010a2880)"><image xlink:href="../../574F8B15-84CD-4CED-9DF2-DC9D45A83AF7/assets/C3C0FC898C94653CAF8AD846D6CCD108.png" width="600.00" height="600.00" transform="matrix(0.50, 0.00, -0.00, -0.50, 736.0, 203.0)"></image></g></g><g><clipPath id="clip0x610000ab0200"><path d="M 733.7 91.5 L 884.3 91.5 L 884.3 203.0 L 733.7 203.0 Z M 733.7 91.5 "></path></clipPath><g clip-path="url(#clip0x610000ab0200)"><text xml:space="preserve" font-family="Helvetica-Light,Helvetica" font-size="24.0" fill="#FEFFFE" transform="matrix(1.00, 0.00, -0.00, -1.00, 752.6, 137.5)">P</text><text xml:space="preserve" font-family="Helvetica-Light,Helvetica" font-size="24.0" fill="#FEFFFE" transform="matrix(1.00, 0.00, -0.00, -1.00, 767.2, 137.5)">a</text><text xml:space="preserve" font-family="Helvetica-Light,Helvetica" font-size="24.0" fill="#FEFFFE" transform="matrix(1.00, 0.00, -0.00, -1.00, 780.6, 137.5)">r</text><text xml:space="preserve" font-family="Helvetica-Light,Helvetica" font-size="24.0" fill="#FEFFFE" transform="matrix(1.00, 0.00, -0.00, -1.00, 788.6, 137.5)">s</text><text xml:space="preserve" font-family="Helvetica-Light,Helvetica" font-size="24.0" fill="#FEFFFE" transform="matrix(1.00, 0.00, -0.00, -1.00, 800.6, 137.5)">e</text><text xml:space="preserve" font-family="Helvetica-Light,Helvetica" font-size="24.0" fill="#FEFFFE" transform="matrix(1.00, 0.00, -0.00, -1.00, 813.9, 137.5)">E</text><text xml:space="preserve" font-family="Helvetica-Light,Helvetica" font-size="24.0" fill="#FEFFFE" transform="matrix(1.00, 0.00, -0.00, -1.00, 828.6, 137.5)">r</text><text xml:space="preserve" font-family="Helvetica-Light,Helvetica" font-size="24.0" fill="#FEFFFE" transform="matrix(1.00, 0.00, -0.00, -1.00, 836.6, 137.5)">r</text><text xml:space="preserve" font-family="Helvetica-Light,Helvetica" font-size="24.0" fill="#FEFFFE" transform="matrix(1.00, 0.00, -0.00, -1.00, 844.1, 137.5)">o</text><text xml:space="preserve" font-family="Helvetica-Light,Helvetica" font-size="24.0" fill="#FEFFFE" transform="matrix(1.00, 0.00, -0.00, -1.00, 857.5, 137.5)">r</text></g></g><image xlink:href="../../574F8B15-84CD-4CED-9DF2-DC9D45A83AF7/assets/3DF33F7C131674DBFCD7E776CA301480.png" width="153.00" height="118.00" transform="matrix(1.00, 0.00, -0.00, -1.00, 112.7, 490.8)" opacity="0.50"></image><g><clipPath id="clip0x600000ca33c0"><path d="M 116.0 490.0 L 262.0 490.0 L 262.0 378.0 L 116.0 378.0 Z M 115.7 489.8 "></path></clipPath><g clip-path="url(#clip0x600000ca33c0)"><image xlink:href="../../574F8B15-84CD-4CED-9DF2-DC9D45A83AF7/assets/C3C0FC898C94653CAF8AD846D6CCD108.png" width="600.00" height="600.00" transform="matrix(0.50, 0.00, -0.00, -0.50, 116.0, 490.0)"></image></g></g><g><clipPath id="clip0x610000caccc0"><path d="M 113.7 378.2 L 264.3 378.2 L 264.3 489.8 L 113.7 489.8 Z M 113.7 378.2 "></path></clipPath><g clip-path="url(#clip0x610000caccc0)"><text xml:space="preserve" font-family="Helvetica-Light,Helvetica" font-size="24.0" fill="#FEFFFE" transform="matrix(1.00, 0.00, -0.00, -1.00, 135.6, 424.3)">E</text><text xml:space="preserve" font-family="Helvetica-Light,Helvetica" font-size="24.0" fill="#FEFFFE" transform="matrix(1.00, 0.00, -0.00, -1.00, 150.3, 424.3)">x</text><text xml:space="preserve" font-family="Helvetica-Light,Helvetica" font-size="24.0" fill="#FEFFFE" transform="matrix(1.00, 0.00, -0.00, -1.00, 162.3, 424.3)">c</text><text xml:space="preserve" font-family="Helvetica-Light,Helvetica" font-size="24.0" fill="#FEFFFE" transform="matrix(1.00, 0.00, -0.00, -1.00, 175.7, 424.3)">e</text><text xml:space="preserve" font-family="Helvetica-Light,Helvetica" font-size="24.0" fill="#FEFFFE" transform="matrix(1.00, 0.00, -0.00, -1.00, 189.0, 424.3)">p</text><text xml:space="preserve" font-family="Helvetica-Light,Helvetica" font-size="24.0" fill="#FEFFFE" transform="matrix(1.00, 0.00, -0.00, -1.00, 203.7, 424.3)">t</text><text xml:space="preserve" font-family="Helvetica-Light,Helvetica" font-size="24.0" fill="#FEFFFE" transform="matrix(1.00, 0.00, -0.00, -1.00, 210.3, 424.3)">i</text><text xml:space="preserve" font-family="Helvetica-Light,Helvetica" font-size="24.0" fill="#FEFFFE" transform="matrix(1.00, 0.00, -0.00, -1.00, 215.7, 424.3)">o</text><text xml:space="preserve" font-family="Helvetica-Light,Helvetica" font-size="24.0" fill="#FEFFFE" transform="matrix(1.00, 0.00, -0.00, -1.00, 229.0, 424.3)">n</text></g></g><image xlink:href="../../574F8B15-84CD-4CED-9DF2-DC9D45A83AF7/assets/3DF33F7C131674DBFCD7E776CA301480.png" width="153.00" height="118.00" transform="matrix(1.00, 0.00, -0.00, -1.00, 386.7, 266.8)" opacity="0.50"></image><g><clipPath id="clip0x600000caabc0"><path d="M 390.0 266.0 L 536.0 266.0 L 536.0 154.0 L 390.0 154.0 Z M 389.7 265.8 "></path></clipPath><g clip-path="url(#clip0x600000caabc0)"><image xlink:href="../../574F8B15-84CD-4CED-9DF2-DC9D45A83AF7/assets/C3C0FC898C94653CAF8AD846D6CCD108.png" width="600.00" height="600.00" transform="matrix(0.50, 0.00, -0.00, -0.50, 390.0, 266.0)"></image></g></g><g><clipPath id="clip0x6000010aa9e0"><path d="M 387.7 154.2 L 538.3 154.2 L 538.3 265.8 L 387.7 265.8 Z M 387.7 154.2 "></path></clipPath><g clip-path="url(#clip0x6000010aa9e0)"><text xml:space="preserve" font-family="Helvetica-Light,Helvetica" font-size="24.0" fill="#FEFFFE" transform="matrix(1.00, 0.00, -0.00, -1.00, 437.2, 200.3)">E</text><text xml:space="preserve" font-family="Helvetica-Light,Helvetica" font-size="24.0" fill="#FEFFFE" transform="matrix(1.00, 0.00, -0.00, -1.00, 451.9, 200.3)">r</text><text xml:space="preserve" font-family="Helvetica-Light,Helvetica" font-size="24.0" fill="#FEFFFE" transform="matrix(1.00, 0.00, -0.00, -1.00, 459.9, 200.3)">r</text><text xml:space="preserve" font-family="Helvetica-Light,Helvetica" font-size="24.0" fill="#FEFFFE" transform="matrix(1.00, 0.00, -0.00, -1.00, 467.4, 200.3)">o</text><text xml:space="preserve" font-family="Helvetica-Light,Helvetica" font-size="24.0" fill="#FEFFFE" transform="matrix(1.00, 0.00, -0.00, -1.00, 480.8, 200.3)">r</text></g></g><path d="M 8.7 0.0 L 9.6 0.0 C 48.9 0.0 88.2 0.0 127.4 0.0 " fill="none" stroke="#000000" stroke-width="2.00" stroke-dasharray="2.0, 2.0" transform="matrix(1.00, 0.00, 0.00, -1.00, 262.3, 434.0)"></path><path d="M 272.0 438.8 L 262.4 434.0 L 272.0 429.2 Z M 272.0 438.8 " fill="#000000"></path><path d="M -0.0 104.3 L -0.0 102.9 C -0.0 68.6 0.0 34.3 0.0 0.0 " fill="none" stroke="#000000" stroke-width="2.00" stroke-dasharray="2.0, 2.0" transform="matrix(1.00, 0.00, 0.00, -1.00, 463.0, 378.3)"></path><path d="M 458.2 275.0 L 463.0 265.4 L 467.8 275.0 Z M 458.2 275.0 " fill="#000000"></path><image xlink:href="D5835751FE0ED7D5BA4979D5D20C1887.png" width="154.00" height="119.00" transform="matrix(1.00, 0.00, -0.00, -1.00, 732.1, 367.6)" opacity="0.50"></image><g><clipPath id="clip0x608000ca7500"><path d="M 735.0 367.0 L 883.0 367.0 L 883.0 254.0 L 735.0 254.0 Z M 735.1 366.6 "></path></clipPath><g clip-path="url(#clip0x608000ca7500)"><image xlink:href="../../574F8B15-84CD-4CED-9DF2-DC9D45A83AF7/assets/C3C0FC898C94653CAF8AD846D6CCD108.png" width="600.00" height="600.00" transform="matrix(0.50, 0.00, -0.00, -0.50, 735.0, 367.0)"></image></g></g><g><clipPath id="clip0x600000ebee40"><path d="M 733.1 254.1 L 884.9 254.1 L 884.9 366.6 L 733.1 366.6 Z M 733.1 254.1 "></path></clipPath><g clip-path="url(#clip0x600000ebee40)"><text xml:space="preserve" font-family="Helvetica-Light,Helvetica" font-size="24.0" fill="#FEFFFE" transform="matrix(1.00, 0.00, -0.00, -1.00, 757.6, 301.2)">T</text><text xml:space="preserve" font-family="Helvetica-Light,Helvetica" font-size="24.0" fill="#FEFFFE" transform="matrix(1.00, 0.00, -0.00, -1.00, 768.9, 301.2)">y</text><text xml:space="preserve" font-family="Helvetica-Light,Helvetica" font-size="24.0" fill="#FEFFFE" transform="matrix(1.00, 0.00, -0.00, -1.00, 780.9, 301.2)">p</text><text xml:space="preserve" font-family="Helvetica-Light,Helvetica" font-size="24.0" fill="#FEFFFE" transform="matrix(1.00, 0.00, -0.00, -1.00, 795.5, 301.2)">e</text><text xml:space="preserve" font-family="Helvetica-Light,Helvetica" font-size="24.0" fill="#FEFFFE" transform="matrix(1.00, 0.00, -0.00, -1.00, 808.9, 301.2)">E</text><text xml:space="preserve" font-family="Helvetica-Light,Helvetica" font-size="24.0" fill="#FEFFFE" transform="matrix(1.00, 0.00, -0.00, -1.00, 823.6, 301.2)">r</text><text xml:space="preserve" font-family="Helvetica-Light,Helvetica" font-size="24.0" fill="#FEFFFE" transform="matrix(1.00, 0.00, -0.00, -1.00, 831.5, 301.2)">r</text><text xml:space="preserve" font-family="Helvetica-Light,Helvetica" font-size="24.0" fill="#FEFFFE" transform="matrix(1.00, 0.00, -0.00, -1.00, 839.1, 301.2)">o</text><text xml:space="preserve" font-family="Helvetica-Light,Helvetica" font-size="24.0" fill="#FEFFFE" transform="matrix(1.00, 0.00, -0.00, -1.00, 852.5, 301.2)">r</text></g></g><path d="M 190.7 34.7 L 190.0 34.7 C 126.7 23.2 63.3 11.5 0.0 0.0 " fill="none" stroke="#000000" stroke-width="2.00" transform="matrix(1.00, 0.00, 0.00, -1.00, 536.3, 196.7)"></path><path d="M 725.2 157.5 L 735.5 160.5 L 726.9 166.9 Z M 725.2 157.5 " fill="#000000"></path><path d="M 190.7 1.9 L 189.6 2.9 C 126.4 21.3 63.2 39.3 0.0 57.7 " fill="none" stroke="#000000" stroke-width="2.00" transform="matrix(1.00, 0.00, 0.00, -1.00, 536.3, 288.9)"></path><path d="M 727.4 282.1 L 735.3 289.4 L 724.7 291.3 Z M 727.4 282.1 " fill="#000000"></path><text xml:space="preserve" font-family="Helvetica-Light,Helvetica" font-size="45.9" fill="#000000" transform="matrix(1.00, 0.00, -0.00, -1.00, 107.8, 677.6)">P</text><text xml:space="preserve" font-family="Helvetica-Light,Helvetica" font-size="45.9" fill="#000000" transform="matrix(1.00, 0.00, -0.00, -1.00, 135.8, 677.6)">H</text><text xml:space="preserve" font-family="Helvetica-Light,Helvetica" font-size="45.9" fill="#000000" transform="matrix(1.00, 0.00, -0.00, -1.00, 169.0, 677.6)">P</text><text xml:space="preserve" font-family="Helvetica-Light,Helvetica" font-size="45.9" fill="#000000" transform="matrix(1.00, 0.00, -0.00, -1.00, 197.0, 677.6)">7</text><text xml:space="preserve" font-family="Helvetica-Light,Helvetica" font-size="45.9" fill="#000000" transform="matrix(1.00, 0.00, -0.00, -1.00, 222.5, 677.6)">:</text><text xml:space="preserve" font-family="Helvetica-Light,Helvetica" font-size="45.9" fill="#000000" transform="matrix(1.00, 0.00, -0.00, -1.00, 235.3, 677.6)"> </text><text xml:space="preserve" font-family="Helvetica-Light,Helvetica" font-size="45.9" fill="#000000" transform="matrix(1.00, 0.00, -0.00, -1.00, 248.1, 677.6)">B</text><text xml:space="preserve" font-family="Helvetica-Light,Helvetica" font-size="45.9" fill="#000000" transform="matrix(1.00, 0.00, -0.00, -1.00, 278.7, 677.6)">a</text><text xml:space="preserve" font-family="Helvetica-Light,Helvetica" font-size="45.9" fill="#000000" transform="matrix(1.00, 0.00, -0.00, -1.00, 304.2, 677.6)">c</text><text xml:space="preserve" font-family="Helvetica-Light,Helvetica" font-size="45.9" fill="#000000" transform="matrix(1.00, 0.00, -0.00, -1.00, 329.7, 677.6)">k</text><text xml:space="preserve" font-family="Helvetica-Light,Helvetica" font-size="45.9" fill="#000000" transform="matrix(1.00, 0.00, -0.00, -1.00, 352.7, 677.6)">w</text><text xml:space="preserve" font-family="Helvetica-Light,Helvetica" font-size="45.9" fill="#000000" transform="matrix(1.00, 0.00, -0.00, -1.00, 385.8, 677.6)">a</text><text xml:space="preserve" font-family="Helvetica-Light,Helvetica" font-size="45.9" fill="#000000" transform="matrix(1.00, 0.00, -0.00, -1.00, 411.3, 677.6)">r</text><text xml:space="preserve" font-family="Helvetica-Light,Helvetica" font-size="45.9" fill="#000000" transform="matrix(1.00, 0.00, -0.00, -1.00, 425.8, 677.6)">d</text><text xml:space="preserve" font-family="Helvetica-Light,Helvetica" font-size="45.9" fill="#000000" transform="matrix(1.00, 0.00, -0.00, -1.00, 453.8, 677.6)">s</text><text xml:space="preserve" font-family="Helvetica-Light,Helvetica" font-size="45.9" fill="#000000" transform="matrix(1.00, 0.00, -0.00, -1.00, 476.8, 677.6)"> </text><text xml:space="preserve" font-family="Helvetica-Light,Helvetica" font-size="45.9" fill="#000000" transform="matrix(1.00, 0.00, -0.00, -1.00, 489.5, 677.6)">I</text><text xml:space="preserve" font-family="Helvetica-Light,Helvetica" font-size="45.9" fill="#000000" transform="matrix(1.00, 0.00, -0.00, -1.00, 502.3, 677.6)">n</text><text xml:space="preserve" font-family="Helvetica-Light,Helvetica" font-size="45.9" fill="#000000" transform="matrix(1.00, 0.00, -0.00, -1.00, 527.8, 677.6)">c</text><text xml:space="preserve" font-family="Helvetica-Light,Helvetica" font-size="45.9" fill="#000000" transform="matrix(1.00, 0.00, -0.00, -1.00, 553.3, 677.6)">o</text><text xml:space="preserve" font-family="Helvetica-Light,Helvetica" font-size="45.9" fill="#000000" transform="matrix(1.00, 0.00, -0.00, -1.00, 578.9, 677.6)">m</text><text xml:space="preserve" font-family="Helvetica-Light,Helvetica" font-size="45.9" fill="#000000" transform="matrix(1.00, 0.00, -0.00, -1.00, 617.1, 677.6)">p</text><text xml:space="preserve" font-family="Helvetica-Light,Helvetica" font-size="45.9" fill="#000000" transform="matrix(1.00, 0.00, -0.00, -1.00, 645.1, 677.6)">a</text><text xml:space="preserve" font-family="Helvetica-Light,Helvetica" font-size="45.9" fill="#000000" transform="matrix(1.00, 0.00, -0.00, -1.00, 670.7, 677.6)">t</text><text xml:space="preserve" font-family="Helvetica-Light,Helvetica" font-size="45.9" fill="#000000" transform="matrix(1.00, 0.00, -0.00, -1.00, 683.4, 677.6)">i</text><text xml:space="preserve" font-family="Helvetica-Light,Helvetica" font-size="45.9" fill="#000000" transform="matrix(1.00, 0.00, -0.00, -1.00, 693.6, 677.6)">b</text><text xml:space="preserve" font-family="Helvetica-Light,Helvetica" font-size="45.9" fill="#000000" transform="matrix(1.00, 0.00, -0.00, -1.00, 721.7, 677.6)">l</text><text xml:space="preserve" font-family="Helvetica-Light,Helvetica" font-size="45.9" fill="#000000" transform="matrix(1.00, 0.00, -0.00, -1.00, 731.8, 677.6)">e</text><text xml:space="preserve" font-family="Helvetica-Light,Helvetica" font-size="45.9" fill="#000000" transform="matrix(1.00, 0.00, -0.00, -1.00, 757.4, 677.6)"> </text><text xml:space="preserve" font-family="Helvetica-Light,Helvetica" font-size="45.9" fill="#000000" transform="matrix(1.00, 0.00, -0.00, -1.00, 770.1, 677.6)">B</text><text xml:space="preserve" font-family="Helvetica-Light,Helvetica" font-size="45.9" fill="#000000" transform="matrix(1.00, 0.00, -0.00, -1.00, 800.7, 677.6)">r</text><text xml:space="preserve" font-family="Helvetica-Light,Helvetica" font-size="45.9" fill="#000000" transform="matrix(1.00, 0.00, -0.00, -1.00, 815.2, 677.6)">e</text><text xml:space="preserve" font-family="Helvetica-Light,Helvetica" font-size="45.9" fill="#000000" transform="matrix(1.00, 0.00, -0.00, -1.00, 840.7, 677.6)">a</text><text xml:space="preserve" font-family="Helvetica-Light,Helvetica" font-size="45.9" fill="#000000" transform="matrix(1.00, 0.00, -0.00, -1.00, 866.2, 677.6)">k</text><text xml:space="preserve" font-family="Helvetica-Light,Helvetica" font-size="45.9" fill="#000000" transform="matrix(1.00, 0.00, -0.00, -1.00, 889.2, 677.6)">s</text></g></svg>