<?xml version="1.0" encoding="UTF-8" standalone="no"?><svg xmlns="http://www.w3.org/2000/svg" xmlns:xlink="http://www.w3.org/1999/xlink" clip-rule="evenodd" stroke-miterlimit="10" viewBox="0 0 1024 768"><desc>SVG generated by Keynote</desc><defs></defs><g transform="matrix(1.00, 0.00, -0.00, -1.00, 0.0, 768.0)"><path d="M 0.0 768.0 L 1024.0 768.0 L 1024.0 0.0 L 0.0 0.0 Z M 0.0 768.0 " fill="#FEFFFF"></path><text xml:space="preserve" font-family="Helvetica-Light,Helvetica" font-size="62.2" fill="#000000" transform="matrix(1.00, 0.00, -0.00, -1.00, 455.7, 619.0)">U</text><text xml:space="preserve" font-family="Helvetica-Light,Helvetica" font-size="62.2" fill="#000000" transform="matrix(1.00, 0.00, -0.00, -1.00, 500.7, 619.0)">U</text><text xml:space="preserve" font-family="Helvetica-Light,Helvetica" font-size="62.2" fill="#000000" transform="matrix(1.00, 0.00, -0.00, -1.00, 545.6, 619.0)">I</text><text xml:space="preserve" font-family="Helvetica-Light,Helvetica" font-size="62.2" fill="#000000" transform="matrix(1.00, 0.00, -0.00, -1.00, 562.9, 619.0)">D</text><text xml:space="preserve" font-family="Helvetica-Light,Helvetica" font-size="62.2" fill="#000000" transform="matrix(1.00, 0.00, -0.00, -1.00, 607.9, 619.0)"> </text><text xml:space="preserve" font-family="Helvetica-Light,Helvetica" font-size="62.2" fill="#000000" transform="matrix(1.00, 0.00, -0.00, -1.00, 500.7, 545.0)">v</text><text xml:space="preserve" font-family="Helvetica-Light,Helvetica" font-size="62.2" fill="#000000" transform="matrix(1.00, 0.00, -0.00, -1.00, 531.8, 545.0)">s</text><text xml:space="preserve" font-family="Helvetica-Light,Helvetica" font-size="62.2" fill="#000000" transform="matrix(1.00, 0.00, -0.00, -1.00, 562.9, 545.0)"> </text><text xml:space="preserve" font-family="Helvetica-Light,Helvetica" font-size="62.2" fill="#000000" transform="matrix(1.00, 0.00, -0.00, -1.00, 364.0, 471.0)">S</text><text xml:space="preserve" font-family="Helvetica-Light,Helvetica" font-size="62.2" fill="#000000" transform="matrix(1.00, 0.00, -0.00, -1.00, 402.0, 471.0)">e</text><text xml:space="preserve" font-family="Helvetica-Light,Helvetica" font-size="62.2" fill="#000000" transform="matrix(1.00, 0.00, -0.00, -1.00, 436.6, 471.0)">q</text><text xml:space="preserve" font-family="Helvetica-Light,Helvetica" font-size="62.2" fill="#000000" transform="matrix(1.00, 0.00, -0.00, -1.00, 474.7, 471.0)">u</text><text xml:space="preserve" font-family="Helvetica-Light,Helvetica" font-size="62.2" fill="#000000" transform="matrix(1.00, 0.00, -0.00, -1.00, 509.3, 471.0)">e</text><text xml:space="preserve" font-family="Helvetica-Light,Helvetica" font-size="62.2" fill="#000000" transform="matrix(1.00, 0.00, -0.00, -1.00, 543.9, 471.0)">n</text><text xml:space="preserve" font-family="Helvetica-Light,Helvetica" font-size="62.2" fill="#000000" transform="matrix(1.00, 0.00, -0.00, -1.00, 578.5, 471.0)">c</text><text xml:space="preserve" font-family="Helvetica-Light,Helvetica" font-size="62.2" fill="#000000" transform="matrix(1.00, 0.00, -0.00, -1.00, 613.1, 471.0)">i</text><text xml:space="preserve" font-family="Helvetica-Light,Helvetica" font-size="62.2" fill="#000000" transform="matrix(1.00, 0.00, -0.00, -1.00, 626.9, 471.0)">n</text><text xml:space="preserve" font-family="Helvetica-Light,Helvetica" font-size="62.2" fill="#000000" transform="matrix(1.00, 0.00, -0.00, -1.00, 661.6, 471.0)">g</text><text xml:space="preserve" font-family="Helvetica-Light,Helvetica" font-size="62.2" fill="#000000" transform="matrix(1.00, 0.00, -0.00, -1.00, 699.6, 471.0)"> </text><text xml:space="preserve" font-family="Helvetica-Light,Helvetica" font-size="62.2" fill="#000000" transform="matrix(1.00, 0.00, -0.00, -1.00, 302.3, 397.0)">(</text><text xml:space="preserve" font-family="Helvetica-Light,Helvetica" font-size="62.2" fill="#000000" transform="matrix(1.00, 0.00, -0.00, -1.00, 323.0, 397.0)">a</text><text xml:space="preserve" font-family="Helvetica-Light,Helvetica" font-size="62.2" fill="#000000" transform="matrix(1.00, 0.00, -0.00, -1.00, 357.7, 397.0)">u</text><text xml:space="preserve" font-family="Helvetica-Light,Helvetica" font-size="62.2" fill="#000000" transform="matrix(1.00, 0.00, -0.00, -1.00, 392.3, 397.0)">t</text><text xml:space="preserve" font-family="Helvetica-Light,Helvetica" font-size="62.2" fill="#000000" transform="matrix(1.00, 0.00, -0.00, -1.00, 409.6, 397.0)">o</text><text xml:space="preserve" font-family="Helvetica-Light,Helvetica" font-size="62.2" fill="#000000" transform="matrix(1.00, 0.00, -0.00, -1.00, 444.2, 397.0)">-</text><text xml:space="preserve" font-family="Helvetica-Light,Helvetica" font-size="62.2" fill="#000000" transform="matrix(1.00, 0.00, -0.00, -1.00, 464.9, 397.0)">i</text><text xml:space="preserve" font-family="Helvetica-Light,Helvetica" font-size="62.2" fill="#000000" transform="matrix(1.00, 0.00, -0.00, -1.00, 478.7, 397.0)">n</text><text xml:space="preserve" font-family="Helvetica-Light,Helvetica" font-size="62.2" fill="#000000" transform="matrix(1.00, 0.00, -0.00, -1.00, 513.3, 397.0)">c</text><text xml:space="preserve" font-family="Helvetica-Light,Helvetica" font-size="62.2" fill="#000000" transform="matrix(1.00, 0.00, -0.00, -1.00, 548.0, 397.0)">r</text><text xml:space="preserve" font-family="Helvetica-Light,Helvetica" font-size="62.2" fill="#000000" transform="matrix(1.00, 0.00, -0.00, -1.00, 567.6, 397.0)">e</text><text xml:space="preserve" font-family="Helvetica-Light,Helvetica" font-size="62.2" fill="#000000" transform="matrix(1.00, 0.00, -0.00, -1.00, 602.2, 397.0)">m</text><text xml:space="preserve" font-family="Helvetica-Light,Helvetica" font-size="62.2" fill="#000000" transform="matrix(1.00, 0.00, -0.00, -1.00, 654.0, 397.0)">e</text><text xml:space="preserve" font-family="Helvetica-Light,Helvetica" font-size="62.2" fill="#000000" transform="matrix(1.00, 0.00, -0.00, -1.00, 688.6, 397.0)">n</text><text xml:space="preserve" font-family="Helvetica-Light,Helvetica" font-size="62.2" fill="#000000" transform="matrix(1.00, 0.00, -0.00, -1.00, 723.2, 397.0)">t</text><text xml:space="preserve" font-family="Helvetica-Light,Helvetica" font-size="62.2" fill="#000000" transform="matrix(1.00, 0.00, -0.00, -1.00, 740.6, 397.0)">)</text><text xml:space="preserve" font-family="LucidaGrande,Lucida Grande" font-size="62.2" fill="#000000" transform="matrix(1.00, 0.00, -0.00, -1.00, 761.3, 397.0)"> </text><text xml:space="preserve" font-family="LucidaGrande,Lucida Grande" font-size="62.2" fill="#000000" transform="matrix(1.00, 0.00, -0.00, -1.00, 531.8, 323.0)"> </text><text xml:space="preserve" font-family="Helvetica-Light,Helvetica" font-size="62.2" fill="#000000" transform="matrix(1.00, 0.00, -0.00, -1.00, 125.3, 249.0)">f</text><text xml:space="preserve" font-family="Helvetica-Light,Helvetica" font-size="62.2" fill="#000000" transform="matrix(1.00, 0.00, -0.00, -1.00, 142.6, 249.0)">o</text><text xml:space="preserve" font-family="Helvetica-Light,Helvetica" font-size="62.2" fill="#000000" transform="matrix(1.00, 0.00, -0.00, -1.00, 177.2, 249.0)">r</text><text xml:space="preserve" font-family="Helvetica-Light,Helvetica" font-size="62.2" fill="#000000" transform="matrix(1.00, 0.00, -0.00, -1.00, 197.9, 249.0)"> </text><text xml:space="preserve" font-family="Helvetica-Light,Helvetica" font-size="62.2" fill="#000000" transform="matrix(1.00, 0.00, -0.00, -1.00, 215.2, 249.0)">e</text><text xml:space="preserve" font-family="Helvetica-Light,Helvetica" font-size="62.2" fill="#000000" transform="matrix(1.00, 0.00, -0.00, -1.00, 249.8, 249.0)">n</text><text xml:space="preserve" font-family="Helvetica-Light,Helvetica" font-size="62.2" fill="#000000" transform="matrix(1.00, 0.00, -0.00, -1.00, 284.4, 249.0)">t</text><text xml:space="preserve" font-family="Helvetica-Light,Helvetica" font-size="62.2" fill="#000000" transform="matrix(1.00, 0.00, -0.00, -1.00, 301.8, 249.0)">i</text><text xml:space="preserve" font-family="Helvetica-Light,Helvetica" font-size="62.2" fill="#000000" transform="matrix(1.00, 0.00, -0.00, -1.00, 315.6, 249.0)">t</text><text xml:space="preserve" font-family="Helvetica-Light,Helvetica" font-size="62.2" fill="#000000" transform="matrix(1.00, 0.00, -0.00, -1.00, 332.9, 249.0)">y</text><text xml:space="preserve" font-family="Helvetica-Light,Helvetica" font-size="62.2" fill="#000000" transform="matrix(1.00, 0.00, -0.00, -1.00, 364.0, 249.0)"> </text><text xml:space="preserve" font-family="Helvetica-Light,Helvetica" font-size="62.2" fill="#000000" transform="matrix(1.00, 0.00, -0.00, -1.00, 381.3, 249.0)">(</text><text xml:space="preserve" font-family="Helvetica-Light,Helvetica" font-size="62.2" fill="#000000" transform="matrix(1.00, 0.00, -0.00, -1.00, 402.0, 249.0)">d</text><text xml:space="preserve" font-family="Helvetica-Light,Helvetica" font-size="62.2" fill="#000000" transform="matrix(1.00, 0.00, -0.00, -1.00, 440.1, 249.0)">b</text><text xml:space="preserve" font-family="Helvetica-Light,Helvetica" font-size="62.2" fill="#000000" transform="matrix(1.00, 0.00, -0.00, -1.00, 478.1, 249.0)"> </text><text xml:space="preserve" font-family="Helvetica-Light,Helvetica" font-size="62.2" fill="#000000" transform="matrix(1.00, 0.00, -0.00, -1.00, 495.4, 249.0)">r</text><text xml:space="preserve" font-family="Helvetica-Light,Helvetica" font-size="62.2" fill="#000000" transform="matrix(1.00, 0.00, -0.00, -1.00, 515.0, 249.0)">e</text><text xml:space="preserve" font-family="Helvetica-Light,Helvetica" font-size="62.2" fill="#000000" transform="matrix(1.00, 0.00, -0.00, -1.00, 549.6, 249.0)">c</text><text xml:space="preserve" font-family="Helvetica-Light,Helvetica" font-size="62.2" fill="#000000" transform="matrix(1.00, 0.00, -0.00, -1.00, 584.2, 249.0)">o</text><text xml:space="preserve" font-family="Helvetica-Light,Helvetica" font-size="62.2" fill="#000000" transform="matrix(1.00, 0.00, -0.00, -1.00, 618.9, 249.0)">r</text><text xml:space="preserve" font-family="Helvetica-Light,Helvetica" font-size="62.2" fill="#000000" transform="matrix(1.00, 0.00, -0.00, -1.00, 638.5, 249.0)">d</text><text xml:space="preserve" font-family="Helvetica-Light,Helvetica" font-size="62.2" fill="#000000" transform="matrix(1.00, 0.00, -0.00, -1.00, 676.5, 249.0)">)</text><text xml:space="preserve" font-family="Helvetica-Light,Helvetica" font-size="62.2" fill="#000000" transform="matrix(1.00, 0.00, -0.00, -1.00, 697.2, 249.0)"> </text><text xml:space="preserve" font-family="Helvetica-Light,Helvetica" font-size="62.2" fill="#000000" transform="matrix(1.00, 0.00, -0.00, -1.00, 714.5, 249.0)">c</text><text xml:space="preserve" font-family="Helvetica-Light,Helvetica" font-size="62.2" fill="#000000" transform="matrix(1.00, 0.00, -0.00, -1.00, 749.1, 249.0)">r</text><text xml:space="preserve" font-family="Helvetica-Light,Helvetica" font-size="62.2" fill="#000000" transform="matrix(1.00, 0.00, -0.00, -1.00, 768.8, 249.0)">e</text><text xml:space="preserve" font-family="Helvetica-Light,Helvetica" font-size="62.2" fill="#000000" transform="matrix(1.00, 0.00, -0.00, -1.00, 803.4, 249.0)">a</text><text xml:space="preserve" font-family="Helvetica-Light,Helvetica" font-size="62.2" fill="#000000" transform="matrix(1.00, 0.00, -0.00, -1.00, 838.0, 249.0)">t</text><text xml:space="preserve" font-family="Helvetica-Light,Helvetica" font-size="62.2" fill="#000000" transform="matrix(1.00, 0.00, -0.00, -1.00, 855.3, 249.0)">i</text><text xml:space="preserve" font-family="Helvetica-Light,Helvetica" font-size="62.2" fill="#000000" transform="matrix(1.00, 0.00, -0.00, -1.00, 869.1, 249.0)">o</text><text xml:space="preserve" font-family="Helvetica-Light,Helvetica" font-size="62.2" fill="#000000" transform="matrix(1.00, 0.00, -0.00, -1.00, 903.7, 249.0)">n</text></g></svg>