<?xml version="1.0" encoding="UTF-8" standalone="no"?><svg xmlns="http://www.w3.org/2000/svg" xmlns:xlink="http://www.w3.org/1999/xlink" clip-rule="evenodd" stroke-miterlimit="10" viewBox="0 0 1024 768"><desc>SVG generated by Keynote</desc><defs></defs><g transform="matrix(1.00, 0.00, -0.00, -1.00, 0.0, 768.0)"><path d="M 0.0 768.0 L 1024.0 768.0 L 1024.0 0.0 L 0.0 0.0 Z M 0.0 768.0 " fill="#FEFFFF"></path><text xml:space="preserve" font-family="Helvetica-Light,Helvetica" font-size="51.0" fill="#000000" transform="matrix(1.00, 0.00, -0.00, -1.00, 180.9, 652.7)">P</text><text xml:space="preserve" font-family="Helvetica-Light,Helvetica" font-size="51.0" fill="#000000" transform="matrix(1.00, 0.00, -0.00, -1.00, 212.0, 652.7)">H</text><text xml:space="preserve" font-family="Helvetica-Light,Helvetica" font-size="51.0" fill="#000000" transform="matrix(1.00, 0.00, -0.00, -1.00, 248.9, 652.7)">P</text><text xml:space="preserve" font-family="Helvetica-Light,Helvetica" font-size="51.0" fill="#000000" transform="matrix(1.00, 0.00, -0.00, -1.00, 280.0, 652.7)">7</text><text xml:space="preserve" font-family="Helvetica-Light,Helvetica" font-size="51.0" fill="#000000" transform="matrix(1.00, 0.00, -0.00, -1.00, 308.4, 652.7)">:</text><text xml:space="preserve" font-family="Helvetica-Light,Helvetica" font-size="51.0" fill="#000000" transform="matrix(1.00, 0.00, -0.00, -1.00, 322.6, 652.7)"> </text><text xml:space="preserve" font-family="Helvetica-Light,Helvetica" font-size="51.0" fill="#000000" transform="matrix(1.00, 0.00, -0.00, -1.00, 336.7, 652.7)">D</text><text xml:space="preserve" font-family="Helvetica-Light,Helvetica" font-size="51.0" fill="#000000" transform="matrix(1.00, 0.00, -0.00, -1.00, 373.6, 652.7)">e</text><text xml:space="preserve" font-family="Helvetica-Light,Helvetica" font-size="51.0" fill="#000000" transform="matrix(1.00, 0.00, -0.00, -1.00, 401.9, 652.7)">p</text><text xml:space="preserve" font-family="Helvetica-Light,Helvetica" font-size="51.0" fill="#000000" transform="matrix(1.00, 0.00, -0.00, -1.00, 433.1, 652.7)">l</text><text xml:space="preserve" font-family="Helvetica-Light,Helvetica" font-size="51.0" fill="#000000" transform="matrix(1.00, 0.00, -0.00, -1.00, 444.4, 652.7)">o</text><text xml:space="preserve" font-family="Helvetica-Light,Helvetica" font-size="51.0" fill="#000000" transform="matrix(1.00, 0.00, -0.00, -1.00, 472.8, 652.7)">y</text><text xml:space="preserve" font-family="Helvetica-Light,Helvetica" font-size="51.0" fill="#000000" transform="matrix(1.00, 0.00, -0.00, -1.00, 498.3, 652.7)">i</text><text xml:space="preserve" font-family="Helvetica-Light,Helvetica" font-size="51.0" fill="#000000" transform="matrix(1.00, 0.00, -0.00, -1.00, 509.6, 652.7)">n</text><text xml:space="preserve" font-family="Helvetica-Light,Helvetica" font-size="51.0" fill="#000000" transform="matrix(1.00, 0.00, -0.00, -1.00, 537.9, 652.7)">g</text><text xml:space="preserve" font-family="Helvetica-Light,Helvetica" font-size="51.0" fill="#000000" transform="matrix(1.00, 0.00, -0.00, -1.00, 569.1, 652.7)"> </text><text xml:space="preserve" font-family="Helvetica-Light,Helvetica" font-size="51.0" fill="#000000" transform="matrix(1.00, 0.00, -0.00, -1.00, 583.3, 652.7)">r</text><text xml:space="preserve" font-family="Helvetica-Light,Helvetica" font-size="51.0" fill="#000000" transform="matrix(1.00, 0.00, -0.00, -1.00, 599.3, 652.7)">e</text><text xml:space="preserve" font-family="Helvetica-Light,Helvetica" font-size="51.0" fill="#000000" transform="matrix(1.00, 0.00, -0.00, -1.00, 627.7, 652.7)">a</text><text xml:space="preserve" font-family="Helvetica-Light,Helvetica" font-size="51.0" fill="#000000" transform="matrix(1.00, 0.00, -0.00, -1.00, 656.0, 652.7)">d</text><text xml:space="preserve" font-family="Helvetica-Light,Helvetica" font-size="51.0" fill="#000000" transform="matrix(1.00, 0.00, -0.00, -1.00, 687.2, 652.7)">y</text><text xml:space="preserve" font-family="Helvetica-Light,Helvetica" font-size="51.0" fill="#000000" transform="matrix(1.00, 0.00, -0.00, -1.00, 712.7, 652.7)"> </text><text xml:space="preserve" font-family="Helvetica-Light,Helvetica" font-size="51.0" fill="#000000" transform="matrix(1.00, 0.00, -0.00, -1.00, 726.9, 652.7)">c</text><text xml:space="preserve" font-family="Helvetica-Light,Helvetica" font-size="51.0" fill="#000000" transform="matrix(1.00, 0.00, -0.00, -1.00, 755.2, 652.7)">o</text><text xml:space="preserve" font-family="Helvetica-Light,Helvetica" font-size="51.0" fill="#000000" transform="matrix(1.00, 0.00, -0.00, -1.00, 783.6, 652.7)">d</text><text xml:space="preserve" font-family="Helvetica-Light,Helvetica" font-size="51.0" fill="#000000" transform="matrix(1.00, 0.00, -0.00, -1.00, 814.8, 652.7)">e</text><text xml:space="preserve" font-family="Helvetica-Light,Helvetica" font-size="51.0" fill="#000000" transform="matrix(1.00, 0.00, -0.00, -1.00, 248.9, 549.7)">B</text><text xml:space="preserve" font-family="Helvetica-Light,Helvetica" font-size="51.0" fill="#000000" transform="matrix(1.00, 0.00, -0.00, -1.00, 283.0, 549.7)">l</text><text xml:space="preserve" font-family="Helvetica-Light,Helvetica" font-size="51.0" fill="#000000" transform="matrix(1.00, 0.00, -0.00, -1.00, 294.3, 549.7)">u</text><text xml:space="preserve" font-family="Helvetica-Light,Helvetica" font-size="51.0" fill="#000000" transform="matrix(1.00, 0.00, -0.00, -1.00, 322.6, 549.7)">e</text><text xml:space="preserve" font-family="Helvetica-Light,Helvetica" font-size="51.0" fill="#000000" transform="matrix(1.00, 0.00, -0.00, -1.00, 351.0, 549.7)"> </text><text xml:space="preserve" font-family="Helvetica-Light,Helvetica" font-size="51.0" fill="#000000" transform="matrix(1.00, 0.00, -0.00, -1.00, 365.2, 549.7)">G</text><text xml:space="preserve" font-family="Helvetica-Light,Helvetica" font-size="51.0" fill="#000000" transform="matrix(1.00, 0.00, -0.00, -1.00, 404.9, 549.7)">r</text><text xml:space="preserve" font-family="Helvetica-Light,Helvetica" font-size="51.0" fill="#000000" transform="matrix(1.00, 0.00, -0.00, -1.00, 420.9, 549.7)">e</text><text xml:space="preserve" font-family="Helvetica-Light,Helvetica" font-size="51.0" fill="#000000" transform="matrix(1.00, 0.00, -0.00, -1.00, 449.3, 549.7)">e</text><text xml:space="preserve" font-family="Helvetica-Light,Helvetica" font-size="51.0" fill="#000000" transform="matrix(1.00, 0.00, -0.00, -1.00, 477.6, 549.7)">n</text><text xml:space="preserve" font-family="Helvetica-Light,Helvetica" font-size="51.0" fill="#000000" transform="matrix(1.00, 0.00, -0.00, -1.00, 506.0, 549.7)"> </text><text xml:space="preserve" font-family="Helvetica-Light,Helvetica" font-size="51.0" fill="#000000" transform="matrix(1.00, 0.00, -0.00, -1.00, 520.2, 549.7)">D</text><text xml:space="preserve" font-family="Helvetica-Light,Helvetica" font-size="51.0" fill="#000000" transform="matrix(1.00, 0.00, -0.00, -1.00, 557.0, 549.7)">e</text><text xml:space="preserve" font-family="Helvetica-Light,Helvetica" font-size="51.0" fill="#000000" transform="matrix(1.00, 0.00, -0.00, -1.00, 585.3, 549.7)">p</text><text xml:space="preserve" font-family="Helvetica-Light,Helvetica" font-size="51.0" fill="#000000" transform="matrix(1.00, 0.00, -0.00, -1.00, 616.5, 549.7)">l</text><text xml:space="preserve" font-family="Helvetica-Light,Helvetica" font-size="51.0" fill="#000000" transform="matrix(1.00, 0.00, -0.00, -1.00, 627.8, 549.7)">o</text><text xml:space="preserve" font-family="Helvetica-Light,Helvetica" font-size="51.0" fill="#000000" transform="matrix(1.00, 0.00, -0.00, -1.00, 656.2, 549.7)">y</text><text xml:space="preserve" font-family="Helvetica-Light,Helvetica" font-size="51.0" fill="#000000" transform="matrix(1.00, 0.00, -0.00, -1.00, 681.7, 549.7)">m</text><text xml:space="preserve" font-family="Helvetica-Light,Helvetica" font-size="51.0" fill="#000000" transform="matrix(1.00, 0.00, -0.00, -1.00, 724.2, 549.7)">e</text><text xml:space="preserve" font-family="Helvetica-Light,Helvetica" font-size="51.0" fill="#000000" transform="matrix(1.00, 0.00, -0.00, -1.00, 752.5, 549.7)">n</text><text xml:space="preserve" font-family="Helvetica-Light,Helvetica" font-size="51.0" fill="#000000" transform="matrix(1.00, 0.00, -0.00, -1.00, 780.9, 549.7)">t</text><g><clipPath id="clip0x610004cb91a0"><path d="M 273.0 481.0 L 751.0 481.0 L 751.0 44.0 L 273.0 44.0 Z M 273.1 481.5 "></path></clipPath><g clip-path="url(#clip0x610004cb91a0)"><image xlink:href="../../0713FEFD-2059-4772-AF1B-FBEB4415A28A/assets/424A95117220023AFB9D8F5134FA9288.png" width="341.00" height="312.00" transform="matrix(1.40, 0.00, -0.00, -1.40, 273.0, 501.0)"></image></g></g><path d="M 8.6 0.0 L 9.6 0.0 L 196.9 0.0 " fill="none" stroke="#000000" stroke-width="2.00" transform="matrix(0.79, 0.61, 0.61, -0.79, 673.3, 254.7)"></path><path d="M 678.0 264.4 L 673.3 254.7 L 683.8 256.7 Z M 678.0 264.4 " fill="#000000"></path><text xml:space="preserve" font-family="Helvetica-Light,Helvetica" font-size="36.0" fill="#000000" transform="matrix(1.00, 0.00, -0.00, -1.00, 711.5, 379.3)">S</text><text xml:space="preserve" font-family="Helvetica-Light,Helvetica" font-size="36.0" fill="#000000" transform="matrix(1.00, 0.00, -0.00, -1.00, 733.5, 379.3)">m</text><text xml:space="preserve" font-family="Helvetica-Light,Helvetica" font-size="36.0" fill="#000000" transform="matrix(1.00, 0.00, -0.00, -1.00, 763.5, 379.3)">o</text><text xml:space="preserve" font-family="Helvetica-Light,Helvetica" font-size="36.0" fill="#000000" transform="matrix(1.00, 0.00, -0.00, -1.00, 783.5, 379.3)">k</text><text xml:space="preserve" font-family="Helvetica-Light,Helvetica" font-size="36.0" fill="#000000" transform="matrix(1.00, 0.00, -0.00, -1.00, 801.5, 379.3)">e</text><text xml:space="preserve" font-family="Helvetica-Light,Helvetica" font-size="36.0" fill="#000000" transform="matrix(1.00, 0.00, -0.00, -1.00, 821.5, 379.3)"> </text><text xml:space="preserve" font-family="Helvetica-Light,Helvetica" font-size="36.0" fill="#000000" transform="matrix(1.00, 0.00, -0.00, -1.00, 831.5, 379.3)">T</text><text xml:space="preserve" font-family="Helvetica-Light,Helvetica" font-size="36.0" fill="#000000" transform="matrix(1.00, 0.00, -0.00, -1.00, 847.5, 379.3)">e</text><text xml:space="preserve" font-family="Helvetica-Light,Helvetica" font-size="36.0" fill="#000000" transform="matrix(1.00, 0.00, -0.00, -1.00, 867.5, 379.3)">s</text><text xml:space="preserve" font-family="Helvetica-Light,Helvetica" font-size="36.0" fill="#000000" transform="matrix(1.00, 0.00, -0.00, -1.00, 885.5, 379.3)">t</text><text xml:space="preserve" font-family="Helvetica-Light,Helvetica" font-size="36.0" fill="#000000" transform="matrix(1.00, 0.00, -0.00, -1.00, 895.5, 379.3)">s</text><path d="M 8.6 0.0 L 9.6 0.0 L 216.1 0.0 " fill="none" stroke="#000000" stroke-width="2.00" transform="matrix(0.98, 0.22, 0.22, -0.98, 683.6, 190.3)"></path><path d="M 691.9 197.1 L 683.6 190.3 L 694.0 187.8 Z M 691.9 197.1 " fill="#000000"></path><text xml:space="preserve" font-family="Helvetica-Light,Helvetica" font-size="36.0" fill="#000000" transform="matrix(1.00, 0.00, -0.00, -1.00, 767.4, 242.3)">H</text><text xml:space="preserve" font-family="Helvetica-Light,Helvetica" font-size="36.0" fill="#000000" transform="matrix(1.00, 0.00, -0.00, -1.00, 793.4, 242.3)">e</text><text xml:space="preserve" font-family="Helvetica-Light,Helvetica" font-size="36.0" fill="#000000" transform="matrix(1.00, 0.00, -0.00, -1.00, 813.5, 242.3)">a</text><text xml:space="preserve" font-family="Helvetica-Light,Helvetica" font-size="36.0" fill="#000000" transform="matrix(1.00, 0.00, -0.00, -1.00, 833.5, 242.3)">l</text><text xml:space="preserve" font-family="Helvetica-Light,Helvetica" font-size="36.0" fill="#000000" transform="matrix(1.00, 0.00, -0.00, -1.00, 841.5, 242.3)">t</text><text xml:space="preserve" font-family="Helvetica-Light,Helvetica" font-size="36.0" fill="#000000" transform="matrix(1.00, 0.00, -0.00, -1.00, 851.5, 242.3)">h</text><text xml:space="preserve" font-family="Helvetica-Light,Helvetica" font-size="36.0" fill="#000000" transform="matrix(1.00, 0.00, -0.00, -1.00, 871.5, 242.3)">c</text><text xml:space="preserve" font-family="Helvetica-Light,Helvetica" font-size="36.0" fill="#000000" transform="matrix(1.00, 0.00, -0.00, -1.00, 891.5, 242.3)">h</text><text xml:space="preserve" font-family="Helvetica-Light,Helvetica" font-size="36.0" fill="#000000" transform="matrix(1.00, 0.00, -0.00, -1.00, 911.5, 242.3)">e</text><text xml:space="preserve" font-family="Helvetica-Light,Helvetica" font-size="36.0" fill="#000000" transform="matrix(1.00, 0.00, -0.00, -1.00, 931.5, 242.3)">c</text><text xml:space="preserve" font-family="Helvetica-Light,Helvetica" font-size="36.0" fill="#000000" transform="matrix(1.00, 0.00, -0.00, -1.00, 951.6, 242.3)">k</text><text xml:space="preserve" font-family="Helvetica-Light,Helvetica" font-size="36.0" fill="#000000" transform="matrix(1.00, 0.00, -0.00, -1.00, 969.6, 242.3)">s</text></g></svg>