<?xml version="1.0" encoding="UTF-8" standalone="no"?><svg xmlns="http://www.w3.org/2000/svg" xmlns:xlink="http://www.w3.org/1999/xlink" clip-rule="evenodd" stroke-miterlimit="10" viewBox="0 0 1024 768"><desc>SVG generated by Keynote</desc><defs><linearGradient id="gradSh1.34" x1="0.0" y1="0.0" x2="100.0" y2="0.0" gradientUnits="userSpaceOnUse" gradientTransform="matrix(0.00, -0.48, -2.11, 0.00, 479.5, 530.0)"><stop offset="0.00000" stop-color="#FBFBFB"></stop><stop offset="0.01466" stop-color="#FAFAFA"></stop><stop offset="1.00000" stop-color="#BEBEBE"></stop></linearGradient><linearGradient id="gradSh1.35" x1="0.0" y1="0.0" x2="100.0" y2="0.0" gradientUnits="userSpaceOnUse" gradientTransform="matrix(0.00, -1.02, -2.11, 0.00, 798.5, 199.0)"><stop offset="0.00000" stop-color="#FBFBFB"></stop><stop offset="0.01466" stop-color="#FAFAFA"></stop><stop offset="1.00000" stop-color="#BEBEBE"></stop></linearGradient></defs><g transform="matrix(1.00, 0.00, -0.00, -1.00, 0.0, 768.0)"><path d="M 0.0 768.0 L 1024.0 768.0 L 1024.0 0.0 L 0.0 0.0 Z M 0.0 768.0 " fill="#FEFFFF"></path><text xml:space="preserve" font-family="Helvetica-Light,Helvetica" font-size="80.0" fill="#000000" transform="matrix(1.00, 0.00, -0.00, -1.00, 176.4, 695.6)">F</text><text xml:space="preserve" font-family="Helvetica-Light,Helvetica" font-size="80.0" fill="#000000" transform="matrix(1.00, 0.00, -0.00, -1.00, 220.9, 695.6)">r</text><text xml:space="preserve" font-family="Helvetica-Light,Helvetica" font-size="80.0" fill="#000000" transform="matrix(1.00, 0.00, -0.00, -1.00, 247.5, 695.6)">a</text><text xml:space="preserve" font-family="Helvetica-Light,Helvetica" font-size="80.0" fill="#000000" transform="matrix(1.00, 0.00, -0.00, -1.00, 292.0, 695.6)">m</text><text xml:space="preserve" font-family="Helvetica-Light,Helvetica" font-size="80.0" fill="#000000" transform="matrix(1.00, 0.00, -0.00, -1.00, 358.6, 695.6)">e</text><text xml:space="preserve" font-family="Helvetica-Light,Helvetica" font-size="80.0" fill="#000000" transform="matrix(1.00, 0.00, -0.00, -1.00, 403.1, 695.6)">w</text><text xml:space="preserve" font-family="Helvetica-Light,Helvetica" font-size="80.0" fill="#000000" transform="matrix(1.00, 0.00, -0.00, -1.00, 460.9, 695.6)">o</text><text xml:space="preserve" font-family="Helvetica-Light,Helvetica" font-size="80.0" fill="#000000" transform="matrix(1.00, 0.00, -0.00, -1.00, 505.4, 695.6)">r</text><text xml:space="preserve" font-family="Helvetica-Light,Helvetica" font-size="80.0" fill="#000000" transform="matrix(1.00, 0.00, -0.00, -1.00, 532.0, 695.6)">k</text><text xml:space="preserve" font-family="Helvetica-Light,Helvetica" font-size="80.0" fill="#000000" transform="matrix(1.00, 0.00, -0.00, -1.00, 572.0, 695.6)"> </text><text xml:space="preserve" font-family="Helvetica-Light,Helvetica" font-size="80.0" fill="#000000" transform="matrix(1.00, 0.00, -0.00, -1.00, 594.2, 695.6)">D</text><text xml:space="preserve" font-family="Helvetica-Light,Helvetica" font-size="80.0" fill="#000000" transform="matrix(1.00, 0.00, -0.00, -1.00, 652.0, 695.6)">e</text><text xml:space="preserve" font-family="Helvetica-Light,Helvetica" font-size="80.0" fill="#000000" transform="matrix(1.00, 0.00, -0.00, -1.00, 696.5, 695.6)">s</text><text xml:space="preserve" font-family="Helvetica-Light,Helvetica" font-size="80.0" fill="#000000" transform="matrix(1.00, 0.00, -0.00, -1.00, 736.5, 695.6)">i</text><text xml:space="preserve" font-family="Helvetica-Light,Helvetica" font-size="80.0" fill="#000000" transform="matrix(1.00, 0.00, -0.00, -1.00, 754.2, 695.6)">g</text><text xml:space="preserve" font-family="Helvetica-Light,Helvetica" font-size="80.0" fill="#000000" transform="matrix(1.00, 0.00, -0.00, -1.00, 803.1, 695.6)">n</text><image xlink:href="9D63757054B6836CC993A3A02CD8CBFF.png" width="250.00" height="192.00" transform="matrix(1.00, 0.00, -0.00, -1.00, 354.3, 590.1)" opacity="0.50"></image><g><clipPath id="clip0x6000030a9f00"><path d="M 357.0 589.0 L 602.0 589.0 L 602.0 403.0 L 357.0 403.0 Z M 357.3 589.1 "></path></clipPath><g clip-path="url(#clip0x6000030a9f00)"><image xlink:href="../../E8B18B26-1A63-4910-AEF5-8D682BE7AC19/assets/C3C0FC898C94653CAF8AD846D6CCD108.png" width="600.00" height="600.00" transform="matrix(0.50, 0.00, -0.00, -0.50, 357.0, 589.0)"></image></g></g><g><clipPath id="clip0x6080030a58e0"><path d="M 355.3 403.2 L 603.5 403.2 L 603.5 591.1 L 355.3 591.1 Z M 355.3 403.2 "></path></clipPath><g clip-path="url(#clip0x6080030a58e0)"><text xml:space="preserve" font-family="Helvetica-Light,Helvetica" font-size="24.0" fill="#FEFFFE" transform="matrix(1.00, 0.00, -0.00, -1.00, 445.4, 561.6)">A</text><text xml:space="preserve" font-family="Helvetica-Light,Helvetica" font-size="24.0" fill="#FEFFFE" transform="matrix(1.00, 0.00, -0.00, -1.00, 461.4, 561.6)">c</text><text xml:space="preserve" font-family="Helvetica-Light,Helvetica" font-size="24.0" fill="#FEFFFE" transform="matrix(1.00, 0.00, -0.00, -1.00, 474.7, 561.6)">t</text><text xml:space="preserve" font-family="Helvetica-Light,Helvetica" font-size="24.0" fill="#FEFFFE" transform="matrix(1.00, 0.00, -0.00, -1.00, 481.4, 561.6)">i</text><text xml:space="preserve" font-family="Helvetica-Light,Helvetica" font-size="24.0" fill="#FEFFFE" transform="matrix(1.00, 0.00, -0.00, -1.00, 486.7, 561.6)">o</text><text xml:space="preserve" font-family="Helvetica-Light,Helvetica" font-size="24.0" fill="#FEFFFE" transform="matrix(1.00, 0.00, -0.00, -1.00, 500.1, 561.6)">n</text></g></g><path d="M 5.3 145.3 L 6.3 144.7 C 45.4 96.5 84.3 48.2 123.4 0.0 " fill="none" stroke="#000000" stroke-width="2.00" transform="matrix(1.00, 0.00, 0.00, -1.00, 280.7, 403.3)"></path><path d="M 282.9 261.8 L 280.6 251.3 L 290.4 255.8 Z M 282.9 261.8 " fill="#000000"></path><image xlink:href="BA4C370652E7C185A8163FE20C99096C.png" width="216.00" height="52.00" transform="matrix(1.00, 0.00, -0.00, -1.00, 371.5, 529.9)" opacity="0.50"></image><g><clipPath id="clip0x6000030aa0e0"><path d="M 375.0 529.0 L 584.0 529.0 L 584.0 483.0 L 375.0 483.0 Z M 374.5 528.9 "></path></clipPath><g clip-path="url(#clip0x6000030aa0e0)"><path d="M 375.0 529.0 L 584.0 529.0 L 584.0 483.0 L 375.0 483.0 Z M 374.5 528.9 " fill="url(#gradSh1.34)"></path></g></g><g><clipPath id="clip0x6000032aa500"><path d="M 372.5 483.0 L 586.3 483.0 L 586.3 528.9 L 372.5 528.9 Z M 372.5 483.0 "></path></clipPath><g clip-path="url(#clip0x6000032aa500)"><text xml:space="preserve" font-family="Helvetica-Light,Helvetica" font-size="24.0" fill="#000000" transform="matrix(1.00, 0.00, -0.00, -1.00, 392.7, 496.5)">H</text><text xml:space="preserve" font-family="Helvetica-Light,Helvetica" font-size="24.0" fill="#000000" transform="matrix(1.00, 0.00, -0.00, -1.00, 410.0, 496.5)">a</text><text xml:space="preserve" font-family="Helvetica-Light,Helvetica" font-size="24.0" fill="#000000" transform="matrix(1.00, 0.00, -0.00, -1.00, 423.4, 496.5)">n</text><text xml:space="preserve" font-family="Helvetica-Light,Helvetica" font-size="24.0" fill="#000000" transform="matrix(1.00, 0.00, -0.00, -1.00, 436.7, 496.5)">d</text><text xml:space="preserve" font-family="Helvetica-Light,Helvetica" font-size="24.0" fill="#000000" transform="matrix(1.00, 0.00, -0.00, -1.00, 451.4, 496.5)">l</text><text xml:space="preserve" font-family="Helvetica-Light,Helvetica" font-size="24.0" fill="#000000" transform="matrix(1.00, 0.00, -0.00, -1.00, 456.7, 496.5)">e</text><text xml:space="preserve" font-family="Helvetica-Light,Helvetica" font-size="24.0" fill="#000000" transform="matrix(1.00, 0.00, -0.00, -1.00, 470.0, 496.5)"> </text><text xml:space="preserve" font-family="Helvetica-Light,Helvetica" font-size="24.0" fill="#000000" transform="matrix(1.00, 0.00, -0.00, -1.00, 476.7, 496.5)">R</text><text xml:space="preserve" font-family="Helvetica-Light,Helvetica" font-size="24.0" fill="#000000" transform="matrix(1.00, 0.00, -0.00, -1.00, 492.7, 496.5)">e</text><text xml:space="preserve" font-family="Helvetica-Light,Helvetica" font-size="24.0" fill="#000000" transform="matrix(1.00, 0.00, -0.00, -1.00, 506.1, 496.5)">q</text><text xml:space="preserve" font-family="Helvetica-Light,Helvetica" font-size="24.0" fill="#000000" transform="matrix(1.00, 0.00, -0.00, -1.00, 520.7, 496.5)">u</text><text xml:space="preserve" font-family="Helvetica-Light,Helvetica" font-size="24.0" fill="#000000" transform="matrix(1.00, 0.00, -0.00, -1.00, 534.1, 496.5)">e</text><text xml:space="preserve" font-family="Helvetica-Light,Helvetica" font-size="24.0" fill="#000000" transform="matrix(1.00, 0.00, -0.00, -1.00, 547.4, 496.5)">s</text><text xml:space="preserve" font-family="Helvetica-Light,Helvetica" font-size="24.0" fill="#000000" transform="matrix(1.00, 0.00, -0.00, -1.00, 559.4, 496.5)">t</text></g></g><text xml:space="preserve" font-family="Helvetica-Light,Helvetica" font-size="55.0" fill="#000000" transform="matrix(1.00, 0.00, -0.00, -1.00, 422.9, 619.6)">A</text><text xml:space="preserve" font-family="Helvetica-Light,Helvetica" font-size="55.0" fill="#000000" transform="matrix(1.00, 0.00, -0.00, -1.00, 459.5, 619.6)">D</text><text xml:space="preserve" font-family="Helvetica-Light,Helvetica" font-size="55.0" fill="#000000" transform="matrix(1.00, 0.00, -0.00, -1.00, 499.2, 619.6)">R</text><image xlink:href="../../8087E0A4-BA9F-4379-8129-55367AF00D14/assets/9D63757054B6836CC993A3A02CD8CBFF.png" width="250.00" height="192.00" transform="matrix(1.00, 0.00, -0.00, -1.00, 80.3, 252.1)" opacity="0.50"></image><g><clipPath id="clip0x618003ea57c0"><path d="M 83.0 251.0 L 328.0 251.0 L 328.0 65.0 L 83.0 65.0 Z M 83.3 251.1 "></path></clipPath><g clip-path="url(#clip0x618003ea57c0)"><image xlink:href="../../E8B18B26-1A63-4910-AEF5-8D682BE7AC19/assets/C3C0FC898C94653CAF8AD846D6CCD108.png" width="600.00" height="600.00" transform="matrix(0.50, 0.00, -0.00, -0.50, 83.0, 251.0)"></image></g></g><g><clipPath id="clip0x618003ea5d00"><path d="M 81.3 65.2 L 329.5 65.2 L 329.5 253.1 L 81.3 253.1 Z M 81.3 65.2 "></path></clipPath><g clip-path="url(#clip0x618003ea5d00)"><text xml:space="preserve" font-family="Helvetica-Light,Helvetica" font-size="24.0" fill="#FEFFFE" transform="matrix(1.00, 0.00, -0.00, -1.00, 164.1, 223.6)">D</text><text xml:space="preserve" font-family="Helvetica-Light,Helvetica" font-size="24.0" fill="#FEFFFE" transform="matrix(1.00, 0.00, -0.00, -1.00, 181.4, 223.6)">o</text><text xml:space="preserve" font-family="Helvetica-Light,Helvetica" font-size="24.0" fill="#FEFFFE" transform="matrix(1.00, 0.00, -0.00, -1.00, 194.7, 223.6)">m</text><text xml:space="preserve" font-family="Helvetica-Light,Helvetica" font-size="24.0" fill="#FEFFFE" transform="matrix(1.00, 0.00, -0.00, -1.00, 214.7, 223.6)">a</text><text xml:space="preserve" font-family="Helvetica-Light,Helvetica" font-size="24.0" fill="#FEFFFE" transform="matrix(1.00, 0.00, -0.00, -1.00, 228.1, 223.6)">i</text><text xml:space="preserve" font-family="Helvetica-Light,Helvetica" font-size="24.0" fill="#FEFFFE" transform="matrix(1.00, 0.00, -0.00, -1.00, 233.4, 223.6)">n</text></g></g><path d="M 0.0 0.0 L 178.2 0.0 L 179.2 0.0 " fill="none" stroke="#000000" stroke-width="2.00" transform="matrix(0.66, 0.75, 0.75, -0.66, 256.5, 256.5)"></path><path d="M 377.2 387.7 L 379.9 398.1 L 370.0 394.0 Z M 377.2 387.7 " fill="#000000"></path><image xlink:href="../../8087E0A4-BA9F-4379-8129-55367AF00D14/assets/9D63757054B6836CC993A3A02CD8CBFF.png" width="250.00" height="192.00" transform="matrix(1.00, 0.00, -0.00, -1.00, 673.3, 260.1)" opacity="0.50"></image><g><clipPath id="clip0x618003ea6660"><path d="M 676.0 259.0 L 921.0 259.0 L 921.0 73.0 L 676.0 73.0 Z M 676.3 259.1 "></path></clipPath><g clip-path="url(#clip0x618003ea6660)"><image xlink:href="../../E8B18B26-1A63-4910-AEF5-8D682BE7AC19/assets/C3C0FC898C94653CAF8AD846D6CCD108.png" width="600.00" height="600.00" transform="matrix(0.50, 0.00, -0.00, -0.50, 676.0, 259.0)"></image></g></g><g><clipPath id="clip0x618003ea68a0"><path d="M 674.3 73.2 L 922.5 73.2 L 922.5 261.1 L 674.3 261.1 Z M 674.3 73.2 "></path></clipPath><g clip-path="url(#clip0x618003ea68a0)"><text xml:space="preserve" font-family="Helvetica-Light,Helvetica" font-size="24.0" fill="#FEFFFE" transform="matrix(1.00, 0.00, -0.00, -1.00, 739.0, 231.6)">R</text><text xml:space="preserve" font-family="Helvetica-Light,Helvetica" font-size="24.0" fill="#FEFFFE" transform="matrix(1.00, 0.00, -0.00, -1.00, 755.0, 231.6)">e</text><text xml:space="preserve" font-family="Helvetica-Light,Helvetica" font-size="24.0" fill="#FEFFFE" transform="matrix(1.00, 0.00, -0.00, -1.00, 768.4, 231.6)">s</text><text xml:space="preserve" font-family="Helvetica-Light,Helvetica" font-size="24.0" fill="#FEFFFE" transform="matrix(1.00, 0.00, -0.00, -1.00, 780.4, 231.6)">p</text><text xml:space="preserve" font-family="Helvetica-Light,Helvetica" font-size="24.0" fill="#FEFFFE" transform="matrix(1.00, 0.00, -0.00, -1.00, 795.1, 231.6)">o</text><text xml:space="preserve" font-family="Helvetica-Light,Helvetica" font-size="24.0" fill="#FEFFFE" transform="matrix(1.00, 0.00, -0.00, -1.00, 808.4, 231.6)">n</text><text xml:space="preserve" font-family="Helvetica-Light,Helvetica" font-size="24.0" fill="#FEFFFE" transform="matrix(1.00, 0.00, -0.00, -1.00, 821.7, 231.6)">d</text><text xml:space="preserve" font-family="Helvetica-Light,Helvetica" font-size="24.0" fill="#FEFFFE" transform="matrix(1.00, 0.00, -0.00, -1.00, 836.4, 231.6)">e</text><text xml:space="preserve" font-family="Helvetica-Light,Helvetica" font-size="24.0" fill="#FEFFFE" transform="matrix(1.00, 0.00, -0.00, -1.00, 849.8, 231.6)">r</text></g></g><path d="M 133.8 138.3 L 132.8 137.3 C 88.6 91.5 44.2 45.8 0.0 0.0 " fill="none" stroke="#000000" stroke-width="2.00" transform="matrix(1.00, 0.00, 0.00, -1.00, 569.2, 403.3)"></path><path d="M 698.9 262.4 L 709.0 258.8 L 705.8 269.1 Z M 698.9 262.4 " fill="#000000"></path><image xlink:href="B04280FE16BCE022411F5C0E671D6A76.png" width="216.00" height="106.00" transform="matrix(1.00, 0.00, -0.00, -1.00, 690.5, 199.1)" opacity="0.50"></image><g><clipPath id="clip0x6080030a5fa0"><path d="M 694.0 198.0 L 903.0 198.0 L 903.0 98.0 L 694.0 98.0 Z M 693.5 198.1 "></path></clipPath><g clip-path="url(#clip0x6080030a5fa0)"><path d="M 694.0 198.0 L 903.0 198.0 L 903.0 98.0 L 694.0 98.0 Z M 693.5 198.1 " fill="url(#gradSh1.35)"></path></g></g><g><clipPath id="clip0x6080032a61e0"><path d="M 691.5 98.2 L 905.3 98.2 L 905.3 198.1 L 691.5 198.1 Z M 691.5 98.2 "></path></clipPath><g clip-path="url(#clip0x6080032a61e0)"><text xml:space="preserve" font-family="Helvetica-Light,Helvetica" font-size="24.0" fill="#000000" transform="matrix(1.00, 0.00, -0.00, -1.00, 748.4, 153.7)">G</text><text xml:space="preserve" font-family="Helvetica-Light,Helvetica" font-size="24.0" fill="#000000" transform="matrix(1.00, 0.00, -0.00, -1.00, 767.0, 153.7)">e</text><text xml:space="preserve" font-family="Helvetica-Light,Helvetica" font-size="24.0" fill="#000000" transform="matrix(1.00, 0.00, -0.00, -1.00, 780.4, 153.7)">n</text><text xml:space="preserve" font-family="Helvetica-Light,Helvetica" font-size="24.0" fill="#000000" transform="matrix(1.00, 0.00, -0.00, -1.00, 793.7, 153.7)">e</text><text xml:space="preserve" font-family="Helvetica-Light,Helvetica" font-size="24.0" fill="#000000" transform="matrix(1.00, 0.00, -0.00, -1.00, 807.1, 153.7)">r</text><text xml:space="preserve" font-family="Helvetica-Light,Helvetica" font-size="24.0" fill="#000000" transform="matrix(1.00, 0.00, -0.00, -1.00, 815.1, 153.7)">a</text><text xml:space="preserve" font-family="Helvetica-Light,Helvetica" font-size="24.0" fill="#000000" transform="matrix(1.00, 0.00, -0.00, -1.00, 828.4, 153.7)">t</text><text xml:space="preserve" font-family="Helvetica-Light,Helvetica" font-size="24.0" fill="#000000" transform="matrix(1.00, 0.00, -0.00, -1.00, 835.1, 153.7)">e</text><text xml:space="preserve" font-family="Helvetica-Light,Helvetica" font-size="24.0" fill="#000000" transform="matrix(1.00, 0.00, -0.00, -1.00, 848.4, 153.7)"> </text><text xml:space="preserve" font-family="Helvetica-Light,Helvetica" font-size="24.0" fill="#000000" transform="matrix(1.00, 0.00, -0.00, -1.00, 744.4, 124.7)">R</text><text xml:space="preserve" font-family="Helvetica-Light,Helvetica" font-size="24.0" fill="#000000" transform="matrix(1.00, 0.00, -0.00, -1.00, 760.4, 124.7)">e</text><text xml:space="preserve" font-family="Helvetica-Light,Helvetica" font-size="24.0" fill="#000000" transform="matrix(1.00, 0.00, -0.00, -1.00, 773.7, 124.7)">s</text><text xml:space="preserve" font-family="Helvetica-Light,Helvetica" font-size="24.0" fill="#000000" transform="matrix(1.00, 0.00, -0.00, -1.00, 785.7, 124.7)">p</text><text xml:space="preserve" font-family="Helvetica-Light,Helvetica" font-size="24.0" fill="#000000" transform="matrix(1.00, 0.00, -0.00, -1.00, 800.4, 124.7)">o</text><text xml:space="preserve" font-family="Helvetica-Light,Helvetica" font-size="24.0" fill="#000000" transform="matrix(1.00, 0.00, -0.00, -1.00, 813.7, 124.7)">n</text><text xml:space="preserve" font-family="Helvetica-Light,Helvetica" font-size="24.0" fill="#000000" transform="matrix(1.00, 0.00, -0.00, -1.00, 827.1, 124.7)">s</text><text xml:space="preserve" font-family="Helvetica-Light,Helvetica" font-size="24.0" fill="#000000" transform="matrix(1.00, 0.00, -0.00, -1.00, 839.1, 124.7)">e</text></g></g></g></svg>