<?xml version="1.0" encoding="UTF-8" standalone="no"?><svg xmlns="http://www.w3.org/2000/svg" xmlns:xlink="http://www.w3.org/1999/xlink" clip-rule="evenodd" stroke-miterlimit="10" viewBox="0 0 1024 768"><desc>SVG generated by Keynote</desc><defs></defs><g transform="matrix(1.00, 0.00, -0.00, -1.00, 0.0, 768.0)"><path d="M 0.0 768.0 L 1024.0 768.0 L 1024.0 0.0 L 0.0 0.0 Z M 0.0 768.0 " fill="#FEFFFF"></path><text xml:space="preserve" font-family="Helvetica-Light,Helvetica" font-size="64.8" fill="#000000" transform="matrix(1.00, 0.00, -0.00, -1.00, 81.7, 649.9)">P</text><text xml:space="preserve" font-family="Helvetica-Light,Helvetica" font-size="64.8" fill="#000000" transform="matrix(1.00, 0.00, -0.00, -1.00, 121.3, 649.9)">H</text><text xml:space="preserve" font-family="Helvetica-Light,Helvetica" font-size="64.8" fill="#000000" transform="matrix(1.00, 0.00, -0.00, -1.00, 168.1, 649.9)">P</text><text xml:space="preserve" font-family="Helvetica-Light,Helvetica" font-size="64.8" fill="#000000" transform="matrix(1.00, 0.00, -0.00, -1.00, 207.7, 649.9)">7</text><text xml:space="preserve" font-family="Helvetica-Light,Helvetica" font-size="64.8" fill="#000000" transform="matrix(1.00, 0.00, -0.00, -1.00, 243.7, 649.9)">:</text><text xml:space="preserve" font-family="Helvetica-Light,Helvetica" font-size="64.8" fill="#000000" transform="matrix(1.00, 0.00, -0.00, -1.00, 261.7, 649.9)"> </text><text xml:space="preserve" font-family="Helvetica-Light,Helvetica" font-size="64.8" fill="#000000" transform="matrix(1.00, 0.00, -0.00, -1.00, 279.8, 649.9)">C</text><text xml:space="preserve" font-family="Helvetica-Light,Helvetica" font-size="64.8" fill="#000000" transform="matrix(1.00, 0.00, -0.00, -1.00, 326.5, 649.9)">h</text><text xml:space="preserve" font-family="Helvetica-Light,Helvetica" font-size="64.8" fill="#000000" transform="matrix(1.00, 0.00, -0.00, -1.00, 362.6, 649.9)">e</text><text xml:space="preserve" font-family="Helvetica-Light,Helvetica" font-size="64.8" fill="#000000" transform="matrix(1.00, 0.00, -0.00, -1.00, 398.6, 649.9)">c</text><text xml:space="preserve" font-family="Helvetica-Light,Helvetica" font-size="64.8" fill="#000000" transform="matrix(1.00, 0.00, -0.00, -1.00, 434.6, 649.9)">k</text><text xml:space="preserve" font-family="Helvetica-Light,Helvetica" font-size="64.8" fill="#000000" transform="matrix(1.00, 0.00, -0.00, -1.00, 467.0, 649.9)">i</text><text xml:space="preserve" font-family="Helvetica-Light,Helvetica" font-size="64.8" fill="#000000" transform="matrix(1.00, 0.00, -0.00, -1.00, 481.4, 649.9)">n</text><text xml:space="preserve" font-family="Helvetica-Light,Helvetica" font-size="64.8" fill="#000000" transform="matrix(1.00, 0.00, -0.00, -1.00, 517.4, 649.9)">g</text><text xml:space="preserve" font-family="Helvetica-Light,Helvetica" font-size="64.8" fill="#000000" transform="matrix(1.00, 0.00, -0.00, -1.00, 557.0, 649.9)"> </text><text xml:space="preserve" font-family="Helvetica-Light,Helvetica" font-size="64.8" fill="#000000" transform="matrix(1.00, 0.00, -0.00, -1.00, 575.1, 649.9)">c</text><text xml:space="preserve" font-family="Helvetica-Light,Helvetica" font-size="64.8" fill="#000000" transform="matrix(1.00, 0.00, -0.00, -1.00, 611.1, 649.9)">o</text><text xml:space="preserve" font-family="Helvetica-Light,Helvetica" font-size="64.8" fill="#000000" transform="matrix(1.00, 0.00, -0.00, -1.00, 647.1, 649.9)">m</text><text xml:space="preserve" font-family="Helvetica-Light,Helvetica" font-size="64.8" fill="#000000" transform="matrix(1.00, 0.00, -0.00, -1.00, 701.1, 649.9)">p</text><text xml:space="preserve" font-family="Helvetica-Light,Helvetica" font-size="64.8" fill="#000000" transform="matrix(1.00, 0.00, -0.00, -1.00, 740.7, 649.9)">a</text><text xml:space="preserve" font-family="Helvetica-Light,Helvetica" font-size="64.8" fill="#000000" transform="matrix(1.00, 0.00, -0.00, -1.00, 776.7, 649.9)">t</text><text xml:space="preserve" font-family="Helvetica-Light,Helvetica" font-size="64.8" fill="#000000" transform="matrix(1.00, 0.00, -0.00, -1.00, 794.7, 649.9)">i</text><text xml:space="preserve" font-family="Helvetica-Light,Helvetica" font-size="64.8" fill="#000000" transform="matrix(1.00, 0.00, -0.00, -1.00, 809.1, 649.9)">b</text><text xml:space="preserve" font-family="Helvetica-Light,Helvetica" font-size="64.8" fill="#000000" transform="matrix(1.00, 0.00, -0.00, -1.00, 848.7, 649.9)">i</text><text xml:space="preserve" font-family="Helvetica-Light,Helvetica" font-size="64.8" fill="#000000" transform="matrix(1.00, 0.00, -0.00, -1.00, 863.1, 649.9)">l</text><text xml:space="preserve" font-family="Helvetica-Light,Helvetica" font-size="64.8" fill="#000000" transform="matrix(1.00, 0.00, -0.00, -1.00, 877.5, 649.9)">i</text><text xml:space="preserve" font-family="Helvetica-Light,Helvetica" font-size="64.8" fill="#000000" transform="matrix(1.00, 0.00, -0.00, -1.00, 891.9, 649.9)">t</text><text xml:space="preserve" font-family="Helvetica-Light,Helvetica" font-size="64.8" fill="#000000" transform="matrix(1.00, 0.00, -0.00, -1.00, 909.9, 649.9)">y</text><image xlink:href="../../E66086E3-AA14-481C-A33D-61ED4D2C4E2B/assets/F0923257B6069C55E53270564600FD4B.png" width="2004.00" height="552.00" transform="matrix(0.51, 0.00, -0.00, -0.51, 0.0, 510.0)"></image><text xml:space="preserve" font-family="Helvetica-Light,Helvetica" font-size="44.0" fill="#000000" transform="matrix(1.00, 0.00, -0.00, -1.00, 365.2, 564.1)">a</text><text xml:space="preserve" font-family="Helvetica-Light,Helvetica" font-size="44.0" fill="#000000" transform="matrix(1.00, 0.00, -0.00, -1.00, 389.7, 564.1)">n</text><text xml:space="preserve" font-family="Helvetica-Light,Helvetica" font-size="44.0" fill="#000000" transform="matrix(1.00, 0.00, -0.00, -1.00, 414.1, 564.1)">a</text><text xml:space="preserve" font-family="Helvetica-Light,Helvetica" font-size="44.0" fill="#000000" transform="matrix(1.00, 0.00, -0.00, -1.00, 438.6, 564.1)">l</text><text xml:space="preserve" font-family="Helvetica-Light,Helvetica" font-size="44.0" fill="#000000" transform="matrix(1.00, 0.00, -0.00, -1.00, 448.3, 564.1)">y</text><text xml:space="preserve" font-family="Helvetica-Light,Helvetica" font-size="44.0" fill="#000000" transform="matrix(1.00, 0.00, -0.00, -1.00, 470.3, 564.1)">s</text><text xml:space="preserve" font-family="Helvetica-Light,Helvetica" font-size="44.0" fill="#000000" transform="matrix(1.00, 0.00, -0.00, -1.00, 492.3, 564.1)">i</text><text xml:space="preserve" font-family="Helvetica-Light,Helvetica" font-size="44.0" fill="#000000" transform="matrix(1.00, 0.00, -0.00, -1.00, 502.1, 564.1)">s</text><text xml:space="preserve" font-family="Helvetica-Light,Helvetica" font-size="44.0" fill="#000000" transform="matrix(1.00, 0.00, -0.00, -1.00, 524.1, 564.1)">.</text><text xml:space="preserve" font-family="Helvetica-Light,Helvetica" font-size="44.0" fill="#000000" transform="matrix(1.00, 0.00, -0.00, -1.00, 536.3, 564.1)">t</text><text xml:space="preserve" font-family="Helvetica-Light,Helvetica" font-size="44.0" fill="#000000" transform="matrix(1.00, 0.00, -0.00, -1.00, 548.6, 564.1)">x</text><text xml:space="preserve" font-family="Helvetica-Light,Helvetica" font-size="44.0" fill="#000000" transform="matrix(1.00, 0.00, -0.00, -1.00, 570.6, 564.1)">t</text></g></svg>