<?xml version="1.0" encoding="UTF-8" standalone="no"?><svg xmlns="http://www.w3.org/2000/svg" xmlns:xlink="http://www.w3.org/1999/xlink" clip-rule="evenodd" stroke-miterlimit="10" viewBox="0 0 1024 768"><desc>SVG generated by Keynote</desc><defs></defs><g transform="matrix(1.00, 0.00, -0.00, -1.00, 0.0, 768.0)"><path d="M 0.0 768.0 L 1024.0 768.0 L 1024.0 0.0 L 0.0 0.0 Z M 0.0 768.0 " fill="#FEFFFF"></path><text xml:space="preserve" font-family="Helvetica-Light,Helvetica" font-size="78.4" fill="#000000" transform="matrix(1.00, 0.00, -0.00, -1.00, 106.7, 653.0)">V</text><text xml:space="preserve" font-family="Helvetica-Light,Helvetica" font-size="78.4" fill="#000000" transform="matrix(1.00, 0.00, -0.00, -1.00, 153.2, 653.0)">i</text><text xml:space="preserve" font-family="Helvetica-Light,Helvetica" font-size="78.4" fill="#000000" transform="matrix(1.00, 0.00, -0.00, -1.00, 170.6, 653.0)">s</text><text xml:space="preserve" font-family="Helvetica-Light,Helvetica" font-size="78.4" fill="#000000" transform="matrix(1.00, 0.00, -0.00, -1.00, 209.8, 653.0)">u</text><text xml:space="preserve" font-family="Helvetica-Light,Helvetica" font-size="78.4" fill="#000000" transform="matrix(1.00, 0.00, -0.00, -1.00, 253.4, 653.0)">a</text><text xml:space="preserve" font-family="Helvetica-Light,Helvetica" font-size="78.4" fill="#000000" transform="matrix(1.00, 0.00, -0.00, -1.00, 297.0, 653.0)">l</text><text xml:space="preserve" font-family="Helvetica-Light,Helvetica" font-size="78.4" fill="#000000" transform="matrix(1.00, 0.00, -0.00, -1.00, 314.4, 653.0)">i</text><text xml:space="preserve" font-family="Helvetica-Light,Helvetica" font-size="78.4" fill="#000000" transform="matrix(1.00, 0.00, -0.00, -1.00, 331.8, 653.0)">s</text><text xml:space="preserve" font-family="Helvetica-Light,Helvetica" font-size="78.4" fill="#000000" transform="matrix(1.00, 0.00, -0.00, -1.00, 371.0, 653.0)">e</text><text xml:space="preserve" font-family="Helvetica-Light,Helvetica" font-size="78.4" fill="#000000" transform="matrix(1.00, 0.00, -0.00, -1.00, 414.6, 653.0)"> </text><text xml:space="preserve" font-family="Helvetica-Light,Helvetica" font-size="78.4" fill="#000000" transform="matrix(1.00, 0.00, -0.00, -1.00, 436.4, 653.0)">t</text><text xml:space="preserve" font-family="Helvetica-Light,Helvetica" font-size="78.4" fill="#000000" transform="matrix(1.00, 0.00, -0.00, -1.00, 458.2, 653.0)">h</text><text xml:space="preserve" font-family="Helvetica-Light,Helvetica" font-size="78.4" fill="#000000" transform="matrix(1.00, 0.00, -0.00, -1.00, 501.8, 653.0)">e</text><text xml:space="preserve" font-family="Helvetica-Light,Helvetica" font-size="78.4" fill="#000000" transform="matrix(1.00, 0.00, -0.00, -1.00, 545.4, 653.0)"> </text><text xml:space="preserve" font-family="Helvetica-Light,Helvetica" font-size="78.4" fill="#000000" transform="matrix(1.00, 0.00, -0.00, -1.00, 567.2, 653.0)">d</text><text xml:space="preserve" font-family="Helvetica-Light,Helvetica" font-size="78.4" fill="#000000" transform="matrix(1.00, 0.00, -0.00, -1.00, 615.1, 653.0)">i</text><text xml:space="preserve" font-family="Helvetica-Light,Helvetica" font-size="78.4" fill="#000000" transform="matrix(1.00, 0.00, -0.00, -1.00, 632.5, 653.0)">f</text><text xml:space="preserve" font-family="Helvetica-Light,Helvetica" font-size="78.4" fill="#000000" transform="matrix(1.00, 0.00, -0.00, -1.00, 652.8, 653.0)">f</text><text xml:space="preserve" font-family="Helvetica-Light,Helvetica" font-size="78.4" fill="#000000" transform="matrix(1.00, 0.00, -0.00, -1.00, 674.6, 653.0)">e</text><text xml:space="preserve" font-family="Helvetica-Light,Helvetica" font-size="78.4" fill="#000000" transform="matrix(1.00, 0.00, -0.00, -1.00, 718.2, 653.0)">r</text><text xml:space="preserve" font-family="Helvetica-Light,Helvetica" font-size="78.4" fill="#000000" transform="matrix(1.00, 0.00, -0.00, -1.00, 742.9, 653.0)">e</text><text xml:space="preserve" font-family="Helvetica-Light,Helvetica" font-size="78.4" fill="#000000" transform="matrix(1.00, 0.00, -0.00, -1.00, 786.5, 653.0)">n</text><text xml:space="preserve" font-family="Helvetica-Light,Helvetica" font-size="78.4" fill="#000000" transform="matrix(1.00, 0.00, -0.00, -1.00, 830.1, 653.0)">c</text><text xml:space="preserve" font-family="Helvetica-Light,Helvetica" font-size="78.4" fill="#000000" transform="matrix(1.00, 0.00, -0.00, -1.00, 873.7, 653.0)">e</text><image xlink:href="../../52A2B2EE-262C-4FC2-BEE5-AFF521B93F78/assets/B9AF6FD5C3BC4AEC675C9FF7870D266B.png" width="640.00" height="480.00" transform="matrix(1.12, 0.00, -0.00, -1.12, 112.0, 595.0)"></image></g></svg>