<?xml version="1.0" encoding="UTF-8" standalone="no"?><svg xmlns="http://www.w3.org/2000/svg" xmlns:xlink="http://www.w3.org/1999/xlink" clip-rule="evenodd" stroke-miterlimit="10" viewBox="0 0 1024 768"><desc>SVG generated by Keynote</desc><defs></defs><g transform="matrix(1.00, 0.00, -0.00, -1.00, 0.0, 768.0)"><path d="M 0.0 768.0 L 1024.0 768.0 L 1024.0 0.0 L 0.0 0.0 Z M 0.0 768.0 " fill="#FEFFFF"></path><text xml:space="preserve" font-family="Inconsolata-Regular,Inconsolata" font-size="31.0" fill="#2C9DDA" transform="matrix(1.00, 0.00, -0.00, -1.00, 119.5, 488.4)"> </text><text xml:space="preserve" font-family="Inconsolata-Regular,Inconsolata" font-size="31.0" fill="#2C9DDA" transform="matrix(1.00, 0.00, -0.00, -1.00, 135.0, 488.4)"> </text><text xml:space="preserve" font-family="Inconsolata-Regular,Inconsolata" font-size="31.0" fill="#2C9DDA" transform="matrix(1.00, 0.00, -0.00, -1.00, 150.5, 488.4)">1</text><text xml:space="preserve" font-family="Inconsolata-Regular,Inconsolata" font-size="31.0" fill="#2C9DDA" transform="matrix(1.00, 0.00, -0.00, -1.00, 166.0, 488.4)"> </text><text xml:space="preserve" font-family="Inconsolata-Regular,Inconsolata" font-size="31.0" fill="#A3B0B0" transform="matrix(1.00, 0.00, -0.00, -1.00, 181.5, 488.4)">&lt;</text><text xml:space="preserve" font-family="Inconsolata-Regular,Inconsolata" font-size="31.0" fill="#94A4A6" transform="matrix(1.00, 0.00, -0.00, -1.00, 197.0, 488.4)">?</text><text xml:space="preserve" font-family="Inconsolata-Regular,Inconsolata" font-size="31.0" fill="#94A4A6" transform="matrix(1.00, 0.00, -0.00, -1.00, 212.5, 488.4)">p</text><text xml:space="preserve" font-family="Inconsolata-Regular,Inconsolata" font-size="31.0" fill="#94A4A6" transform="matrix(1.00, 0.00, -0.00, -1.00, 228.0, 488.4)">h</text><text xml:space="preserve" font-family="Inconsolata-Regular,Inconsolata" font-size="31.0" fill="#94A4A6" transform="matrix(1.00, 0.00, -0.00, -1.00, 243.5, 488.4)">p</text><text xml:space="preserve" font-family="Inconsolata-Regular,Inconsolata" font-size="31.0" fill="#000000" transform="matrix(1.00, 0.00, -0.00, -1.00, 259.0, 488.4)"> </text><text xml:space="preserve" font-family="Inconsolata-Regular,Inconsolata" font-size="31.0" fill="#2C9DDA" transform="matrix(1.00, 0.00, -0.00, -1.00, 119.5, 455.4)"> </text><text xml:space="preserve" font-family="Inconsolata-Regular,Inconsolata" font-size="31.0" fill="#2C9DDA" transform="matrix(1.00, 0.00, -0.00, -1.00, 135.0, 455.4)"> </text><text xml:space="preserve" font-family="Inconsolata-Regular,Inconsolata" font-size="31.0" fill="#2C9DDA" transform="matrix(1.00, 0.00, -0.00, -1.00, 150.5, 455.4)">2</text><text xml:space="preserve" font-family="Inconsolata-Regular,Inconsolata" font-size="31.0" fill="#2C9DDA" transform="matrix(1.00, 0.00, -0.00, -1.00, 166.0, 455.4)"> </text><text xml:space="preserve" font-family="Inconsolata-Regular,Inconsolata" font-size="31.0" fill="#000000" transform="matrix(1.00, 0.00, -0.00, -1.00, 181.5, 455.4)"> </text><text xml:space="preserve" font-family="Inconsolata-Regular,Inconsolata" font-size="31.0" fill="#2C9DDA" transform="matrix(1.00, 0.00, -0.00, -1.00, 119.5, 422.4)"> </text><text xml:space="preserve" font-family="Inconsolata-Regular,Inconsolata" font-size="31.0" fill="#2C9DDA" transform="matrix(1.00, 0.00, -0.00, -1.00, 135.0, 422.4)"> </text><text xml:space="preserve" font-family="Inconsolata-Regular,Inconsolata" font-size="31.0" fill="#2C9DDA" transform="matrix(1.00, 0.00, -0.00, -1.00, 150.5, 422.4)">3</text><text xml:space="preserve" font-family="Inconsolata-Regular,Inconsolata" font-size="31.0" fill="#2C9DDA" transform="matrix(1.00, 0.00, -0.00, -1.00, 166.0, 422.4)"> </text><text xml:space="preserve" font-family="Inconsolata-Regular,Inconsolata" font-size="31.0" fill="#D6601A" transform="matrix(1.00, 0.00, -0.00, -1.00, 181.5, 422.4)">c</text><text xml:space="preserve" font-family="Inconsolata-Regular,Inconsolata" font-size="31.0" fill="#D6601A" transform="matrix(1.00, 0.00, -0.00, -1.00, 197.0, 422.4)">l</text><text xml:space="preserve" font-family="Inconsolata-Regular,Inconsolata" font-size="31.0" fill="#D6601A" transform="matrix(1.00, 0.00, -0.00, -1.00, 212.5, 422.4)">a</text><text xml:space="preserve" font-family="Inconsolata-Regular,Inconsolata" font-size="31.0" fill="#D6601A" transform="matrix(1.00, 0.00, -0.00, -1.00, 228.0, 422.4)">s</text><text xml:space="preserve" font-family="Inconsolata-Regular,Inconsolata" font-size="31.0" fill="#D6601A" transform="matrix(1.00, 0.00, -0.00, -1.00, 243.5, 422.4)">s</text><text xml:space="preserve" font-family="Inconsolata-Regular,Inconsolata" font-size="31.0" fill="#000000" transform="matrix(1.00, 0.00, -0.00, -1.00, 259.0, 422.4)"> </text><text xml:space="preserve" font-family="Inconsolata-Regular,Inconsolata" font-size="31.0" fill="#94A4A6" transform="matrix(1.00, 0.00, -0.00, -1.00, 274.5, 422.4)">R</text><text xml:space="preserve" font-family="Inconsolata-Regular,Inconsolata" font-size="31.0" fill="#94A4A6" transform="matrix(1.00, 0.00, -0.00, -1.00, 290.0, 422.4)">e</text><text xml:space="preserve" font-family="Inconsolata-Regular,Inconsolata" font-size="31.0" fill="#94A4A6" transform="matrix(1.00, 0.00, -0.00, -1.00, 305.5, 422.4)">q</text><text xml:space="preserve" font-family="Inconsolata-Regular,Inconsolata" font-size="31.0" fill="#94A4A6" transform="matrix(1.00, 0.00, -0.00, -1.00, 321.0, 422.4)">u</text><text xml:space="preserve" font-family="Inconsolata-Regular,Inconsolata" font-size="31.0" fill="#94A4A6" transform="matrix(1.00, 0.00, -0.00, -1.00, 336.5, 422.4)">e</text><text xml:space="preserve" font-family="Inconsolata-Regular,Inconsolata" font-size="31.0" fill="#94A4A6" transform="matrix(1.00, 0.00, -0.00, -1.00, 352.0, 422.4)">s</text><text xml:space="preserve" font-family="Inconsolata-Regular,Inconsolata" font-size="31.0" fill="#94A4A6" transform="matrix(1.00, 0.00, -0.00, -1.00, 367.5, 422.4)">t</text><text xml:space="preserve" font-family="Inconsolata-Regular,Inconsolata" font-size="31.0" fill="#000000" transform="matrix(1.00, 0.00, -0.00, -1.00, 383.0, 422.4)"> </text><text xml:space="preserve" font-family="Inconsolata-Regular,Inconsolata" font-size="31.0" fill="#2C9DDA" transform="matrix(1.00, 0.00, -0.00, -1.00, 119.5, 389.4)"> </text><text xml:space="preserve" font-family="Inconsolata-Regular,Inconsolata" font-size="31.0" fill="#2C9DDA" transform="matrix(1.00, 0.00, -0.00, -1.00, 135.0, 389.4)"> </text><text xml:space="preserve" font-family="Inconsolata-Regular,Inconsolata" font-size="31.0" fill="#2C9DDA" transform="matrix(1.00, 0.00, -0.00, -1.00, 150.5, 389.4)">4</text><text xml:space="preserve" font-family="Inconsolata-Regular,Inconsolata" font-size="31.0" fill="#2C9DDA" transform="matrix(1.00, 0.00, -0.00, -1.00, 166.0, 389.4)"> </text><text xml:space="preserve" font-family="Inconsolata-Regular,Inconsolata" font-size="31.0" fill="#A3B0B0" transform="matrix(1.00, 0.00, -0.00, -1.00, 181.5, 389.4)">{</text><text xml:space="preserve" font-family="Inconsolata-Regular,Inconsolata" font-size="31.0" fill="#000000" transform="matrix(1.00, 0.00, -0.00, -1.00, 197.0, 389.4)"> </text><text xml:space="preserve" font-family="Inconsolata-Regular,Inconsolata" font-size="31.0" fill="#2C9DDA" transform="matrix(1.00, 0.00, -0.00, -1.00, 119.5, 356.4)"> </text><text xml:space="preserve" font-family="Inconsolata-Regular,Inconsolata" font-size="31.0" fill="#2C9DDA" transform="matrix(1.00, 0.00, -0.00, -1.00, 135.0, 356.4)"> </text><text xml:space="preserve" font-family="Inconsolata-Regular,Inconsolata" font-size="31.0" fill="#2C9DDA" transform="matrix(1.00, 0.00, -0.00, -1.00, 150.5, 356.4)">5</text><text xml:space="preserve" font-family="Inconsolata-Regular,Inconsolata" font-size="31.0" fill="#2C9DDA" transform="matrix(1.00, 0.00, -0.00, -1.00, 166.0, 356.4)"> </text><text xml:space="preserve" font-family="Inconsolata-Regular,Inconsolata" font-size="31.0" fill="#000000" transform="matrix(1.00, 0.00, -0.00, -1.00, 181.5, 356.4)"> </text><text xml:space="preserve" font-family="Inconsolata-Regular,Inconsolata" font-size="31.0" fill="#000000" transform="matrix(1.00, 0.00, -0.00, -1.00, 197.0, 356.4)"> </text><text xml:space="preserve" font-family="Inconsolata-Regular,Inconsolata" font-size="31.0" fill="#000000" transform="matrix(1.00, 0.00, -0.00, -1.00, 212.5, 356.4)"> </text><text xml:space="preserve" font-family="Inconsolata-Regular,Inconsolata" font-size="31.0" fill="#000000" transform="matrix(1.00, 0.00, -0.00, -1.00, 228.0, 356.4)"> </text><text xml:space="preserve" font-family="Inconsolata-Regular,Inconsolata" font-size="31.0" fill="#D6601A" transform="matrix(1.00, 0.00, -0.00, -1.00, 243.5, 356.4)">p</text><text xml:space="preserve" font-family="Inconsolata-Regular,Inconsolata" font-size="31.0" fill="#D6601A" transform="matrix(1.00, 0.00, -0.00, -1.00, 259.0, 356.4)">r</text><text xml:space="preserve" font-family="Inconsolata-Regular,Inconsolata" font-size="31.0" fill="#D6601A" transform="matrix(1.00, 0.00, -0.00, -1.00, 274.5, 356.4)">o</text><text xml:space="preserve" font-family="Inconsolata-Regular,Inconsolata" font-size="31.0" fill="#D6601A" transform="matrix(1.00, 0.00, -0.00, -1.00, 290.0, 356.4)">t</text><text xml:space="preserve" font-family="Inconsolata-Regular,Inconsolata" font-size="31.0" fill="#D6601A" transform="matrix(1.00, 0.00, -0.00, -1.00, 305.5, 356.4)">e</text><text xml:space="preserve" font-family="Inconsolata-Regular,Inconsolata" font-size="31.0" fill="#D6601A" transform="matrix(1.00, 0.00, -0.00, -1.00, 321.0, 356.4)">c</text><text xml:space="preserve" font-family="Inconsolata-Regular,Inconsolata" font-size="31.0" fill="#D6601A" transform="matrix(1.00, 0.00, -0.00, -1.00, 336.5, 356.4)">t</text><text xml:space="preserve" font-family="Inconsolata-Regular,Inconsolata" font-size="31.0" fill="#D6601A" transform="matrix(1.00, 0.00, -0.00, -1.00, 352.0, 356.4)">e</text><text xml:space="preserve" font-family="Inconsolata-Regular,Inconsolata" font-size="31.0" fill="#D6601A" transform="matrix(1.00, 0.00, -0.00, -1.00, 367.5, 356.4)">d</text><text xml:space="preserve" font-family="Inconsolata-Regular,Inconsolata" font-size="31.0" fill="#000000" transform="matrix(1.00, 0.00, -0.00, -1.00, 383.0, 356.4)"> </text><text xml:space="preserve" font-family="Inconsolata-Regular,Inconsolata" font-size="31.0" fill="#D6601A" transform="matrix(1.00, 0.00, -0.00, -1.00, 398.5, 356.4)">$</text><text xml:space="preserve" font-family="Inconsolata-Regular,Inconsolata" font-size="31.0" fill="#D6601A" transform="matrix(1.00, 0.00, -0.00, -1.00, 414.0, 356.4)">p</text><text xml:space="preserve" font-family="Inconsolata-Regular,Inconsolata" font-size="31.0" fill="#D6601A" transform="matrix(1.00, 0.00, -0.00, -1.00, 429.5, 356.4)">a</text><text xml:space="preserve" font-family="Inconsolata-Regular,Inconsolata" font-size="31.0" fill="#D6601A" transform="matrix(1.00, 0.00, -0.00, -1.00, 445.0, 356.4)">r</text><text xml:space="preserve" font-family="Inconsolata-Regular,Inconsolata" font-size="31.0" fill="#D6601A" transform="matrix(1.00, 0.00, -0.00, -1.00, 460.5, 356.4)">a</text><text xml:space="preserve" font-family="Inconsolata-Regular,Inconsolata" font-size="31.0" fill="#D6601A" transform="matrix(1.00, 0.00, -0.00, -1.00, 476.0, 356.4)">m</text><text xml:space="preserve" font-family="Inconsolata-Regular,Inconsolata" font-size="31.0" fill="#D6601A" transform="matrix(1.00, 0.00, -0.00, -1.00, 491.5, 356.4)">e</text><text xml:space="preserve" font-family="Inconsolata-Regular,Inconsolata" font-size="31.0" fill="#D6601A" transform="matrix(1.00, 0.00, -0.00, -1.00, 507.0, 356.4)">t</text><text xml:space="preserve" font-family="Inconsolata-Regular,Inconsolata" font-size="31.0" fill="#D6601A" transform="matrix(1.00, 0.00, -0.00, -1.00, 522.5, 356.4)">e</text><text xml:space="preserve" font-family="Inconsolata-Regular,Inconsolata" font-size="31.0" fill="#D6601A" transform="matrix(1.00, 0.00, -0.00, -1.00, 538.0, 356.4)">r</text><text xml:space="preserve" font-family="Inconsolata-Regular,Inconsolata" font-size="31.0" fill="#D6601A" transform="matrix(1.00, 0.00, -0.00, -1.00, 553.5, 356.4)">s</text><text xml:space="preserve" font-family="Inconsolata-Regular,Inconsolata" font-size="31.0" fill="#000000" transform="matrix(1.00, 0.00, -0.00, -1.00, 569.0, 356.4)"> </text><text xml:space="preserve" font-family="Inconsolata-Regular,Inconsolata" font-size="31.0" fill="#A3B0B0" transform="matrix(1.00, 0.00, -0.00, -1.00, 584.5, 356.4)">=</text><text xml:space="preserve" font-family="Inconsolata-Regular,Inconsolata" font-size="31.0" fill="#A3B0B0" transform="matrix(1.00, 0.00, -0.00, -1.00, 600.0, 356.4)"> </text><text xml:space="preserve" font-family="Inconsolata-Regular,Inconsolata" font-size="31.0" fill="#A3B0B0" transform="matrix(1.00, 0.00, -0.00, -1.00, 615.5, 356.4)">[</text><text xml:space="preserve" font-family="Inconsolata-Regular,Inconsolata" font-size="31.0" fill="#A3B0B0" transform="matrix(1.00, 0.00, -0.00, -1.00, 631.0, 356.4)">]</text><text xml:space="preserve" font-family="Inconsolata-Regular,Inconsolata" font-size="31.0" fill="#A3B0B0" transform="matrix(1.00, 0.00, -0.00, -1.00, 646.5, 356.4)">;</text><text xml:space="preserve" font-family="Inconsolata-Regular,Inconsolata" font-size="31.0" fill="#000000" transform="matrix(1.00, 0.00, -0.00, -1.00, 662.0, 356.4)"> </text><text xml:space="preserve" font-family="Inconsolata-Regular,Inconsolata" font-size="31.0" fill="#2C9DDA" transform="matrix(1.00, 0.00, -0.00, -1.00, 119.5, 323.4)"> </text><text xml:space="preserve" font-family="Inconsolata-Regular,Inconsolata" font-size="31.0" fill="#2C9DDA" transform="matrix(1.00, 0.00, -0.00, -1.00, 135.0, 323.4)"> </text><text xml:space="preserve" font-family="Inconsolata-Regular,Inconsolata" font-size="31.0" fill="#2C9DDA" transform="matrix(1.00, 0.00, -0.00, -1.00, 150.5, 323.4)">6</text><text xml:space="preserve" font-family="Inconsolata-Regular,Inconsolata" font-size="31.0" fill="#2C9DDA" transform="matrix(1.00, 0.00, -0.00, -1.00, 166.0, 323.4)"> </text><text xml:space="preserve" font-family="Inconsolata-Regular,Inconsolata" font-size="31.0" fill="#000000" transform="matrix(1.00, 0.00, -0.00, -1.00, 181.5, 323.4)"> </text><text xml:space="preserve" font-family="Inconsolata-Regular,Inconsolata" font-size="31.0" fill="#2C9DDA" transform="matrix(1.00, 0.00, -0.00, -1.00, 119.5, 290.4)"> </text><text xml:space="preserve" font-family="Inconsolata-Regular,Inconsolata" font-size="31.0" fill="#2C9DDA" transform="matrix(1.00, 0.00, -0.00, -1.00, 135.0, 290.4)"> </text><text xml:space="preserve" font-family="Inconsolata-Regular,Inconsolata" font-size="31.0" fill="#2C9DDA" transform="matrix(1.00, 0.00, -0.00, -1.00, 150.5, 290.4)">7</text><text xml:space="preserve" font-family="Inconsolata-Regular,Inconsolata" font-size="31.0" fill="#2C9DDA" transform="matrix(1.00, 0.00, -0.00, -1.00, 166.0, 290.4)"> </text><text xml:space="preserve" font-family="Inconsolata-Regular,Inconsolata" font-size="31.0" fill="#000000" transform="matrix(1.00, 0.00, -0.00, -1.00, 181.5, 290.4)"> </text><text xml:space="preserve" font-family="Inconsolata-Regular,Inconsolata" font-size="31.0" fill="#000000" transform="matrix(1.00, 0.00, -0.00, -1.00, 197.0, 290.4)"> </text><text xml:space="preserve" font-family="Inconsolata-Regular,Inconsolata" font-size="31.0" fill="#000000" transform="matrix(1.00, 0.00, -0.00, -1.00, 212.5, 290.4)"> </text><text xml:space="preserve" font-family="Inconsolata-Regular,Inconsolata" font-size="31.0" fill="#000000" transform="matrix(1.00, 0.00, -0.00, -1.00, 228.0, 290.4)"> </text><text xml:space="preserve" font-family="Inconsolata-Regular,Inconsolata" font-size="31.0" fill="#D6601A" transform="matrix(1.00, 0.00, -0.00, -1.00, 243.5, 290.4)">p</text><text xml:space="preserve" font-family="Inconsolata-Regular,Inconsolata" font-size="31.0" fill="#D6601A" transform="matrix(1.00, 0.00, -0.00, -1.00, 259.0, 290.4)">u</text><text xml:space="preserve" font-family="Inconsolata-Regular,Inconsolata" font-size="31.0" fill="#D6601A" transform="matrix(1.00, 0.00, -0.00, -1.00, 274.5, 290.4)">b</text><text xml:space="preserve" font-family="Inconsolata-Regular,Inconsolata" font-size="31.0" fill="#D6601A" transform="matrix(1.00, 0.00, -0.00, -1.00, 290.0, 290.4)">l</text><text xml:space="preserve" font-family="Inconsolata-Regular,Inconsolata" font-size="31.0" fill="#D6601A" transform="matrix(1.00, 0.00, -0.00, -1.00, 305.5, 290.4)">i</text><text xml:space="preserve" font-family="Inconsolata-Regular,Inconsolata" font-size="31.0" fill="#D6601A" transform="matrix(1.00, 0.00, -0.00, -1.00, 321.0, 290.4)">c</text><text xml:space="preserve" font-family="Inconsolata-Regular,Inconsolata" font-size="31.0" fill="#D6601A" transform="matrix(1.00, 0.00, -0.00, -1.00, 336.5, 290.4)"> </text><text xml:space="preserve" font-family="Inconsolata-Regular,Inconsolata" font-size="31.0" fill="#D6601A" transform="matrix(1.00, 0.00, -0.00, -1.00, 352.0, 290.4)">f</text><text xml:space="preserve" font-family="Inconsolata-Regular,Inconsolata" font-size="31.0" fill="#D6601A" transform="matrix(1.00, 0.00, -0.00, -1.00, 367.5, 290.4)">u</text><text xml:space="preserve" font-family="Inconsolata-Regular,Inconsolata" font-size="31.0" fill="#D6601A" transform="matrix(1.00, 0.00, -0.00, -1.00, 383.0, 290.4)">n</text><text xml:space="preserve" font-family="Inconsolata-Regular,Inconsolata" font-size="31.0" fill="#D6601A" transform="matrix(1.00, 0.00, -0.00, -1.00, 398.5, 290.4)">c</text><text xml:space="preserve" font-family="Inconsolata-Regular,Inconsolata" font-size="31.0" fill="#D6601A" transform="matrix(1.00, 0.00, -0.00, -1.00, 414.0, 290.4)">t</text><text xml:space="preserve" font-family="Inconsolata-Regular,Inconsolata" font-size="31.0" fill="#D6601A" transform="matrix(1.00, 0.00, -0.00, -1.00, 429.5, 290.4)">i</text><text xml:space="preserve" font-family="Inconsolata-Regular,Inconsolata" font-size="31.0" fill="#D6601A" transform="matrix(1.00, 0.00, -0.00, -1.00, 445.0, 290.4)">o</text><text xml:space="preserve" font-family="Inconsolata-Regular,Inconsolata" font-size="31.0" fill="#D6601A" transform="matrix(1.00, 0.00, -0.00, -1.00, 460.5, 290.4)">n</text><text xml:space="preserve" font-family="Inconsolata-Regular,Inconsolata" font-size="31.0" fill="#000000" transform="matrix(1.00, 0.00, -0.00, -1.00, 476.0, 290.4)"> </text><text xml:space="preserve" font-family="Inconsolata-Regular,Inconsolata" font-size="31.0" fill="#A3B0B0" transform="matrix(1.00, 0.00, -0.00, -1.00, 491.5, 290.4)">s</text><text xml:space="preserve" font-family="Inconsolata-Regular,Inconsolata" font-size="31.0" fill="#A3B0B0" transform="matrix(1.00, 0.00, -0.00, -1.00, 507.0, 290.4)">e</text><text xml:space="preserve" font-family="Inconsolata-Regular,Inconsolata" font-size="31.0" fill="#A3B0B0" transform="matrix(1.00, 0.00, -0.00, -1.00, 522.5, 290.4)">t</text><text xml:space="preserve" font-family="Inconsolata-Regular,Inconsolata" font-size="31.0" fill="#A3B0B0" transform="matrix(1.00, 0.00, -0.00, -1.00, 538.0, 290.4)">P</text><text xml:space="preserve" font-family="Inconsolata-Regular,Inconsolata" font-size="31.0" fill="#A3B0B0" transform="matrix(1.00, 0.00, -0.00, -1.00, 553.5, 290.4)">a</text><text xml:space="preserve" font-family="Inconsolata-Regular,Inconsolata" font-size="31.0" fill="#A3B0B0" transform="matrix(1.00, 0.00, -0.00, -1.00, 569.0, 290.4)">r</text><text xml:space="preserve" font-family="Inconsolata-Regular,Inconsolata" font-size="31.0" fill="#A3B0B0" transform="matrix(1.00, 0.00, -0.00, -1.00, 584.5, 290.4)">a</text><text xml:space="preserve" font-family="Inconsolata-Regular,Inconsolata" font-size="31.0" fill="#A3B0B0" transform="matrix(1.00, 0.00, -0.00, -1.00, 600.0, 290.4)">m</text><text xml:space="preserve" font-family="Inconsolata-Regular,Inconsolata" font-size="31.0" fill="#A3B0B0" transform="matrix(1.00, 0.00, -0.00, -1.00, 615.5, 290.4)">e</text><text xml:space="preserve" font-family="Inconsolata-Regular,Inconsolata" font-size="31.0" fill="#A3B0B0" transform="matrix(1.00, 0.00, -0.00, -1.00, 631.0, 290.4)">t</text><text xml:space="preserve" font-family="Inconsolata-Regular,Inconsolata" font-size="31.0" fill="#A3B0B0" transform="matrix(1.00, 0.00, -0.00, -1.00, 646.5, 290.4)">e</text><text xml:space="preserve" font-family="Inconsolata-Regular,Inconsolata" font-size="31.0" fill="#A3B0B0" transform="matrix(1.00, 0.00, -0.00, -1.00, 662.0, 290.4)">r</text><text xml:space="preserve" font-family="Inconsolata-Regular,Inconsolata" font-size="31.0" fill="#A3B0B0" transform="matrix(1.00, 0.00, -0.00, -1.00, 677.5, 290.4)">s</text><text xml:space="preserve" font-family="Inconsolata-Regular,Inconsolata" font-size="31.0" fill="#A3B0B0" transform="matrix(1.00, 0.00, -0.00, -1.00, 693.0, 290.4)">(</text><text xml:space="preserve" font-family="Inconsolata-Regular,Inconsolata" font-size="31.0" fill="#D6601A" transform="matrix(1.00, 0.00, -0.00, -1.00, 708.5, 290.4)">$</text><text xml:space="preserve" font-family="Inconsolata-Regular,Inconsolata" font-size="31.0" fill="#D6601A" transform="matrix(1.00, 0.00, -0.00, -1.00, 724.0, 290.4)">p</text><text xml:space="preserve" font-family="Inconsolata-Regular,Inconsolata" font-size="31.0" fill="#D6601A" transform="matrix(1.00, 0.00, -0.00, -1.00, 739.5, 290.4)">a</text><text xml:space="preserve" font-family="Inconsolata-Regular,Inconsolata" font-size="31.0" fill="#D6601A" transform="matrix(1.00, 0.00, -0.00, -1.00, 755.0, 290.4)">r</text><text xml:space="preserve" font-family="Inconsolata-Regular,Inconsolata" font-size="31.0" fill="#D6601A" transform="matrix(1.00, 0.00, -0.00, -1.00, 770.5, 290.4)">a</text><text xml:space="preserve" font-family="Inconsolata-Regular,Inconsolata" font-size="31.0" fill="#D6601A" transform="matrix(1.00, 0.00, -0.00, -1.00, 786.0, 290.4)">m</text><text xml:space="preserve" font-family="Inconsolata-Regular,Inconsolata" font-size="31.0" fill="#D6601A" transform="matrix(1.00, 0.00, -0.00, -1.00, 801.5, 290.4)">s</text><text xml:space="preserve" font-family="Inconsolata-Regular,Inconsolata" font-size="31.0" fill="#A3B0B0" transform="matrix(1.00, 0.00, -0.00, -1.00, 817.0, 290.4)">)</text><text xml:space="preserve" font-family="Inconsolata-Regular,Inconsolata" font-size="31.0" fill="#000000" transform="matrix(1.00, 0.00, -0.00, -1.00, 832.5, 290.4)"> </text><text xml:space="preserve" font-family="Inconsolata-Regular,Inconsolata" font-size="31.0" fill="#2C9DDA" transform="matrix(1.00, 0.00, -0.00, -1.00, 119.5, 257.4)"> </text><text xml:space="preserve" font-family="Inconsolata-Regular,Inconsolata" font-size="31.0" fill="#2C9DDA" transform="matrix(1.00, 0.00, -0.00, -1.00, 135.0, 257.4)"> </text><text xml:space="preserve" font-family="Inconsolata-Regular,Inconsolata" font-size="31.0" fill="#2C9DDA" transform="matrix(1.00, 0.00, -0.00, -1.00, 150.5, 257.4)">8</text><text xml:space="preserve" font-family="Inconsolata-Regular,Inconsolata" font-size="31.0" fill="#2C9DDA" transform="matrix(1.00, 0.00, -0.00, -1.00, 166.0, 257.4)"> </text><text xml:space="preserve" font-family="Inconsolata-Regular,Inconsolata" font-size="31.0" fill="#000000" transform="matrix(1.00, 0.00, -0.00, -1.00, 181.5, 257.4)"> </text><text xml:space="preserve" font-family="Inconsolata-Regular,Inconsolata" font-size="31.0" fill="#000000" transform="matrix(1.00, 0.00, -0.00, -1.00, 197.0, 257.4)"> </text><text xml:space="preserve" font-family="Inconsolata-Regular,Inconsolata" font-size="31.0" fill="#000000" transform="matrix(1.00, 0.00, -0.00, -1.00, 212.5, 257.4)"> </text><text xml:space="preserve" font-family="Inconsolata-Regular,Inconsolata" font-size="31.0" fill="#000000" transform="matrix(1.00, 0.00, -0.00, -1.00, 228.0, 257.4)"> </text><text xml:space="preserve" font-family="Inconsolata-Regular,Inconsolata" font-size="31.0" fill="#A3B0B0" transform="matrix(1.00, 0.00, -0.00, -1.00, 243.5, 257.4)">{</text><text xml:space="preserve" font-family="Inconsolata-Regular,Inconsolata" font-size="31.0" fill="#000000" transform="matrix(1.00, 0.00, -0.00, -1.00, 259.0, 257.4)"> </text><text xml:space="preserve" font-family="Inconsolata-Regular,Inconsolata" font-size="31.0" fill="#2C9DDA" transform="matrix(1.00, 0.00, -0.00, -1.00, 119.5, 224.4)"> </text><text xml:space="preserve" font-family="Inconsolata-Regular,Inconsolata" font-size="31.0" fill="#2C9DDA" transform="matrix(1.00, 0.00, -0.00, -1.00, 135.0, 224.4)"> </text><text xml:space="preserve" font-family="Inconsolata-Regular,Inconsolata" font-size="31.0" fill="#2C9DDA" transform="matrix(1.00, 0.00, -0.00, -1.00, 150.5, 224.4)">9</text><text xml:space="preserve" font-family="Inconsolata-Regular,Inconsolata" font-size="31.0" fill="#2C9DDA" transform="matrix(1.00, 0.00, -0.00, -1.00, 166.0, 224.4)"> </text><text xml:space="preserve" font-family="Inconsolata-Regular,Inconsolata" font-size="31.0" fill="#000000" transform="matrix(1.00, 0.00, -0.00, -1.00, 181.5, 224.4)"> </text><text xml:space="preserve" font-family="Inconsolata-Regular,Inconsolata" font-size="31.0" fill="#000000" transform="matrix(1.00, 0.00, -0.00, -1.00, 197.0, 224.4)"> </text><text xml:space="preserve" font-family="Inconsolata-Regular,Inconsolata" font-size="31.0" fill="#000000" transform="matrix(1.00, 0.00, -0.00, -1.00, 212.5, 224.4)"> </text><text xml:space="preserve" font-family="Inconsolata-Regular,Inconsolata" font-size="31.0" fill="#000000" transform="matrix(1.00, 0.00, -0.00, -1.00, 228.0, 224.4)"> </text><text xml:space="preserve" font-family="Inconsolata-Regular,Inconsolata" font-size="31.0" fill="#000000" transform="matrix(1.00, 0.00, -0.00, -1.00, 243.5, 224.4)"> </text><text xml:space="preserve" font-family="Inconsolata-Regular,Inconsolata" font-size="31.0" fill="#000000" transform="matrix(1.00, 0.00, -0.00, -1.00, 259.0, 224.4)"> </text><text xml:space="preserve" font-family="Inconsolata-Regular,Inconsolata" font-size="31.0" fill="#000000" transform="matrix(1.00, 0.00, -0.00, -1.00, 274.5, 224.4)"> </text><text xml:space="preserve" font-family="Inconsolata-Regular,Inconsolata" font-size="31.0" fill="#000000" transform="matrix(1.00, 0.00, -0.00, -1.00, 290.0, 224.4)"> </text><text xml:space="preserve" font-family="Inconsolata-Regular,Inconsolata" font-size="31.0" fill="#D6601A" transform="matrix(1.00, 0.00, -0.00, -1.00, 305.5, 224.4)">$</text><text xml:space="preserve" font-family="Inconsolata-Regular,Inconsolata" font-size="31.0" fill="#D6601A" transform="matrix(1.00, 0.00, -0.00, -1.00, 321.0, 224.4)">t</text><text xml:space="preserve" font-family="Inconsolata-Regular,Inconsolata" font-size="31.0" fill="#D6601A" transform="matrix(1.00, 0.00, -0.00, -1.00, 336.5, 224.4)">h</text><text xml:space="preserve" font-family="Inconsolata-Regular,Inconsolata" font-size="31.0" fill="#D6601A" transform="matrix(1.00, 0.00, -0.00, -1.00, 352.0, 224.4)">i</text><text xml:space="preserve" font-family="Inconsolata-Regular,Inconsolata" font-size="31.0" fill="#D6601A" transform="matrix(1.00, 0.00, -0.00, -1.00, 367.5, 224.4)">s</text><text xml:space="preserve" font-family="Inconsolata-Regular,Inconsolata" font-size="31.0" fill="#A3B0B0" transform="matrix(1.00, 0.00, -0.00, -1.00, 383.0, 224.4)">-</text><text xml:space="preserve" font-family="Inconsolata-Regular,Inconsolata" font-size="31.0" fill="#A3B0B0" transform="matrix(1.00, 0.00, -0.00, -1.00, 398.5, 224.4)">&gt;</text><text xml:space="preserve" font-family="Inconsolata-Regular,Inconsolata" font-size="31.0" fill="#94A4A6" transform="matrix(1.00, 0.00, -0.00, -1.00, 414.0, 224.4)">p</text><text xml:space="preserve" font-family="Inconsolata-Regular,Inconsolata" font-size="31.0" fill="#94A4A6" transform="matrix(1.00, 0.00, -0.00, -1.00, 429.5, 224.4)">a</text><text xml:space="preserve" font-family="Inconsolata-Regular,Inconsolata" font-size="31.0" fill="#94A4A6" transform="matrix(1.00, 0.00, -0.00, -1.00, 445.0, 224.4)">r</text><text xml:space="preserve" font-family="Inconsolata-Regular,Inconsolata" font-size="31.0" fill="#94A4A6" transform="matrix(1.00, 0.00, -0.00, -1.00, 460.5, 224.4)">a</text><text xml:space="preserve" font-family="Inconsolata-Regular,Inconsolata" font-size="31.0" fill="#94A4A6" transform="matrix(1.00, 0.00, -0.00, -1.00, 476.0, 224.4)">m</text><text xml:space="preserve" font-family="Inconsolata-Regular,Inconsolata" font-size="31.0" fill="#94A4A6" transform="matrix(1.00, 0.00, -0.00, -1.00, 491.5, 224.4)">e</text><text xml:space="preserve" font-family="Inconsolata-Regular,Inconsolata" font-size="31.0" fill="#94A4A6" transform="matrix(1.00, 0.00, -0.00, -1.00, 507.0, 224.4)">t</text><text xml:space="preserve" font-family="Inconsolata-Regular,Inconsolata" font-size="31.0" fill="#94A4A6" transform="matrix(1.00, 0.00, -0.00, -1.00, 522.5, 224.4)">e</text><text xml:space="preserve" font-family="Inconsolata-Regular,Inconsolata" font-size="31.0" fill="#94A4A6" transform="matrix(1.00, 0.00, -0.00, -1.00, 538.0, 224.4)">r</text><text xml:space="preserve" font-family="Inconsolata-Regular,Inconsolata" font-size="31.0" fill="#94A4A6" transform="matrix(1.00, 0.00, -0.00, -1.00, 553.5, 224.4)">s</text><text xml:space="preserve" font-family="Inconsolata-Regular,Inconsolata" font-size="31.0" fill="#000000" transform="matrix(1.00, 0.00, -0.00, -1.00, 569.0, 224.4)"> </text><text xml:space="preserve" font-family="Inconsolata-Regular,Inconsolata" font-size="31.0" fill="#A3B0B0" transform="matrix(1.00, 0.00, -0.00, -1.00, 584.5, 224.4)">=</text><text xml:space="preserve" font-family="Inconsolata-Regular,Inconsolata" font-size="31.0" fill="#000000" transform="matrix(1.00, 0.00, -0.00, -1.00, 600.0, 224.4)"> </text><text xml:space="preserve" font-family="Inconsolata-Regular,Inconsolata" font-size="31.0" fill="#D6601A" transform="matrix(1.00, 0.00, -0.00, -1.00, 615.5, 224.4)">$</text><text xml:space="preserve" font-family="Inconsolata-Regular,Inconsolata" font-size="31.0" fill="#D6601A" transform="matrix(1.00, 0.00, -0.00, -1.00, 631.0, 224.4)">p</text><text xml:space="preserve" font-family="Inconsolata-Regular,Inconsolata" font-size="31.0" fill="#D6601A" transform="matrix(1.00, 0.00, -0.00, -1.00, 646.5, 224.4)">a</text><text xml:space="preserve" font-family="Inconsolata-Regular,Inconsolata" font-size="31.0" fill="#D6601A" transform="matrix(1.00, 0.00, -0.00, -1.00, 662.0, 224.4)">r</text><text xml:space="preserve" font-family="Inconsolata-Regular,Inconsolata" font-size="31.0" fill="#D6601A" transform="matrix(1.00, 0.00, -0.00, -1.00, 677.5, 224.4)">a</text><text xml:space="preserve" font-family="Inconsolata-Regular,Inconsolata" font-size="31.0" fill="#D6601A" transform="matrix(1.00, 0.00, -0.00, -1.00, 693.0, 224.4)">m</text><text xml:space="preserve" font-family="Inconsolata-Regular,Inconsolata" font-size="31.0" fill="#D6601A" transform="matrix(1.00, 0.00, -0.00, -1.00, 708.5, 224.4)">s</text><text xml:space="preserve" font-family="Inconsolata-Regular,Inconsolata" font-size="31.0" fill="#A3B0B0" transform="matrix(1.00, 0.00, -0.00, -1.00, 724.0, 224.4)">;</text><text xml:space="preserve" font-family="Inconsolata-Regular,Inconsolata" font-size="31.0" fill="#000000" transform="matrix(1.00, 0.00, -0.00, -1.00, 739.5, 224.4)"> </text><text xml:space="preserve" font-family="Inconsolata-Regular,Inconsolata" font-size="31.0" fill="#2C9DDA" transform="matrix(1.00, 0.00, -0.00, -1.00, 119.5, 191.4)"> </text><text xml:space="preserve" font-family="Inconsolata-Regular,Inconsolata" font-size="31.0" fill="#2C9DDA" transform="matrix(1.00, 0.00, -0.00, -1.00, 135.0, 191.4)">1</text><text xml:space="preserve" font-family="Inconsolata-Regular,Inconsolata" font-size="31.0" fill="#2C9DDA" transform="matrix(1.00, 0.00, -0.00, -1.00, 150.5, 191.4)">0</text><text xml:space="preserve" font-family="Inconsolata-Regular,Inconsolata" font-size="31.0" fill="#2C9DDA" transform="matrix(1.00, 0.00, -0.00, -1.00, 166.0, 191.4)"> </text><text xml:space="preserve" font-family="Inconsolata-Regular,Inconsolata" font-size="31.0" fill="#000000" transform="matrix(1.00, 0.00, -0.00, -1.00, 181.5, 191.4)"> </text><text xml:space="preserve" font-family="Inconsolata-Regular,Inconsolata" font-size="31.0" fill="#000000" transform="matrix(1.00, 0.00, -0.00, -1.00, 197.0, 191.4)"> </text><text xml:space="preserve" font-family="Inconsolata-Regular,Inconsolata" font-size="31.0" fill="#000000" transform="matrix(1.00, 0.00, -0.00, -1.00, 212.5, 191.4)"> </text><text xml:space="preserve" font-family="Inconsolata-Regular,Inconsolata" font-size="31.0" fill="#000000" transform="matrix(1.00, 0.00, -0.00, -1.00, 228.0, 191.4)"> </text><text xml:space="preserve" font-family="Inconsolata-Regular,Inconsolata" font-size="31.0" fill="#A3B0B0" transform="matrix(1.00, 0.00, -0.00, -1.00, 243.5, 191.4)">}</text><text xml:space="preserve" font-family="Inconsolata-Regular,Inconsolata" font-size="31.0" fill="#000000" transform="matrix(1.00, 0.00, -0.00, -1.00, 259.0, 191.4)"> </text><text xml:space="preserve" font-family="Inconsolata-Regular,Inconsolata" font-size="31.0" fill="#2C9DDA" transform="matrix(1.00, 0.00, -0.00, -1.00, 119.5, 158.4)"> </text><text xml:space="preserve" font-family="Inconsolata-Regular,Inconsolata" font-size="31.0" fill="#2C9DDA" transform="matrix(1.00, 0.00, -0.00, -1.00, 135.0, 158.4)">1</text><text xml:space="preserve" font-family="Inconsolata-Regular,Inconsolata" font-size="31.0" fill="#2C9DDA" transform="matrix(1.00, 0.00, -0.00, -1.00, 150.5, 158.4)">1</text><text xml:space="preserve" font-family="Inconsolata-Regular,Inconsolata" font-size="31.0" fill="#2C9DDA" transform="matrix(1.00, 0.00, -0.00, -1.00, 166.0, 158.4)"> </text><text xml:space="preserve" font-family="Inconsolata-Regular,Inconsolata" font-size="31.0" fill="#A3B0B0" transform="matrix(1.00, 0.00, -0.00, -1.00, 181.5, 158.4)">}</text><text xml:space="preserve" font-family="Inconsolata-Regular,Inconsolata" font-size="31.0" fill="#000000" transform="matrix(1.00, 0.00, -0.00, -1.00, 197.0, 158.4)"> </text><text xml:space="preserve" font-family="Helvetica-Light,Helvetica" font-size="80.0" fill="#000000" transform="matrix(1.00, 0.00, -0.00, -1.00, 236.4, 656.6)">M</text><text xml:space="preserve" font-family="Helvetica-Light,Helvetica" font-size="80.0" fill="#000000" transform="matrix(1.00, 0.00, -0.00, -1.00, 303.0, 656.6)">u</text><text xml:space="preserve" font-family="Helvetica-Light,Helvetica" font-size="80.0" fill="#000000" transform="matrix(1.00, 0.00, -0.00, -1.00, 347.5, 656.6)">t</text><text xml:space="preserve" font-family="Helvetica-Light,Helvetica" font-size="80.0" fill="#000000" transform="matrix(1.00, 0.00, -0.00, -1.00, 369.7, 656.6)">a</text><text xml:space="preserve" font-family="Helvetica-Light,Helvetica" font-size="80.0" fill="#000000" transform="matrix(1.00, 0.00, -0.00, -1.00, 414.2, 656.6)">b</text><text xml:space="preserve" font-family="Helvetica-Light,Helvetica" font-size="80.0" fill="#000000" transform="matrix(1.00, 0.00, -0.00, -1.00, 463.1, 656.6)">l</text><text xml:space="preserve" font-family="Helvetica-Light,Helvetica" font-size="80.0" fill="#000000" transform="matrix(1.00, 0.00, -0.00, -1.00, 480.8, 656.6)">e</text><text xml:space="preserve" font-family="Helvetica-Light,Helvetica" font-size="80.0" fill="#000000" transform="matrix(1.00, 0.00, -0.00, -1.00, 525.3, 656.6)"> </text><text xml:space="preserve" font-family="Helvetica-Light,Helvetica" font-size="80.0" fill="#000000" transform="matrix(1.00, 0.00, -0.00, -1.00, 547.6, 656.6)">O</text><text xml:space="preserve" font-family="Helvetica-Light,Helvetica" font-size="80.0" fill="#000000" transform="matrix(1.00, 0.00, -0.00, -1.00, 609.8, 656.6)">b</text><text xml:space="preserve" font-family="Helvetica-Light,Helvetica" font-size="80.0" fill="#000000" transform="matrix(1.00, 0.00, -0.00, -1.00, 658.7, 656.6)">j</text><text xml:space="preserve" font-family="Helvetica-Light,Helvetica" font-size="80.0" fill="#000000" transform="matrix(1.00, 0.00, -0.00, -1.00, 676.4, 656.6)">e</text><text xml:space="preserve" font-family="Helvetica-Light,Helvetica" font-size="80.0" fill="#000000" transform="matrix(1.00, 0.00, -0.00, -1.00, 720.9, 656.6)">c</text><text xml:space="preserve" font-family="Helvetica-Light,Helvetica" font-size="80.0" fill="#000000" transform="matrix(1.00, 0.00, -0.00, -1.00, 765.4, 656.6)">t</text></g></svg>