<?xml version="1.0" encoding="UTF-8" standalone="no"?><svg xmlns="http://www.w3.org/2000/svg" xmlns:xlink="http://www.w3.org/1999/xlink" clip-rule="evenodd" stroke-miterlimit="10" viewBox="0 0 1024 768"><desc>SVG generated by Keynote</desc><defs></defs><g transform="matrix(1.00, 0.00, -0.00, -1.00, 0.0, 768.0)"><path d="M 0.0 768.0 L 1024.0 768.0 L 1024.0 0.0 L 0.0 0.0 Z M 0.0 768.0 " fill="#FEFFFF"></path><text xml:space="preserve" font-family="Helvetica-Light,Helvetica" font-size="58.0" fill="#000000" transform="matrix(1.00, 0.00, -0.00, -1.00, 211.2, 645.8)">U</text><text xml:space="preserve" font-family="Helvetica-Light,Helvetica" font-size="58.0" fill="#000000" transform="matrix(1.00, 0.00, -0.00, -1.00, 253.1, 645.8)">U</text><text xml:space="preserve" font-family="Helvetica-Light,Helvetica" font-size="58.0" fill="#000000" transform="matrix(1.00, 0.00, -0.00, -1.00, 295.0, 645.8)">I</text><text xml:space="preserve" font-family="Helvetica-Light,Helvetica" font-size="58.0" fill="#000000" transform="matrix(1.00, 0.00, -0.00, -1.00, 311.1, 645.8)">D</text><text xml:space="preserve" font-family="Helvetica-Light,Helvetica" font-size="58.0" fill="#000000" transform="matrix(1.00, 0.00, -0.00, -1.00, 353.0, 645.8)"> </text><text xml:space="preserve" font-family="Helvetica-Light,Helvetica" font-size="58.0" fill="#000000" transform="matrix(1.00, 0.00, -0.00, -1.00, 369.1, 645.8)">-</text><text xml:space="preserve" font-family="Helvetica-Light,Helvetica" font-size="58.0" fill="#000000" transform="matrix(1.00, 0.00, -0.00, -1.00, 388.4, 645.8)"> </text><text xml:space="preserve" font-family="Helvetica-Light,Helvetica" font-size="58.0" fill="#000000" transform="matrix(1.00, 0.00, -0.00, -1.00, 404.5, 645.8)">o</text><text xml:space="preserve" font-family="Helvetica-Light,Helvetica" font-size="58.0" fill="#000000" transform="matrix(1.00, 0.00, -0.00, -1.00, 436.8, 645.8)">n</text><text xml:space="preserve" font-family="Helvetica-Light,Helvetica" font-size="58.0" fill="#000000" transform="matrix(1.00, 0.00, -0.00, -1.00, 469.0, 645.8)">l</text><text xml:space="preserve" font-family="Helvetica-Light,Helvetica" font-size="58.0" fill="#000000" transform="matrix(1.00, 0.00, -0.00, -1.00, 481.9, 645.8)">y</text><text xml:space="preserve" font-family="Helvetica-Light,Helvetica" font-size="58.0" fill="#000000" transform="matrix(1.00, 0.00, -0.00, -1.00, 510.9, 645.8)"> </text><text xml:space="preserve" font-family="Helvetica-Light,Helvetica" font-size="58.0" fill="#000000" transform="matrix(1.00, 0.00, -0.00, -1.00, 527.0, 645.8)">n</text><text xml:space="preserve" font-family="Helvetica-Light,Helvetica" font-size="58.0" fill="#000000" transform="matrix(1.00, 0.00, -0.00, -1.00, 559.3, 645.8)">e</text><text xml:space="preserve" font-family="Helvetica-Light,Helvetica" font-size="58.0" fill="#000000" transform="matrix(1.00, 0.00, -0.00, -1.00, 591.5, 645.8)">e</text><text xml:space="preserve" font-family="Helvetica-Light,Helvetica" font-size="58.0" fill="#000000" transform="matrix(1.00, 0.00, -0.00, -1.00, 623.8, 645.8)">d</text><text xml:space="preserve" font-family="Helvetica-Light,Helvetica" font-size="58.0" fill="#000000" transform="matrix(1.00, 0.00, -0.00, -1.00, 659.2, 645.8)"> </text><text xml:space="preserve" font-family="Helvetica-Light,Helvetica" font-size="58.0" fill="#000000" transform="matrix(1.00, 0.00, -0.00, -1.00, 675.3, 645.8)">w</text><text xml:space="preserve" font-family="Helvetica-Light,Helvetica" font-size="58.0" fill="#000000" transform="matrix(1.00, 0.00, -0.00, -1.00, 717.2, 645.8)">r</text><text xml:space="preserve" font-family="Helvetica-Light,Helvetica" font-size="58.0" fill="#000000" transform="matrix(1.00, 0.00, -0.00, -1.00, 736.5, 645.8)">i</text><text xml:space="preserve" font-family="Helvetica-Light,Helvetica" font-size="58.0" fill="#000000" transform="matrix(1.00, 0.00, -0.00, -1.00, 749.4, 645.8)">t</text><text xml:space="preserve" font-family="Helvetica-Light,Helvetica" font-size="58.0" fill="#000000" transform="matrix(1.00, 0.00, -0.00, -1.00, 765.5, 645.8)">e</text><text xml:space="preserve" font-family="Helvetica-Light,Helvetica" font-size="58.0" fill="#000000" transform="matrix(1.00, 0.00, -0.00, -1.00, 797.8, 645.8)">s</text><image xlink:href="8C82AC4743963C3684B1409405CEDC03.png" width="85.00" height="69.00" transform="matrix(1.00, 0.00, -0.00, -1.00, 247.7, 530.4)" opacity="0.50"></image><g><clipPath id="clip0x6080018b56c0"><path d="M 251.0 529.0 L 330.0 529.0 L 330.0 466.0 L 251.0 466.0 Z M 250.7 529.4 "></path></clipPath><g clip-path="url(#clip0x6080018b56c0)"><image xlink:href="../../E8B18B26-1A63-4910-AEF5-8D682BE7AC19/assets/C3C0FC898C94653CAF8AD846D6CCD108.png" width="600.00" height="600.00" transform="matrix(0.50, 0.00, -0.00, -0.50, 251.0, 529.0)"></image></g></g><g><clipPath id="clip0x6080018b5900"><path d="M 248.7 466.2 L 331.7 466.2 L 331.7 529.4 L 248.7 529.4 Z M 248.7 466.2 "></path></clipPath><g clip-path="url(#clip0x6080018b5900)"><text xml:space="preserve" font-family="Helvetica-Light,Helvetica" font-size="24.0" fill="#FEFFFE" transform="matrix(1.00, 0.00, -0.00, -1.00, 267.5, 488.9)">A</text><text xml:space="preserve" font-family="Helvetica-Light,Helvetica" font-size="24.0" fill="#FEFFFE" transform="matrix(1.00, 0.00, -0.00, -1.00, 283.5, 488.9)">p</text><text xml:space="preserve" font-family="Helvetica-Light,Helvetica" font-size="24.0" fill="#FEFFFE" transform="matrix(1.00, 0.00, -0.00, -1.00, 298.2, 488.9)">p</text></g></g><image xlink:href="6E4655EEFBAA7E2F3E5CE0EA372F9A4E.png" width="85.00" height="69.00" transform="matrix(1.00, 0.00, -0.00, -1.00, 731.3, 530.4)" opacity="0.50"></image><g><clipPath id="clip0x6080018b5cc0"><path d="M 734.0 529.0 L 813.0 529.0 L 813.0 466.0 L 734.0 466.0 Z M 734.3 529.4 "></path></clipPath><g clip-path="url(#clip0x6080018b5cc0)"><image xlink:href="../../E8B18B26-1A63-4910-AEF5-8D682BE7AC19/assets/C3C0FC898C94653CAF8AD846D6CCD108.png" width="600.00" height="600.00" transform="matrix(0.50, 0.00, -0.00, -0.50, 734.0, 529.0)"></image></g></g><g><clipPath id="clip0x6100028ab400"><path d="M 732.3 466.2 L 815.3 466.2 L 815.3 529.4 L 732.3 529.4 Z M 732.3 466.2 "></path></clipPath><g clip-path="url(#clip0x6100028ab400)"><text xml:space="preserve" font-family="Helvetica-Light,Helvetica" font-size="24.0" fill="#FEFFFE" transform="matrix(1.00, 0.00, -0.00, -1.00, 757.2, 488.9)">D</text><text xml:space="preserve" font-family="Helvetica-Light,Helvetica" font-size="24.0" fill="#FEFFFE" transform="matrix(1.00, 0.00, -0.00, -1.00, 774.5, 488.9)">B</text></g></g><path d="M 386.3 0.3 L 384.3 0.3 C 256.2 0.3 128.1 -0.0 0.0 0.0 " fill="none" stroke="#000000" stroke-width="5.00" transform="matrix(1.00, 0.00, 0.00, -1.00, 329.7, 497.8)"></path><path d="M 713.5 487.3 L 733.9 497.5 L 713.5 507.7 Z M 713.5 487.3 " fill="#000000"></path><text xml:space="preserve" font-family="Helvetica-Light,Helvetica" font-size="26.0" fill="#000000" transform="matrix(1.00, 0.00, -0.00, -1.00, 467.7, 463.0)">d</text><text xml:space="preserve" font-family="Helvetica-Light,Helvetica" font-size="26.0" fill="#000000" transform="matrix(1.00, 0.00, -0.00, -1.00, 483.6, 463.0)">b</text><text xml:space="preserve" font-family="Helvetica-Light,Helvetica" font-size="26.0" fill="#000000" transform="matrix(1.00, 0.00, -0.00, -1.00, 499.5, 463.0)"> </text><text xml:space="preserve" font-family="Helvetica-Light,Helvetica" font-size="26.0" fill="#000000" transform="matrix(1.00, 0.00, -0.00, -1.00, 506.7, 463.0)">w</text><text xml:space="preserve" font-family="Helvetica-Light,Helvetica" font-size="26.0" fill="#000000" transform="matrix(1.00, 0.00, -0.00, -1.00, 525.5, 463.0)">r</text><text xml:space="preserve" font-family="Helvetica-Light,Helvetica" font-size="26.0" fill="#000000" transform="matrix(1.00, 0.00, -0.00, -1.00, 534.2, 463.0)">i</text><text xml:space="preserve" font-family="Helvetica-Light,Helvetica" font-size="26.0" fill="#000000" transform="matrix(1.00, 0.00, -0.00, -1.00, 539.9, 463.0)">t</text><text xml:space="preserve" font-family="Helvetica-Light,Helvetica" font-size="26.0" fill="#000000" transform="matrix(1.00, 0.00, -0.00, -1.00, 547.2, 463.0)">e</text><image xlink:href="0A23905F799009CEC30669705F21D34D.png" width="85.00" height="69.00" transform="matrix(1.00, 0.00, -0.00, -1.00, 247.7, 406.2)" opacity="0.50"></image><g><clipPath id="clip0x600001cb8600"><path d="M 251.0 405.0 L 330.0 405.0 L 330.0 342.0 L 251.0 342.0 Z M 250.7 405.2 "></path></clipPath><g clip-path="url(#clip0x600001cb8600)"><image xlink:href="../../E8B18B26-1A63-4910-AEF5-8D682BE7AC19/assets/C3C0FC898C94653CAF8AD846D6CCD108.png" width="600.00" height="600.00" transform="matrix(0.50, 0.00, -0.00, -0.50, 251.0, 405.0)"></image></g></g><g><clipPath id="clip0x6080018b5f00"><path d="M 248.7 341.9 L 331.7 341.9 L 331.7 405.2 L 248.7 405.2 Z M 248.7 341.9 "></path></clipPath><g clip-path="url(#clip0x6080018b5f00)"><text xml:space="preserve" font-family="Helvetica-Light,Helvetica" font-size="24.0" fill="#FEFFFE" transform="matrix(1.00, 0.00, -0.00, -1.00, 267.5, 364.7)">A</text><text xml:space="preserve" font-family="Helvetica-Light,Helvetica" font-size="24.0" fill="#FEFFFE" transform="matrix(1.00, 0.00, -0.00, -1.00, 283.5, 364.7)">p</text><text xml:space="preserve" font-family="Helvetica-Light,Helvetica" font-size="24.0" fill="#FEFFFE" transform="matrix(1.00, 0.00, -0.00, -1.00, 298.2, 364.7)">p</text></g></g><image xlink:href="A04F6199ACD424AD09C067B1F62CDFE0.png" width="85.00" height="69.00" transform="matrix(1.00, 0.00, -0.00, -1.00, 731.3, 406.2)" opacity="0.50"></image><g><clipPath id="clip0x600001cb87e0"><path d="M 734.0 405.0 L 813.0 405.0 L 813.0 342.0 L 734.0 342.0 Z M 734.3 405.2 "></path></clipPath><g clip-path="url(#clip0x600001cb87e0)"><image xlink:href="../../E8B18B26-1A63-4910-AEF5-8D682BE7AC19/assets/C3C0FC898C94653CAF8AD846D6CCD108.png" width="600.00" height="600.00" transform="matrix(0.50, 0.00, -0.00, -0.50, 734.0, 405.0)"></image></g></g><g><clipPath id="clip0x6100028ace40"><path d="M 732.3 341.9 L 815.3 341.9 L 815.3 405.2 L 732.3 405.2 Z M 732.3 341.9 "></path></clipPath><g clip-path="url(#clip0x6100028ace40)"><text xml:space="preserve" font-family="Helvetica-Light,Helvetica" font-size="24.0" fill="#FEFFFE" transform="matrix(1.00, 0.00, -0.00, -1.00, 757.2, 364.7)">D</text><text xml:space="preserve" font-family="Helvetica-Light,Helvetica" font-size="24.0" fill="#FEFFFE" transform="matrix(1.00, 0.00, -0.00, -1.00, 774.5, 364.7)">B</text></g></g><path d="M 386.3 0.1 L 384.3 0.1 C 256.2 0.1 128.1 -0.0 0.0 0.0 " fill="none" stroke="#000000" stroke-width="5.00" transform="matrix(1.00, 0.00, 0.00, -1.00, 329.7, 373.6)"></path><path d="M 713.5 363.3 L 733.9 373.5 L 713.5 383.7 Z M 713.5 363.3 " fill="#000000"></path><text xml:space="preserve" font-family="Helvetica-Light,Helvetica" font-size="25.0" fill="#000000" transform="matrix(1.00, 0.00, -0.00, -1.00, 449.4, 393.0)">c</text><text xml:space="preserve" font-family="Helvetica-Light,Helvetica" font-size="25.0" fill="#000000" transform="matrix(1.00, 0.00, -0.00, -1.00, 463.3, 393.0)">r</text><text xml:space="preserve" font-family="Helvetica-Light,Helvetica" font-size="25.0" fill="#000000" transform="matrix(1.00, 0.00, -0.00, -1.00, 471.2, 393.0)">e</text><text xml:space="preserve" font-family="Helvetica-Light,Helvetica" font-size="25.0" fill="#000000" transform="matrix(1.00, 0.00, -0.00, -1.00, 485.1, 393.0)">a</text><text xml:space="preserve" font-family="Helvetica-Light,Helvetica" font-size="25.0" fill="#000000" transform="matrix(1.00, 0.00, -0.00, -1.00, 499.0, 393.0)">t</text><text xml:space="preserve" font-family="Helvetica-Light,Helvetica" font-size="25.0" fill="#000000" transform="matrix(1.00, 0.00, -0.00, -1.00, 506.0, 393.0)">e</text><text xml:space="preserve" font-family="Helvetica-Light,Helvetica" font-size="25.0" fill="#000000" transform="matrix(1.00, 0.00, -0.00, -1.00, 519.9, 393.0)"> </text><text xml:space="preserve" font-family="Helvetica-Light,Helvetica" font-size="25.0" fill="#000000" transform="matrix(1.00, 0.00, -0.00, -1.00, 526.8, 393.0)">r</text><text xml:space="preserve" font-family="Helvetica-Light,Helvetica" font-size="25.0" fill="#000000" transform="matrix(1.00, 0.00, -0.00, -1.00, 534.7, 393.0)">e</text><text xml:space="preserve" font-family="Helvetica-Light,Helvetica" font-size="25.0" fill="#000000" transform="matrix(1.00, 0.00, -0.00, -1.00, 548.6, 393.0)">c</text><text xml:space="preserve" font-family="Helvetica-Light,Helvetica" font-size="25.0" fill="#000000" transform="matrix(1.00, 0.00, -0.00, -1.00, 562.5, 393.0)">o</text><text xml:space="preserve" font-family="Helvetica-Light,Helvetica" font-size="25.0" fill="#000000" transform="matrix(1.00, 0.00, -0.00, -1.00, 576.4, 393.0)">r</text><text xml:space="preserve" font-family="Helvetica-Light,Helvetica" font-size="25.0" fill="#000000" transform="matrix(1.00, 0.00, -0.00, -1.00, 584.3, 393.0)">d</text><text xml:space="preserve" font-family="Helvetica-Light,Helvetica" font-size="26.0" fill="#000000" transform="matrix(1.00, 0.00, -0.00, -1.00, 471.5, 338.7)">d</text><text xml:space="preserve" font-family="Helvetica-Light,Helvetica" font-size="26.0" fill="#000000" transform="matrix(1.00, 0.00, -0.00, -1.00, 487.4, 338.7)">b</text><text xml:space="preserve" font-family="Helvetica-Light,Helvetica" font-size="26.0" fill="#000000" transform="matrix(1.00, 0.00, -0.00, -1.00, 503.3, 338.7)"> </text><text xml:space="preserve" font-family="Helvetica-Light,Helvetica" font-size="26.0" fill="#000000" transform="matrix(1.00, 0.00, -0.00, -1.00, 510.5, 338.7)">w</text><text xml:space="preserve" font-family="Helvetica-Light,Helvetica" font-size="26.0" fill="#000000" transform="matrix(1.00, 0.00, -0.00, -1.00, 529.3, 338.7)">r</text><text xml:space="preserve" font-family="Helvetica-Light,Helvetica" font-size="26.0" fill="#000000" transform="matrix(1.00, 0.00, -0.00, -1.00, 538.0, 338.7)">i</text><text xml:space="preserve" font-family="Helvetica-Light,Helvetica" font-size="26.0" fill="#000000" transform="matrix(1.00, 0.00, -0.00, -1.00, 543.7, 338.7)">t</text><text xml:space="preserve" font-family="Helvetica-Light,Helvetica" font-size="26.0" fill="#000000" transform="matrix(1.00, 0.00, -0.00, -1.00, 551.0, 338.7)">e</text><image xlink:href="../../28D38EA7-8603-4ACF-97BA-4DA3D7BCB310/assets/8C82AC4743963C3684B1409405CEDC03.png" width="85.00" height="69.00" transform="matrix(1.00, 0.00, -0.00, -1.00, 247.7, 283.4)" opacity="0.50"></image><g><clipPath id="clip0x6100028ad920"><path d="M 251.0 282.0 L 330.0 282.0 L 330.0 219.0 L 251.0 219.0 Z M 250.7 282.4 "></path></clipPath><g clip-path="url(#clip0x6100028ad920)"><image xlink:href="../../E8B18B26-1A63-4910-AEF5-8D682BE7AC19/assets/C3C0FC898C94653CAF8AD846D6CCD108.png" width="600.00" height="600.00" transform="matrix(0.50, 0.00, -0.00, -0.50, 251.0, 282.0)"></image></g></g><g><clipPath id="clip0x6180020ba940"><path d="M 248.7 219.2 L 331.7 219.2 L 331.7 282.4 L 248.7 282.4 Z M 248.7 219.2 "></path></clipPath><g clip-path="url(#clip0x6180020ba940)"><text xml:space="preserve" font-family="Helvetica-Light,Helvetica" font-size="24.0" fill="#FEFFFE" transform="matrix(1.00, 0.00, -0.00, -1.00, 267.5, 241.9)">A</text><text xml:space="preserve" font-family="Helvetica-Light,Helvetica" font-size="24.0" fill="#FEFFFE" transform="matrix(1.00, 0.00, -0.00, -1.00, 283.5, 241.9)">p</text><text xml:space="preserve" font-family="Helvetica-Light,Helvetica" font-size="24.0" fill="#FEFFFE" transform="matrix(1.00, 0.00, -0.00, -1.00, 298.2, 241.9)">p</text></g></g><image xlink:href="../../28D38EA7-8603-4ACF-97BA-4DA3D7BCB310/assets/6E4655EEFBAA7E2F3E5CE0EA372F9A4E.png" width="85.00" height="69.00" transform="matrix(1.00, 0.00, -0.00, -1.00, 731.3, 283.4)" opacity="0.50"></image><g><clipPath id="clip0x6180020bab20"><path d="M 734.0 282.0 L 813.0 282.0 L 813.0 219.0 L 734.0 219.0 Z M 734.3 282.4 "></path></clipPath><g clip-path="url(#clip0x6180020bab20)"><image xlink:href="../../E8B18B26-1A63-4910-AEF5-8D682BE7AC19/assets/C3C0FC898C94653CAF8AD846D6CCD108.png" width="600.00" height="600.00" transform="matrix(0.50, 0.00, -0.00, -0.50, 734.0, 282.0)"></image></g></g><g><clipPath id="clip0x6100028adb60"><path d="M 732.3 219.2 L 815.3 219.2 L 815.3 282.4 L 732.3 282.4 Z M 732.3 219.2 "></path></clipPath><g clip-path="url(#clip0x6100028adb60)"><text xml:space="preserve" font-family="Helvetica-Light,Helvetica" font-size="24.0" fill="#FEFFFE" transform="matrix(1.00, 0.00, -0.00, -1.00, 757.2, 241.9)">D</text><text xml:space="preserve" font-family="Helvetica-Light,Helvetica" font-size="24.0" fill="#FEFFFE" transform="matrix(1.00, 0.00, -0.00, -1.00, 774.5, 241.9)">B</text></g></g><path d="M 386.3 0.3 L 384.3 0.3 C 256.2 0.3 128.1 -0.0 0.0 0.0 " fill="none" stroke="#000000" stroke-width="5.00" transform="matrix(1.00, 0.00, 0.00, -1.00, 329.7, 250.8)"></path><path d="M 713.5 240.3 L 733.9 250.5 L 713.5 260.7 Z M 713.5 240.3 " fill="#000000"></path><text xml:space="preserve" font-family="Helvetica-Light,Helvetica" font-size="25.0" fill="#000000" transform="matrix(1.00, 0.00, -0.00, -1.00, 449.4, 270.2)">c</text><text xml:space="preserve" font-family="Helvetica-Light,Helvetica" font-size="25.0" fill="#000000" transform="matrix(1.00, 0.00, -0.00, -1.00, 463.3, 270.2)">r</text><text xml:space="preserve" font-family="Helvetica-Light,Helvetica" font-size="25.0" fill="#000000" transform="matrix(1.00, 0.00, -0.00, -1.00, 471.2, 270.2)">e</text><text xml:space="preserve" font-family="Helvetica-Light,Helvetica" font-size="25.0" fill="#000000" transform="matrix(1.00, 0.00, -0.00, -1.00, 485.1, 270.2)">a</text><text xml:space="preserve" font-family="Helvetica-Light,Helvetica" font-size="25.0" fill="#000000" transform="matrix(1.00, 0.00, -0.00, -1.00, 499.0, 270.2)">t</text><text xml:space="preserve" font-family="Helvetica-Light,Helvetica" font-size="25.0" fill="#000000" transform="matrix(1.00, 0.00, -0.00, -1.00, 506.0, 270.2)">e</text><text xml:space="preserve" font-family="Helvetica-Light,Helvetica" font-size="25.0" fill="#000000" transform="matrix(1.00, 0.00, -0.00, -1.00, 519.9, 270.2)"> </text><text xml:space="preserve" font-family="Helvetica-Light,Helvetica" font-size="25.0" fill="#000000" transform="matrix(1.00, 0.00, -0.00, -1.00, 526.8, 270.2)">r</text><text xml:space="preserve" font-family="Helvetica-Light,Helvetica" font-size="25.0" fill="#000000" transform="matrix(1.00, 0.00, -0.00, -1.00, 534.7, 270.2)">e</text><text xml:space="preserve" font-family="Helvetica-Light,Helvetica" font-size="25.0" fill="#000000" transform="matrix(1.00, 0.00, -0.00, -1.00, 548.6, 270.2)">c</text><text xml:space="preserve" font-family="Helvetica-Light,Helvetica" font-size="25.0" fill="#000000" transform="matrix(1.00, 0.00, -0.00, -1.00, 562.5, 270.2)">o</text><text xml:space="preserve" font-family="Helvetica-Light,Helvetica" font-size="25.0" fill="#000000" transform="matrix(1.00, 0.00, -0.00, -1.00, 576.4, 270.2)">r</text><text xml:space="preserve" font-family="Helvetica-Light,Helvetica" font-size="25.0" fill="#000000" transform="matrix(1.00, 0.00, -0.00, -1.00, 584.3, 270.2)">d</text><text xml:space="preserve" font-family="Helvetica-Light,Helvetica" font-size="26.0" fill="#000000" transform="matrix(1.00, 0.00, -0.00, -1.00, 471.5, 216.0)">d</text><text xml:space="preserve" font-family="Helvetica-Light,Helvetica" font-size="26.0" fill="#000000" transform="matrix(1.00, 0.00, -0.00, -1.00, 487.4, 216.0)">b</text><text xml:space="preserve" font-family="Helvetica-Light,Helvetica" font-size="26.0" fill="#000000" transform="matrix(1.00, 0.00, -0.00, -1.00, 503.3, 216.0)"> </text><text xml:space="preserve" font-family="Helvetica-Light,Helvetica" font-size="26.0" fill="#000000" transform="matrix(1.00, 0.00, -0.00, -1.00, 510.5, 216.0)">w</text><text xml:space="preserve" font-family="Helvetica-Light,Helvetica" font-size="26.0" fill="#000000" transform="matrix(1.00, 0.00, -0.00, -1.00, 529.3, 216.0)">r</text><text xml:space="preserve" font-family="Helvetica-Light,Helvetica" font-size="26.0" fill="#000000" transform="matrix(1.00, 0.00, -0.00, -1.00, 538.0, 216.0)">i</text><text xml:space="preserve" font-family="Helvetica-Light,Helvetica" font-size="26.0" fill="#000000" transform="matrix(1.00, 0.00, -0.00, -1.00, 543.7, 216.0)">t</text><text xml:space="preserve" font-family="Helvetica-Light,Helvetica" font-size="26.0" fill="#000000" transform="matrix(1.00, 0.00, -0.00, -1.00, 551.0, 216.0)">e</text><text xml:space="preserve" font-family="Helvetica-Light,Helvetica" font-size="25.0" fill="#000000" transform="matrix(1.00, 0.00, -0.00, -1.00, 449.4, 515.7)">c</text><text xml:space="preserve" font-family="Helvetica-Light,Helvetica" font-size="25.0" fill="#000000" transform="matrix(1.00, 0.00, -0.00, -1.00, 463.3, 515.7)">r</text><text xml:space="preserve" font-family="Helvetica-Light,Helvetica" font-size="25.0" fill="#000000" transform="matrix(1.00, 0.00, -0.00, -1.00, 471.2, 515.7)">e</text><text xml:space="preserve" font-family="Helvetica-Light,Helvetica" font-size="25.0" fill="#000000" transform="matrix(1.00, 0.00, -0.00, -1.00, 485.1, 515.7)">a</text><text xml:space="preserve" font-family="Helvetica-Light,Helvetica" font-size="25.0" fill="#000000" transform="matrix(1.00, 0.00, -0.00, -1.00, 499.0, 515.7)">t</text><text xml:space="preserve" font-family="Helvetica-Light,Helvetica" font-size="25.0" fill="#000000" transform="matrix(1.00, 0.00, -0.00, -1.00, 506.0, 515.7)">e</text><text xml:space="preserve" font-family="Helvetica-Light,Helvetica" font-size="25.0" fill="#000000" transform="matrix(1.00, 0.00, -0.00, -1.00, 519.9, 515.7)"> </text><text xml:space="preserve" font-family="Helvetica-Light,Helvetica" font-size="25.0" fill="#000000" transform="matrix(1.00, 0.00, -0.00, -1.00, 526.8, 515.7)">r</text><text xml:space="preserve" font-family="Helvetica-Light,Helvetica" font-size="25.0" fill="#000000" transform="matrix(1.00, 0.00, -0.00, -1.00, 534.7, 515.7)">e</text><text xml:space="preserve" font-family="Helvetica-Light,Helvetica" font-size="25.0" fill="#000000" transform="matrix(1.00, 0.00, -0.00, -1.00, 548.6, 515.7)">c</text><text xml:space="preserve" font-family="Helvetica-Light,Helvetica" font-size="25.0" fill="#000000" transform="matrix(1.00, 0.00, -0.00, -1.00, 562.5, 515.7)">o</text><text xml:space="preserve" font-family="Helvetica-Light,Helvetica" font-size="25.0" fill="#000000" transform="matrix(1.00, 0.00, -0.00, -1.00, 576.4, 515.7)">r</text><text xml:space="preserve" font-family="Helvetica-Light,Helvetica" font-size="25.0" fill="#000000" transform="matrix(1.00, 0.00, -0.00, -1.00, 584.3, 515.7)">d</text></g></svg>